<svg xmlns="http://www.w3.org/2000/svg" width="719" height="348" style="shape-rendering:geometricPrecision;text-rendering:geometricPrecision;image-rendering:optimizeQuality;fill-rule:evenodd;clip-rule:evenodd"><path style="opacity:.979" fill="#fc481d" d="M62.5 14.5c1.068-.934 2.401-1.268 4-1 1.419.951 3.085 1.284 5 1 .299 7.753-.034 15.42-1 23a53.765 53.765 0 0 0-10 2c1.122-1.447 2.622-2.447 4.5-3a74.061 74.061 0 0 0-.5-21 44.358 44.358 0 0 0-2-1Z"/><path style="opacity:.929" fill="#fb4e1e" d="M66.5 13.5h11v24h-7a139.234 139.234 0 0 0 1-23c-1.915.284-3.581-.049-5-1Z"/><path style="opacity:.963" fill="#fc541f" d="M77.5 13.5h3c0 .667.333 1 1 1 .297 7.42-.036 14.754-1 22v1h-3v-24Z"/><path style="opacity:.832" fill="#fb7322" d="M80.5 13.5h40c-2.448.973-5.115 1.306-8 1-.166 7.008 0 14.008.5 21 2.607.623 5.107 1.29 7.5 2h-40v-1h17c1.967.24 3.801-.094 5.5-1 .5-6.992.666-13.992.5-21h-22c-.667 0-1-.333-1-1Z"/><path style="opacity:.99" fill="#f67924" d="M120.5 13.5h2v24h-2a144.556 144.556 0 0 0-7.5-2c-.5-6.992-.666-13.992-.5-21 2.885.306 5.552-.027 8-1Z"/><path style="opacity:.952" fill="#f07e26" d="M122.5 13.5h10v24h-10v-24Z"/><path style="opacity:.952" fill="#ec8227" d="M132.5 13.5h3v24h-3v-24Z"/><path style="opacity:.952" fill="#e98528" d="M135.5 13.5h7v24h-7v-24Z"/><path style="opacity:.952" fill="#e6882a" d="M142.5 13.5h6v24h-6v-24Z"/><path style="opacity:.952" fill="#e28b2c" d="M148.5 13.5h7v24h-7v-24Z"/><path style="opacity:.897" fill="#de8e2e" d="M155.5 13.5h12c-.342.838-1.008 1.172-2 1h-5v22h7v1h-12v-24Z"/><path style="opacity:.963" fill="#d99331" d="M167.5 13.5h3v24h-3v-1c-1.91-7.056-2.576-14.389-2-22 .992.172 1.658-.162 2-1Z"/><path style="opacity:.952" fill="#d69734" d="M170.5 13.5h7v24h-7v-24Z"/><path style="opacity:.952" fill="#d29a36" d="M177.5 13.5h6v24h-6v-24Z"/><path style="opacity:.952" fill="#cf9d39" d="M183.5 13.5h5v24h-5v-24Z"/><path style="opacity:.952" fill="#cca03b" d="M188.5 13.5h7v24h-7v-24Z"/><path style="opacity:.952" fill="#c8a43d" d="M195.5 13.5h5v24h-5v-24Z"/><path style="opacity:.961" fill="#c6a640" d="M200.5 13.5h5v24h-5v-24Z"/><path style="opacity:.952" fill="#c3a942" d="M205.5 13.5h5v24h-5v-24Z"/><path style="opacity:.952" fill="#bfac45" d="M210.5 13.5h6v24h-6v-24Z"/><path style="opacity:.952" fill="#bcb048" d="M216.5 13.5h8v24h-8v-24Z"/><path style="opacity:.983" fill="#b9b34b" d="M224.5 13.5h2c1.068.934 2.401 1.268 4 1a111.15 111.15 0 0 1-1 21c-1.239.442-2.239 1.11-3 2h-2v-24Z"/><path style="opacity:.984" fill="#b6b64e" d="M226.5 13.5h7v24h-7c.761-.89 1.761-1.558 3-2a111.15 111.15 0 0 0 1-21c-1.599.268-2.932-.066-4-1Z"/><path style="opacity:.952" fill="#b3b950" d="M233.5 13.5h6v24h-6v-24Z"/><path style="opacity:.952" fill="#b0bc53" d="M239.5 13.5h6v24h-6v-24Z"/><path style="opacity:.952" fill="#adbf56" d="M245.5 13.5h5v24h-5v-24Z"/><path style="opacity:.952" fill="#a9c258" d="M250.5 13.5h7v24h-7v-24Z"/><path style="opacity:.959" fill="#a7c55b" d="M257.5 13.5h5c0 .667.333 1 1 1a146.873 146.873 0 0 1-1 23h-5v-24Z"/><path style="opacity:.919" fill="#9fcc62" d="M262.5 13.5h16v24h-15c1.141-.839 2.474-1.506 4-2a111.15 111.15 0 0 0 1-21h-5c-.667 0-1-.333-1-1Z"/><path style="opacity:.952" fill="#9ad167" d="M278.5 13.5h10v24h-10v-24Z"/><path style="opacity:.952" fill="#97d56b" d="M288.5 13.5h4v24h-4v-24Z"/><path style="opacity:.952" fill="#92d76d" d="M292.5 13.5h15v24h-15v-24Z"/><path style="opacity:.952" fill="#8cd56c" d="M307.5 13.5h16v24h-16v-24Z"/><path style="opacity:.952" fill="#86d36b" d="M323.5 13.5h19v24h-19v-24Z"/><path style="opacity:.811" fill="#80d26a" d="M342.5 13.5h60c-2.787.977-5.787 1.31-9 1h-32v21c6.957.886 13.957 1.22 21 1h20v1h-60v-24Z"/><path style="opacity:.973" fill="#6dcc66" d="M402.5 13.5h10v24h-10v-1c-2.787-.977-5.787-1.31-9-1v-21c3.213.31 6.213-.023 9-1Z"/><path style="opacity:.952" fill="#66ca65" d="M412.5 13.5h19v24h-19v-24Z"/><path style="opacity:.952" fill="#60c864" d="M431.5 13.5h19v24h-19v-24Z"/><path style="opacity:.952" fill="#5ac663" d="M450.5 13.5h16v24h-16v-24Z"/><path style="opacity:.952" fill="#54c461" d="M466.5 13.5h19v24h-19v-24Z"/><path style="opacity:.869" fill="#4dc260" d="M485.5 13.5h64c-2.448.973-5.115 1.306-8 1h-38c-.166 7.008 0 14.008.5 21 7.079.98 14.245 1.313 21.5 1h22c.992-.172 1.658.162 2 1h-64v-24Z"/><path style="opacity:.956" fill="#3abc5d" d="M549.5 13.5h13v24h-13c-.342-.838-1.008-1.172-2-1-1.765-.961-3.765-1.295-6-1v-21c2.885.306 5.552-.027 8-1Z"/><path style="opacity:.952" fill="#34ba5c" d="M562.5 13.5h20v24h-20v-24Z"/><path style="opacity:.952" fill="#2eb85a" d="M582.5 13.5h21v24h-21v-24Z"/><path style="opacity:.959" fill="#27b558" d="M603.5 13.5h23c1.068.934 2.401 1.268 4 1v22c-1.599-.268-2.932.066-4 1h-23v-24Z"/><path style="opacity:.976" fill="#21b356" d="M626.5 13.5c9.093-.52 17.426 1.48 25 6 .761.89 1.761 1.558 3 2 1.322 9.492 1.322 18.825 0 28-7.868-7.263-17.201-11.263-28-12 1.068-.934 2.401-1.268 4-1v-22c-1.599.268-2.932-.066-4-1Z"/><path style="opacity:1" fill="#fc5a1f" d="M81.5 14.5h6v22h-7a127.743 127.743 0 0 0 1-22Z"/><path style="opacity:1" fill="#fc6220" d="M87.5 14.5h4c.576 7.611-.09 14.944-2 22h-2v-22Z"/><path style="opacity:1" fill="#fc6620" d="M91.5 14.5h7c.297 7.42-.036 14.754-1 22h-8c1.91-7.056 2.576-14.389 2-22Z"/><path style="opacity:1" fill="#fc6d21" d="M98.5 14.5h5c.166 7.008 0 14.008-.5 21-1.699.906-3.533 1.24-5.5 1a127.743 127.743 0 0 0 1-22Z"/><path style="opacity:1" fill="#dc9030" d="M165.5 14.5c-.576 7.611.09 14.944 2 22h-7v-22h5Z"/><path style="opacity:1" fill="#a3c95f" d="M263.5 14.5h5a111.15 111.15 0 0 1-1 21c-1.526.494-2.859 1.161-4 2h-1a146.873 146.873 0 0 0 1-23Z"/><path style="opacity:1" fill="#79d068" d="M377.5 14.5v21c1.915-.285 3.581.049 5 1-7.043.22-14.043-.114-21-1v-21h16Z"/><path style="opacity:1" fill="#73ce67" d="M377.5 14.5h16v21c3.213-.31 6.213.023 9 1h-20c-1.419-.951-3.085-1.285-5-1v-21Z"/><path style="opacity:1" fill="#47c05f" d="M522.5 14.5v21c1.291-.237 2.291.096 3 1-7.255.313-14.421-.02-21.5-1-.5-6.992-.666-13.992-.5-21h19Z"/><path style="opacity:1" fill="#41be5e" d="M522.5 14.5h19v21c2.235-.295 4.235.039 6 1h-22c-.709-.904-1.709-1.237-3-1v-21Z"/><path style="opacity:.995" fill="#fc3e1d" d="M62.5 14.5c.65.304 1.316.637 2 1a74.061 74.061 0 0 1 .5 21c-1.878.553-3.378 1.553-4.5 3-1.797 1.23-3.797 1.896-6 2 .967-7.914 1.3-15.914 1-24h-4c3.263-2.068 6.93-3.068 11-3Z"/><path style="opacity:.994" fill="#fc371d" d="M51.5 17.5h4c.3 8.086-.033 16.086-1 24l-4 4h-2a185.088 185.088 0 0 0 1-26h-3c1.28-1.431 2.947-2.098 5-2Z"/><path style="opacity:.996" fill="#fc2f1c" d="M46.5 19.5h3c.275 8.72-.058 17.387-1 26-1.406.473-2.073 1.473-2 3l-2 1c-.994-9.486-1.327-19.152-1-29a5.728 5.728 0 0 1 3-1Z"/><path style="opacity:.953" fill="#1bb054" d="M651.5 19.5c17.635 7.474 29.135 20.474 34.5 39a79.077 79.077 0 0 1 2 10c.5 27.331.667 54.665.5 82h19v53h-19c.451 29.37-.049 58.703-1.5 88-4.39 18.534-14.89 32.2-31.5 41 .166-9.339 0-18.673-.5-28-1.129 1.641-2.629 2.641-4.5 3 8.268-7.871 12.768-17.538 13.5-29 .667-67.667.667-135.333 0-203-.31-9.768-3.477-18.434-9.5-26 1.322-9.175 1.322-18.508 0-28-1.239-.442-2.239-1.11-3-2Z"/><path style="opacity:.999" fill="#fc271b" d="M43.5 20.5c-.327 9.848.006 19.514 1 29l-3 4c-1.517.01-2.684.677-3.5 2-.667-10-.667-20 0-30 1.417-.578 2.25-1.578 2.5-3 .473-1.406 1.473-2.073 3-2Z"/><path style="opacity:.997" fill="#fc201b" d="M40.5 22.5c-.25 1.422-1.083 2.422-2.5 3-.667 10-.667 20 0 30 .816-1.323 1.983-1.99 3.5-2-4.58 6.575-7.08 13.908-7.5 22a10200.74 10200.74 0 0 0 0 202 74.568 74.568 0 0 0 2 12 66.74 66.74 0 0 1 4.5 10c-.958-.453-1.792-1.119-2.5-2a240.488 240.488 0 0 0 0 31c1.992.828 3.492 2.161 4.5 4-2.87-.933-5.204-2.6-7-5a10.51 10.51 0 0 0-2.5-3c-.83-99.07-.664-198.07.5-297 1.796-2.4 4.13-4.067 7-5Z"/><path style="opacity:.999" fill="#fc1b1b" d="M33.5 27.5c-1.164 98.93-1.33 197.93-.5 297a10.51 10.51 0 0 1 2.5 3 25.934 25.934 0 0 1-9-8c.039-1.256-.461-2.256-1.5-3-.667-93-.667-186 0-279l1.5-3c1.333-3.333 3.667-5.667 7-7Z"/><path style="opacity:.998" fill="#fc151a" d="m26.5 34.5-1.5 3c-.667 93-.667 186 0 279 1.039.744 1.539 1.744 1.5 3-4.163-3.501-7.163-7.835-9-13v-259c1.793-5.28 4.793-9.614 9-13Z"/><path style="opacity:.981" fill="#fb0d1a" d="M48.5 45.5h51v262h-52l-1-2v-257c-.073-1.527.594-2.527 2-3Z"/><path style="opacity:.963" fill="#fc7321" d="M107.5 45.5h54v262h-54v-262Z"/><path style="opacity:.958" fill="#fc0f1a" d="M17.5 47.5v259c-3.614-5.332-5.781-11.332-6.5-18-.667-74.333-.667-148.667 0-223a82.972 82.972 0 0 1 4-15c.377-1.442 1.21-2.442 2.5-3Z"/><path style="opacity:.999" fill="#fc271b" d="M40.5 299.5c1.762.762 2.762 2.096 3 4 .063 10.21.063 20.21 0 30-.667 0-1-.333-1-1-1.008-1.839-2.508-3.172-4.5-4a240.488 240.488 0 0 1 0-31c.708.881 1.542 1.547 2.5 2Z"/><path style="opacity:.994" fill="#fc2e1c" d="m43.5 303.5 3 2 1 2 1.5 3c.5 7.659.666 15.326.5 23h-6c.063-9.79.063-19.79 0-30Z"/><path style="opacity:.975" fill="#21b356" d="M655.5 332.5c-8.906 5.075-18.572 7.741-29 8 .683-1.676 2.017-2.343 4-2v-22h-4c8.685-1.008 16.685-4.008 24-9 1.871-.359 3.371-1.359 4.5-3 .5 9.327.666 18.661.5 28Z"/><path style="opacity:.996" fill="#fc371d" d="M47.5 307.5h2a10.177 10.177 0 0 0 3 3c.25 1.422 1.083 2.422 2.5 3 .5 7.659.666 15.326.5 23h-3c-2.74-.207-5.074-1.207-7-3h4c.166-7.674 0-15.341-.5-23l-1.5-3Z"/><path style="opacity:.997" fill="#fc3c1d" d="M52.5 310.5a57.68 57.68 0 0 1 8 4v23h-5c-1.291.237-2.291-.096-3-1h3c.166-7.674 0-15.341-.5-23-1.417-.578-2.25-1.578-2.5-3Z"/><path style="opacity:.995" fill="#fc411d" d="M60.5 315.5a6.845 6.845 0 0 1 4 1 121.871 121.871 0 0 1 1 22h-6c-1.599.268-2.932-.066-4-1h5v-22Z"/><path style="opacity:.962" fill="#fc481d" d="M60.5 315.5v-1c2.065.017 4.065.35 6 1 1.419.951 3.085 1.284 5 1 .166 7.341 0 14.674-.5 22-2.04.923-4.207 1.256-6.5 1-1.915.284-3.581-.049-5-1h6c.33-7.363-.003-14.697-1-22a6.845 6.845 0 0 0-4-1Z"/><path style="opacity:.916" fill="#fc4e1e" d="M66.5 315.5c3.679.224 7.346.558 11 1v24c-4.532.318-8.866-.015-13-1 2.293.256 4.46-.077 6.5-1 .5-7.326.666-14.659.5-22-1.915.284-3.581-.049-5-1Z"/><path style="opacity:.963" fill="#fc541f" d="M77.5 316.5h3c0 .667.333 1 1 1v21c-.667 0-1 .333-1 1v1h-3v-24Z"/><path style="opacity:.977" fill="#fc6d21" d="M80.5 316.5h20c.709.904 1.709 1.237 3 1 .166 7.008 0 14.008-.5 21-2.719.944-5.552 1.277-8.5 1 1.068-.934 2.401-1.268 4-1v-21h-17c-.667 0-1-.333-1-1Z"/><path style="opacity:.828" fill="#fb7322" d="M100.5 316.5h20c-2.448.973-5.115 1.306-8 1v21c2.928.065 5.595.732 8 2h-40v-1h14c2.948.277 5.781-.056 8.5-1 .5-6.992.666-13.992.5-21-1.291.237-2.291-.096-3-1Z"/><path style="opacity:.99" fill="#f67924" d="M120.5 316.5h2v24h-2c-2.405-1.268-5.072-1.935-8-2v-21c2.885.306 5.552-.027 8-1Z"/><path style="opacity:.952" fill="#f07e26" d="M122.5 316.5h10v24h-10v-24Z"/><path style="opacity:.952" fill="#ec8227" d="M132.5 316.5h3v24h-3v-24Z"/><path style="opacity:.952" fill="#e98528" d="M135.5 316.5h7v24h-7v-24Z"/><path style="opacity:.952" fill="#e6882a" d="M142.5 316.5h6v24h-6v-24Z"/><path style="opacity:.952" fill="#e28b2c" d="M148.5 316.5h7v24h-7v-24Z"/><path style="opacity:.901" fill="#de8e2e" d="M155.5 316.5h12c-.342.838-1.008 1.172-2 1h-5v21c2.306.493 4.639.826 7 1v1h-12v-24Z"/><path style="opacity:.963" fill="#d99331" d="M167.5 316.5h3v24h-3v-1c-1.91-7.056-2.576-14.389-2-22 .992.172 1.658-.162 2-1Z"/><path style="opacity:.952" fill="#d69734" d="M170.5 316.5h7v24h-7v-24Z"/><path style="opacity:.952" fill="#d29a36" d="M177.5 316.5h6v24h-6v-24Z"/><path style="opacity:.952" fill="#cf9d39" d="M183.5 316.5h5v24h-5v-24Z"/><path style="opacity:.952" fill="#cca03b" d="M188.5 316.5h7v24h-7v-24Z"/><path style="opacity:.952" fill="#c8a43d" d="M195.5 316.5h5v24h-5v-24Z"/><path style="opacity:.961" fill="#c6a640" d="M200.5 316.5h5v24h-5v-24Z"/><path style="opacity:.952" fill="#c3a942" d="M205.5 316.5h5v24h-5v-24Z"/><path style="opacity:.952" fill="#bfac45" d="M210.5 316.5h6v24h-6v-24Z"/><path style="opacity:.952" fill="#bcb048" d="M216.5 316.5h8v24h-8v-24Z"/><path style="opacity:.983" fill="#b9b34b" d="M224.5 316.5h2c1.068.934 2.401 1.268 4 1v21c-1.88-.271-3.213.396-4 2h-2v-24Z"/><path style="opacity:.984" fill="#b6b64e" d="M226.5 316.5h7v24h-7c.787-1.604 2.12-2.271 4-2v-21c-1.599.268-2.932-.066-4-1Z"/><path style="opacity:.952" fill="#b3b950" d="M233.5 316.5h6v24h-6v-24Z"/><path style="opacity:.952" fill="#b0bc53" d="M239.5 316.5h6v24h-6v-24Z"/><path style="opacity:.952" fill="#adbf56" d="M245.5 316.5h5v24h-5v-24Z"/><path style="opacity:.952" fill="#a9c258" d="M250.5 316.5h7v24h-7v-24Z"/><path style="opacity:.96" fill="#a7c65b" d="M257.5 316.5h6v1a146.875 146.875 0 0 1-1 23h-5v-24Z"/><path style="opacity:.92" fill="#9fcc62" d="M263.5 317.5v-1h15v24h-15c1.135-1.713 2.802-2.38 5-2v-21h-5Z"/><path style="opacity:.952" fill="#9ad167" d="M278.5 316.5h10v24h-10v-24Z"/><path style="opacity:.952" fill="#97d56b" d="M288.5 316.5h4v24h-4v-24Z"/><path style="opacity:.952" fill="#92d76d" d="M292.5 316.5h15v24h-15v-24Z"/><path style="opacity:.952" fill="#8cd56c" d="M307.5 316.5h16v24h-16v-24Z"/><path style="opacity:.952" fill="#86d36b" d="M323.5 316.5h19v24h-19v-24Z"/><path style="opacity:.802" fill="#80d26a" d="M342.5 316.5h23c-1.068.934-2.401 1.268-4 1v21a621.449 621.449 0 0 0 41 1v1h-60v-24Z"/><path style="opacity:.973" fill="#6dcc66" d="M402.5 316.5h10v24h-10v-1c-2.787-.977-5.787-1.31-9-1v-21c3.213.31 6.213-.023 9-1Z"/><path style="opacity:.952" fill="#66ca65" d="M412.5 316.5h19v24h-19v-24Z"/><path style="opacity:.952" fill="#60c864" d="M431.5 316.5h19v24h-19v-24Z"/><path style="opacity:.952" fill="#5ac663" d="M450.5 316.5h16v24h-16v-24Z"/><path style="opacity:.952" fill="#54c461" d="M466.5 316.5h19v24h-19v-24Z"/><path style="opacity:.866" fill="#4dc260" d="M485.5 316.5h29c-3.462.982-7.129 1.315-11 1v21a357.042 357.042 0 0 0 36 1h10v1h-64v-24Z"/><path style="opacity:.98" fill="#47c05f" d="M514.5 316.5h35c-2.448.973-5.115 1.306-8 1h-19v21c5.858-.322 11.525.011 17 1a357.042 357.042 0 0 1-36-1v-21c3.871.315 7.538-.018 11-1Z"/><path style="opacity:.956" fill="#3abc5d" d="M549.5 316.5h13v24h-13v-1c-2.448-.973-5.115-1.306-8-1v-21c2.885.306 5.552-.027 8-1Z"/><path style="opacity:.952" fill="#34ba5c" d="M562.5 316.5h20v24h-20v-24Z"/><path style="opacity:.952" fill="#2eb85a" d="M582.5 316.5h21v24h-21v-24Z"/><path style="opacity:.956" fill="#27b558" d="M603.5 316.5h27v22c-1.983-.343-3.317.324-4 2h-23v-24Z"/><path style="opacity:1" fill="#fc5a1f" d="M81.5 317.5h6v21h-6v-21Z"/><path style="opacity:1" fill="#fc6620" d="M87.5 317.5h1v21h3v-21h7v21c-1.599-.268-2.932.066-4 1h-14c0-.667.333-1 1-1h6v-21Z"/><path style="opacity:1" fill="#fc6120" d="M88.5 317.5h3v21h-3v-21Z"/><path style="opacity:1" fill="#dc902f" d="M165.5 317.5c-.576 7.611.09 14.944 2 22a51.569 51.569 0 0 1-7-1v-21h5Z"/><path style="opacity:.991" fill="#a3c95f" d="M263.5 317.5h5v21c-2.198-.38-3.865.287-5 2h-1a146.875 146.875 0 0 0 1-23Z"/><path style="opacity:.999" fill="#79d068" d="M365.5 316.5h37c-2.787.977-5.787 1.31-9 1h-16v21h16c3.213-.31 6.213.023 9 1a621.449 621.449 0 0 1-41-1v-21c1.599.268 2.932-.066 4-1Z"/><path style="opacity:1" fill="#73ce67" d="M393.5 317.5v21h-16v-21h16Z"/><path style="opacity:1" fill="#41be5e" d="M541.5 317.5v21c2.885-.306 5.552.027 8 1h-10c-5.475-.989-11.142-1.322-17-1v-21h19Z"/></svg>