<svg xmlns="http://www.w3.org/2000/svg" width="708" height="353" style="shape-rendering:geometricPrecision;text-rendering:geometricPrecision;image-rendering:optimizeQuality;fill-rule:evenodd;clip-rule:evenodd"><path style="opacity:.993" fill="#fb4e1e" d="M73.5 16.5h1v1c1.765.961 3.765 1.295 6 1v21c-2.235-.295-4.235.039-6 1h-1v-24Z"/><path style="opacity:.987" fill="#fb6f21" d="M74.5 17.5v-1h31v24h-31c1.765-.961 3.765-1.295 6-1h12c2.62.268 5.12-.065 7.5-1 .5-6.658.666-13.325.5-20a207.34 207.34 0 0 0-26-1Z"/><path style="opacity:.936" fill="#fb7322" d="M105.5 16.5h8v24h-8v-24Z"/><path style="opacity:.976" fill="#f77823" d="M113.5 16.5h48c-2.448.973-5.115 1.306-8 1a340.651 340.651 0 0 0-29 1c-.166 6.675 0 13.342.5 20 3.73.96 7.563 1.294 11.5 1h19c2.235-.295 4.235.039 6 1h-48v-24Z"/><path style="opacity:.947" fill="#db9130" d="M162.5 16.5h4v24h-4c.172-.992-.162-1.658-1-2v-20c.838-.342 1.172-1.008 1-2Z"/><path style="opacity:.936" fill="#d89431" d="M166.5 16.5h5v24h-5v-24Z"/><path style="opacity:.936" fill="#d69734" d="M171.5 16.5h7v24h-7v-24Z"/><path style="opacity:.956" fill="#d29a36" d="M178.5 16.5h6v24h-6v-24Z"/><path style="opacity:.955" fill="#d09d39" d="M184.5 16.5h4v24h-4v-24Z"/><path style="opacity:.936" fill="#cca03b" d="M188.5 16.5h7v24h-7v-24Z"/><path style="opacity:.936" fill="#c9a33d" d="M195.5 16.5h6v24h-6v-24Z"/><path style="opacity:.947" fill="#c5a740" d="M201.5 16.5h4v1a61.015 61.015 0 0 1 0 22v1h-4v-24Z"/><path style="opacity:.96" fill="#bfad45" d="M205.5 17.5v-1h11c1.333 8 1.333 16 0 24h-11v-1c1.967.24 3.801-.094 5.5-1a100.2 100.2 0 0 0 0-20c-1.699-.906-3.533-1.24-5.5-1Z"/><path style="opacity:.926" fill="#bcb048" d="M216.5 16.5h8v24h-8c1.333-8 1.333-16 0-24Z"/><path style="opacity:.936" fill="#b9b34b" d="M224.5 16.5h5v24h-5v-24Z"/><path style="opacity:.936" fill="#b4b84f" d="M229.5 16.5h10v24h-10v-24Z"/><path style="opacity:.936" fill="#afbc53" d="M239.5 16.5h6v24h-6v-24Z"/><path style="opacity:.947" fill="#acbf56" d="M245.5 16.5h4c2.252 7.545 2.586 15.212 1 23-.667 0-1 .333-1 1h-4v-24Z"/><path style="opacity:.975" fill="#a6c65c" d="M250.5 16.5h12v24h-13c0-.667.333-1 1-1a51.648 51.648 0 0 0 7-1v-20c-2.728.33-5.062-.337-7-2Z"/><path style="opacity:.936" fill="#a4c85e" d="M262.5 16.5h5v24h-5v-24Z"/><path style="opacity:.936" fill="#a0cc62" d="M267.5 16.5h10v24h-10v-24Z"/><path style="opacity:.936" fill="#9ad167" d="M277.5 16.5h10v24h-10v-24Z"/><path style="opacity:.936" fill="#93d76d" d="M287.5 16.5h18v24h-18v-24Z"/><path style="opacity:.936" fill="#8cd56c" d="M305.5 16.5h16v24h-16v-24Z"/><path style="opacity:.95" fill="#79d068" d="M361.5 16.5h13v24h-13v-1c-.709-.904-1.709-1.237-3-1v-20c1.291.237 2.291-.096 3-1v-1Z"/><path style="opacity:.936" fill="#73ce67" d="M374.5 16.5h16v24h-16v-24Z"/><path style="opacity:.821" fill="#6dcc66" d="M390.5 16.5h63v1h-10a281.686 281.686 0 0 0-33 1 111.15 111.15 0 0 0-1 21h44v1h-63v-24Z"/><path style="opacity:.965" fill="#5ac663" d="M453.5 16.5h9v24h-9v-1c-2.107-.968-4.441-1.302-7-1v-20c2.559.302 4.893-.032 7-1v-1Z"/><path style="opacity:.936" fill="#54c461" d="M462.5 16.5h18v24h-18v-24Z"/><path style="opacity:.936" fill="#4ec260" d="M480.5 16.5h19v24h-19v-24Z"/><path style="opacity:.805" fill="#47c05f" d="M499.5 16.5h65a4341.066 4341.066 0 0 1-47 2 108.41 108.41 0 0 0 1 20.5c15.33.5 30.663.667 46 .5.667 0 1 .333 1 1h-66v-24Z"/><path style="opacity:.936" fill="#30b85a" d="M565.5 16.5h32v24h-32c0-.667-.333-1-1-1-2.448-.973-5.115-1.306-8-1v-20c3.512.555 6.512-.112 9-2Z"/><path style="opacity:.99" fill="#fc431d" d="M73.5 16.5v24h-10c-.166-7.008 0-14.008.5-21a19.606 19.606 0 0 0 3.5-2c1.765-.961 3.765-1.295 6-1Z"/><path style="opacity:.999" fill="#fb6520" d="M74.5 17.5c8.7-.21 17.367.123 26 1 .166 6.675 0 13.342-.5 20-2.38.935-4.88 1.268-7.5 1a116.748 116.748 0 0 0 1-21h-12v21h-1v-21c-2.235.295-4.235-.039-6-1Z"/><path style="opacity:.999" fill="#f07f26" d="M153.5 17.5c-.709.904-1.709 1.237-3 1h-6v21h-1v-21h-9c-.571 7.28.095 14.28 2 21-3.937.294-7.77-.04-11.5-1-.5-6.658-.666-13.325-.5-20a340.651 340.651 0 0 1 29-1Z"/><path style="opacity:1" fill="#c2aa43" d="M205.5 17.5c1.967-.24 3.801.094 5.5 1a100.2 100.2 0 0 1 0 20c-1.699.906-3.533 1.24-5.5 1a61.015 61.015 0 0 0 0-22Z"/><path style="opacity:1" fill="#a9c359" d="M249.5 16.5h1c1.938 1.663 4.272 2.33 7 2v20a51.648 51.648 0 0 1-7 1c1.586-7.788 1.252-15.455-1-23Z"/><path style="opacity:1" fill="#86d46b" d="M321.5 16.5h40v1c-7.015.078-14.015.412-21 1-.33 6.7.003 13.366 1 20a106.226 106.226 0 0 0 20 1v1h-40v-24Z"/><path style="opacity:.999" fill="#66ca65" d="M443.5 17.5c-5.14.988-10.474 1.321-16 1v20c1.291-.237 2.291.096 3 1h-21a111.15 111.15 0 0 1 1-21 281.686 281.686 0 0 1 33-1Z"/><path style="opacity:.999" fill="#60c864" d="M443.5 17.5h10c-2.107.968-4.441 1.302-7 1v20c2.559-.302 4.893.032 7 1h-23c-.709-.904-1.709-1.237-3-1v-20c5.526.321 10.86-.012 16-1Z"/><path style="opacity:.984" fill="#23b457" d="M597.5 16.5c9.672-.166 19.339 0 29 .5 5.439.438 10.439 1.938 15 4.5a59.772 59.772 0 0 0 6.5 4c.824 9.176.657 18.176-.5 27-6.534-5.934-14.201-9.767-23-11.5-8.994-.5-17.994-.666-27-.5v-24Z"/><path style="opacity:1" fill="#fc591f" d="M89.5 18.5v20c-1.291-.237-2.291.096-3 1h-5v-21h8Z"/><path style="opacity:1" fill="#fc601f" d="M89.5 18.5h4a116.748 116.748 0 0 1-1 21h-6c.709-.904 1.709-1.237 3-1v-20Z"/><path style="opacity:1" fill="#ea8428" d="M143.5 39.5h-7c-1.905-6.72-2.571-13.72-2-21h9v21Z"/><path style="opacity:1" fill="#e5882a" d="M150.5 18.5v20c1.915-.285 3.581.049 5 1h-11v-21h6Z"/><path style="opacity:1" fill="#e28b2c" d="M161.5 16.5h1c.172.992-.162 1.658-1 2h-5v20h5c.838.342 1.172 1.008 1 2h-1c-1.765-.961-3.765-1.295-6-1-1.419-.951-3.085-1.285-5-1v-20c1.291.237 2.291-.096 3-1 2.885.306 5.552-.027 8-1Z"/><path style="opacity:1" fill="#de8e2e" d="M161.5 18.5v20h-5v-20h5Z"/><path style="opacity:1" fill="#7fd16a" d="M361.5 17.5c-.709.904-1.709 1.237-3 1v20c1.291-.237 2.291.096 3 1a106.226 106.226 0 0 1-20-1c-.997-6.634-1.33-13.3-1-20a288.335 288.335 0 0 1 21-1Z"/><path style="opacity:1" fill="#3dbd5d" d="M564.5 16.5h1c-2.488 1.888-5.488 2.555-9 2v20c2.885-.306 5.552.027 8 1-15.337.167-30.67 0-46-.5a108.41 108.41 0 0 1-1-20.5 4341.066 4341.066 0 0 0 47-2Z"/><path style="opacity:.897" fill="#fc371c" d="M67.5 17.5a19.606 19.606 0 0 1-3.5 2c-.5 6.992-.666 13.992-.5 21h6c-5.599 1.54-10.932 3.873-16 7-.993-8.15-1.326-16.483-1-25h-3c5.583-2.857 11.583-4.523 18-5Z"/><path style="opacity:.966" fill="#1bb054" d="M641.5 21.5c20.889 8.404 33.722 23.738 38.5 46 .5 27.998.667 55.998.5 84h19v52h-19c.167 27.669 0 55.335-.5 83-3.351 20.435-14.184 35.101-32.5 44 1.316-9.432 1.316-18.765 0-28 5.615-7.669 8.781-16.335 9.5-26 .667-66 .667-132 0-198-.678-9.668-3.844-18.335-9.5-26 1.157-8.824 1.324-17.824.5-27a59.772 59.772 0 0 1-6.5-4Z"/><path style="opacity:.983" fill="#fb2a1c" d="M49.5 22.5h3c-.326 8.517.007 16.85 1 25v1c-1.88-.27-3.213.396-4 2a41.287 41.287 0 0 0-10 14 164.246 164.246 0 0 0 0-35c-1.122 1.13-2.456 1.797-4 2 .79-1.294 1.79-2.46 3-3.5a42.502 42.502 0 0 1 11-5.5Z"/><path style="opacity:.764" fill="#fc211b" d="M39.5 64.5a99.996 99.996 0 0 0-1.5 8c-.667 70-.667 140 0 210a56.494 56.494 0 0 0 2.5 10c.644 11.384-.023 22.384-2 33-.992.172-1.658-.162-2-1a21687.971 21687.971 0 0 1-1-293c1.544-.203 2.878-.87 4-2a164.246 164.246 0 0 1 0 35Z"/><path style="opacity:.999" fill="#fc1b1b" d="M35.5 31.5c-.326 97.695.007 195.362 1 293-2.667-2-5-4.333-7-7a10.122 10.122 0 0 0-1.5-4c-.828-91.707-.662-183.374.5-275 1.676-3.043 4.01-5.377 7-7Z"/><path style="opacity:.998" fill="#fc151a" d="M28.5 38.5a12668.275 12668.275 0 0 0-.5 275 10.122 10.122 0 0 1 1.5 4 27.68 27.68 0 0 1-6-8 23.413 23.413 0 0 0-2.5-6 10925.83 10925.83 0 0 1 .5-255c1.562-3.892 3.895-7.225 7-10Z"/><path style="opacity:.896" fill="#fc0f1a" d="M21.5 48.5a10925.83 10925.83 0 0 0-.5 255 23.413 23.413 0 0 1 2.5 6c-5.402-7.356-8.568-15.69-9.5-25-.667-71.333-.667-142.667 0-214 .836-8.012 3.337-15.345 7.5-22Z"/><path style="opacity:.982" fill="#fb0d1b" d="M53.5 48.5h48v258h-48c-2.473.412-3.806-.588-4-3v-253c.787-1.604 2.12-2.27 4-2Z"/><path style="opacity:.963" fill="#fc2c1c" d="M40.5 292.5c2.282 4.218 5.282 7.884 9 11 .194 2.412 1.527 3.412 4 3v1c-.993 8.484-1.326 17.151-1 26-5.506-1.374-10.173-4.04-14-8 1.977-10.616 2.644-21.616 2-33Z"/><path style="opacity:.985" fill="#fc391d" d="M53.5 307.5c6.48 4.16 13.48 6.493 21 7h-1c-3.277.284-6.443-.049-9.5-1-.798 7.746-.631 15.413.5 23-4.402.192-8.402-.808-12-3-.326-8.849.007-17.516 1-26Z"/><path style="opacity:.979" fill="#fc431d" d="M73.5 314.5v23c-3.213.31-6.213-.023-9-1-1.131-7.587-1.298-15.254-.5-23 3.057.951 6.223 1.284 9.5 1Z"/><path style="opacity:.981" fill="#fb6d21" d="M74.5 314.5h31v23h-14c.342-.838 1.008-1.172 2-1h7v-21h-20c-2.235.295-4.235-.039-6-1Z"/><path style="opacity:.977" fill="#fb7322" d="M105.5 314.5h8v23h-8v-23Z"/><path style="opacity:.983" fill="#f67924" d="M113.5 314.5h49c0 .667-.333 1-1 1h-37v21c4.202-.317 8.202.017 12 1h-23v-23Z"/><path style="opacity:.981" fill="#db9130" d="M162.5 314.5h4v23h-4c0-.667-.333-1-1-1v-21c.667 0 1-.333 1-1Z"/><path style="opacity:.977" fill="#d89431" d="M166.5 314.5h5v23h-5v-23Z"/><path style="opacity:.977" fill="#d69734" d="M171.5 314.5h7v23h-7v-23Z"/><path style="opacity:.982" fill="#d29a36" d="M178.5 314.5h6v23h-6v-23Z"/><path style="opacity:.984" fill="#cf9d39" d="M184.5 314.5h4v23h-4v-23Z"/><path style="opacity:.977" fill="#cca03b" d="M188.5 314.5h7v23h-7v-23Z"/><path style="opacity:.977" fill="#c9a33d" d="M195.5 314.5h6v23h-6v-23Z"/><path style="opacity:.981" fill="#c5a740" d="M201.5 314.5h4c0 .667.333 1 1 1v21c-.667 0-1 .333-1 1h-4v-23Z"/><path style="opacity:.954" fill="#bfad45" d="M205.5 314.5h11a66.641 66.641 0 0 1 0 23h-11c0-.667.333-1 1-1h5v-21h-5c-.667 0-1-.333-1-1Z"/><path style="opacity:.972" fill="#bcb048" d="M216.5 314.5h8v23h-8a66.641 66.641 0 0 0 0-23Z"/><path style="opacity:.977" fill="#b7b54d" d="M224.5 314.5h9v23h-9v-23Z"/><path style="opacity:.977" fill="#b3b950" d="M233.5 314.5h6v23h-6v-23Z"/><path style="opacity:.977" fill="#afbc53" d="M239.5 314.5h6v23h-6v-23Z"/><path style="opacity:.981" fill="#acbf56" d="M245.5 314.5h4c.342.838 1.008 1.172 2 1v21c-.667 0-1 .333-1 1h-5v-23Z"/><path style="opacity:.955" fill="#a5c75c" d="M249.5 314.5h18v23h-17c0-.667.333-1 1-1h6v-21h-6c-.992.172-1.658-.162-2-1Z"/><path style="opacity:.977" fill="#a0cc62" d="M267.5 314.5h10v23h-10v-23Z"/><path style="opacity:.977" fill="#9ad167" d="M277.5 314.5h10v23h-10v-23Z"/><path style="opacity:.977" fill="#93d76d" d="M287.5 314.5h18v23h-18v-23Z"/><path style="opacity:.977" fill="#8cd56c" d="M305.5 314.5h16v23h-16v-23Z"/><path style="opacity:.982" fill="#79d068" d="M361.5 314.5h13v23h-14c-.342-.838-1.008-1.172-2-1v-21c1.291.237 2.291-.096 3-1Z"/><path style="opacity:.977" fill="#73ce67" d="M374.5 314.5h16v23h-16v-23Z"/><path style="opacity:.957" fill="#6dcc66" d="M390.5 314.5h63c-2.107.968-4.441 1.302-7 1h-37v21c2.559-.302 4.893.032 7 1h-26v-23Z"/><path style="opacity:.988" fill="#5ac663" d="M453.5 314.5h9v23h-9c-2.107-.968-4.441-1.302-7-1v-21c2.559.302 4.893-.032 7-1Z"/><path style="opacity:.977" fill="#54c461" d="M462.5 314.5h18v23h-18v-23Z"/><path style="opacity:.977" fill="#4ec260" d="M480.5 314.5h19v23h-19v-23Z"/><path style="opacity:.942" fill="#45c05f" d="M499.5 314.5h66c-2.787.977-5.787 1.31-9 1h-20v21h20c3.213-.31 6.213.023 9 1h-66v-23Z"/><path style="opacity:.977" fill="#30b85a" d="M565.5 314.5h32v23h-32c-2.787-.977-5.787-1.31-9-1v-21c3.213.31 6.213-.023 9-1Z"/><path style="opacity:.978" fill="#25b457" d="M647.5 302.5c1.316 9.235 1.316 18.568 0 28-5.373 3.627-11.373 5.794-18 6.5-10.661.5-21.328.667-32 .5v-23c10.37.226 20.703-.274 31-1.5 6.968-2.481 13.301-5.981 19-10.5Z"/><path style="opacity:.999" fill="#fc4e1e" d="M73.5 314.5h1c1.765.961 3.765 1.295 6 1v21c-2.235-.295-4.235.039-6 1h-1v-23Z"/><path style="opacity:1" fill="#fb6120" d="M80.5 315.5h1v21h8v-21h4v21c-.992-.172-1.658.162-2 1h-17c1.765-.961 3.765-1.295 6-1v-21Z"/><path style="opacity:1" fill="#fc591f" d="M81.5 315.5h8v21h-8v-21Z"/><path style="opacity:1" fill="#fc6620" d="M93.5 315.5h7v21h-7v-21Z"/><path style="opacity:1" fill="#ef7f26" d="M137.5 315.5v21h6v-21h1v21h17c.667 0 1 .333 1 1h-26c-3.798-.983-7.798-1.317-12-1v-21h13Z"/><path style="opacity:1" fill="#e98528" d="M137.5 315.5h6v21h-6v-21Z"/><path style="opacity:1" fill="#e5882a" d="M144.5 315.5h6a145.035 145.035 0 0 1-1 21h-5v-21Z"/><path style="opacity:1" fill="#e28b2c" d="M150.5 315.5h6v21h-7a145.035 145.035 0 0 0 1-21Z"/><path style="opacity:1" fill="#de8e2e" d="M156.5 315.5h5v21h-5v-21Z"/><path style="opacity:1" fill="#c2aa43" d="M206.5 315.5h5v21h-5v-21Z"/><path style="opacity:1" fill="#a9c359" d="M251.5 315.5h6v21h-6v-21Z"/><path style="opacity:.99" fill="#86d36b" d="M321.5 314.5h40c-.709.904-1.709 1.237-3 1h-18v21h18c.992-.172 1.658.162 2 1h-39v-23Z"/><path style="opacity:1" fill="#7fd16a" d="M358.5 315.5v21h-18v-21h18Z"/><path style="opacity:.987" fill="#66ca65" d="M427.5 315.5v21h19c2.559-.302 4.893.032 7 1h-37c-2.107-.968-4.441-1.302-7-1v-21h18Z"/><path style="opacity:1" fill="#60c864" d="M427.5 315.5h19v21h-19v-21Z"/><path style="opacity:1" fill="#3abc5d" d="M556.5 315.5v21h-20v-21h20Z"/></svg>