<svg xmlns="http://www.w3.org/2000/svg" width="708" height="353" style="shape-rendering:geometricPrecision;text-rendering:geometricPrecision;image-rendering:optimizeQuality;fill-rule:evenodd;clip-rule:evenodd"><path style="opacity:.965" fill="#fc401d" d="M72.5 13.5v1h-6v22h7c-2.448.973-5.115 1.306-8 1h-4c-.58-7.942.086-15.608 2-23 2.787-.977 5.787-1.31 9-1Z"/><path style="opacity:.956" fill="#fc6c21" d="M72.5 14.5v-1h28c.709.904 1.709 1.237 3 1 .576 7.611-.09 14.944-2 22h-11c.342-.838 1.008-1.172 2-1h6v-21h-26Z"/><path style="opacity:.96" fill="#fb7322" d="M100.5 13.5h23v1h-11v21c2.885-.306 5.552.027 8 1h-19c1.91-7.056 2.576-14.389 2-22-1.291.237-2.291-.096-3-1Z"/><path style="opacity:.982" fill="#e5882a" d="M143.5 13.5h6v23h-6v-23Z"/><path style="opacity:.982" fill="#e28b2c" d="M149.5 13.5h6v23h-6v-23Z"/><path style="opacity:.96" fill="#de8e2e" d="M155.5 13.5h13c-.342.838-1.008 1.172-2 1h-6v21c1.915-.285 3.581.049 5 1h-10v-23Z"/><path style="opacity:.993" fill="#bfad45" d="M209.5 13.5h6a66.641 66.641 0 0 1 0 23h-6a66.641 66.641 0 0 0 0-23Z"/><path style="opacity:.979" fill="#bcb048" d="M215.5 13.5h7v23h-7a66.641 66.641 0 0 0 0-23Z"/><path style="opacity:.982" fill="#b8b44c" d="M222.5 13.5h10v23h-10v-23Z"/><path style="opacity:.982" fill="#b3b950" d="M232.5 13.5h6v23h-6v-23Z"/><path style="opacity:.982" fill="#b0bc53" d="M238.5 13.5h6v23h-6v-23Z"/><path style="opacity:.989" fill="#adbf56" d="M244.5 13.5h3c1.257 3.575 1.924 7.409 2 11.5-.076 4.091-.743 7.925-2 11.5h-3v-23Z"/><path style="opacity:.965" fill="#a7c55b" d="M250.5 13.5h11v23h-9c1.068-.934 2.401-1.268 4-1v-21c-2.235.295-4.235-.039-6-1Z"/><path style="opacity:.982" fill="#a2ca60" d="M261.5 13.5h11v23h-11v-23Z"/><path style="opacity:.982" fill="#9dcd64" d="M272.5 13.5h5v23h-5v-23Z"/><path style="opacity:.982" fill="#99d167" d="M277.5 13.5h10v23h-10v-23Z"/><path style="opacity:.982" fill="#93d76d" d="M287.5 13.5h18v23h-18v-23Z"/><path style="opacity:.982" fill="#8cd56c" d="M305.5 13.5h16v23h-16v-23Z"/><path style="opacity:.974" fill="#86d36b" d="M321.5 13.5h27c-2.448.973-5.115 1.306-8 1v21c1.915-.285 3.581.049 5 1h-24v-23Z"/><path style="opacity:.972" fill="#80d26a" d="M348.5 13.5h34c-2.448.973-5.115 1.306-8 1h-15v21h15c2.885-.306 5.552.027 8 1h-37c-1.419-.951-3.085-1.285-5-1v-21c2.885.306 5.552-.027 8-1Z"/><path style="opacity:.982" fill="#6dcc66" d="M390.5 13.5h19v23h-19v-23Z"/><path style="opacity:.982" fill="#66ca65" d="M409.5 13.5h19v23h-19v-23Z"/><path style="opacity:.975" fill="#60c864" d="M428.5 13.5h26c-2.448.973-5.115 1.306-8 1v21c2.235-.295 4.235.039 6 1h-24v-23Z"/><path style="opacity:.996" fill="#4ec260" d="M495.5 13.5h4v23h-4c-4.47-.986-9.137-1.32-14-1v-21c4.863.32 9.53-.014 14-1Z"/><path style="opacity:.982" fill="#43bf5e" d="M499.5 13.5h38v23h-38v-23Z"/><path style="opacity:.982" fill="#3abc5d" d="M537.5 13.5h29c-2.787.977-5.787 1.31-9 1v21c3.213-.31 6.213.023 9 1h-29v-23Z"/><path style="opacity:.966" fill="#32b95b" d="M566.5 13.5h38c-1.765.961-3.765 1.295-6 1v21c2.235-.295 4.235.039 6 1h-38c-2.787-.977-5.787-1.31-9-1v-21c3.213.31 6.213-.023 9-1Z"/><path style="opacity:.989" fill="#23b457" d="M604.5 13.5c9.006-.166 18.006 0 27 .5 2.879.546 5.546 1.38 8 2.5a57.816 57.816 0 0 0 9 5c1.322 9.158 1.322 18.158 0 27-12.81-10.125-27.477-14.125-44-12-1.765-.961-3.765-1.295-6-1v-21c2.235.295 4.235-.039 6-1Z"/><path style="opacity:.997" fill="#fc471e" d="M72.5 14.5v22h-6v-22h6Z"/><path style="opacity:1" fill="#fc4f1e" d="M72.5 14.5h8v21h-8v-21Z"/><path style="opacity:1" fill="#fc6020" d="M80.5 14.5h1v21h5v-21h6v21c-.992-.172-1.658.162-2 1h-18v-1h8v-21Z"/><path style="opacity:1" fill="#fc591f" d="M81.5 14.5h5v21h-5v-21Z"/><path style="opacity:1" fill="#fc6620" d="M92.5 14.5h6v21h-6v-21Z"/><path style="opacity:.987" fill="#f67924" d="M123.5 14.5v-1h20v1h-12v21h5c2.235-.295 4.235.039 6 1h-22c-2.448-.973-5.115-1.306-8-1v-21h10v21h8v-21h-7Z"/><path style="opacity:1" fill="#f17e25" d="M122.5 14.5h8v21h-8v-21Z"/><path style="opacity:1" fill="#ec8227" d="M136.5 14.5v21h-5v-21h5Z"/><path style="opacity:1" fill="#e98528" d="M136.5 14.5h7v22h-1c-1.765-.961-3.765-1.295-6-1v-21Z"/><path style="opacity:1" fill="#da9230" d="M166.5 14.5v21h39c1.291-.237 2.291.096 3 1h-43c-1.419-.951-3.085-1.285-5-1v-21h6Z"/><path style="opacity:1" fill="#d89432" d="M168.5 13.5h40c-.709.904-1.709 1.237-3 1h-16v21h-1v-21h-18v21h-4v-21c.992.172 1.658-.162 2-1Z"/><path style="opacity:1" fill="#d69734" d="M177.5 14.5v21h-7v-21h7Z"/><path style="opacity:1" fill="#d29a37" d="M177.5 14.5h6v21h-6v-21Z"/><path style="opacity:1" fill="#cf9d39" d="M183.5 14.5h5v21h-5v-21Z"/><path style="opacity:1" fill="#cca13b" d="M194.5 14.5v21h-5v-21h5Z"/><path style="opacity:1" fill="#c9a33d" d="M194.5 14.5h6v21h-6v-21Z"/><path style="opacity:1" fill="#c5a740" d="M200.5 14.5h5v21h-5v-21Z"/><path style="opacity:1" fill="#c2a942" d="M208.5 13.5h1a66.641 66.641 0 0 1 0 23h-1c-.709-.904-1.709-1.237-3-1v-21c1.291.237 2.291-.096 3-1Z"/><path style="opacity:.996" fill="#a9c259" d="M247.5 13.5h3c1.765.961 3.765 1.295 6 1v21c-1.599-.268-2.932.066-4 1h-5c1.257-3.575 1.924-7.409 2-11.5-.076-4.091-.743-7.925-2-11.5Z"/><path style="opacity:1" fill="#79d068" d="M374.5 14.5v21h-15v-21h15Z"/><path style="opacity:1" fill="#74ce67" d="M382.5 13.5h8v23h-8c-2.448-.973-5.115-1.306-8-1v-21c2.885.306 5.552-.027 8-1Z"/><path style="opacity:1" fill="#5ac663" d="M454.5 13.5h41c-4.47.986-9.137 1.32-14 1h-19v21h19c4.863-.32 9.53.014 14 1h-43c-1.765-.961-3.765-1.295-6-1v-21c2.885.306 5.552-.027 8-1Z"/><path style="opacity:1" fill="#54c462" d="M481.5 14.5v21h-19v-21h19Z"/><path style="opacity:.904" fill="#fb371c" d="M63.5 14.5c-1.914 7.392-2.58 15.058-2 23h4a197.192 197.192 0 0 1-11 4.5c-1.593.949-2.926 2.115-4 3.5h-2c.283-.79.783-1.456 1.5-2 .5-7.993.666-15.993.5-24a20.677 20.677 0 0 0-5 1c5.286-3.762 11.286-5.762 18-6Z"/><path style="opacity:.946" fill="#1bb054" d="M639.5 16.5c18.333 5.494 31.166 17.16 38.5 35a107.19 107.19 0 0 1 4 16c.5 26.998.667 53.998.5 81h19v52h-19c.167 27.002 0 54.002-.5 81-2.51 21.637-13.343 37.304-32.5 47 .166-9.006 0-18.006-.5-27-1.562 2.361-3.395 3.361-5.5 3 7.915-6.445 12.749-14.778 14.5-25 .667-70 .667-140 0-210-1.564-7.79-4.731-14.79-9.5-21 1.322-8.842 1.322-17.842 0-27a57.816 57.816 0 0 1-9-5Z"/><path style="opacity:.998" fill="#fc2a1c" d="m48.5 45.5-1 2a57.488 57.488 0 0 0-8 10v-32h-3c2.508-2.424 5.508-4.09 9-5a20.677 20.677 0 0 1 5-1c.166 8.007 0 16.007-.5 24-.717.544-1.217 1.21-1.5 2Z"/><path style="opacity:.999" fill="#fc1d1b" d="M36.5 25.5h3v32a250.246 250.246 0 0 0-3.5 12c-.667 70-.667 140 0 210a56.494 56.494 0 0 0 2.5 10 334.207 334.207 0 0 1 1 34h-3c-2.254-.624-3.92-1.957-5-4a43.87 43.87 0 0 0-4.5-7c-.828-92.707-.662-185.374.5-278 2-4 5-7 9-9Z"/><path style="opacity:.998" fill="#fc151b" d="M27.5 34.5a12945.532 12945.532 0 0 0-.5 278 43.87 43.87 0 0 1 4.5 7c-4.62-3.901-8.287-8.568-11-14a42.584 42.584 0 0 0-1.5-5c-.823-85.021-.656-170.021.5-255 1.446-4.56 4.113-8.228 8-11Z"/><path style="opacity:.865" fill="#fc0f1a" d="M19.5 45.5a10955.247 10955.247 0 0 0-.5 255 42.584 42.584 0 0 1 1.5 5c-4.678-7.193-7.512-15.193-8.5-24-.667-71.333-.667-142.667 0-214 1.234-7.87 3.734-15.204 7.5-22Z"/><path style="opacity:.97" fill="#fb0d1a" d="M48.5 45.5h52v259h-51l-2-3v-254l1-2Z"/><path style="opacity:.969" fill="#fc7321" d="M108.5 45.5h53v259h-53v-259Z"/><path style="opacity:.988" fill="#fcbf2c" d="M169.5 45.5h52v259h-52v-259Z"/><path style="opacity:.99" fill="#fc2d1c" d="M38.5 289.5a39.617 39.617 0 0 0 9 12l2 3a116.517 116.517 0 0 1 .5 26c-1.011-.837-2.178-1.17-3.5-1-4.005-.998-7.339-2.998-10-6h3a334.207 334.207 0 0 0-1-34Z"/><path style="opacity:.912" fill="#fc351c" d="M49.5 304.5h2a40.935 40.935 0 0 0 7 5c-1.314 8.235-1.314 16.568 0 25-4.297-1.155-8.297-2.821-12-5 1.322-.17 2.489.163 3.5 1 .802-8.745.636-17.412-.5-26Z"/><path style="opacity:.953" fill="#fc3d1d" d="M58.5 309.5a194.686 194.686 0 0 0 15 3h-7v23a24.93 24.93 0 0 1-8-1c-1.314-8.432-1.314-16.765 0-25Z"/><path style="opacity:.994" fill="#fc471d" d="M72.5 312.5v23h-6v-23h6Z"/><path style="opacity:.949" fill="#fb7322" d="M98.5 313.5v-1h30v1h-16v21c2.235-.295 4.235.039 6 1h-16a127.773 127.773 0 0 0 1-22h-5Z"/><path style="opacity:.982" fill="#e5882a" d="M143.5 312.5h6v23h-6v-23Z"/><path style="opacity:.982" fill="#e28b2c" d="M149.5 312.5h6v23h-6v-23Z"/><path style="opacity:.948" fill="#dd8f2f" d="M155.5 312.5h53c-.709.904-1.709 1.237-3 1h-40v21h5c1.915-.284 3.581.049 5 1h-20v-23Z"/><path style="opacity:.994" fill="#bfad45" d="M209.5 312.5h6a66.641 66.641 0 0 1 0 23h-6a66.641 66.641 0 0 0 0-23Z"/><path style="opacity:.979" fill="#bcb048" d="M215.5 312.5h7v23h-7a66.641 66.641 0 0 0 0-23Z"/><path style="opacity:.982" fill="#b8b44c" d="M222.5 312.5h10v23h-10v-23Z"/><path style="opacity:.982" fill="#b3b950" d="M232.5 312.5h6v23h-6v-23Z"/><path style="opacity:.982" fill="#b0bc53" d="M238.5 312.5h6v23h-6v-23Z"/><path style="opacity:.989" fill="#adbf56" d="M244.5 312.5h4c0 .667.333 1 1 1 .297 7.42-.036 14.754-1 22h-4v-23Z"/><path style="opacity:.958" fill="#a7c55b" d="M248.5 312.5h13v23h-9c1.068-.934 2.401-1.268 4-1v-21h-7c-.667 0-1-.333-1-1Z"/><path style="opacity:.982" fill="#a2ca60" d="M261.5 312.5h11v23h-11v-23Z"/><path style="opacity:.982" fill="#9dcd64" d="M272.5 312.5h5v23h-5v-23Z"/><path style="opacity:.982" fill="#99d167" d="M277.5 312.5h10v23h-10v-23Z"/><path style="opacity:.982" fill="#93d76d" d="M287.5 312.5h18v23h-18v-23Z"/><path style="opacity:.982" fill="#8cd56c" d="M305.5 312.5h16v23h-16v-23Z"/><path style="opacity:.972" fill="#86d36b" d="M321.5 312.5h29c-3.125.979-6.458 1.313-10 1v21c1.291-.237 2.291.096 3 1h-22v-23Z"/><path style="opacity:.982" fill="#6dcc66" d="M390.5 312.5h19v23h-19v-23Z"/><path style="opacity:.982" fill="#66ca65" d="M409.5 312.5h19v23h-19v-23Z"/><path style="opacity:.973" fill="#60c864" d="M428.5 312.5h28c-3.125.979-6.458 1.313-10 1v22h-18v-23Z"/><path style="opacity:.996" fill="#4ec260" d="M495.5 312.5h4v23h-4c-4.47-.986-9.137-1.319-14-1v-21c4.863.319 9.53-.014 14-1Z"/><path style="opacity:.982" fill="#43bf5e" d="M499.5 312.5h38v23h-38v-23Z"/><path style="opacity:.982" fill="#3abc5d" d="M537.5 312.5h29c-2.787.977-5.787 1.31-9 1v22h-20v-23Z"/><path style="opacity:.966" fill="#33b95b" d="M566.5 312.5h38c-1.765.961-3.765 1.295-6 1v21c1.915-.284 3.581.049 5 1h-46v-22c3.213.31 6.213-.023 9-1Z"/><path style="opacity:.983" fill="#25b457" d="M649.5 328.5c-4.803 3.218-10.136 5.385-16 6.5-9.994.5-19.994.666-30 .5-1.419-.951-3.085-1.284-5-1v-21c2.235.295 4.235-.039 6-1 8.375.184 16.708-.316 25-1.5 5.074-1.371 9.74-3.538 14-6.5 2.105.361 3.938-.639 5.5-3 .5 8.994.666 17.994.5 27Z"/><path style="opacity:1" fill="#fc4f1e" d="M72.5 313.5h8v21h-8v-21Z"/><path style="opacity:1" fill="#fc6620" d="M72.5 313.5v-1h26v22h-6v1h-20v-1h8v-21h-8Z"/><path style="opacity:1" fill="#fc5f20" d="M86.5 313.5h6v21h-6v-21Z"/><path style="opacity:1" fill="#fc591f" d="M86.5 313.5v21h-5v-21h5Z"/><path style="opacity:.995" fill="#fc6d21" d="M98.5 313.5h5c.297 7.42-.036 14.754-1 22h-10v-1h6v-21Z"/><path style="opacity:.994" fill="#f67924" d="M128.5 313.5v-1h15v1h-12v21h12v1h-25c-1.765-.961-3.765-1.295-6-1v-21h10v21h8c.628-7.413-.039-14.413-2-21Z"/><path style="opacity:1" fill="#f17e25" d="M122.5 313.5h6c1.961 6.587 2.628 13.587 2 21h-8v-21Z"/><path style="opacity:1" fill="#ec8227" d="M136.5 313.5v21h-5v-21h5Z"/><path style="opacity:1" fill="#e98528" d="M136.5 313.5h7v21h-7v-21Z"/><path style="opacity:1" fill="#d89431" d="M170.5 313.5v21h-5v-21h5Z"/><path style="opacity:1" fill="#d69734" d="M170.5 313.5h7v21h11v-21h1v21h16c1.291-.237 2.291.096 3 1h-33c-1.419-.951-3.085-1.284-5-1v-21Z"/><path style="opacity:1" fill="#d29a37" d="M177.5 313.5h6v21h-6v-21Z"/><path style="opacity:1" fill="#cf9d39" d="M183.5 313.5h5v21h-5v-21Z"/><path style="opacity:1" fill="#cca13b" d="M189.5 313.5h5v21h-5v-21Z"/><path style="opacity:1" fill="#c9a33d" d="M194.5 313.5h6v21h-6v-21Z"/><path style="opacity:1" fill="#c5a740" d="M200.5 313.5h5v21h-5v-21Z"/><path style="opacity:1" fill="#c2a942" d="M208.5 312.5h1a66.641 66.641 0 0 1 0 23h-1c-.709-.904-1.709-1.237-3-1v-21c1.291.237 2.291-.096 3-1Z"/><path style="opacity:.998" fill="#a9c259" d="M249.5 313.5h7v21c-1.599-.268-2.932.066-4 1h-4a127.773 127.773 0 0 0 1-22Z"/><path style="opacity:.991" fill="#7fd16a" d="M350.5 312.5h32c-2.448.973-5.115 1.306-8 1h-15v21h15c3.213-.31 6.213.023 9 1h-40c-.709-.904-1.709-1.237-3-1v-21c3.542.313 6.875-.021 10-1Z"/><path style="opacity:1" fill="#79d068" d="M374.5 313.5v21h-15v-21h15Z"/><path style="opacity:1" fill="#74ce67" d="M382.5 312.5h8v23h-7c-2.787-.977-5.787-1.31-9-1v-21c2.885.306 5.552-.027 8-1Z"/><path style="opacity:.993" fill="#5ac663" d="M456.5 312.5h39c-4.47.986-9.137 1.319-14 1h-19v21h19c4.863-.319 9.53.014 14 1h-49v-22c3.542.313 6.875-.021 10-1Z"/><path style="opacity:1" fill="#54c462" d="M481.5 313.5v21h-19v-21h19Z"/></svg>