<svg xmlns="http://www.w3.org/2000/svg" width="715" height="350" style="shape-rendering:geometricPrecision;text-rendering:geometricPrecision;image-rendering:optimizeQuality;fill-rule:evenodd;clip-rule:evenodd"><path style="opacity:.915" fill="#fefffe" d="M713.5-.5h1v350h-1V-.5Z"/><path style="opacity:.98" fill="#fc431d" d="M66.5 15.5h7a66.627 66.627 0 0 0 0 23c-2.787.977-5.787 1.31-9 1-1.322-3.268-1.989-6.935-2-11l.5-11a19.606 19.606 0 0 0 3.5-2Z"/><path style="opacity:.982" fill="#fc4d1e" d="M73.5 15.5h5v23h-5a66.627 66.627 0 0 1 0-23Z"/><path style="opacity:.979" fill="#fc541f" d="M78.5 15.5h5v23h-5v-23Z"/><path style="opacity:.979" fill="#fc5a1f" d="M83.5 15.5h5v23h-5v-23Z"/><path style="opacity:.987" fill="#fc6020" d="M88.5 15.5h3c.342.838 1.008 1.172 2 1v21c-.992-.172-1.658.162-2 1h-3v-23Z"/><path style="opacity:.993" fill="#fc6d21" d="M91.5 15.5h11c1.91 7.056 2.576 14.389 2 22h-5v-21h-6c-.992.172-1.658-.162-2-1Z"/><path style="opacity:.951" fill="#fb7322" d="M102.5 15.5h16c-1.419.951-3.085 1.285-5 1v21c1.915-.285 3.581.049 5 1h-27c.342-.838 1.008-1.172 2-1h11c.576-7.611-.09-14.944-2-22Z"/><path style="opacity:.989" fill="#f67924" d="M118.5 15.5h5v23h-5c-1.419-.951-3.085-1.285-5-1v-21c1.915.285 3.581-.049 5-1Z"/><path style="opacity:.979" fill="#f07e26" d="M123.5 15.5h10v23h-10v-23Z"/><path style="opacity:.979" fill="#ec8227" d="M133.5 15.5h3v23h-3v-23Z"/><path style="opacity:.979" fill="#e98528" d="M136.5 15.5h7v23h-7v-23Z"/><path style="opacity:.979" fill="#e6882a" d="M143.5 15.5h6v23h-6v-23Z"/><path style="opacity:.976" fill="#e28b2c" d="M149.5 15.5h6c-.299 7.753.034 15.42 1 23h-7v-23Z"/><path style="opacity:.964" fill="#df8e2e" d="M155.5 15.5h9c-1.068.934-2.401 1.268-4 1v21h6v1h-10a139.201 139.201 0 0 1-1-23Z"/><path style="opacity:.999" fill="#dc902f" d="M164.5 15.5h2v22h-6v-21c1.599.268 2.932-.066 4-1Z"/><path style="opacity:.982" fill="#bfad45" d="M203.5 15.5h12a66.641 66.641 0 0 1 0 23h-48c1.068-.934 2.401-1.268 4-1h40v-21h-6c-.992.172-1.658-.162-2-1Z"/><path style="opacity:.975" fill="#bcaf48" d="M215.5 15.5h7v23h-7a66.641 66.641 0 0 0 0-23Z"/><path style="opacity:.979" fill="#b8b44c" d="M222.5 15.5h10v23h-10v-23Z"/><path style="opacity:.979" fill="#b3b950" d="M232.5 15.5h7v23h-7v-23Z"/><path style="opacity:.979" fill="#afbc53" d="M239.5 15.5h6v23h-6v-23Z"/><path style="opacity:.979" fill="#acbf56" d="M245.5 15.5h4a127.773 127.773 0 0 1 1 22c-.667 0-1 .333-1 1h-4v-23Z"/><path style="opacity:.999" fill="#a9c359" d="M249.5 15.5h2c1.419.951 3.085 1.285 5 1v21h-6c.297-7.42-.036-14.754-1-22Z"/><path style="opacity:.958" fill="#a7c55b" d="M251.5 15.5h11v23h-13c0-.667.333-1 1-1h6v-21c-1.915.285-3.581-.049-5-1Z"/><path style="opacity:.979" fill="#a1cb61" d="M262.5 15.5h11v23h-11v-23Z"/><path style="opacity:.979" fill="#9dcd64" d="M273.5 15.5h4v23h-4v-23Z"/><path style="opacity:.979" fill="#9ad167" d="M277.5 15.5h10v23h-10v-23Z"/><path style="opacity:.979" fill="#93d76d" d="M287.5 15.5h18v23h-18v-23Z"/><path style="opacity:.979" fill="#8cd56c" d="M305.5 15.5h16v23h-16v-23Z"/><path style="opacity:.979" fill="#86d36b" d="M321.5 15.5h19v23h-19v-23Z"/><path style="opacity:.948" fill="#80d16a" d="M340.5 15.5h32c-4.47.986-9.137 1.32-14 1v21h32c3.542-.313 6.875.02 10 1h-60v-23Z"/><path style="opacity:.993" fill="#79d068" d="M372.5 15.5h28c-3.125.98-6.458 1.313-10 1h-16v21h-16v-21c4.863.32 9.53-.014 14-1Z"/><path style="opacity:.989" fill="#6dcc66" d="M400.5 15.5h9v23h-9c-3.125-.98-6.458-1.313-10-1v-21c3.542.313 6.875-.02 10-1Z"/><path style="opacity:.979" fill="#66ca65" d="M409.5 15.5h18v23h-18v-23Z"/><path style="opacity:.979" fill="#60c864" d="M427.5 15.5h19v23h-19v-23Z"/><path style="opacity:.979" fill="#5ac663" d="M446.5 15.5h16v23h-16v-23Z"/><path style="opacity:.981" fill="#54c462" d="M462.5 15.5h19a66.641 66.641 0 0 0 0 23h-19v-23Z"/><path style="opacity:.98" fill="#4ec260" d="M481.5 15.5h18v23h-18a66.641 66.641 0 0 1 0-23Z"/><path style="opacity:.979" fill="#43bf5e" d="M499.5 15.5h37v23h-37v-23Z"/><path style="opacity:.94" fill="#3abc5d" d="M536.5 15.5h30c-3.125.98-6.458 1.313-10 1v21a380.848 380.848 0 0 1 39 1h-59v-23Z"/><path style="opacity:.998" fill="#30b85a" d="M566.5 15.5h31v23h-2a380.848 380.848 0 0 0-39-1v-21c3.542.313 6.875-.02 10-1Z"/><path style="opacity:.985" fill="#23b457" d="M597.5 15.5c11.338-.166 22.672 0 34 .5 1.882.198 3.548.698 5 1.5a192.194 192.194 0 0 1 11.5 6c.667 8.667.667 17.333 0 26-1.638-2.234-3.805-3.567-6.5-4a97.937 97.937 0 0 0-12-5.5 245.903 245.903 0 0 0-32-1.5v-23Z"/><path style="opacity:1" fill="#fc6620" d="M93.5 16.5h6v21h-6v-21Z"/><path style="opacity:1" fill="#d89432" d="M166.5 15.5h1c1.068.934 2.401 1.268 4 1v21c-1.599-.268-2.932.066-4 1h-1v-23Z"/><path style="opacity:1" fill="#d69734" d="M171.5 16.5h7v21h-7v-21Z"/><path style="opacity:1" fill="#d19c38" d="M178.5 16.5h8v21h-8v-21Z"/><path style="opacity:1" fill="#c5a740" d="M167.5 15.5h36c.342.838 1.008 1.172 2 1v21h-5v-21h-13v21h-1v-21h-15c-1.599.268-2.932-.066-4-1Z"/><path style="opacity:1" fill="#c8a43e" d="M195.5 16.5h5v21h-5v-21Z"/><path style="opacity:1" fill="#cca03b" d="M195.5 16.5v21h-8v-21h8Z"/><path style="opacity:1" fill="#c2a942" d="M205.5 16.5h6v21h-6v-21Z"/><path style="opacity:1" fill="#73ce67" d="M390.5 16.5v21h-16v-21h16Z"/><path style="opacity:.918" fill="#fc371d" d="M66.5 15.5a19.606 19.606 0 0 1-3.5 2l-.5 11c.011 4.065.678 7.732 2 11a54.124 54.124 0 0 0-12 7h-2a116.518 116.518 0 0 0 .5-26c-1.011.837-2.178 1.17-3.5 1 5.736-3.577 12.07-5.577 19-6Z"/><path style="opacity:.94" fill="#1bb054" d="M636.5 17.5c25.306 8.23 40.14 25.564 44.5 52 .5 26.665.667 53.331.5 80h19v53h-19c.167 26.669 0 53.335-.5 80-3.796 24.273-16.962 40.94-39.5 50 1.687-1.666 3.687-3 6-4 1.322-9.158 1.322-18.158 0-27 4.763-6.198 7.929-13.198 9.5-21 .667-69.667.667-139.333 0-209-1.879-10.779-7.046-19.445-15.5-26 2.695.433 4.862 1.766 6.5 4 .667-8.667.667-17.333 0-26a192.194 192.194 0 0 0-11.5-6Z"/><path style="opacity:.994" fill="#fc2b1c" d="M50.5 46.5c-1.406.473-2.073 1.473-2 3a70.803 70.803 0 0 0-9 11c.166-11.005 0-22.005-.5-33-.69 1.238-1.19 1.238-1.5 0 2.661-3.002 5.995-5.002 10-6 1.322.17 2.489-.163 3.5-1 .802 8.745.636 17.412-.5 26Z"/><path style="opacity:.999" fill="#fc1d1b" d="M37.5 27.5c.31 1.238.81 1.238 1.5 0 .5 10.995.666 21.995.5 33a207.038 207.038 0 0 0-2.5 11c-.667 69.667-.667 139.333 0 209 .737 3.707 1.57 7.373 2.5 11 .644 11.384-.023 22.384-2 33a25.907 25.907 0 0 1-9-8 9887.927 9887.927 0 0 1 0-281c2.4-3.403 5.4-6.07 9-8Z"/><path style="opacity:.998" fill="#fc151a" d="M28.5 35.5a9887.927 9887.927 0 0 0 0 281c-3.836-3.178-6.502-7.178-8-12a8256.831 8256.831 0 0 1 0-257c1.498-4.822 4.164-8.822 8-12Z"/><path style="opacity:.986" fill="#fb0d1b" d="M50.5 46.5h50v258h-51c-.838-.342-1.172-1.008-1-2v-253c-.073-1.527.594-2.527 2-3Z"/><path style="opacity:.985" fill="#fc7321" d="M109.5 46.5h52v258h-52v-258Z"/><path style="opacity:.967" fill="#fcbf2c" d="M169.5 46.5h53v258h-53v-258Z"/><path style="opacity:.985" fill="#bfce30" d="M230.5 46.5h52v258h-52v-258Z"/><path style="opacity:.881" fill="#fc0f1a" d="M20.5 47.5a8256.831 8256.831 0 0 0 0 257c-2.14-2.2-3.64-4.867-4.5-8a105.669 105.669 0 0 1-3-14c-.667-71-.667-142 0-213 .826-8.061 3.326-15.395 7.5-22Z"/><path style="opacity:.989" fill="#fc2c1c" d="M39.5 291.5a70.808 70.808 0 0 0 9 11c-.172.992.162 1.658 1 2 .283.789.783 1.456 1.5 2 .5 7.993.666 15.993.5 24h-4a37.785 37.785 0 0 1-10-6c1.977-10.616 2.644-21.616 2-33Z"/><path style="opacity:.955" fill="#fc391d" d="M49.5 304.5h2c1.753 1.723 3.753 3.223 6 4.5 5.283 2.15 10.616 3.65 16 4.5a49.367 49.367 0 0 1-11-1c-.299 7.753.034 15.42 1 23-5.8-.491-11.133-2.157-16-5h4c.166-8.007 0-16.007-.5-24-.717-.544-1.217-1.211-1.5-2Z"/><path style="opacity:.995" fill="#fc431d" d="M73.5 313.5a66.627 66.627 0 0 0 0 23c-3.542.313-6.875-.021-10-1a139.232 139.232 0 0 1-1-23 49.367 49.367 0 0 0 11 1Z"/><path style="opacity:.982" fill="#fc4d1e" d="M73.5 313.5h5v23h-5a66.627 66.627 0 0 1 0-23Z"/><path style="opacity:.979" fill="#fc541f" d="M78.5 313.5h5v23h-5v-23Z"/><path style="opacity:.979" fill="#fc5a1f" d="M83.5 313.5h5v23h-5v-23Z"/><path style="opacity:.987" fill="#fc6020" d="M88.5 313.5h3c.342.838 1.008 1.172 2 1v21c-.992-.172-1.658.162-2 1h-3v-23Z"/><path style="opacity:.964" fill="#fc6d21" d="M91.5 313.5h11c1.91 7.056 2.576 14.389 2 22-1.599-.268-2.932.066-4 1h-9c.342-.838 1.008-1.172 2-1h6v-21h-6c-.992.172-1.658-.162-2-1Z"/><path style="opacity:.957" fill="#fb7322" d="M102.5 313.5h16c-1.419.951-3.085 1.284-5 1v21c1.915-.284 3.581.049 5 1h-18c1.068-.934 2.401-1.268 4-1 .576-7.611-.09-14.944-2-22Z"/><path style="opacity:.989" fill="#f67924" d="M118.5 313.5h5v23h-5c-1.419-.951-3.085-1.284-5-1v-21c1.915.284 3.581-.049 5-1Z"/><path style="opacity:.979" fill="#f07e26" d="M123.5 313.5h10v23h-10v-23Z"/><path style="opacity:.979" fill="#ec8227" d="M133.5 313.5h3v23h-3v-23Z"/><path style="opacity:.979" fill="#e98528" d="M136.5 313.5h7v23h-7v-23Z"/><path style="opacity:.979" fill="#e6882a" d="M143.5 313.5h6v23h-6v-23Z"/><path style="opacity:.975" fill="#e28b2c" d="M149.5 313.5h7a66.641 66.641 0 0 0 0 23h-7v-23Z"/><path style="opacity:.96" fill="#df8e2e" d="M156.5 313.5h10v1h-6v21h6v1h-10a66.641 66.641 0 0 1 0-23Z"/><path style="opacity:.971" fill="#c0ac44" d="M167.5 313.5h48a66.641 66.641 0 0 1 0 23h-5a127.773 127.773 0 0 0 1-22h-40c-1.599.268-2.932-.066-4-1Z"/><path style="opacity:.975" fill="#bcaf48" d="M215.5 313.5h7v23h-7a66.641 66.641 0 0 0 0-23Z"/><path style="opacity:.979" fill="#b8b44c" d="M222.5 313.5h10v23h-10v-23Z"/><path style="opacity:.979" fill="#b3b950" d="M232.5 313.5h7v23h-7v-23Z"/><path style="opacity:.979" fill="#afbc53" d="M239.5 313.5h6v23h-6v-23Z"/><path style="opacity:.979" fill="#acbf56" d="M245.5 313.5h4c0 .667.333 1 1 1v21c-.667 0-1 .333-1 1h-4v-23Z"/><path style="opacity:.958" fill="#a7c55b" d="M249.5 313.5h13v23h-13c0-.667.333-1 1-1h6v-21h-6c-.667 0-1-.333-1-1Z"/><path style="opacity:.979" fill="#a1cb61" d="M262.5 313.5h11v23h-11v-23Z"/><path style="opacity:.979" fill="#9dcd64" d="M273.5 313.5h4v23h-4v-23Z"/><path style="opacity:.979" fill="#9ad167" d="M277.5 313.5h10v23h-10v-23Z"/><path style="opacity:.979" fill="#93d76d" d="M287.5 313.5h18v23h-18v-23Z"/><path style="opacity:.979" fill="#8cd56c" d="M305.5 313.5h16v23h-16v-23Z"/><path style="opacity:.979" fill="#86d36b" d="M321.5 313.5h19v23h-19v-23Z"/><path style="opacity:.957" fill="#80d16a" d="M340.5 313.5h22c-1.068.934-2.401 1.268-4 1v21h32c3.542-.313 6.875.021 10 1h-60v-23Z"/><path style="opacity:.989" fill="#6dcc66" d="M400.5 313.5h9v23h-9c-3.125-.979-6.458-1.313-10-1v-21c3.542.313 6.875-.021 10-1Z"/><path style="opacity:.979" fill="#66ca65" d="M409.5 313.5h18v23h-18v-23Z"/><path style="opacity:.979" fill="#60c864" d="M427.5 313.5h19v23h-19v-23Z"/><path style="opacity:.979" fill="#5ac663" d="M446.5 313.5h16v23h-16v-23Z"/><path style="opacity:.976" fill="#54c462" d="M462.5 313.5h21c-.709.904-1.709 1.237-3 1v21c1.291-.237 2.291.096 3 1h-21v-23Z"/><path style="opacity:.982" fill="#4dc260" d="M483.5 313.5h16v23h-16c-.709-.904-1.709-1.237-3-1v-21c1.291.237 2.291-.096 3-1Z"/><path style="opacity:.979" fill="#43bf5e" d="M499.5 313.5h37v23h-37v-23Z"/><path style="opacity:.958" fill="#3abc5d" d="M536.5 313.5h38c-5.81.99-11.81 1.323-18 1v21a380.934 380.934 0 0 1 39 1h-59v-23Z"/><path style="opacity:.998" fill="#30b85a" d="M574.5 313.5h23v23h-2a380.934 380.934 0 0 0-39-1v-21c6.19.323 12.19-.01 18-1Z"/><path style="opacity:.981" fill="#25b457" d="M647.5 301.5c1.322 8.842 1.322 17.842 0 27-2.313 1-4.313 2.334-6 4-3.461 1.43-7.128 2.596-11 3.5-10.995.5-21.995.667-33 .5v-23a198.903 198.903 0 0 0 30-1.5c7.705-1.684 14.372-5.184 20-10.5Z"/><path style="opacity:1" fill="#fc6620" d="M93.5 314.5h6v21h-6v-21Z"/><path style="opacity:1" fill="#dc9130" d="M166.5 314.5v21h-6v-21h6Z"/><path style="opacity:1" fill="#d89432" d="M166.5 313.5h1c1.068.934 2.401 1.268 4 1v21c-1.599-.268-2.932.066-4 1h-1v-23Z"/><path style="opacity:1" fill="#d69734" d="M171.5 314.5h7v21h-7v-21Z"/><path style="opacity:1" fill="#d19c38" d="M178.5 314.5h8v21h-8v-21Z"/><path style="opacity:1" fill="#c2a942" d="M186.5 314.5h1v21h18v-21h6c.297 7.42-.036 14.754-1 22h-43c1.068-.934 2.401-1.268 4-1h15v-21Z"/><path style="opacity:1" fill="#c5a740" d="M200.5 314.5h5v21h-5v-21Z"/><path style="opacity:1" fill="#c8a43e" d="M195.5 314.5h5v21h-5v-21Z"/><path style="opacity:1" fill="#cca03b" d="M187.5 314.5h8v21h-8v-21Z"/><path style="opacity:1" fill="#a9c359" d="M250.5 314.5h6v21h-6v-21Z"/><path style="opacity:1" fill="#79d068" d="M362.5 313.5h38c-3.125.979-6.458 1.313-10 1h-16v21h-16v-21c1.599.268 2.932-.066 4-1Z"/><path style="opacity:1" fill="#73ce67" d="M390.5 314.5v21h-16v-21h16Z"/></svg>