<svg xmlns="http://www.w3.org/2000/svg" width="712" height="351" style="shape-rendering:geometricPrecision;text-rendering:geometricPrecision;image-rendering:optimizeQuality;fill-rule:evenodd;clip-rule:evenodd"><path style="opacity:.967" fill="#fc481e" d="M63.5 16.5c2.448-.973 5.115-1.306 8-1a139.234 139.234 0 0 1 1 23c-1.599-.268-2.932.066-4 1h-3c2.073-7.062 2.573-14.395 1.5-22-1.011-.837-2.178-1.17-3.5-1Z"/><path style="opacity:.984" fill="#fc4d1e" d="M71.5 15.5h7v23l-10 1c1.068-.934 2.401-1.268 4-1 .299-7.753-.034-15.42-1-23Z"/><path style="opacity:.989" fill="#fc541f" d="M78.5 15.5h5v23h-5v-23Z"/><path style="opacity:.97" fill="#fc6c21" d="M83.5 16.5v-1h18c.709.904 1.709 1.237 3 1 .576 7.611-.09 14.944-2 22h-19v-1h6v-21h-6Z"/><path style="opacity:.971" fill="#fb7422" d="M101.5 15.5h21c-2.787.977-5.787 1.31-9 1v21c2.559-.302 4.893.032 7 1h-18c1.91-7.056 2.576-14.389 2-22-1.291.237-2.291-.096-3-1Z"/><path style="opacity:.974" fill="#f67924" d="M122.5 15.5h21v1h-11v21h11v1h-23c-2.107-.968-4.441-1.302-7-1v-21c3.213.31 6.213-.023 9-1Z"/><path style="opacity:.989" fill="#e6882a" d="M143.5 15.5h6v23h-6v-23Z"/><path style="opacity:.987" fill="#e28b2c" d="M149.5 15.5h6v23h-6v-23Z"/><path style="opacity:.975" fill="#de8e2e" d="M155.5 15.5h13c-.342.838-1.008 1.172-2 1h-5v21h5c.992-.172 1.658.162 2 1h-13v-23Z"/><path style="opacity:.99" fill="#d89431" d="M168.5 15.5h3v23h-3c-.342-.838-1.008-1.172-2-1v-21c.992.172 1.658-.162 2-1Z"/><path style="opacity:.987" fill="#d69734" d="M171.5 15.5h7v23h-7v-23Z"/><path style="opacity:.987" fill="#d19b37" d="M178.5 15.5h10v23h-10v-23Z"/><path style="opacity:.987" fill="#cca03b" d="M188.5 15.5h7v23h-7v-23Z"/><path style="opacity:.987" fill="#c9a33d" d="M195.5 15.5h6v23h-6v-23Z"/><path style="opacity:.987" fill="#c5a740" d="M201.5 15.5h5v23h-5v-23Z"/><path style="opacity:.992" fill="#c2a942" d="M206.5 15.5h4c0 .667.333 1 1 1v21c-.667 0-1 .333-1 1h-4v-23Z"/><path style="opacity:.973" fill="#a8c45a" d="M243.5 15.5h20v23h-18c0-.667.333-1 1-1h6v-21h-6c-1.291.237-2.291-.096-3-1Z"/><path style="opacity:.987" fill="#a1ca61" d="M263.5 15.5h11v23h-11v-23Z"/><path style="opacity:.987" fill="#9dcd64" d="M274.5 15.5h5v23h-5v-23Z"/><path style="opacity:.991" fill="#9ad167" d="M279.5 15.5h6c.709.904 1.709 1.237 3 1v21c-1.291-.237-2.291.096-3 1h-6v-23Z"/><path style="opacity:.974" fill="#93d76d" d="M285.5 15.5h38c-5.14.988-10.474 1.321-16 1v21c4.532-.318 8.866.015 13 1h-35c.709-.904 1.709-1.237 3-1v-21c-1.291.237-2.291-.096-3-1Z"/><path style="opacity:.987" fill="#79d068" d="M361.5 15.5h15v23h-15v-23Z"/><path style="opacity:.987" fill="#73ce67" d="M376.5 15.5h16v23h-16v-23Z"/><path style="opacity:.987" fill="#6dcc66" d="M392.5 15.5h19v23h-19v-23Z"/><path style="opacity:.987" fill="#67ca65" d="M411.5 15.5h19v23h-19v-23Z"/><path style="opacity:.987" fill="#49c160" d="M487.5 15.5h34v23h-34c-.709-.904-1.709-1.237-3-1v-21c1.291.237 2.291-.096 3-1Z"/><path style="opacity:.999" fill="#3cbd5d" d="M521.5 15.5h58c-6.145.99-12.478 1.323-19 1v21c6.19-.323 12.19.01 18 1h-57v-23Z"/><path style="opacity:.985" fill="#34ba5c" d="M579.5 15.5h19c-5.81.99-11.81 1.323-18 1v21c6.19-.323 12.19.01 18 1h-20c-5.81-.99-11.81-1.323-18-1v-21c6.522.323 12.855-.01 19-1Z"/><path style="opacity:.987" fill="#2bb759" d="M598.5 15.5h18v23h-18c-5.81-.99-11.81-1.323-18-1v-21c6.19.323 12.19-.01 18-1Z"/><path style="opacity:.984" fill="#22b356" d="M616.5 15.5c6.009-.166 12.009 0 18 .5 3.242.406 6.242 1.24 9 2.5a57.816 57.816 0 0 0 9 5 122.078 122.078 0 0 1 .5 27c-1.451-1.964-3.284-3.297-5.5-4-9.498-5.625-19.831-8.292-31-8v-23Z"/><path style="opacity:.997" fill="#fc421d" d="M58.5 17.5c1.419-.951 3.085-1.285 5-1 1.322-.17 2.489.163 3.5 1 1.073 7.605.573 14.938-1.5 22-1.714 1.238-3.714 1.905-6 2 .311-.978.978-1.645 2-2a121.87 121.87 0 0 0 1-22h-4Z"/><path style="opacity:1" fill="#fc5a1f" d="M83.5 16.5h6v21h-6v-21Z"/><path style="opacity:1" fill="#fc6520" d="M90.5 16.5h9v21h-9v-21Z"/><path style="opacity:1" fill="#f17e25" d="M123.5 16.5h8v21h-8v-21Z"/><path style="opacity:1" fill="#ec8227" d="M136.5 16.5v21h-4v-21h4Z"/><path style="opacity:1" fill="#e98528" d="M136.5 16.5h7v21h-7v-21Z"/><path style="opacity:1" fill="#db9130" d="M166.5 16.5v21h-5v-21h5Z"/><path style="opacity:1" fill="#bfad45" d="M211.5 16.5h6v21h-6v-21Z"/><path style="opacity:1" fill="#bcb048" d="M217.5 16.5h6v21h-6v-21Z"/><path style="opacity:1" fill="#bab34a" d="M223.5 16.5h5v21h-5v-21Z"/><path style="opacity:1" fill="#afbc53" d="M210.5 15.5h33c.709.904 1.709 1.237 3 1v21c-.667 0-1 .333-1 1h-35c0-.667.333-1 1-1h17v-21h-17c-.667 0-1-.333-1-1Z"/><path style="opacity:1" fill="#b3b950" d="M233.5 16.5h7v21h-7v-21Z"/><path style="opacity:1" fill="#b6b64e" d="M233.5 16.5v21h-4v-21h4Z"/><path style="opacity:1" fill="#acbf56" d="M246.5 16.5h6v21h-6v-21Z"/><path style="opacity:.988" fill="#8bd56c" d="M323.5 15.5h35c-5.14.988-10.474 1.321-16 1h-15v21h15c5.526-.321 10.86.012 16 1h-38c-4.134-.985-8.468-1.318-13-1v-21c5.526.321 10.86-.012 16-1Z"/><path style="opacity:1" fill="#85d36b" d="M342.5 16.5v21h-15v-21h15Z"/><path style="opacity:1" fill="#80d26a" d="M358.5 15.5h3v23h-3c-5.14-.988-10.474-1.321-16-1v-21c5.526.321 10.86-.012 16-1Z"/><path style="opacity:1" fill="#5cc763" d="M430.5 15.5h57c-.709.904-1.709 1.237-3 1h-19v21h19c1.291-.237 2.291.096 3 1h-57v-23Z"/><path style="opacity:1" fill="#54c461" d="M484.5 16.5v21h-19v-21h19Z"/><path style="opacity:.998" fill="#fc381c" d="M58.5 17.5h4a121.87 121.87 0 0 1-1 22c-1.022.355-1.689 1.022-2 2a58.864 58.864 0 0 1-9 5v-25h-3c3.16-2.5 6.827-3.833 11-4Z"/><path style="opacity:.946" fill="#1bb054" d="M643.5 18.5c14.852 4.682 26.352 13.682 34.5 27a104.266 104.266 0 0 1 7 18c1.45 28.963 1.95 57.963 1.5 87h19v53h-19c.167 27.335 0 54.669-.5 82-3.376 21.844-14.876 37.511-34.5 47 2.095-9.075 2.595-18.409 1.5-28-1.638 2.234-3.805 3.567-6.5 4 6.783-5.536 11.616-12.536 14.5-21a3185.572 3185.572 0 0 0 1.5-110c.133-36.688-.367-73.354-1.5-110-2.722-8.206-7.222-15.206-13.5-21 2.216.703 4.049 2.036 5.5 4 .832-9.019.665-18.019-.5-27a57.816 57.816 0 0 1-9-5Z"/><path style="opacity:.999" fill="#fc2a1c" d="M47.5 21.5h3v26c-1.333 0-2 .667-2 2l-5 4c-1.673.843-2.84 2.176-3.5 4a512.47 512.47 0 0 1-.5-32c2.397-1.695 5.063-3.028 8-4Z"/><path style="opacity:.916" fill="#fc211b" d="M39.5 25.5a512.47 512.47 0 0 0 .5 32c.66-1.824 1.827-3.157 3.5-4l-5.5 11a74.58 74.58 0 0 0-2 12c-.667 67-.667 134 0 201a116.261 116.261 0 0 0 2 13 181.62 181.62 0 0 0 7.5 13 105.628 105.628 0 0 0 0 29c-4.042-1.351-7.375-3.685-10-7-.283-.789-.783-1.456-1.5-2-.667-97.333-.667-194.667 0-292 1.039-.744 1.539-1.744 1.5-3 .936-1.474 2.27-2.474 4-3Z"/><path style="opacity:.999" fill="#fc1c1b" d="M35.5 28.5c.039 1.256-.461 2.256-1.5 3-.667 97.333-.667 194.667 0 292 .717.544 1.217 1.211 1.5 2-3.264-1.594-5.93-3.927-8-7a9958.425 9958.425 0 0 1 0-282c2-3.333 4.667-6 8-8Z"/><path style="opacity:.998" fill="#fc151a" d="M27.5 36.5a9958.425 9958.425 0 0 0 0 282c-3.408-3.083-6.075-6.749-8-11a8450.711 8450.711 0 0 1 0-260 34.262 34.262 0 0 1 8-11Z"/><path style="opacity:.854" fill="#fc0f1a" d="M19.5 47.5a8450.711 8450.711 0 0 0 0 260c-3.97-7.076-6.47-14.743-7.5-23-.667-71.333-.667-142.667 0-214 1.028-8.249 3.528-15.915 7.5-23Z"/><path style="opacity:.995" fill="#fb0d1a" d="M50.5 47.5h50v260h-49c-1.527.073-2.527-.594-3-2v-256c0-1.333.667-2 2-2Z"/><path style="opacity:.976" fill="#fc7321" d="M109.5 47.5h53v260h-53v-260Z"/><path style="opacity:.976" fill="#fcbf2c" d="M170.5 47.5h53v260h-53v-260Z"/><path style="opacity:.976" fill="#bfce30" d="M231.5 47.5h53v260h-53v-260Z"/><path style="opacity:.976" fill="#93d86d" d="M292.5 47.5h53v260h-53v-260Z"/><path style="opacity:.998" fill="#fc2e1c" d="M45.5 303.5c1 .333 1.667 1 2 2-.085 1.495.581 2.495 2 3a104.729 104.729 0 0 1 .5 25c-1.356-.88-2.856-1.214-4.5-1a105.628 105.628 0 0 1 0-29Z"/><path style="opacity:.996" fill="#fc361c" d="M47.5 305.5h1c.473 1.406 1.473 2.073 3 2a21.62 21.62 0 0 0 5 4 159.123 159.123 0 0 1 1 24h-5c-2.74-.207-5.074-1.207-7-3 1.644-.214 3.144.12 4.5 1 .832-8.353.665-16.687-.5-25-1.419-.505-2.085-1.505-2-3Z"/><path style="opacity:.994" fill="#fc401d" d="M56.5 311.5a43.363 43.363 0 0 1 7 3c.761.891 1.761 1.558 3 2a111.123 111.123 0 0 1 1 21c-1.291-.237-2.291.096-3 1-4.337-.084-8.337-1.084-12-3h5c.27-8.055-.063-16.055-1-24Z"/><path style="opacity:.978" fill="#fc481d" d="M63.5 314.5c2.706.075 5.373.408 8 1a139.232 139.232 0 0 1 1 23h-8c.709-.904 1.709-1.237 3-1 .33-7.032-.003-14.032-1-21-1.239-.442-2.239-1.109-3-2Z"/><path style="opacity:.913" fill="#fb4d1e" d="M71.5 315.5h7v24c-4.202.317-8.202-.017-12-1h6c.299-7.753-.034-15.42-1-23Z"/><path style="opacity:.955" fill="#fc541f" d="M78.5 315.5h4a146.899 146.899 0 0 1 1 23v1h-5v-24Z"/><path style="opacity:.733" fill="#fc7322" d="M83.5 315.5h61v1h-12a86.773 86.773 0 0 0-18 1 111.148 111.148 0 0 0-1 21h25c1.915-.284 3.581.049 5 1h-60v-1h21v-22h-15c-2.235.295-4.235-.039-6-1Z"/><path style="opacity:.953" fill="#e5882a" d="M144.5 315.5h5v24h-5a135.183 135.183 0 0 1-1-22c.667 0 1-.333 1-1v-1Z"/><path style="opacity:.945" fill="#e28b2c" d="M149.5 315.5h6v24h-6v-24Z"/><path style="opacity:.897" fill="#df8d2e" d="M155.5 315.5h13v1c-2.292-.256-4.459.077-6.5 1-.5 6.992-.666 13.992-.5 21h5c.992-.172 1.658.162 2 1h-13v-24Z"/><path style="opacity:.958" fill="#d89431" d="M168.5 315.5h3v24h-3c-.342-.838-1.008-1.172-2-1-.576-7.611.09-14.944 2-22v-1Z"/><path style="opacity:.945" fill="#d69734" d="M171.5 315.5h7v24h-7v-24Z"/><path style="opacity:.945" fill="#d19b37" d="M178.5 315.5h10v24h-10v-24Z"/><path style="opacity:.945" fill="#cca03b" d="M188.5 315.5h7v24h-7v-24Z"/><path style="opacity:.945" fill="#c9a33d" d="M195.5 315.5h6v24h-6v-24Z"/><path style="opacity:.945" fill="#c5a740" d="M201.5 315.5h5v24h-5v-24Z"/><path style="opacity:.965" fill="#c2a942" d="M206.5 315.5h3c2.252 7.545 2.586 15.212 1 23v1h-4v-24Z"/><path style="opacity:.945" fill="#a7c55b" d="M210.5 315.5h53v24h-53v-1h42c.33-7.032-.003-14.032-1-21a23.832 23.832 0 0 0-9-1h-26c-2.235.295-4.235-.039-6-1Z"/><path style="opacity:.945" fill="#a4c85e" d="M263.5 315.5h5v24h-5v-24Z"/><path style="opacity:.945" fill="#a0cb62" d="M268.5 315.5h6v24h-6v-24Z"/><path style="opacity:.945" fill="#9dcd64" d="M274.5 315.5h5v24h-5v-24Z"/><path style="opacity:.962" fill="#9ad167" d="M279.5 315.5h6c.672.767 1.505 1.434 2.5 2 .5 6.992.666 13.992.5 21-1.291-.237-2.291.096-3 1h-6v-24Z"/><path style="opacity:.799" fill="#93d76d" d="M285.5 315.5h73v1h-29a144.464 144.464 0 0 0-22 1v21h37c4.863-.319 9.53.014 14 1h-73c.709-.904 1.709-1.237 3-1 .166-7.008 0-14.008-.5-21-.995-.566-1.828-1.233-2.5-2Z"/><path style="opacity:.945" fill="#79d068" d="M361.5 315.5h15v24h-15v-24Z"/><path style="opacity:.945" fill="#73ce67" d="M376.5 315.5h16v24h-16v-24Z"/><path style="opacity:.945" fill="#6dcc66" d="M392.5 315.5h19v24h-19v-24Z"/><path style="opacity:.945" fill="#67ca65" d="M411.5 315.5h19v24h-19v-24Z"/><path style="opacity:.858" fill="#60c864" d="M430.5 315.5h57v1h-17a106.21 106.21 0 0 0-20 1 111.148 111.148 0 0 0-1 21h37c.667 0 1 .333 1 1h-57v-24Z"/><path style="opacity:.945" fill="#49c160" d="M487.5 315.5h34v24h-34c0-.667-.333-1-1-1-1.905-6.719-2.571-13.719-2-21 1.291.237 2.291-.096 3-1v-1Z"/><path style="opacity:.715" fill="#3dbd5d" d="M521.5 315.5h77a361.608 361.608 0 0 1-38 1v22a361.608 361.608 0 0 1 38 1h-77v-24Z"/><path style="opacity:.994" fill="#30b85a" d="M598.5 315.5h3v24h-3a361.608 361.608 0 0 0-38-1v-22a361.608 361.608 0 0 0 38-1Z"/><path style="opacity:.951" fill="#25b457" d="M651.5 332.5c-5.962 3.998-12.628 6.164-20 6.5-9.994.5-19.994.666-30 .5v-24c9.339.166 18.673 0 28-.5 6.215-.902 11.882-3.069 17-6.5 2.695-.433 4.862-1.766 6.5-4 1.095 9.591.595 18.925-1.5 28Z"/><path style="opacity:.998" fill="#fc6520" d="M89.5 316.5h9a127.743 127.743 0 0 1 1 22h-10v-22Z"/><path style="opacity:1" fill="#fc6d21" d="M98.5 316.5h6v22h-5c.297-7.42-.036-14.754-1-22Z"/><path style="opacity:1" fill="#f67924" d="M132.5 316.5v22h-1v-21h-8v21h-10c-.33-7.032.003-14.032 1-21a86.773 86.773 0 0 1 18-1Z"/><path style="opacity:1" fill="#db9130" d="M168.5 316.5c-1.91 7.056-2.576 14.389-2 22h-5c-.166-7.008 0-14.008.5-21 2.041-.923 4.208-1.256 6.5-1Z"/><path style="opacity:1" fill="#b3b950" d="M228.5 316.5h9c.709.904 1.709 1.237 3 1a116.8 116.8 0 0 1-1 21h-7a116.8 116.8 0 0 0 1-21h-4v21h-1v-22Z"/><path style="opacity:1" fill="#afbc53" d="M237.5 316.5h5c1.068.934 2.401 1.268 4 1a116.8 116.8 0 0 1-1 21h-6a116.8 116.8 0 0 0 1-21c-1.291.237-2.291-.096-3-1Z"/><path style="opacity:1" fill="#acbf56" d="M242.5 316.5c3.079-.24 6.079.093 9 1a111.148 111.148 0 0 1 1 21h-7a116.8 116.8 0 0 0 1-21c-1.599.268-2.932-.066-4-1Z"/><path style="opacity:1" fill="#8cd56c" d="M329.5 316.5c-1.765.961-3.765 1.295-6 1v21h-16v-21a144.464 144.464 0 0 1 22-1Z"/><path style="opacity:1" fill="#86d36b" d="M329.5 316.5h29c-5.14.988-10.474 1.321-16 1-.571 7.281.095 14.281 2 21h-21v-21c2.235.295 4.235-.039 6-1Z"/><path style="opacity:1" fill="#5ac662" d="M470.5 316.5c-1.419.951-3.085 1.284-5 1v21h-16c-.33-7.032.003-14.032 1-21a106.21 106.21 0 0 1 20-1Z"/><path style="opacity:1" fill="#54c461" d="M470.5 316.5h17c-.709.904-1.709 1.237-3 1-.571 7.281.095 14.281 2 21h-21v-21c1.915.284 3.581-.049 5-1Z"/><path style="opacity:1" fill="#fc5a1f" d="M82.5 315.5h1c1.765.961 3.765 1.295 6 1v22h-6a146.899 146.899 0 0 0-1-23Z"/><path style="opacity:1" fill="#f17e25" d="M131.5 338.5h-8v-21h8v21Z"/><path style="opacity:1" fill="#ed8127" d="M132.5 316.5h12c0 .667-.333 1-1 1h-7c-.571 7.281.095 14.281 2 21h-6v-22Z"/><path style="opacity:1" fill="#e98528" d="M143.5 317.5c-.264 7.39.07 14.723 1 22h-1c-1.419-.951-3.085-1.284-5-1-1.905-6.719-2.571-13.719-2-21h7Z"/><path style="opacity:1" fill="#bfad45" d="M209.5 315.5h1c1.765.961 3.765 1.295 6 1 0 .667.333 1 1 1 .571 7.281-.095 14.281-2 21h-5c1.586-7.788 1.252-15.455-1-23Z"/><path style="opacity:1" fill="#bcb048" d="M217.5 317.5h6v21h-8c1.905-6.719 2.571-13.719 2-21Z"/><path style="opacity:1" fill="#b9b34b" d="M216.5 316.5h12v22h-5v-21h-6c-.667 0-1-.333-1-1Z"/><path style="opacity:1" fill="#b6b64e" d="M232.5 338.5h-3v-21h4a116.8 116.8 0 0 1-1 21Z"/><path style="opacity:1" fill="#80d26a" d="M358.5 315.5h3v24h-3c-4.47-.986-9.137-1.319-14-1-1.905-6.719-2.571-13.719-2-21 5.526.321 10.86-.012 16-1v-1Z"/></svg>