<svg xmlns="http://www.w3.org/2000/svg" width="712" height="351" style="shape-rendering:geometricPrecision;text-rendering:geometricPrecision;image-rendering:optimizeQuality;fill-rule:evenodd;clip-rule:evenodd"><path style="opacity:.968" fill="#fc471d" d="M63.5 16.5c2.448-.973 5.115-1.306 8-1a139.234 139.234 0 0 1 1 23c-1.599-.268-2.932.066-4 1a20.677 20.677 0 0 0-5 1c.311-.978.978-1.645 2-2a121.87 121.87 0 0 0 1-22h-3Z"/><path style="opacity:.982" fill="#fc4d1e" d="M71.5 15.5h7v23l-10 1c1.068-.934 2.401-1.268 4-1 .299-7.753-.034-15.42-1-23Z"/><path style="opacity:.987" fill="#fc551f" d="M78.5 15.5h5v23h-5v-23Z"/><path style="opacity:.964" fill="#fc6c21" d="M83.5 16.5v-1h18c.709.904 1.709 1.237 3 1v21c-1.291-.237-2.291.096-3 1h-18v-1h6v-21h-6Z"/><path style="opacity:.965" fill="#fb7322" d="M101.5 15.5h19c-2.107.968-4.441 1.302-7 1v21c3.213-.31 6.213.023 9 1h-21c.709-.904 1.709-1.237 3-1v-21c-1.291.237-2.291-.096-3-1Z"/><path style="opacity:.978" fill="#f67924" d="M120.5 15.5h23v1h-12v21h12v1h-21c-2.787-.977-5.787-1.31-9-1v-21c2.559.302 4.893-.032 7-1Z"/><path style="opacity:.986" fill="#e6882a" d="M143.5 15.5h6v23h-6v-23Z"/><path style="opacity:.984" fill="#e28b2c" d="M149.5 15.5h6v23h-6v-23Z"/><path style="opacity:.968" fill="#df8e2e" d="M155.5 15.5h11v1h-6v21h6v1h-11v-23Z"/><path style="opacity:.988" fill="#d99432" d="M166.5 15.5h5v23h-5v-23Z"/><path style="opacity:.984" fill="#d69734" d="M171.5 15.5h7v23h-7v-23Z"/><path style="opacity:.984" fill="#d29b37" d="M178.5 15.5h6v23h-6v-23Z"/><path style="opacity:.984" fill="#cf9d39" d="M184.5 15.5h4v23h-4v-23Z"/><path style="opacity:.984" fill="#cca03b" d="M188.5 15.5h7v23h-7v-23Z"/><path style="opacity:.984" fill="#c9a33d" d="M195.5 15.5h5v23h-5v-23Z"/><path style="opacity:.984" fill="#c6a640" d="M200.5 15.5h5v23h-5v-23Z"/><path style="opacity:.984" fill="#c3a942" d="M205.5 15.5h5v23h-5v-23Z"/><path style="opacity:.984" fill="#bfac45" d="M210.5 15.5h6v23h-6v-23Z"/><path style="opacity:.984" fill="#bcb048" d="M216.5 15.5h6v23h-6v-23Z"/><path style="opacity:.984" fill="#b9b34b" d="M222.5 15.5h7v23h-7v-23Z"/><path style="opacity:.996" fill="#b6b64d" d="M229.5 15.5h1c.709.904 1.709 1.237 3 1v21c-1.291-.237-2.291.096-3 1h-1v-23Z"/><path style="opacity:.977" fill="#b3b950" d="M230.5 15.5h10v23h-10c.709-.904 1.709-1.237 3-1v-21c-1.291.237-2.291-.096-3-1Z"/><path style="opacity:.984" fill="#afbc53" d="M240.5 15.5h5v23h-5v-23Z"/><path style="opacity:.984" fill="#acbf56" d="M245.5 15.5h6v23h-6v-23Z"/><path style="opacity:.984" fill="#a9c359" d="M251.5 15.5h6v23h-6v-23Z"/><path style="opacity:.984" fill="#a7c65b" d="M257.5 15.5h5v23h-5v-23Z"/><path style="opacity:.984" fill="#a3c85e" d="M262.5 15.5h5v23h-5v-23Z"/><path style="opacity:.984" fill="#a0cb61" d="M267.5 15.5h6v23h-6v-23Z"/><path style="opacity:.988" fill="#9dcd64" d="M273.5 15.5h3c1.257 3.575 1.924 7.409 2 11.5-.076 4.091-.743 7.925-2 11.5h-3v-23Z"/><path style="opacity:.994" fill="#99d267" d="M276.5 15.5h4c2.448.973 5.115 1.306 8 1v21c-3.213-.31-6.213.023-9 1h-3c1.257-3.575 1.924-7.409 2-11.5-.076-4.091-.743-7.925-2-11.5Z"/><path style="opacity:.994" fill="#96d56b" d="M280.5 15.5h10a66.641 66.641 0 0 1 0 23h-11c2.787-.977 5.787-1.31 9-1v-21c-2.885.306-5.552-.027-8-1Z"/><path style="opacity:.969" fill="#92d76d" d="M290.5 15.5h30c-4.47.986-9.137 1.32-14 1v21c5.526-.321 10.86.012 16 1h-32a66.641 66.641 0 0 0 0-23Z"/><path style="opacity:.982" fill="#8cd56c" d="M320.5 15.5h37c-5.14.988-10.474 1.321-16 1h-15v21h15c5.526-.321 10.86.012 16 1h-35c-5.14-.988-10.474-1.321-16-1v-21c4.863.32 9.53-.014 14-1Z"/><path style="opacity:.984" fill="#79d068" d="M360.5 15.5h15v23h-15v-23Z"/><path style="opacity:.984" fill="#73ce67" d="M375.5 15.5h16v23h-16v-23Z"/><path style="opacity:.984" fill="#6dcc66" d="M391.5 15.5h19v23h-19v-23Z"/><path style="opacity:.984" fill="#67ca65" d="M410.5 15.5h19v23h-19v-23Z"/><path style="opacity:.979" fill="#60c864" d="M429.5 15.5h24c-1.419.951-3.085 1.285-5 1v21c1.915-.285 3.581.049 5 1h-24v-23Z"/><path style="opacity:.987" fill="#4ec260" d="M486.5 15.5h15v23h-15c-1.068-.934-2.401-1.268-4-1v-21c1.599.268 2.932-.066 4-1Z"/><path style="opacity:.984" fill="#47c05f" d="M501.5 15.5h19v23h-19v-23Z"/><path style="opacity:.984" fill="#41be5e" d="M520.5 15.5h18v23h-18v-23Z"/><path style="opacity:.998" fill="#38bb5c" d="M538.5 15.5h59c-6.145.99-12.478 1.323-19 1v21c6.522-.324 12.855.01 19 1h-59v-23Z"/><path style="opacity:.998" fill="#2eb85a" d="M597.5 15.5h3v23h-3c-6.145-.99-12.478-1.324-19-1v-21c6.522.323 12.855-.01 19-1Z"/><path style="opacity:.986" fill="#27b558" d="M600.5 15.5h22c1.419.951 3.085 1.285 5 1v22h-27v-23Z"/><path style="opacity:.985" fill="#21b356" d="M622.5 15.5c7.81-.539 15.144.794 22 4a59.772 59.772 0 0 0 6.5 4c.824 9.176.657 18.176-.5 27-8.138-6.93-17.471-10.93-28-12h5v-22c-1.915.285-3.581-.049-5-1Z"/><path style="opacity:.991" fill="#fc421d" d="M63.5 16.5h3a121.87 121.87 0 0 1-1 22c-1.022.355-1.689 1.022-2 2a31.705 31.705 0 0 1-6 2c.815-1.337 1.981-2.337 3.5-3a81.228 81.228 0 0 0-.5-22 11.989 11.989 0 0 1-6 1c2.719-1.413 5.719-2.08 9-2Z"/><path style="opacity:1" fill="#fc5b1f" d="M83.5 16.5h6v21h-6v-21Z"/><path style="opacity:1" fill="#fc6520" d="M90.5 16.5h9v21h-9v-21Z"/><path style="opacity:1" fill="#f07e25" d="M123.5 16.5h7v21h-7v-21Z"/><path style="opacity:1" fill="#ed8227" d="M136.5 16.5v21h-5v-21h5Z"/><path style="opacity:1" fill="#e98528" d="M136.5 16.5h7v21h-7v-21Z"/><path style="opacity:1" fill="#dc9130" d="M166.5 16.5v21h-6v-21h6Z"/><path style="opacity:1" fill="#85d36b" d="M341.5 16.5v21h-15v-21h15Z"/><path style="opacity:1" fill="#80d26a" d="M357.5 15.5h3v23h-3c-5.14-.988-10.474-1.321-16-1v-21c5.526.321 10.86-.012 16-1Z"/><path style="opacity:1" fill="#5ac663" d="M453.5 15.5h33c-1.068.934-2.401 1.268-4 1h-18v21h18c1.599-.268 2.932.066 4 1h-33c-1.419-.951-3.085-1.285-5-1v-21c1.915.285 3.581-.049 5-1Z"/><path style="opacity:1" fill="#54c461" d="M482.5 16.5v21h-18v-21h18Z"/><path style="opacity:.999" fill="#fb381c" d="M57.5 42.5a695.1 695.1 0 0 1-7 4v-25h-3c1.82-1.948 4.154-2.948 7-3a11.989 11.989 0 0 0 6-1 81.228 81.228 0 0 1 .5 22c-1.519.663-2.685 1.663-3.5 3Z"/><path style="opacity:.946" fill="#1bb054" d="M644.5 19.5c17.53 6.362 29.697 18.362 36.5 36 1.317 4.6 2.317 9.266 3 14 .5 26.998.667 53.998.5 81h19v53h-19c.167 27.002 0 54.002-.5 81-3.492 23.96-16.326 40.294-38.5 49 1.437-1.225 3.104-2.225 5-3a122.079 122.079 0 0 0 .5-27c-1.129 1.641-2.629 2.641-4.5 3 7.334-6.329 11.834-14.329 13.5-24 .667-70.333.667-140.667 0-211-1.579-7.817-4.745-14.817-9.5-21 1.157-8.824 1.324-17.824.5-27a59.772 59.772 0 0 1-6.5-4Z"/><path style="opacity:.999" fill="#fc2f1c" d="M47.5 21.5h3v26c-2 0-3 1-3 3l-2 1a218.715 218.715 0 0 1-1-29 5.728 5.728 0 0 1 3-1Z"/><path style="opacity:.998" fill="#fb271b" d="M44.5 22.5c-.306 9.75.027 19.416 1 29a6.541 6.541 0 0 1-3 3c-.958.453-1.792 1.12-2.5 2-.667-10-.667-20 0-30 .717-.544 1.217-1.21 1.5-2 .79-.901 1.79-1.568 3-2Z"/><path style="opacity:.893" fill="#fc211b" d="M41.5 24.5c-.283.79-.783 1.456-1.5 2-.667 10-.667 20 0 30 .708-.88 1.542-1.547 2.5-2-3.86 6.42-6.028 13.42-6.5 21a10200.74 10200.74 0 0 0 0 202c.383 9.426 3.55 17.759 9.5 25a218.714 218.714 0 0 0-1 29 64.287 64.287 0 0 1-9-6c.039-1.256-.461-2.256-1.5-3l-.5-146c.01-49.476.676-98.81 2-148 1.648-1.826 3.648-3.16 6-4Z"/><path style="opacity:.999" fill="#fc1c1b" d="M35.5 28.5a5538.293 5538.293 0 0 0-2 148l.5 146c1.039.744 1.539 1.744 1.5 3a34.83 34.83 0 0 1-7-7c.039-1.256-.461-2.256-1.5-3a19181.54 19181.54 0 0 1 0-277l1.5-3c1.333-3.333 3.667-5.667 7-7Z"/><path style="opacity:.998" fill="#fc151a" d="m28.5 35.5-1.5 3a19181.54 19181.54 0 0 0 0 277c1.039.744 1.539 1.744 1.5 3-3.97-3.276-6.97-7.276-9-12a8385.835 8385.835 0 0 1 0-259c2.05-4.793 5.05-8.793 9-12Z"/><path style="opacity:.86" fill="#fc0f1a" d="M19.5 47.5a8385.835 8385.835 0 0 0 0 259c-3.764-6.788-6.264-14.122-7.5-22-.667-71.667-.667-143.333 0-215 1.234-7.87 3.734-15.204 7.5-22Z"/><path style="opacity:.975" fill="#fb0d1b" d="M50.5 47.5h50v259h-50c-1.644-.31-2.644-1.31-3-3v-253c0-2 1-3 3-3Z"/><path style="opacity:.974" fill="#fc7321" d="M108.5 47.5h53v259h-53v-259Z"/><path style="opacity:.974" fill="#fcbf2c" d="M169.5 47.5h53v259h-53v-259Z"/><path style="opacity:.974" fill="#bfce30" d="M230.5 47.5h53v259h-53v-259Z"/><path style="opacity:.974" fill="#93d86d" d="M291.5 47.5h53v259h-53v-259Z"/><path style="opacity:.974" fill="#93ce57" d="M352.5 47.5h53v259h-53v-259Z"/><path style="opacity:1" fill="#fc2f1c" d="m45.5 302.5 2 1c.356 1.69 1.356 2.69 3 3v26h-3c-1.291.237-2.291-.096-3-1-.306-9.75.027-19.416 1-29Z"/><path style="opacity:.989" fill="#21b356" d="M645.5 333.5c-6.755 3.687-14.088 5.354-22 5 1.068-.934 2.401-1.268 4-1v-22c-1.291.237-2.291-.096-3-1 8.158-.496 15.491-3.163 22-8 1.871-.359 3.371-1.359 4.5-3 .832 9.018.665 18.018-.5 27-1.896.775-3.563 1.775-5 3Z"/><path style="opacity:.997" fill="#fc381c" d="M50.5 307.5c2.174.25 3.84 1.25 5 3 1.284 2.114 3.284 3.114 6 3v22h-7c-2.657-.435-4.99-1.435-7-3h3v-25Z"/><path style="opacity:.987" fill="#fc411d" d="m55.5 310.5 8 3c.672.767 1.505 1.434 2.5 2a74.06 74.06 0 0 1-.5 21c-2.155.338-4.489.338-7 0-1.599.268-2.932-.066-4-1h7v-22c-2.716.114-4.716-.886-6-3Z"/><path style="opacity:.976" fill="#fc471e" d="M63.5 313.5c2.065.017 4.065.35 6 1 .709.904 1.709 1.237 3 1v22c-1.599-.268-2.932.066-4 1-3.622.178-6.956-.489-10-2 2.511.338 4.845.338 7 0a74.06 74.06 0 0 0 .5-21c-.995-.566-1.828-1.233-2.5-2Z"/><path style="opacity:.914" fill="#fc4d1e" d="M69.5 314.5h9v24h-10c1.068-.934 2.401-1.268 4-1v-22c-1.291.237-2.291-.096-3-1Z"/><path style="opacity:.953" fill="#fc551f" d="M78.5 314.5h4a146.899 146.899 0 0 1 1 23v1h-5v-24Z"/><path style="opacity:.729" fill="#fb7322" d="M83.5 314.5h60c-3.462.982-7.129 1.315-11 1a111.911 111.911 0 0 0-19 1v21h30v1h-60v-1h21c.166-7.008 0-14.008-.5-21-2.719-.944-5.552-1.277-8.5-1h-6c-2.235.295-4.235-.039-6-1Z"/><path style="opacity:.951" fill="#e5882a" d="M144.5 314.5h5v24h-6v-22c.838-.342 1.172-1.008 1-2Z"/><path style="opacity:.943" fill="#e28b2c" d="M149.5 314.5h6v24h-6v-24Z"/><path style="opacity:.879" fill="#df8e2e" d="M155.5 314.5h12v1a11.988 11.988 0 0 0-6 1 111.148 111.148 0 0 0-1 21h6c.992-.172 1.658.162 2 1h-13v-24Z"/><path style="opacity:.947" fill="#d89432" d="M167.5 314.5h4v24h-3c-.342-.838-1.008-1.172-2-1-.297-7.42.036-14.754 1-22v-1Z"/><path style="opacity:.943" fill="#d69734" d="M171.5 314.5h7v24h-7v-24Z"/><path style="opacity:.943" fill="#d29b37" d="M178.5 314.5h6v24h-6v-24Z"/><path style="opacity:.943" fill="#cf9d39" d="M184.5 314.5h4v24h-4v-24Z"/><path style="opacity:.943" fill="#cca03b" d="M188.5 314.5h7v24h-7v-24Z"/><path style="opacity:.943" fill="#c9a33d" d="M195.5 314.5h5v24h-5v-24Z"/><path style="opacity:.943" fill="#c6a640" d="M200.5 314.5h5v24h-5v-24Z"/><path style="opacity:.943" fill="#c3a942" d="M205.5 314.5h5v24h-5v-24Z"/><path style="opacity:.943" fill="#bfac45" d="M210.5 314.5h6v24h-6v-24Z"/><path style="opacity:.943" fill="#bcb048" d="M216.5 314.5h6v24h-6v-24Z"/><path style="opacity:.943" fill="#b9b34b" d="M222.5 314.5h7v24h-7v-24Z"/><path style="opacity:.99" fill="#b6b64d" d="M229.5 314.5h1c.321 1.548 1.321 2.215 3 2v21h-4v-23Z"/><path style="opacity:.944" fill="#b3b950" d="M230.5 314.5h10v24h-11v-1h4v-21c-1.679.215-2.679-.452-3-2Z"/><path style="opacity:.943" fill="#afbc53" d="M240.5 314.5h5v24h-5v-24Z"/><path style="opacity:.943" fill="#acbf56" d="M245.5 314.5h6v24h-6v-24Z"/><path style="opacity:.943" fill="#a9c359" d="M251.5 314.5h6v24h-6v-24Z"/><path style="opacity:.943" fill="#a7c65b" d="M257.5 314.5h5v24h-5v-24Z"/><path style="opacity:.943" fill="#a3c85e" d="M262.5 314.5h5v24h-5v-24Z"/><path style="opacity:.943" fill="#a0cb61" d="M267.5 314.5h6v24h-6v-24Z"/><path style="opacity:.956" fill="#9dcd64" d="M273.5 314.5h3v1c1.91 7.056 2.576 14.389 2 22-.992-.172-1.658.162-2 1h-3v-24Z"/><path style="opacity:.784" fill="#93d76d" d="M276.5 315.5v-1h81v1h-17a418.607 418.607 0 0 0-34 1v21h35c5.526-.321 10.86.012 16 1h-81c.342-.838 1.008-1.172 2-1h10v-21a73.314 73.314 0 0 0-12-1Z"/><path style="opacity:.943" fill="#79d068" d="M360.5 314.5h15v24h-15v-24Z"/><path style="opacity:.943" fill="#73ce67" d="M375.5 314.5h16v24h-16v-24Z"/><path style="opacity:.943" fill="#6dcc66" d="M391.5 314.5h19v24h-19v-24Z"/><path style="opacity:.943" fill="#67ca65" d="M410.5 314.5h19v24h-19v-24Z"/><path style="opacity:.853" fill="#60c864" d="M429.5 314.5h57v1h-9a238.473 238.473 0 0 0-29 1v21h34c1.599-.268 2.932.066 4 1h-57v-24Z"/><path style="opacity:.957" fill="#4ec260" d="M486.5 314.5h15v24h-15c-1.068-.934-2.401-1.268-4-1v-21c1.599.268 2.932-.066 4-1v-1Z"/><path style="opacity:.943" fill="#47c05f" d="M501.5 314.5h19v24h-19v-24Z"/><path style="opacity:.73" fill="#3dbd5d" d="M520.5 314.5h77a1136.452 1136.452 0 0 1-38 2v21a361.608 361.608 0 0 1 38 1h-77v-24Z"/><path style="opacity:.991" fill="#30b85a" d="M597.5 314.5h3v24h-3a361.608 361.608 0 0 0-38-1v-21a1136.452 1136.452 0 0 0 38-2Z"/><path style="opacity:.953" fill="#27b558" d="M600.5 314.5h24c.709.904 1.709 1.237 3 1v22c-1.599-.268-2.932.066-4 1h-23v-24Z"/><path style="opacity:1" fill="#fc6620" d="M89.5 315.5h6c1.068.934 2.401 1.268 4 1v21h-10v-22Z"/><path style="opacity:1" fill="#fc6d21" d="M95.5 315.5c2.948-.277 5.781.056 8.5 1 .5 6.992.666 13.992.5 21h-5v-21c-1.599.268-2.932-.066-4-1Z"/><path style="opacity:.999" fill="#f67924" d="M132.5 315.5a127.773 127.773 0 0 0-1 22h-1v-21h-7v21h-10v-21a111.911 111.911 0 0 1 19-1Z"/><path style="opacity:1" fill="#dc902f" d="M167.5 315.5a127.773 127.773 0 0 0-1 22h-6c-.33-7.032.003-14.032 1-21a11.988 11.988 0 0 1 6-1Z"/><path style="opacity:1" fill="#99d267" d="M276.5 315.5c4.034.005 8.034.338 12 1v21h-10c.576-7.611-.09-14.944-2-22Z"/><path style="opacity:.999" fill="#8cd56c" d="M340.5 315.5c-5.81.99-11.81 1.323-18 1v21h-16v-21a418.607 418.607 0 0 1 34-1Z"/><path style="opacity:.999" fill="#5ac663" d="M477.5 315.5c-4.134.985-8.468 1.318-13 1v21h-16v-21a238.473 238.473 0 0 1 29-1Z"/><path style="opacity:1" fill="#54c461" d="M477.5 315.5h9c-1.068.934-2.401 1.268-4 1v21h-18v-21c4.532.318 8.866-.015 13-1Z"/><path style="opacity:1" fill="#fc5b1f" d="M82.5 314.5h1c1.765.961 3.765 1.295 6 1v22h-6a146.899 146.899 0 0 0-1-23Z"/><path style="opacity:1" fill="#f07e25" d="M130.5 337.5h-7v-21h7v21Z"/><path style="opacity:1" fill="#ed8227" d="M143.5 314.5h1c.172.992-.162 1.658-1 2h-7v21h-5c-.297-7.42.036-14.754 1-22 3.871.315 7.538-.018 11-1Z"/><path style="opacity:1" fill="#e98528" d="M143.5 316.5v21h-7v-21h7Z"/><path style="opacity:1" fill="#86d36b" d="M340.5 315.5h17c-5.14.988-10.474 1.321-16 1v21h-19v-21c6.19.323 12.19-.01 18-1Z"/><path style="opacity:1" fill="#80d26a" d="M357.5 314.5h3v24h-3c-5.14-.988-10.474-1.321-16-1v-21c5.526.321 10.86-.012 16-1v-1Z"/></svg>