<svg xmlns="http://www.w3.org/2000/svg" width="714" height="350" style="shape-rendering:geometricPrecision;text-rendering:geometricPrecision;image-rendering:optimizeQuality;fill-rule:evenodd;clip-rule:evenodd"><path style="opacity:.984" fill="#fc411d" d="M72.5 16.5c-1.419.951-3.085 1.285-5 1v22h6c-2.448.973-5.115 1.306-8 1h-4c-.58-7.941.086-15.608 2-23 2.787-.977 5.787-1.31 9-1Z"/><path style="opacity:.999" fill="#fc4c1e" d="M72.5 16.5h1c1.419.951 3.085 1.285 5 1v21c-1.915-.285-3.581.049-5 1h-6v-22c1.915.285 3.581-.049 5-1Z"/><path style="opacity:.962" fill="#fc6c21" d="M92.5 17.5v-1h10c1.91 7.056 2.576 14.389 2 22-1.599-.268-2.932.066-4 1h-27c1.419-.951 3.085-1.285 5-1h21v-21h-7Z"/><path style="opacity:.96" fill="#fb7422" d="M102.5 16.5h18c-2.107.968-4.441 1.302-7 1v21h30v1h-43c1.068-.934 2.401-1.268 4-1 .576-7.611-.09-14.944-2-22Z"/><path style="opacity:.992" fill="#f67924" d="M120.5 16.5h23v1h-20v21h-10v-21c2.559.302 4.893-.032 7-1Z"/><path style="opacity:.986" fill="#e6882a" d="M143.5 16.5h6v23h-6v-23Z"/><path style="opacity:.984" fill="#e28b2c" d="M149.5 16.5h6v23h-6v-23Z"/><path style="opacity:.962" fill="#df8d2e" d="M155.5 16.5h10c-1.419.951-3.085 1.285-5 1v21h6c1.291-.237 2.291.096 3 1h-14v-23Z"/><path style="opacity:.992" fill="#dc9130" d="M165.5 16.5h12c-1.765.961-3.765 1.295-6 1h-5v21h-6v-21c1.915.285 3.581-.049 5-1Z"/><path style="opacity:.993" fill="#bfad45" d="M210.5 16.5h6a66.641 66.641 0 0 1 0 23h-6a66.641 66.641 0 0 0 0-23Z"/><path style="opacity:.981" fill="#bcb048" d="M216.5 16.5h7v23h-7a66.641 66.641 0 0 0 0-23Z"/><path style="opacity:.984" fill="#b9b34b" d="M223.5 16.5h7v23h-7v-23Z"/><path style="opacity:.984" fill="#b4b84f" d="M230.5 16.5h9v23h-9v-23Z"/><path style="opacity:.984" fill="#b0bc53" d="M239.5 16.5h6v23h-6v-23Z"/><path style="opacity:.984" fill="#adbf56" d="M245.5 16.5h6v23h-6v-23Z"/><path style="opacity:.984" fill="#a8c45a" d="M251.5 16.5h12v23h-12v-23Z"/><path style="opacity:.984" fill="#a0cb61" d="M263.5 16.5h13c1.91 7.056 2.576 14.389 2 22-.667 0-1 .333-1 1h-14v-23Z"/><path style="opacity:.998" fill="#9ad167" d="M276.5 16.5h5c2.107.968 4.441 1.302 7 1v21h-10c.576-7.611-.09-14.944-2-22Z"/><path style="opacity:.962" fill="#92d66d" d="M281.5 16.5h37c-3.462.982-7.129 1.315-11 1v21h34c5.526-.321 10.86.012 16 1h-80c0-.667.333-1 1-1h10v-21c-2.559.302-4.893-.032-7-1Z"/><path style="opacity:.99" fill="#8cd56c" d="M318.5 16.5h39c-5.14.988-10.474 1.321-16 1h-18v21h-16v-21c3.871.315 7.538-.018 11-1Z"/><path style="opacity:.984" fill="#79d068" d="M360.5 16.5h16v23h-16v-23Z"/><path style="opacity:.984" fill="#6fcd66" d="M376.5 16.5h35v23h-35v-23Z"/><path style="opacity:.984" fill="#66ca65" d="M411.5 16.5h19v23h-19v-23Z"/><path style="opacity:.991" fill="#5cc763" d="M430.5 16.5h67c-4.47.986-9.137 1.32-14 1h-19v21h19c4.863-.32 9.53.014 14 1h-67v-23Z"/><path style="opacity:.984" fill="#49c160" d="M497.5 16.5h24v23h-24c-4.47-.986-9.137-1.32-14-1v-21c4.863.32 9.53-.014 14-1Z"/><path style="opacity:.984" fill="#3cbd5d" d="M521.5 16.5h47c-2.787.977-5.787 1.31-9 1v21c3.542-.313 6.875.02 10 1h-48v-23Z"/><path style="opacity:.99" fill="#23b457" d="M614.5 16.5c8.713-.252 17.38.248 26 1.5 1.991.374 3.658 1.207 5 2.5a59.772 59.772 0 0 0 6.5 4c.667 8.667.667 17.333 0 26-1.638-2.234-3.805-3.567-6.5-4-9.936-5.25-20.603-7.583-32-7-3.798-.983-7.798-1.317-12-1v-21c4.532.318 8.866-.015 13-1Z"/><path style="opacity:1" fill="#fc541f" d="M78.5 17.5h3v21h-3v-21Z"/><path style="opacity:1" fill="#fc6020" d="M73.5 16.5h19v22h-4v-21h-6v21h-1v-21h-3c-1.915.285-3.581-.049-5-1Z"/><path style="opacity:1" fill="#fc5a1f" d="M88.5 38.5h-6v-21h6v21Z"/><path style="opacity:1" fill="#fc6620" d="M92.5 17.5h7v21h-7v-21Z"/><path style="opacity:1" fill="#f07e25" d="M133.5 17.5v21h-10v-21h10Z"/><path style="opacity:1" fill="#ea8428" d="M133.5 17.5h10v21h-10v-21Z"/><path style="opacity:1" fill="#d99431" d="M171.5 17.5v21h30c2.885-.306 5.552.027 8 1h-40c-.709-.904-1.709-1.237-3-1v-21h5Z"/><path style="opacity:1" fill="#d69734" d="M177.5 16.5h32c-2.448.973-5.115 1.306-8 1h-11v21h-1v-21h-11v21h-7v-21c2.235.295 4.235-.039 6-1Z"/><path style="opacity:1" fill="#d19b37" d="M189.5 38.5h-11v-21h11v21Z"/><path style="opacity:1" fill="#caa33d" d="M201.5 17.5v21h-11v-21h11Z"/><path style="opacity:1" fill="#c3a942" d="M209.5 16.5h1a66.641 66.641 0 0 1 0 23h-1c-2.448-.973-5.115-1.306-8-1v-21c2.885.306 5.552-.027 8-1Z"/><path style="opacity:1" fill="#86d36b" d="M341.5 17.5v21h-18v-21h18Z"/><path style="opacity:1" fill="#80d26a" d="M357.5 16.5h3v23h-3c-5.14-.988-10.474-1.321-16-1v-21c5.526.321 10.86-.012 16-1Z"/><path style="opacity:1" fill="#54c462" d="M483.5 17.5v21h-19v-21h19Z"/><path style="opacity:1" fill="#30b85a" d="M568.5 16.5h46c-4.134.985-8.468 1.318-13 1v21c4.202-.317 8.202.017 12 1h-44c-3.125-.98-6.458-1.313-10-1v-21c3.213.31 6.213-.023 9-1Z"/><path style="opacity:.925" fill="#fb371c" d="M63.5 17.5c-1.914 7.392-2.58 15.059-2 23h4c-5.024 1.013-9.358 3.346-13 7h-2c.11-8.365-.057-17.032-.5-26-.67.752-1.504 1.086-2.5 1 4.718-3.237 10.052-4.904 16-5Z"/><path style="opacity:.951" fill="#1bb054" d="M645.5 20.5c18.738 6.907 31.238 19.907 37.5 39a190.665 190.665 0 0 1 2 11c.5 26.998.667 53.998.5 81h19v53h-19c.167 27.002 0 54.002-.5 81-2.938 21.076-13.771 36.41-32.5 46 .166-9.006 0-18.006-.5-27-1.129 1.641-2.629 2.641-4.5 3 6.828-6.654 11.328-14.654 13.5-24 .667-70.333.667-140.667 0-211-1.879-10.779-7.046-19.445-15.5-26 2.695.433 4.862 1.766 6.5 4 .667-8.667.667-17.333 0-26a59.772 59.772 0 0 1-6.5-4Z"/><path style="opacity:.998" fill="#fc2b1c" d="M50.5 47.5c-1.051.722-1.718 1.722-2 3-3.74 2.737-6.74 6.07-9 10v-32h-3c3.175-2.828 6.842-4.828 11-6 .996.086 1.83-.248 2.5-1 .443 8.968.61 17.635.5 26Z"/><path style="opacity:.999" fill="#fc1d1b" d="M36.5 28.5h3v32a47.057 47.057 0 0 0-3.5 17c-.667 67-.667 134 0 201a53.67 53.67 0 0 0 2.5 14 334.207 334.207 0 0 1 1 34h-3a25.907 25.907 0 0 1-9-8 13069.994 13069.994 0 0 1-.5-279 16.569 16.569 0 0 1 2.5-4c1.311-3.311 3.645-5.645 7-7Z"/><path style="opacity:.998" fill="#fc131a" d="M29.5 35.5a16.569 16.569 0 0 0-2.5 4c-.826 93.028-.66 186.028.5 279-8.496-9.267-13.663-20.267-15.5-33-.667-71.667-.667-143.333 0-215 2.107-12.671 7.107-24.004 15-34 .67-.752 1.504-1.086 2.5-1Z"/><path style="opacity:.991" fill="#fb0d1b" d="M50.5 47.5h50v260h-51c-.838-.342-1.172-1.008-1-2v-255c.282-1.278.949-2.278 2-3Z"/><path style="opacity:.991" fill="#fc7321" d="M109.5 47.5h52v260h-52v-260Z"/><path style="opacity:.991" fill="#fcbf2c" d="M170.5 47.5h52v260h-52v-260Z"/><path style="opacity:.991" fill="#bfce30" d="M231.5 47.5h52v260h-52v-260Z"/><path style="opacity:.991" fill="#93d86d" d="M292.5 47.5h52v260h-52v-260Z"/><path style="opacity:.972" fill="#93ce57" d="M353.5 47.5a696.418 696.418 0 0 1 52.5 1c.5 86.333.667 172.666.5 259h-53v-260Z"/><path style="opacity:.972" fill="#19af53" d="M414.5 47.5h53v260h-53v-260Z"/><path style="opacity:.992" fill="#fc2d1c" d="M38.5 292.5a49.839 49.839 0 0 0 10 13c-.172.992.162 1.658 1 2 1.302 8.608 1.302 17.274 0 26a6.845 6.845 0 0 0-4-1c-3.55-1.223-6.55-3.223-9-6h3a334.207 334.207 0 0 0-1-34Z"/><path style="opacity:.918" fill="#fc371c" d="M49.5 307.5h2c1.753 1.723 3.753 3.223 6 4.5a204.078 204.078 0 0 0 11 3.5h-7c-.58 7.941.086 15.608 2 23-6.553-.629-12.553-2.629-18-6a6.845 6.845 0 0 1 4 1c1.302-8.726 1.302-17.392 0-26Z"/><path style="opacity:.978" fill="#fc431d" d="M68.5 315.5h4v24a41.732 41.732 0 0 1-9-1c-1.914-7.392-2.58-15.059-2-23h7Z"/><path style="opacity:.696" fill="#fc7322" d="M73.5 315.5h70c-.709.904-1.709 1.237-3 1h-12c-4.733-.277-9.4.057-14 1a111.148 111.148 0 0 0-1 21h22c2.885-.306 5.552.027 8 1h-70c2.448-.973 5.115-1.306 8-1h23c.166-7.008 0-14.008-.5-21-2.041-.923-4.207-1.256-6.5-1h-17c-2.56.302-4.893-.032-7-1Z"/><path style="opacity:.951" fill="#e5882a" d="M144.5 315.5h5v24h-5c-1.333-8-1.333-16 0-24Z"/><path style="opacity:.943" fill="#e28b2c" d="M149.5 315.5h6v24h-6v-24Z"/><path style="opacity:.661" fill="#df8d2e" d="M155.5 315.5h54v1h-40a19.372 19.372 0 0 0-8 1 111.148 111.148 0 0 0-1 21h44c1.915-.284 3.581.049 5 1h-54v-24Z"/><path style="opacity:.988" fill="#bfad45" d="M210.5 315.5h6c1.304 8.03 1.304 16.03 0 24h-6c1.333-8 1.333-16 0-24Z"/><path style="opacity:.935" fill="#bcb048" d="M216.5 315.5h7v24h-7c1.304-7.97 1.304-15.97 0-24Z"/><path style="opacity:.943" fill="#b9b34b" d="M223.5 315.5h7v24h-7v-24Z"/><path style="opacity:.943" fill="#b4b84f" d="M230.5 315.5h9v24h-9v-24Z"/><path style="opacity:.943" fill="#b0bc53" d="M239.5 315.5h6v24h-6v-24Z"/><path style="opacity:.943" fill="#adbf56" d="M245.5 315.5h6v24h-6v-24Z"/><path style="opacity:.943" fill="#a9c359" d="M251.5 315.5h7v24h-7v-24Z"/><path style="opacity:.943" fill="#a6c65c" d="M258.5 315.5h5v24h-5v-24Z"/><path style="opacity:.943" fill="#a3c95f" d="M263.5 315.5h5v24h-5v-24Z"/><path style="opacity:.943" fill="#9fcc62" d="M268.5 315.5h8c2.252 7.545 2.586 15.212 1 23-.667 0-1 .333-1 1h-8v-24Z"/><path style="opacity:.996" fill="#9ad167" d="M276.5 315.5h1c3.195.736 6.529 1.403 10 2a111.148 111.148 0 0 1 1 21h-11c1.586-7.788 1.252-15.455-1-23Z"/><path style="opacity:.775" fill="#93d76d" d="M277.5 315.5h80v1h-27a156.33 156.33 0 0 0-23 1v21h37c4.532-.318 8.866.015 13 1h-81c0-.667.333-1 1-1h11c.33-7.032-.003-14.032-1-21a182.023 182.023 0 0 1-10-2Z"/><path style="opacity:.943" fill="#79d068" d="M360.5 315.5h16v24h-16v-24Z"/><path style="opacity:.943" fill="#6fcd66" d="M376.5 315.5h35v24h-35v-24Z"/><path style="opacity:.943" fill="#66ca65" d="M411.5 315.5h19v24h-19v-24Z"/><path style="opacity:.824" fill="#5ec763" d="M430.5 315.5h67c-.709.904-1.709 1.237-3 1a300.808 300.808 0 0 0-30 1v20a144.464 144.464 0 0 0 22 1c3.871-.315 7.538.018 11 1h-67v-24Z"/><path style="opacity:.943" fill="#49c15f" d="M497.5 315.5h24v24h-24c-3.462-.982-7.129-1.315-11-1-.709-.904-1.709-1.237-3-1v-20c3.871.315 7.538-.018 11-1 1.291.237 2.291-.096 3-1Z"/><path style="opacity:.943" fill="#3cbd5d" d="M521.5 315.5h92v1a722.944 722.944 0 0 0-53.5 1c-.811 6.914-.645 13.748.5 20.5 15.33.5 30.663.667 46 .5 2.559-.302 4.893.032 7 1h-92v-24Z"/><path style="opacity:.953" fill="#25b457" d="M652.5 331.5c-6.49 4.553-13.823 7.053-22 7.5-5.657.499-11.324.666-17 .5-2.107-.968-4.441-1.302-7-1-1.419-.951-3.085-1.284-5-1v-20c4.202.317 8.202-.017 12-1v-1c12.373 1.263 23.706-1.404 34-8 1.871-.359 3.371-1.359 4.5-3 .5 8.994.666 17.994.5 27Z"/><path style="opacity:1" fill="#fc501e" d="M72.5 315.5h1c2.107.968 4.44 1.302 7 1a127.743 127.743 0 0 1 1 22c-2.885-.306-5.552.027-8 1h-1v-24Z"/><path style="opacity:.999" fill="#fc5d1f" d="M80.5 316.5h9c.709.904 1.709 1.237 3 1v21h-11c.297-7.42-.036-14.754-1-22Z"/><path style="opacity:1" fill="#fc6620" d="M89.5 316.5h8c1.91 7.056 2.576 14.389 2 22h-7v-21c-1.291.237-2.291-.096-3-1Z"/><path style="opacity:1" fill="#fc6d21" d="M97.5 316.5c2.293-.256 4.459.077 6.5 1 .5 6.992.666 13.992.5 21h-5c.576-7.611-.09-14.944-2-22Z"/><path style="opacity:1" fill="#f67924" d="M128.5 316.5c-1.419.951-3.085 1.284-5 1a116.8 116.8 0 0 0 1 21h-11c-.33-7.032.003-14.032 1-21a53.775 53.775 0 0 1 14-1Z"/><path style="opacity:1" fill="#dc9130" d="M169.5 316.5c-.709.904-1.709 1.237-3 1v21h-6c-.33-7.032.003-14.032 1-21a19.372 19.372 0 0 1 8-1Z"/><path style="opacity:1" fill="#d79633" d="M169.5 316.5h14c-1.419.951-3.085 1.284-5 1-.571 7.281.095 14.281 2 21h-14v-21c1.291.237 2.291-.096 3-1Z"/><path style="opacity:1" fill="#d39a36" d="M183.5 316.5h7v22h-1v-21h-5c-.571 7.281.095 14.281 2 21h-6c-1.905-6.719-2.571-13.719-2-21 1.915.284 3.581-.049 5-1Z"/><path style="opacity:1" fill="#8cd56c" d="M330.5 316.5c-2.107.968-4.441 1.302-7 1-.571 7.281.095 14.281 2 21h-18v-21a156.33 156.33 0 0 1 23-1Z"/><path style="opacity:.999" fill="#86d36b" d="M330.5 316.5h27c-5.14.988-10.474 1.321-16 1v20c1.291-.237 2.291.096 3 1h-19c-1.905-6.719-2.571-13.719-2-21 2.559.302 4.893-.032 7-1Z"/><path style="opacity:.999" fill="#54c461" d="M494.5 316.5c-3.462.982-7.129 1.315-11 1v20c1.291-.237 2.291.096 3 1a144.464 144.464 0 0 1-22-1v-20a300.808 300.808 0 0 1 30-1Z"/><path style="opacity:.999" fill="#30b85a" d="M613.5 316.5c-3.798.983-7.798 1.317-12 1v20c1.915-.284 3.581.049 5 1-15.337.167-30.67 0-46-.5-1.145-6.752-1.311-13.586-.5-20.5a722.944 722.944 0 0 1 53.5-1Z"/><path style="opacity:1" fill="#f07e25" d="M128.5 316.5h12c-2.107.968-4.441 1.302-7 1-.571 7.281.095 14.281 2 21h-11a116.8 116.8 0 0 1-1-21c1.915.284 3.581-.049 5-1Z"/><path style="opacity:1" fill="#ea8428" d="M143.5 315.5h1c-1.333 8-1.333 16 0 24h-1c-2.448-.973-5.115-1.306-8-1-1.905-6.719-2.571-13.719-2-21 2.559.302 4.893-.032 7-1 1.291.237 2.291-.096 3-1Z"/><path style="opacity:1" fill="#cf9d39" d="M189.5 338.5h-3c-1.905-6.719-2.571-13.719-2-21h5v21Z"/><path style="opacity:1" fill="#cca03b" d="M190.5 316.5h19c-2.448.973-5.115 1.306-8 1h-6v20c1.599-.268 2.932.066 4 1h-9v-22Z"/><path style="opacity:1" fill="#c9a33d" d="M201.5 317.5v20c1.291-.237 2.291.096 3 1h-5c-1.068-.934-2.401-1.268-4-1v-20h6Z"/><path style="opacity:1" fill="#c4a841" d="M209.5 315.5h1c1.333 8 1.333 16 0 24h-1c-1.419-.951-3.085-1.284-5-1-.709-.904-1.709-1.237-3-1v-20c2.885.306 5.552-.027 8-1v-1Z"/><path style="opacity:1" fill="#80d26a" d="M357.5 315.5h3v24h-3c-4.134-.985-8.468-1.318-13-1-.709-.904-1.709-1.237-3-1v-20c5.526.321 10.86-.012 16-1v-1Z"/></svg>