<svg xmlns="http://www.w3.org/2000/svg" width="715" height="350" style="shape-rendering:geometricPrecision;text-rendering:geometricPrecision;image-rendering:optimizeQuality;fill-rule:evenodd;clip-rule:evenodd"><path style="opacity:.967" fill="#fc431d" d="M72.5 16.5c-.325 7.852.008 15.518 1 23-2.448.973-5.115 1.306-8 1h-3c-.299-7.753.034-15.42 1-23 2.787-.977 5.787-1.31 9-1Z"/><path style="opacity:.975" fill="#fc6d21" d="M90.5 16.5h12c1.257 3.575 1.924 7.409 2 11.5-.076 4.092-.743 7.925-2 11.5h-10c2.107-.968 4.44-1.302 7-1v-21c-3.213.31-6.213-.023-9-1Z"/><path style="opacity:.979" fill="#fb7322" d="M102.5 16.5h19c-2.448.973-5.115 1.306-8 1v21c2.559-.302 4.893.032 7 1h-18c1.257-3.575 1.924-7.408 2-11.5-.076-4.091-.743-7.925-2-11.5Z"/><path style="opacity:.985" fill="#f67924" d="M121.5 16.5h22c-3.462.982-7.129 1.315-11 1v21h12v1h-24c-2.107-.968-4.441-1.302-7-1v-21c2.885.306 5.552-.027 8-1Z"/><path style="opacity:.989" fill="#e5882a" d="M144.5 16.5h6v23h-6v-23Z"/><path style="opacity:.989" fill="#e28b2c" d="M150.5 16.5h6v23h-6v-23Z"/><path style="opacity:.978" fill="#de8f2e" d="M156.5 16.5h11a139.201 139.201 0 0 0-1 23h-10v-23Z"/><path style="opacity:.986" fill="#c0ab44" d="M210.5 16.5h6a66.641 66.641 0 0 1 0 23h-6c-1.068-.934-2.401-1.268-4-1v-21c1.599.268 2.932-.066 4-1Z"/><path style="opacity:.987" fill="#bcaf48" d="M216.5 16.5h7v23h-7a66.641 66.641 0 0 0 0-23Z"/><path style="opacity:.989" fill="#b9b34b" d="M223.5 16.5h7v23h-7v-23Z"/><path style="opacity:.989" fill="#b4b84f" d="M230.5 16.5h10v23h-10v-23Z"/><path style="opacity:.989" fill="#b0bc53" d="M240.5 16.5h6v23h-6v-23Z"/><path style="opacity:.989" fill="#acbf56" d="M246.5 16.5h6v23h-6v-23Z"/><path style="opacity:.989" fill="#a8c359" d="M252.5 16.5h11v23h-11v-23Z"/><path style="opacity:.989" fill="#a1cb61" d="M263.5 16.5h14c1.257 3.575 1.924 7.409 2 11.5-.076 4.092-.743 7.925-2 11.5h-14v-23Z"/><path style="opacity:.995" fill="#99d167" d="M277.5 16.5h4c2.448.973 5.115 1.306 8 1v21c-2.559-.302-4.893.032-7 1h-5c1.257-3.575 1.924-7.408 2-11.5-.076-4.091-.743-7.925-2-11.5Z"/><path style="opacity:.977" fill="#93d76d" d="M281.5 16.5h42c-5.14.988-10.474 1.321-16 1v21c3.871-.315 7.538.018 11 1h-36c2.107-.968 4.441-1.302 7-1v-21c-2.885.306-5.552-.027-8-1Z"/><path style="opacity:.989" fill="#75ce67" d="M361.5 16.5h32v23h-32v-23Z"/><path style="opacity:.989" fill="#69cb65" d="M393.5 16.5h38v23h-38v-23Z"/><path style="opacity:.989" fill="#49c160" d="M498.5 16.5h24v23h-24c-4.47-.986-9.137-1.32-14-1v-21c4.863.32 9.53-.014 14-1Z"/><path style="opacity:.989" fill="#3cbd5d" d="M522.5 16.5h48c-2.787.977-5.787 1.31-9 1v21c3.213-.31 6.213.023 9 1h-48v-23Z"/><path style="opacity:.976" fill="#32b95b" d="M570.5 16.5h45c-4.134.985-8.468 1.318-13 1v21c4.532-.318 8.866.015 13 1h-45c-2.787-.977-5.787-1.31-9-1v-21c3.213.31 6.213-.023 9-1Z"/><path style="opacity:.993" fill="#23b457" d="M615.5 16.5c6.675-.166 13.342 0 20 .5 1.882.198 3.548.698 5 1.5 4.231 1.978 8.564 3.978 13 6a122.078 122.078 0 0 1 .5 27c-2.177-3.023-5.011-5.023-8.5-6-9.497-4.311-19.497-6.311-30-6-4.134-.985-8.468-1.318-13-1v-21c4.532.318 8.866-.015 13-1Z"/><path style="opacity:.999" fill="#fc4f1e" d="M72.5 16.5h1c2.448.973 5.115 1.306 8 1v21c-2.885-.306-5.552.027-8 1-.992-7.482-1.325-15.148-1-23Z"/><path style="opacity:1" fill="#fc6420" d="M73.5 16.5h17c2.787.977 5.787 1.31 9 1v21c-2.56-.302-4.893.032-7 1h-19c2.448-.973 5.115-1.306 8-1v-21c-2.885.306-5.552-.027-8-1Z"/><path style="opacity:1" fill="#fc5a1f" d="M82.5 17.5h6v21h-6v-21Z"/><path style="opacity:1" fill="#f17e25" d="M123.5 17.5h8v21h-8v-21Z"/><path style="opacity:1" fill="#ea8428" d="M143.5 16.5h1v22h-12v-21c3.871.315 7.538-.018 11-1Z"/><path style="opacity:1" fill="#d79633" d="M167.5 16.5h43c-1.068.934-2.401 1.268-4 1h-16v21h16c1.599-.268 2.932.066 4 1h-44c-.299-7.753.034-15.42 1-23Z"/><path style="opacity:1" fill="#d19b37" d="M178.5 17.5h11v21h-11v-21Z"/><path style="opacity:1" fill="#cca03b" d="M196.5 17.5v21h-6v-21h6Z"/><path style="opacity:1" fill="#c6a63f" d="M196.5 17.5h10v21h-10v-21Z"/><path style="opacity:1" fill="#88d46c" d="M323.5 16.5h35c-5.14.988-10.474 1.321-16 1v21c5.526-.321 10.86.012 16 1h-40c-3.462-.982-7.129-1.315-11-1v-21c5.526.321 10.86-.012 16-1Z"/><path style="opacity:1" fill="#80d26a" d="M358.5 16.5h3v23h-3c-5.14-.988-10.474-1.321-16-1v-21c5.526.321 10.86-.012 16-1Z"/><path style="opacity:.991" fill="#5ac663" d="M431.5 16.5h67c-4.47.986-9.137 1.32-14 1v21c4.863-.32 9.53.014 14 1h-67v-23Z"/><path style="opacity:.917" fill="#fb371c" d="M63.5 17.5a139.234 139.234 0 0 0-1 23h3a151.847 151.847 0 0 0-15 7v-25h-3c4.757-3.195 10.09-4.861 16-5Z"/><path style="opacity:.952" fill="#1bb054" d="M640.5 18.5c19.067 4.896 32.9 16.23 41.5 34a91.942 91.942 0 0 1 5 18c.5 27.331.667 54.665.5 82h19v53h-19c.167 27.002 0 54.002-.5 81-2.962 21.302-13.795 36.968-32.5 47 .166-9.006 0-18.006-.5-27a18.473 18.473 0 0 1-3.5 2c3.702-4.22 6.869-8.887 9.5-14a30.13 30.13 0 0 0 3-12c.667-69 .667-138 0-207-1.478-12.634-7.312-22.634-17.5-30 3.489.977 6.323 2.977 8.5 6 .832-9.019.665-18.019-.5-27a1498.587 1498.587 0 0 1-13-6Z"/><path style="opacity:.995" fill="#fc2a1c" d="M47.5 22.5h3v26c-1.333 0-2 .667-2 2a70.803 70.803 0 0 0-9 11c.644-11.384-.023-22.384-2-33 2.661-3.002 5.995-5.002 10-6Z"/><path style="opacity:.999" fill="#fc1d1b" d="M37.5 28.5c1.977 10.616 2.644 21.616 2 33a69.456 69.456 0 0 0-3.5 16 10200.74 10200.74 0 0 0 0 202 68.202 68.202 0 0 0 3.5 17v32h-3c-2.254-.624-3.92-1.957-5-4a43.87 43.87 0 0 0-4.5-7 13131.81 13131.81 0 0 1 .5-280c2.731-3.734 6.064-6.734 10-9Z"/><path style="opacity:.998" fill="#fc131a" d="M27.5 37.5a13131.81 13131.81 0 0 0-.5 280 43.87 43.87 0 0 1 4.5 7c-10.957-10.245-17.457-22.912-19.5-38-.667-71.667-.667-143.333 0-215 1.71-13.077 6.878-24.41 15.5-34Z"/><path style="opacity:.976" fill="#fb0d1b" d="M50.5 48.5h51v261h-52a5.728 5.728 0 0 1-1-3v-256c0-1.333.667-2 2-2Z"/><path style="opacity:.976" fill="#fc7321" d="M109.5 48.5h53v261h-53v-261Z"/><path style="opacity:.976" fill="#fcbf2c" d="M170.5 48.5h53v261h-53v-261Z"/><path style="opacity:.976" fill="#bfce30" d="M231.5 48.5h53v261h-53v-261Z"/><path style="opacity:.976" fill="#93d86d" d="M292.5 48.5h53v261h-53v-261Z"/><path style="opacity:.976" fill="#93ce57" d="M354.5 48.5h53v261h-53v-261Z"/><path style="opacity:.976" fill="#19af53" d="M415.5 48.5h53v261h-53v-261ZM476.5 48.5h53v261h-53v-261Z"/><path style="opacity:.99" fill="#fc2c1c" d="M39.5 296.5a50.45 50.45 0 0 0 9 10 5.728 5.728 0 0 0 1 3 116.517 116.517 0 0 1 .5 26 18.158 18.158 0 0 0-5.5-2 24.763 24.763 0 0 1-8-5h3v-32Z"/><path style="opacity:.962" fill="#fc3b1d" d="M49.5 309.5h2c6.554 4.95 13.887 7.616 22 8l-6 1c-.166 7.008 0 14.008.5 21a36.287 36.287 0 0 1 4.5 2 71.277 71.277 0 0 1-19-3.5c-3.483-.765-6.483-2.265-9-4.5a18.158 18.158 0 0 1 5.5 2c.802-8.745.636-17.412-.5-26Z"/><path style="opacity:.997" fill="#fc4d1e" d="M73.5 317.5c2.448.973 5.115 1.306 8 1v22c-2.885-.306-5.552.027-8 1h-1a36.287 36.287 0 0 0-4.5-2 220.94 220.94 0 0 1-.5-21l6-1Z"/><path style="opacity:.754" fill="#fc7222" d="M73.5 317.5h71v1h-31c-.33 7.032.003 14.032 1 21a86.773 86.773 0 0 0 18 1h12v1h-71c2.448-.973 5.115-1.306 8-1a77.743 77.743 0 0 0 17-1 111.123 111.123 0 0 0 1-21h-18c-2.885.306-5.552-.027-8-1Z"/><path style="opacity:.948" fill="#e5882a" d="M144.5 317.5h6v24h-6v-24Z"/><path style="opacity:.948" fill="#e28b2c" d="M150.5 317.5h6v24h-6v-24Z"/><path style="opacity:.71" fill="#de8e2e" d="M156.5 317.5h54v1h-44v21a180.81 180.81 0 0 0 24 1h20v1h-54v-24Z"/><path style="opacity:.897" fill="#bcaf48" d="M210.5 318.5v-1h13v24h-13v-1h7v-22h-7Z"/><path style="opacity:.948" fill="#b9b34b" d="M223.5 317.5h7v24h-7v-24Z"/><path style="opacity:.948" fill="#b4b84f" d="M230.5 317.5h10v24h-10v-24Z"/><path style="opacity:.948" fill="#b0bc53" d="M240.5 317.5h6v24h-6v-24Z"/><path style="opacity:.948" fill="#acbf56" d="M246.5 317.5h6v24h-6v-24Z"/><path style="opacity:.948" fill="#a7c45a" d="M252.5 317.5h11v24h-11v-24Z"/><path style="opacity:.948" fill="#a4c85e" d="M263.5 317.5h5v24h-5v-24Z"/><path style="opacity:.948" fill="#a0cc62" d="M268.5 317.5h9c.342.838 1.008 1.172 2 1 .576 7.611-.09 14.944-2 22v1h-9v-24Z"/><path style="opacity:.786" fill="#93d76d" d="M277.5 317.5h81c-5.14.988-10.474 1.321-16 1h-35v21a750.764 750.764 0 0 0 51 1v1h-81v-1c3.74.259 7.406-.074 11-1a111.148 111.148 0 0 0 1-21h-10c-.992.172-1.658-.162-2-1Z"/><path style="opacity:.948" fill="#75ce67" d="M361.5 317.5h32v24h-32v-24Z"/><path style="opacity:.948" fill="#69cb65" d="M393.5 317.5h38v24h-38v-24Z"/><path style="opacity:.857" fill="#5ec763" d="M431.5 317.5h67c-4.47.986-9.137 1.319-14 1h-19v21a436.547 436.547 0 0 0 33 1v1h-67v-24Z"/><path style="opacity:.948" fill="#49c160" d="M498.5 317.5h24v24h-24v-1c-4.47-.986-9.137-1.319-14-1v-21c4.863.319 9.53-.014 14-1Z"/><path style="opacity:.948" fill="#3cbd5d" d="M522.5 317.5h58c-6.145.99-12.478 1.323-19 1v22h54v1h-93v-24Z"/><path style="opacity:.953" fill="#25b457" d="M654.5 333.5c-12.056 6.625-25.056 9.292-39 8v-1c-4.134-.985-8.468-1.318-13-1v-21c4.532.318 8.866-.015 13-1 12.837 1.107 24.503-1.893 35-9a18.473 18.473 0 0 0 3.5-2c.5 8.994.666 17.994.5 27Z"/><path style="opacity:.999" fill="#fc6420" d="M81.5 318.5h1v21h6v-21h11c.33 7.032-.003 14.032-1 21a77.743 77.743 0 0 1-17 1v-22Z"/><path style="opacity:1" fill="#fc5a1f" d="M82.5 318.5h6v21h-6v-21Z"/><path style="opacity:1" fill="#f67924" d="M123.5 318.5v21h8v-21h1v22a86.773 86.773 0 0 1-18-1 111.148 111.148 0 0 1-1-21h10Z"/><path style="opacity:1" fill="#f17e25" d="M123.5 318.5h8v21h-8v-21Z"/><path style="opacity:1" fill="#ea8428" d="M132.5 318.5h12v22h-12v-22Z"/><path style="opacity:1" fill="#d79633" d="M178.5 318.5v21h11v-21h1v22a180.81 180.81 0 0 1-24-1v-21h12Z"/><path style="opacity:1" fill="#d19b37" d="M178.5 318.5h11v21h-11v-21Z"/><path style="opacity:1" fill="#cca03b" d="M190.5 318.5h6v21h10c1.599-.268 2.932.066 4 1h-20v-22Z"/><path style="opacity:1" fill="#c6a63f" d="M196.5 318.5h10v21h-10v-21Z"/><path style="opacity:1" fill="#c0ab44" d="M206.5 318.5h11v22h-7c-1.068-.934-2.401-1.268-4-1v-21Z"/><path style="opacity:1" fill="#99d167" d="M279.5 318.5h10c.33 7.032-.003 14.032-1 21a34.301 34.301 0 0 1-11 1c1.91-7.056 2.576-14.389 2-22Z"/><path style="opacity:.999" fill="#88d46c" d="M342.5 318.5v21c5.526-.321 10.86.012 16 1a750.764 750.764 0 0 1-51-1v-21h35Z"/><path style="opacity:1" fill="#80d26a" d="M358.5 317.5h3v24h-3v-1c-5.14-.988-10.474-1.321-16-1v-21c5.526.321 10.86-.012 16-1Z"/><path style="opacity:.999" fill="#54c462" d="M484.5 318.5v21c4.863-.319 9.53.014 14 1a436.547 436.547 0 0 1-33-1v-21h19Z"/><path style="opacity:.999" fill="#30b85a" d="M580.5 317.5h35c-4.134.985-8.468 1.318-13 1v21c4.532-.318 8.866.015 13 1h-54v-22c6.522.323 12.855-.01 19-1Z"/></svg>