<svg xmlns="http://www.w3.org/2000/svg" width="707" height="354" style="shape-rendering:geometricPrecision;text-rendering:geometricPrecision;image-rendering:optimizeQuality;fill-rule:evenodd;clip-rule:evenodd"><path style="opacity:.992" fill="#fc4f1e" d="M71.5 15.5h1v1c2.448.973 5.115 1.306 8 1v21c-2.885-.306-5.552.027-8 1h-1v-24Z"/><path style="opacity:.655" fill="#fc7222" d="M72.5 16.5v-1h69c-3.125.98-6.458 1.313-10 1a134.175 134.175 0 0 0-20 1c-.166 6.675 0 13.342.5 20 3.73.96 7.563 1.294 11.5 1h16c.992-.172 1.658.162 2 1h-69c2.448-.973 5.115-1.306 8-1h10c2.62.268 5.12-.065 7.5-1 .5-6.658.666-13.325.5-20a82.702 82.702 0 0 0-14-1h-12Z"/><path style="opacity:.943" fill="#e5882a" d="M142.5 15.5h5v24h-5a135.185 135.185 0 0 1-1-22c.838-.342 1.172-1.008 1-2Z"/><path style="opacity:.934" fill="#e28b2c" d="M147.5 15.5h6v24h-6v-24Z"/><path style="opacity:.618" fill="#df8d2e" d="M153.5 15.5h54v1h-29a134.175 134.175 0 0 0-20 1c-.166 6.675 0 13.342.5 20 2.041.923 4.208 1.256 6.5 1h42v1h-54v-24Z"/><path style="opacity:.87" fill="#bdaf47" d="M207.5 15.5h13v24h-13v-1c.996.086 1.829-.248 2.5-1 .5-6.658.666-13.325.5-20h-3v-2Z"/><path style="opacity:.934" fill="#b9b34b" d="M220.5 15.5h7v24h-7v-24Z"/><path style="opacity:.934" fill="#b4b84f" d="M227.5 15.5h9v24h-9v-24Z"/><path style="opacity:.934" fill="#b0bc53" d="M236.5 15.5h6v24h-6v-24Z"/><path style="opacity:.934" fill="#adbf56" d="M242.5 15.5h5v24h-5v-24Z"/><path style="opacity:.934" fill="#a9c259" d="M247.5 15.5h7v24h-7v-24Z"/><path style="opacity:.934" fill="#a7c55b" d="M254.5 15.5h5v24h-5v-24Z"/><path style="opacity:.934" fill="#a4c85e" d="M259.5 15.5h5v24h-5v-24Z"/><path style="opacity:.934" fill="#9fcc62" d="M264.5 15.5h9v1c1.253 3.407 1.92 7.073 2 11-.08 3.927-.747 7.593-2 11v1h-9v-24Z"/><path style="opacity:.744" fill="#93d76d" d="M273.5 16.5v-1h80v1a772.857 772.857 0 0 0-50 1c-.33 6.7.003 13.366 1 20a86.739 86.739 0 0 0 18 1h21c3.542-.313 6.875.02 10 1h-80v-1h11v-21a49.393 49.393 0 0 0-11-1Z"/><path style="opacity:.934" fill="#79d068" d="M356.5 15.5h15v24h-15v-24Z"/><path style="opacity:.934" fill="#6fcd66" d="M371.5 15.5h35v24h-35v-24Z"/><path style="opacity:.934" fill="#66ca65" d="M406.5 15.5h18v24h-18v-24Z"/><path style="opacity:.801" fill="#5ec763" d="M424.5 15.5h67v1c-11.007.158-22.007.492-33 1v20a168.748 168.748 0 0 0 24 1c3.213-.31 6.213.023 9 1h-67v-24Z"/><path style="opacity:.934" fill="#49c160" d="M491.5 15.5h23v24h-23c-2.787-.977-5.787-1.31-9-1-1.419-.951-3.085-1.285-5-1v-20c4.863.32 9.53-.014 14-1v-1Z"/><path style="opacity:.934" fill="#3cbd5d" d="M514.5 15.5h92v1h-53v22h48c1.915-.285 3.581.049 5 1h-92v-24Z"/><path style="opacity:.989" fill="#23b457" d="M606.5 15.5c9.519-.49 18.852.51 28 3 2.775 2.322 5.941 4.322 9.5 6 .667 8.667.667 17.333 0 26-1.129-1.641-2.629-2.641-4.5-3-9.953-6.57-20.953-9.238-33-8-1.419-.951-3.085-1.285-5-1-2.448-.973-5.115-1.306-8-1v-20c4.532.318 8.866-.015 13-1v-1Z"/><path style="opacity:.985" fill="#fc431d" d="M71.5 15.5v24h-10c-.166-7.008 0-14.008.5-21 .995-.566 1.828-1.233 2.5-2 2.217-.869 4.55-1.202 7-1Z"/><path style="opacity:.999" fill="#fc6620" d="M84.5 16.5c4.703-.063 9.37.27 14 1 .166 6.675 0 13.342-.5 20-2.38.935-4.88 1.268-7.5 1a116.748 116.748 0 0 0 1-21c-2.56.302-4.893-.032-7-1Z"/><path style="opacity:.999" fill="#f67924" d="M131.5 16.5a127.773 127.773 0 0 0-1 22h-1v-21h-8c-.571 7.28.095 14.28 2 21-3.937.294-7.77-.04-11.5-1-.5-6.658-.666-13.325-.5-20a134.175 134.175 0 0 1 20-1Z"/><path style="opacity:1" fill="#db9130" d="M178.5 16.5c-.342.838-1.008 1.172-2 1h-12a116.803 116.803 0 0 0 1 21c-2.292.256-4.459-.077-6.5-1-.5-6.658-.666-13.325-.5-20a134.175 134.175 0 0 1 20-1Z"/><path style="opacity:1" fill="#9ad167" d="M273.5 16.5a49.393 49.393 0 0 1 11 1v21h-11c1.253-3.407 1.92-7.073 2-11-.08-3.927-.747-7.593-2-11Z"/><path style="opacity:.999" fill="#8cd56c" d="M353.5 16.5c-5.14.988-10.474 1.321-16 1h-18v20c1.291-.237 2.291.096 3 1a86.739 86.739 0 0 1-18-1c-.997-6.634-1.33-13.3-1-20a772.857 772.857 0 0 1 50-1Z"/><path style="opacity:.999" fill="#54c461" d="M491.5 16.5c-4.47.986-9.137 1.32-14 1v20c1.915-.285 3.581.049 5 1a168.748 168.748 0 0 1-24-1v-20c10.993-.508 21.993-.842 33-1Z"/><path style="opacity:.999" fill="#30b85a" d="M606.5 16.5c-4.134.985-8.468 1.318-13 1v20c2.885-.306 5.552.027 8 1h-48v-22h53Z"/><path style="opacity:1" fill="#fc5c1f" d="M72.5 16.5h12c2.107.968 4.44 1.302 7 1a116.748 116.748 0 0 1-1 21h-10v-21c-2.885.306-5.552-.027-8-1Z"/><path style="opacity:1" fill="#f17e25" d="M129.5 38.5h-6c-1.905-6.72-2.571-13.72-2-21h8v21Z"/><path style="opacity:1" fill="#ed8127" d="M141.5 15.5h1c.172.992-.162 1.658-1 2h-6v20c1.599-.268 2.932.066 4 1h-9c-.297-7.42.036-14.754 1-22 3.542.313 6.875-.02 10-1Z"/><path style="opacity:1" fill="#e98528" d="M141.5 17.5c-.264 7.39.07 14.723 1 22h-1c-.342-.838-1.008-1.172-2-1-1.068-.934-2.401-1.268-4-1v-20h6Z"/><path style="opacity:1" fill="#d79633" d="M176.5 17.5v20c1.291-.237 2.291.096 3 1h-14a116.803 116.803 0 0 1-1-21h12Z"/><path style="opacity:1" fill="#d19b37" d="M178.5 16.5h29v1h-19v21h-9c-.709-.904-1.709-1.237-3-1v-20c.992.172 1.658-.162 2-1Z"/><path style="opacity:1" fill="#c9a33d" d="M198.5 17.5v21h-10v-21h10Z"/><path style="opacity:1" fill="#c5a640" d="M198.5 17.5h5v20c1.599-.268 2.932.066 4 1h-9v-21Z"/><path style="opacity:1" fill="#c2aa43" d="M203.5 17.5h7c.166 6.675 0 13.342-.5 20-.671.752-1.504 1.086-2.5 1-1.068-.934-2.401-1.268-4-1v-20Z"/><path style="opacity:1" fill="#86d36b" d="M337.5 17.5v20c2.235-.295 4.235.039 6 1h-21c-.709-.904-1.709-1.237-3-1v-20h18Z"/><path style="opacity:1" fill="#80d26a" d="M353.5 15.5h3v24h-3c-3.125-.98-6.458-1.313-10-1-1.765-.961-3.765-1.295-6-1v-20c5.526.321 10.86-.012 16-1v-1Z"/><path style="opacity:.903" fill="#fc371d" d="M64.5 16.5c-.672.767-1.505 1.434-2.5 2-.5 6.992-.666 13.992-.5 21h6c-3.317.847-6.65 2.014-10 3.5-2.606.792-4.606 2.292-6 4.5h-2a88.816 88.816 0 0 0 0-26 6.845 6.845 0 0 1-4 1c5.874-3.179 12.207-5.179 19-6Z"/><path style="opacity:.959" fill="#1bb054" d="M634.5 18.5c20.412 7.247 33.912 21.247 40.5 42a1388.24 1388.24 0 0 1 1.5 89h20v53h-20c.451 29.703-.049 59.37-1.5 89-4.578 17.066-14.745 29.399-30.5 37 .166-9.006 0-18.006-.5-27-2.612 3.719-6.112 6.052-10.5 7 10.184-6.681 16.684-16.014 19.5-28 .667-69.667.667-139.333 0-209-2.186-9.379-6.686-17.379-13.5-24 1.871.359 3.371 1.359 4.5 3 .667-8.667.667-17.333 0-26-3.559-1.678-6.725-3.678-9.5-6Z"/><path style="opacity:.993" fill="#fb2b1c" d="M49.5 47.5c-1.406.473-2.073 1.473-2 3a47.32 47.32 0 0 0-10 13c.58-6.474.913-12.974 1-19.5-.005-5.546-.672-10.712-2-15.5-.13-.876.203-1.543 1-2a26.388 26.388 0 0 1 8-4 6.845 6.845 0 0 0 4-1 88.816 88.816 0 0 1 0 26Z"/><path style="opacity:.999" fill="#fc1c1b" d="M36.5 28.5c1.328 4.788 1.995 9.954 2 15.5a256.549 256.549 0 0 1-1 19.5 99.996 99.996 0 0 0-1.5 8c-.667 69.667-.667 139.333 0 209a99.987 99.987 0 0 0 1.5 8c1.62 12.222 1.286 24.222-1 36-4-2-7-5-9-9a10.122 10.122 0 0 0-1.5-4c-.826-91.361-.66-182.695.5-274 2.731-3.734 6.064-6.734 10-9Z"/><path style="opacity:.998" fill="#fc131a" d="M26.5 37.5a12607.642 12607.642 0 0 0-.5 274 10.122 10.122 0 0 1 1.5 4c-8.871-9.083-14.038-20.083-15.5-33-.667-71-.667-142 0-213 1.36-12.375 6.192-23.042 14.5-32Z"/><path style="opacity:.98" fill="#fb0d1a" d="M49.5 47.5h50v257h-51a5.728 5.728 0 0 1-1-3v-251c-.073-1.527.594-2.527 2-3Z"/><path style="opacity:.98" fill="#fc7321" d="M107.5 47.5h52v257h-52v-257Z"/><path style="opacity:.962" fill="#fcbf2c" d="M167.5 47.5h53v257h-53v-257Z"/><path style="opacity:.98" fill="#bfce30" d="M228.5 47.5h52v257h-52v-257Z"/><path style="opacity:.98" fill="#93d86d" d="M288.5 47.5h52v257h-52v-257Z"/><path style="opacity:.98" fill="#93ce57" d="M348.5 47.5h52v257h-52v-257Z"/><path style="opacity:.98" fill="#19af53" d="M409.5 47.5h52v257h-52v-257ZM469.5 47.5h52v257h-52v-257ZM529.5 47.5h52v257h-52v-257Z"/><path style="opacity:.991" fill="#fc2d1c" d="M37.5 288.5c2.122 5.235 5.456 9.568 10 13a5.728 5.728 0 0 0 1 3c.283.789.783 1.456 1.5 2a96.563 96.563 0 0 1-.5 24 6.845 6.845 0 0 0-4-1 37.787 37.787 0 0 1-9-5c2.286-11.778 2.62-23.778 1-36Z"/><path style="opacity:.948" fill="#fc391d" d="M48.5 304.5h2c4.83 4.508 10.496 7.174 17 8h-6c-.166 7.008 0 14.008.5 21a19.588 19.588 0 0 1 3.5 2c-7.222-.468-13.89-2.468-20-6a6.845 6.845 0 0 1 4 1 96.563 96.563 0 0 0 .5-24c-.717-.544-1.217-1.211-1.5-2Z"/><path style="opacity:.991" fill="#fc431d" d="M67.5 312.5h4v24c-2.235.295-4.235-.039-6-1a19.588 19.588 0 0 0-3.5-2 220.94 220.94 0 0 1-.5-21h6Z"/><path style="opacity:.655" fill="#fc7222" d="M72.5 312.5h69c-3.462.982-7.129 1.315-11 1a86.773 86.773 0 0 0-18 1 50.512 50.512 0 0 0 0 20 86.773 86.773 0 0 0 18 1h11c.667 0 1 .333 1 1h-70c2.107-.968 4.44-1.302 7-1h7a54.965 54.965 0 0 0 12-1c.33-6.7-.003-13.366-1-20a23.833 23.833 0 0 0-9-1h-9c-2.56.302-4.893-.032-7-1Z"/><path style="opacity:.943" fill="#e6882a" d="M142.5 312.5h5v24h-5c0-.667-.333-1-1-1v-21c.838-.342 1.172-1.008 1-2Z"/><path style="opacity:.934" fill="#e28b2c" d="M147.5 312.5h6v24h-6v-24Z"/><path style="opacity:.616" fill="#df8d2e" d="M153.5 312.5h54v1h-41a15.418 15.418 0 0 0-7 1 50.512 50.512 0 0 0 0 20 19.372 19.372 0 0 0 8 1h40v1h-54v-24Z"/><path style="opacity:.869" fill="#bdaf47" d="M207.5 312.5h13v24h-13v-2h3v-20h-3v-2Z"/><path style="opacity:.934" fill="#b9b34b" d="M220.5 312.5h7v24h-7v-24Z"/><path style="opacity:.934" fill="#b4b84f" d="M227.5 312.5h9v24h-9v-24Z"/><path style="opacity:.934" fill="#b0bc53" d="M236.5 312.5h6v24h-6v-24Z"/><path style="opacity:.934" fill="#adbf56" d="M242.5 312.5h5v24h-5v-24Z"/><path style="opacity:.934" fill="#a9c259" d="M247.5 312.5h7v24h-7v-24Z"/><path style="opacity:.934" fill="#a7c55b" d="M254.5 312.5h5v24h-5v-24Z"/><path style="opacity:.934" fill="#a4c85e" d="M259.5 312.5h5v24h-5v-24Z"/><path style="opacity:.934" fill="#9fcc62" d="M264.5 312.5h9v1c1.253 3.407 1.92 7.073 2 11-.08 3.927-.747 7.593-2 11v1h-9v-24Z"/><path style="opacity:.743" fill="#93d76d" d="M273.5 313.5v-1h80v1h-27a156.33 156.33 0 0 0-23 1v20c9.639.86 19.306 1.193 29 1h21v1h-80v-1a28.819 28.819 0 0 0 10-1 67.229 67.229 0 0 0 .5-20c-3.394-.956-6.894-1.289-10.5-1Z"/><path style="opacity:.934" fill="#79d068" d="M356.5 312.5h15v24h-15v-24Z"/><path style="opacity:.934" fill="#6fcd66" d="M371.5 312.5h35v24h-35v-24Z"/><path style="opacity:.934" fill="#66ca65" d="M406.5 312.5h18v24h-18v-24Z"/><path style="opacity:.801" fill="#5ec763" d="M424.5 312.5h67c-1.068.934-2.401 1.268-4 1a285.394 285.394 0 0 0-29 1v20a421.632 421.632 0 0 0 32 1c.667 0 1 .333 1 1h-67v-24Z"/><path style="opacity:.934" fill="#49c160" d="M491.5 312.5h23v24h-23c0-.667-.333-1-1-1-4.134-.985-8.468-1.318-13-1v-20c3.542.313 6.875-.021 10-1 1.599.268 2.932-.066 4-1Z"/><path style="opacity:.934" fill="#3cbd5d" d="M514.5 312.5h92v1h-53v22h53v1h-92v-24Z"/><path style="opacity:.94" fill="#25b457" d="M644.5 328.5c-.558 1.29-1.558 2.123-3 2.5-11.253 4.431-22.92 6.264-35 5.5v-1c-4.134-.985-8.468-1.318-13-1v-20c4.532.318 8.866-.015 13-1v-1c9.354.78 18.354-.554 27-4 4.388-.948 7.888-3.281 10.5-7 .5 8.994.666 17.994.5 27Z"/><path style="opacity:.993" fill="#fc501e" d="M71.5 312.5h1c2.107.968 4.44 1.302 7 1a61.002 61.002 0 0 1 0 22c-2.56-.302-4.893.032-7 1h-1v-24Z"/><path style="opacity:.999" fill="#fc6620" d="M88.5 313.5c3.079-.24 6.079.093 9 1 .997 6.634 1.33 13.3 1 20a54.965 54.965 0 0 1-12 1c1.419-.951 3.085-1.284 5-1v-20c-1.291.237-2.291-.096-3-1Z"/><path style="opacity:1" fill="#f67924" d="M130.5 313.5v22a86.773 86.773 0 0 1-18-1 50.512 50.512 0 0 1 0-20 86.773 86.773 0 0 1 18-1Z"/><path style="opacity:1" fill="#dc9030" d="M166.5 313.5c-1.905 6.719-2.571 13.719-2 21 1.291-.237 2.291.096 3 1a19.372 19.372 0 0 1-8-1 50.512 50.512 0 0 1 0-20 15.418 15.418 0 0 1 7-1Z"/><path style="opacity:1" fill="#d79633" d="M166.5 313.5h15c-1.419.951-3.085 1.284-5 1v21h-9c-.709-.904-1.709-1.237-3-1-.571-7.281.095-14.281 2-21Z"/><path style="opacity:1" fill="#d29b37" d="M181.5 313.5h8a116.8 116.8 0 0 0-1 21h5c1.915-.284 3.581.049 5 1h-22v-21c1.915.284 3.581-.049 5-1Z"/><path style="opacity:1" fill="#9ad167" d="M273.5 313.5c3.606-.289 7.106.044 10.5 1a67.229 67.229 0 0 1-.5 20 28.819 28.819 0 0 1-10 1c1.253-3.407 1.92-7.073 2-11-.08-3.927-.747-7.593-2-11Z"/><path style="opacity:.999" fill="#8cd56c" d="M326.5 313.5c-2.107.968-4.441 1.302-7 1v20c4.532-.318 8.866.015 13 1-9.694.193-19.361-.14-29-1v-20a156.33 156.33 0 0 1 23-1Z"/><path style="opacity:.998" fill="#86d36b" d="M326.5 313.5h27c-5.14.988-10.474 1.321-16 1v20c5.526-.321 10.86.012 16 1h-21c-4.134-.985-8.468-1.318-13-1v-20c2.559.302 4.893-.032 7-1Z"/><path style="opacity:.999" fill="#54c462" d="M487.5 313.5c-3.125.979-6.458 1.313-10 1v20c4.532-.318 8.866.015 13 1a421.632 421.632 0 0 1-32-1v-20a285.394 285.394 0 0 1 29-1Z"/><path style="opacity:.999" fill="#30b85a" d="M606.5 313.5c-4.134.985-8.468 1.318-13 1v20c4.532-.318 8.866.015 13 1h-53v-22h53Z"/><path style="opacity:1" fill="#fc5c1f" d="M79.5 313.5h9c.709.904 1.709 1.237 3 1v20c-1.915-.284-3.581.049-5 1h-7a61.002 61.002 0 0 0 0-22Z"/><path style="opacity:1" fill="#f17e25" d="M121.5 314.5h8v20h-8v-20Z"/><path style="opacity:1" fill="#ed8127" d="M141.5 312.5h1c.172.992-.162 1.658-1 2h-6v20h6v1h-11v-22c3.871.315 7.538-.018 11-1Z"/><path style="opacity:1" fill="#e98528" d="M141.5 314.5v20h-6v-20h6Z"/><path style="opacity:1" fill="#cba13b" d="M189.5 313.5h18v1h-14v20h-5a116.8 116.8 0 0 1 1-21Z"/><path style="opacity:1" fill="#c7a53f" d="M203.5 314.5v20h4v1h-9c-1.419-.951-3.085-1.284-5-1v-20h10Z"/><path style="opacity:1" fill="#c2aa43" d="M203.5 314.5h7v20h-7v-20Z"/><path style="opacity:1" fill="#80d26a" d="M353.5 312.5h3v24h-3v-1c-5.14-.988-10.474-1.321-16-1v-20c5.526.321 10.86-.012 16-1v-1Z"/></svg>