<svg xmlns="http://www.w3.org/2000/svg" width="709" height="353" style="shape-rendering:geometricPrecision;text-rendering:geometricPrecision;image-rendering:optimizeQuality;fill-rule:evenodd;clip-rule:evenodd"><path style="opacity:.965" fill="#fc481e" d="M62.5 16.5c2.448-.973 5.115-1.306 8-1 2.073 7.062 2.573 14.395 1.5 22a36.213 36.213 0 0 0-4.5 2h-4c.709-.904 1.709-1.237 3-1v-22h-4Z"/><path style="opacity:.942" fill="#fc4e1e" d="M70.5 15.5h8v23c-3.679.224-7.346.558-11 1a36.213 36.213 0 0 1 4.5-2c1.073-7.605.573-14.938-1.5-22Z"/><path style="opacity:.979" fill="#fc541f" d="M78.5 15.5h4v23h-4v-23Z"/><path style="opacity:.992" fill="#fc6c21" d="M82.5 16.5v-1h19c1.91 7.056 2.576 14.389 2 22h-5v-21h-9v21h8v1h-15v-1h6v-21h-6Z"/><path style="opacity:.938" fill="#fb7422" d="M101.5 15.5h17c-1.765.961-3.765 1.295-6 1v21h30v1h-45v-1h6c.576-7.611-.09-14.944-2-22Z"/><path style="opacity:.992" fill="#f67924" d="M118.5 15.5h24v1h-20v21h-10v-21c2.235.295 4.235-.039 6-1Z"/><path style="opacity:.982" fill="#e6882a" d="M142.5 15.5h6v23h-6v-23Z"/><path style="opacity:.979" fill="#e28b2c" d="M148.5 15.5h6v23h-6v-23Z"/><path style="opacity:.956" fill="#df8e2e" d="M154.5 15.5h10c-1.419.951-3.085 1.285-5 1v21h6c.992-.172 1.658.162 2 1h-13v-23Z"/><path style="opacity:.998" fill="#dc9030" d="M164.5 15.5h3c-1.91 7.056-2.576 14.389-2 22h-6v-21c1.915.285 3.581-.049 5-1Z"/><path style="opacity:.984" fill="#d89432" d="M167.5 15.5h3v23h-3c-.342-.838-1.008-1.172-2-1-.576-7.611.09-14.944 2-22Z"/><path style="opacity:.979" fill="#d69734" d="M170.5 15.5h7v23h-7v-23Z"/><path style="opacity:.979" fill="#d29b37" d="M177.5 15.5h6v23h-6v-23Z"/><path style="opacity:.979" fill="#cf9d39" d="M183.5 15.5h4v23h-4v-23Z"/><path style="opacity:.979" fill="#cca03b" d="M187.5 15.5h7v23h-7v-23Z"/><path style="opacity:.979" fill="#c9a33d" d="M194.5 15.5h5v23h-5v-23Z"/><path style="opacity:.979" fill="#c6a740" d="M199.5 15.5h5v23h-5v-23Z"/><path style="opacity:.979" fill="#c3a942" d="M204.5 15.5h5v23h-5v-23Z"/><path style="opacity:.979" fill="#bfac45" d="M209.5 15.5h6v23h-6v-23Z"/><path style="opacity:.979" fill="#bcb048" d="M215.5 15.5h8v23h-8v-23Z"/><path style="opacity:.979" fill="#b9b44b" d="M223.5 15.5h5v23h-5v-23Z"/><path style="opacity:.993" fill="#b6b64e" d="M228.5 15.5h1c1.257 3.575 1.924 7.409 2 11.5-.076 4.091-.743 7.925-2 11.5h-1v-23Z"/><path style="opacity:.974" fill="#b3b950" d="M229.5 15.5h9v23h-9c1.257-3.575 1.924-7.409 2-11.5-.076-4.091-.743-7.925-2-11.5Z"/><path style="opacity:.979" fill="#afbc53" d="M238.5 15.5h6v23h-6v-23Z"/><path style="opacity:.979" fill="#acbf56" d="M244.5 15.5h6v23h-6v-23Z"/><path style="opacity:.979" fill="#a9c359" d="M250.5 15.5h6v23h-6v-23Z"/><path style="opacity:.979" fill="#a7c65c" d="M256.5 15.5h5v23h-5v-23Z"/><path style="opacity:.979" fill="#a4c95f" d="M261.5 15.5h5v23h-5v-23Z"/><path style="opacity:.979" fill="#a0cb62" d="M266.5 15.5h6v23h-6v-23Z"/><path style="opacity:.986" fill="#9ecd64" d="M272.5 15.5h2c1.91 7.056 2.576 14.389 2 22-.992-.172-1.658.162-2 1h-2v-23Z"/><path style="opacity:.997" fill="#9ad167" d="M274.5 15.5h6c1.765.961 3.765 1.295 6 1v21h-10c.576-7.611-.09-14.944-2-22Z"/><path style="opacity:.991" fill="#96d56b" d="M280.5 15.5h9a127.773 127.773 0 0 1 1 22h-4v-21c-2.235.295-4.235-.039-6-1Z"/><path style="opacity:.93" fill="#92d76d" d="M289.5 15.5h26c-3.462.982-7.129 1.315-11 1v21h35c5.526-.321 10.86.012 16 1h-81c.342-.838 1.008-1.172 2-1h14c.297-7.42-.036-14.754-1-22Z"/><path style="opacity:.99" fill="#8cd56c" d="M315.5 15.5h40c-5.14.988-10.474 1.321-16 1h-19v21h-16v-21c3.871.315 7.538-.018 11-1Z"/><path style="opacity:.979" fill="#79d068" d="M358.5 15.5h15v23h-15v-23Z"/><path style="opacity:.979" fill="#73ce67" d="M373.5 15.5h16v23h-16v-23Z"/><path style="opacity:.979" fill="#6dcc66" d="M389.5 15.5h19v23h-19v-23Z"/><path style="opacity:.979" fill="#66ca65" d="M408.5 15.5h19v23h-19v-23Z"/><path style="opacity:.967" fill="#60c864" d="M427.5 15.5h23c-1.419.951-3.085 1.285-5 1v21h35c1.291-.237 2.291.096 3 1h-56v-23Z"/><path style="opacity:.991" fill="#5ac663" d="M450.5 15.5h33c-.709.904-1.709 1.237-3 1h-19v21h-16v-21c1.915.285 3.581-.049 5-1Z"/><path style="opacity:.984" fill="#4dc260" d="M483.5 15.5h15v23h-15c-.709-.904-1.709-1.237-3-1v-21c1.291.237 2.291-.096 3-1Z"/><path style="opacity:.979" fill="#47c05f" d="M498.5 15.5h19v23h-19v-23Z"/><path style="opacity:.979" fill="#41be5e" d="M517.5 15.5h18v23h-18v-23Z"/><path style="opacity:1" fill="#3abc5d" d="M535.5 15.5h30c-2.787.977-5.787 1.31-9 1v21c3.213-.31 6.213.023 9 1h-30v-23Z"/><path style="opacity:.991" fill="#35ba5c" d="M565.5 15.5h36c-1.419.951-3.085 1.285-5 1h-21v21h21c1.915-.285 3.581.049 5 1h-36c-2.787-.977-5.787-1.31-9-1v-21c3.213.31 6.213-.023 9-1Z"/><path style="opacity:.982" fill="#27b558" d="M601.5 15.5h18c1.419.951 3.085 1.285 5 1v21c-1.792-.134-3.458.2-5 1h-18c-1.419-.951-3.085-1.285-5-1v-21c1.915.285 3.581-.049 5-1Z"/><path style="opacity:.993" fill="#21b356" d="M619.5 15.5c5.584-.245 10.917.422 16 2l12 6a122.078 122.078 0 0 1 .5 27c-3.784-4.137-8.284-7.137-13.5-9a194.155 194.155 0 0 0-15-3c1.542-.8 3.208-1.134 5-1v-21c-1.915.285-3.581-.049-5-1Z"/><path style="opacity:.995" fill="#fc421d" d="M62.5 16.5h4v22c-1.291-.237-2.291.096-3 1-.342.838-1.008 1.172-2 1v-23a20.677 20.677 0 0 0-5 1 53.805 53.805 0 0 1-8 2c4.175-2.721 8.841-4.054 14-4Z"/><path style="opacity:1" fill="#fc5a1f" d="M82.5 16.5h6v21h-6v-21Z"/><path style="opacity:1" fill="#fc6220" d="M92.5 16.5v21h-3v-21h3Z"/><path style="opacity:1" fill="#fc6620" d="M92.5 16.5h6v21h-6v-21Z"/><path style="opacity:1" fill="#f17d25" d="M131.5 16.5v21h-9v-21h9Z"/><path style="opacity:1" fill="#ec8227" d="M131.5 16.5h4v21h-4v-21Z"/><path style="opacity:1" fill="#e98528" d="M135.5 16.5h7v21h-7v-21Z"/><path style="opacity:1" fill="#86d36b" d="M339.5 16.5v21h-19v-21h19Z"/><path style="opacity:1" fill="#80d26a" d="M355.5 15.5h3v23h-3c-5.14-.988-10.474-1.321-16-1v-21c5.526.321 10.86-.012 16-1Z"/><path style="opacity:1" fill="#54c461" d="M480.5 16.5v21h-19v-21h19Z"/><path style="opacity:1" fill="#2eb85a" d="M596.5 16.5v21h-21v-21h21Z"/><path style="opacity:1" fill="#fb3b1d" d="M61.5 40.5a32.517 32.517 0 0 1-7 3c1.866-8.135 2.533-16.468 2-25a20.677 20.677 0 0 1 5-1v23Z"/><path style="opacity:.995" fill="#fc361d" d="M56.5 18.5c.533 8.532-.134 16.865-2 25a10.174 10.174 0 0 1-3 3h-2a163.733 163.733 0 0 0 1-25h-4c.342-.838 1.008-1.172 2-1a53.805 53.805 0 0 0 8-2Z"/><path style="opacity:.978" fill="#19af54" d="M635.5 17.5c24.387 7.558 39.221 23.892 44.5 49 .5 27.665.667 55.331.5 83h19v53h-19c.167 27.669 0 55.335-.5 83-4.781 23.941-18.615 39.941-41.5 48 2.9-2.035 6.066-3.701 9.5-5 .667-9 .667-18 0-27-3.784 4.137-8.284 7.137-13.5 9 1.753-1.723 3.753-3.223 6-4.5-15.663-.5-31.33-.667-47-.5v-259c15.67.167 31.337 0 47-.5-2.247-1.278-4.247-2.778-6-4.5 5.216 1.863 9.716 4.863 13.5 9 .832-9.019.665-18.019-.5-27l-12-6Zm10 33c7.328 7 11.162 15.667 11.5 26 .667 66.333.667 132.667 0 199-.384 10.096-4.05 18.763-11 26-.5-83.666-.667-167.333-.5-251Z"/><path style="opacity:1" fill="#fc2f1c" d="M46.5 21.5h4a163.733 163.733 0 0 1-1 25l-2 3-2 1c-.994-9.152-1.327-18.485-1-28 .342-.838 1.008-1.172 2-1Z"/><path style="opacity:.999" fill="#fb261b" d="M44.5 22.5c-.327 9.515.006 18.848 1 28-.526 1.73-1.526 3.064-3 4-1.517.01-2.684.677-3.5 2a168.558 168.558 0 0 1 .5-31c1.16-1.75 2.826-2.75 5-3Z"/><path style="opacity:.834" fill="#fc201b" d="M39.5 25.5a168.558 168.558 0 0 0-.5 31c.816-1.323 1.983-1.99 3.5-2-3.255 5.188-5.421 10.855-6.5 17-.667 69.667-.667 139.333 0 209 1.014 5.677 2.847 11.011 5.5 16a44.147 44.147 0 0 1-2-1c-1.333 10-1.333 20 0 30 1.355.688 2.355 1.688 3 3-2.352-.84-4.352-2.174-6-4a16.57 16.57 0 0 1-2.5-4c-.833-96.668-.667-193.335.5-290a7.467 7.467 0 0 0 2-3c.79-.901 1.79-1.568 3-2Z"/><path style="opacity:.999" fill="#fb1c1b" d="M36.5 27.5a7.467 7.467 0 0 1-2 3 14017.068 14017.068 0 0 0-.5 290 16.57 16.57 0 0 0 2.5 4c-2.249-.58-3.915-1.913-5-4a43.87 43.87 0 0 0-4.5-7c-.5-91.999-.667-183.999-.5-276 2.333-4.333 5.667-7.667 10-10Z"/><path style="opacity:.998" fill="#fc151b" d="M26.5 37.5c-.167 92.001 0 184.001.5 276a43.87 43.87 0 0 1 4.5 7c-4.63-3.937-8.297-8.604-11-14a42.584 42.584 0 0 0-1.5-5c-.825-84.695-.659-169.361.5-254 .891-4.333 3.224-7.666 7-10Z"/><path style="opacity:.965" fill="#fb0d1a" d="M49.5 46.5h51v259h-51l-2-3v-253l2-3Z"/><path style="opacity:.983" fill="#fc7321" d="M108.5 46.5h52v259h-52v-259Z"/><path style="opacity:.964" fill="#fcbf2c" d="M168.5 46.5h53v259h-53v-259Z"/><path style="opacity:.983" fill="#bfce30" d="M229.5 46.5h52v259h-52v-259Z"/><path style="opacity:.983" fill="#93d86d" d="M290.5 46.5h52v259h-52v-259Z"/><path style="opacity:.964" fill="#93ce57" d="M350.5 46.5h53v259h-53v-259Z"/><path style="opacity:.983" fill="#19af53" d="M411.5 46.5h52v259h-52v-259Z"/><path style="opacity:.964" fill="#19af53" d="M471.5 46.5h53v259h-53v-259ZM532.5 46.5h53v259h-53v-259Z"/><path style="opacity:.868" fill="#fc0f1a" d="M19.5 47.5a10840.853 10840.853 0 0 0-.5 254 42.584 42.584 0 0 1 1.5 5c-1.636-1.249-2.803-2.916-3.5-5a92.093 92.093 0 0 1-5-18c-.667-71.333-.667-142.667 0-214 .988-7.998 3.488-15.331 7.5-22Z"/><path style="opacity:1" fill="#fc271b" d="M41.5 296.5c2.043 1.079 3.376 2.746 4 5-.994 9.152-1.327 18.485-1 28-.992.172-1.658-.162-2-1-.645-1.312-1.645-2.312-3-3-1.333-10-1.333-20 0-30 .684.363 1.35.696 2 1Z"/><path style="opacity:.992" fill="#21b356" d="M638.5 333.5c-5.981 2.372-12.315 3.372-19 3 1.419-.951 3.085-1.284 5-1v-21c-1.792.134-3.458-.199-5-1a194.63 194.63 0 0 0 15-3c5.216-1.863 9.716-4.863 13.5-9 .667 9 .667 18 0 27-3.434 1.299-6.6 2.965-9.5 5Z"/><path style="opacity:1" fill="#fc2e1c" d="m45.5 301.5 2 1 2 3a163.733 163.733 0 0 1 1 25h-4c-.992.172-1.658-.162-2-1-.327-9.515.006-18.848 1-28Z"/><path style="opacity:.997" fill="#fc361d" d="M49.5 305.5h2l2 2c-.085 1.495.581 2.495 2 3a133.125 133.125 0 0 1 1 23h-3c-2.74-.207-5.074-1.207-7-3h4a163.733 163.733 0 0 0-1-25Z"/><path style="opacity:1" fill="#fb3b1d" d="m53.5 307.5 8 4v23a20.691 20.691 0 0 1-5-1c.33-7.696-.002-15.362-1-23-1.419-.505-2.085-1.505-2-3Z"/><path style="opacity:.994" fill="#fc421d" d="M61.5 311.5c.992-.172 1.658.162 2 1 .709.904 1.709 1.237 3 1v22h-4c-3.33.285-6.33-.382-9-2h3c1.617.538 3.284.871 5 1v-23Z"/><path style="opacity:.965" fill="#fc481e" d="M63.5 312.5h4a36.287 36.287 0 0 0 4.5 2c1.073 7.605.573 14.938-1.5 22-2.885.306-5.552-.027-8-1h4v-22c-1.291.237-2.291-.096-3-1Z"/><path style="opacity:.942" fill="#fc4e1e" d="M67.5 312.5c3.654.442 7.321.776 11 1v23h-8c2.073-7.062 2.573-14.395 1.5-22a36.287 36.287 0 0 1-4.5-2Z"/><path style="opacity:.979" fill="#fc541f" d="M78.5 313.5h4v23h-4v-23Z"/><path style="opacity:.938" fill="#fb7422" d="M97.5 314.5v-1h46c0 .667-.333 1-1 1h-30v21c2.559-.302 4.893.032 7 1h-18c1.91-7.056 2.576-14.389 2-22h-6Z"/><path style="opacity:.982" fill="#e6882a" d="M143.5 313.5h5v23h-6v-22c.667 0 1-.333 1-1Z"/><path style="opacity:.979" fill="#e28b2c" d="M148.5 313.5h6v23h-6v-23Z"/><path style="opacity:.956" fill="#df8d2e" d="M154.5 313.5h12c0 .667-.333 1-1 1h-6v21c1.915-.284 3.581.049 5 1h-10v-23Z"/><path style="opacity:.98" fill="#d89432" d="M166.5 313.5h4v23h-3c-1.91-7.056-2.576-14.389-2-22 .667 0 1-.333 1-1Z"/><path style="opacity:.979" fill="#d69734" d="M170.5 313.5h7v23h-7v-23Z"/><path style="opacity:.979" fill="#d29b37" d="M177.5 313.5h6v23h-6v-23Z"/><path style="opacity:.979" fill="#cf9d39" d="M183.5 313.5h4v23h-4v-23Z"/><path style="opacity:.979" fill="#cca03b" d="M187.5 313.5h7v23h-7v-23Z"/><path style="opacity:.979" fill="#c9a33d" d="M194.5 313.5h5v23h-5v-23Z"/><path style="opacity:.979" fill="#c6a740" d="M199.5 313.5h5v23h-5v-23Z"/><path style="opacity:.979" fill="#c3a942" d="M204.5 313.5h5v23h-5v-23Z"/><path style="opacity:.979" fill="#bfac45" d="M209.5 313.5h6v23h-6v-23Z"/><path style="opacity:.979" fill="#bcb048" d="M215.5 313.5h8v23h-8v-23Z"/><path style="opacity:.979" fill="#b9b44b" d="M223.5 313.5h5v23h-5v-23Z"/><path style="opacity:.994" fill="#b6b64e" d="M228.5 313.5h1c1.91 7.056 2.576 14.389 2 22h-3v-22Z"/><path style="opacity:.973" fill="#b3b950" d="M229.5 313.5h9v23h-10v-1h3c.576-7.611-.09-14.944-2-22Z"/><path style="opacity:.979" fill="#afbc53" d="M238.5 313.5h6v23h-6v-23Z"/><path style="opacity:.979" fill="#acbf56" d="M244.5 313.5h6v23h-6v-23Z"/><path style="opacity:.979" fill="#a9c359" d="M250.5 313.5h6v23h-6v-23Z"/><path style="opacity:.979" fill="#a7c65c" d="M256.5 313.5h5v23h-5v-23Z"/><path style="opacity:.979" fill="#a4c95f" d="M261.5 313.5h5v23h-5v-23Z"/><path style="opacity:.979" fill="#a0cb62" d="M266.5 313.5h6v23h-6v-23Z"/><path style="opacity:.986" fill="#9ecd64" d="M272.5 313.5h2c.342.838 1.008 1.172 2 1 .576 7.611-.09 14.944-2 22h-2v-23Z"/><path style="opacity:.93" fill="#92d76d" d="M274.5 313.5h81c-5.14.988-10.474 1.321-16 1h-35v21c3.871-.315 7.538.018 11 1h-26a127.773 127.773 0 0 0 1-22h-14c-.992.172-1.658-.162-2-1Z"/><path style="opacity:.979" fill="#79d068" d="M358.5 313.5h15v23h-15v-23Z"/><path style="opacity:.979" fill="#73ce67" d="M373.5 313.5h16v23h-16v-23Z"/><path style="opacity:.979" fill="#6dcc66" d="M389.5 313.5h19v23h-19v-23Z"/><path style="opacity:.979" fill="#66ca65" d="M408.5 313.5h19v23h-19v-23Z"/><path style="opacity:.967" fill="#60c864" d="M427.5 313.5h56c-.709.904-1.709 1.237-3 1h-35v21c1.915-.284 3.581.049 5 1h-23v-23Z"/><path style="opacity:.984" fill="#4dc260" d="M483.5 313.5h15v23h-15c-.709-.904-1.709-1.237-3-1v-21c1.291.237 2.291-.096 3-1Z"/><path style="opacity:.979" fill="#47c05f" d="M498.5 313.5h19v23h-19v-23Z"/><path style="opacity:.979" fill="#41be5e" d="M517.5 313.5h18v23h-18v-23Z"/><path style="opacity:.981" fill="#27b558" d="M601.5 313.5h18c1.542.801 3.208 1.134 5 1v21c-1.915-.284-3.581.049-5 1h-18c-1.419-.951-3.085-1.284-5-1v-21c1.915.284 3.581-.049 5-1Z"/><path style="opacity:1" fill="#fc5a1f" d="M82.5 314.5h6v21h-6v-21Z"/><path style="opacity:.992" fill="#fc6c21" d="M82.5 314.5v-1h15v1h-8v21h9v-21h5c.576 7.611-.09 14.944-2 22h-19v-1h6v-21h-6Z"/><path style="opacity:1" fill="#fc6620" d="M92.5 314.5h6v21h-6v-21Z"/><path style="opacity:1" fill="#fc6220" d="M92.5 314.5v21h-3v-21h3Z"/><path style="opacity:.992" fill="#f67924" d="M122.5 314.5v21h20v1h-23c-2.107-.968-4.441-1.302-7-1v-21h10Z"/><path style="opacity:1" fill="#f17d25" d="M122.5 314.5h9v21h-9v-21Z"/><path style="opacity:1" fill="#ec8227" d="M131.5 314.5h4v21h-4v-21Z"/><path style="opacity:1" fill="#e98528" d="M135.5 314.5h7v21h-7v-21Z"/><path style="opacity:.998" fill="#dc9030" d="M165.5 314.5c-.576 7.611.09 14.944 2 22h-3c-1.419-.951-3.085-1.284-5-1v-21h6Z"/><path style="opacity:.997" fill="#9ad167" d="M276.5 314.5h10v21c-2.235-.295-4.235.039-6 1h-6c1.91-7.056 2.576-14.389 2-22Z"/><path style="opacity:.991" fill="#96d56b" d="M286.5 314.5h4c.297 7.42-.036 14.754-1 22h-9c1.765-.961 3.765-1.295 6-1v-21Z"/><path style="opacity:.99" fill="#8cd56c" d="M320.5 314.5v21h19c5.526-.321 10.86.012 16 1h-40c-3.462-.982-7.129-1.315-11-1v-21h16Z"/><path style="opacity:1" fill="#86d36b" d="M320.5 314.5h19v21h-19v-21Z"/><path style="opacity:1" fill="#80d26a" d="M355.5 313.5h3v23h-3c-5.14-.988-10.474-1.321-16-1v-21c5.526.321 10.86-.012 16-1Z"/><path style="opacity:.991" fill="#5ac663" d="M461.5 314.5v21h19c1.291-.237 2.291.096 3 1h-33c-1.419-.951-3.085-1.284-5-1v-21h16Z"/><path style="opacity:1" fill="#54c461" d="M461.5 314.5h19v21h-19v-21Z"/><path style="opacity:1" fill="#3abc5d" d="M535.5 313.5h30c-2.787.977-5.787 1.31-9 1v21c3.213-.31 6.213.023 9 1h-30v-23Z"/><path style="opacity:.991" fill="#35ba5c" d="M565.5 313.5h36c-1.419.951-3.085 1.284-5 1h-21v21h21c1.915-.284 3.581.049 5 1h-36c-2.787-.977-5.787-1.31-9-1v-21c3.213.31 6.213-.023 9-1Z"/><path style="opacity:1" fill="#2eb85a" d="M596.5 314.5v21h-21v-21h21Z"/></svg>