<svg xmlns="http://www.w3.org/2000/svg" width="375" height="381" style="shape-rendering:geometricPrecision;text-rendering:geometricPrecision;image-rendering:optimizeQuality;fill-rule:evenodd;clip-rule:evenodd"><path style="opacity:.983" d="M59.5 4.5c84.001-.167 168.001 0 252 .5 24.643 3.98 42.476 17.147 53.5 39.5a79.868 79.868 0 0 1 5 19c.667 84.667.667 169.333 0 254-5.172 32.171-23.672 51.671-55.5 58.5-86.333.667-172.667.667-259 0C26 369.167 7.833 351 1 321.5c-.667-87-.667-174 0-261 7.004-31.84 26.504-50.506 58.5-56Z"/><path style="opacity:1" fill="#bdd6ec" d="M61.5 20.5h116v166a6562.819 6562.819 0 0 1-162 1c-.478-43.047.022-86.047 1.5-129 7.006-21.908 21.839-34.575 44.5-38Z"/><path style="opacity:1" fill="#bcd5eb" d="M309.5 20.5c25.245 4.745 40.412 19.745 45.5 45a3658.67 3658.67 0 0 1 0 121 3264.042 3264.042 0 0 1-161.5 0v-166h116Z"/><path style="opacity:1" fill="#5e6b76" d="M61.5 20.5a3422.93 3422.93 0 0 1 117-1 6974.484 6974.484 0 0 1-1 167v-166h-116ZM309.5 20.5h-116v166a6974.484 6974.484 0 0 1-1-167c39.17-.332 78.17.002 117 1Z"/><path style="opacity:1" fill="#bdd6ec" d="M15.5 194.5h163v167c-40.001.167-80.001 0-120-.5-23.692-5.693-37.858-20.526-42.5-44.5-.5-40.665-.667-81.332-.5-122Z"/><path style="opacity:1" fill="#bcd5eb" d="M192.5 194.5h163c.167 40.335 0 80.668-.5 121-4.513 25.846-19.68 41.013-45.5 45.5-38.999.5-77.999.667-117 .5v-167Z"/></svg>