<svg xmlns="http://www.w3.org/2000/svg" width="554" height="532" style="shape-rendering:geometricPrecision;text-rendering:geometricPrecision;image-rendering:optimizeQuality;fill-rule:evenodd;clip-rule:evenodd"><path fill="#fefffe" d="M-.5-.5h554v532H-.5V-.5Z" style="opacity:1"/><path d="M7.5 7.5h536v515H7.5V7.5Z" style="opacity:1"/><path fill="#fb101b" d="M35.5 27.5a8870.912 8870.912 0 0 0 180 45v383a19287.557 19287.557 0 0 0-188 46 56615.976 56615.976 0 0 1 0-475l8 1Z" style="opacity:1"/><path fill="#fffc37" d="M35.5 27.5h486a12229.006 12229.006 0 0 1-183 46v382a7494.121 7494.121 0 0 1 185 46 30760.19 30760.19 0 0 1-496 0 19287.557 19287.557 0 0 1 188-46v-383a8870.912 8870.912 0 0 1-180-45Z" style="opacity:1"/><path fill="#fc121b" d="M521.5 27.5h5v474h-3a7494.121 7494.121 0 0 0-185-46v-382a12229.006 12229.006 0 0 0 183-46Z" style="opacity:1"/><path fill="#fc321c" d="M192.5 78.5h-155v-18c29.002-.167 58.002 0 87 .5a2536.16 2536.16 0 0 1 68 17.5ZM516.5 79.5h-156a2473.651 2473.651 0 0 1 69-17.5c28.998-.5 57.998-.667 87-.5v18Z" style="opacity:1"/><path fill="#fc3f1d" d="M37.5 78.5h155a77.24 77.24 0 0 1 12 2.5c.935 2.38 1.268 4.88 1 7.5h-168v-10ZM360.5 79.5h156v10h-168v-8l12-2Z" style="opacity:1"/><path fill="#fc4c1e" d="M37.5 88.5h168v12h-168v-12Z" style="opacity:1"/><path fill="#fc4b1e" d="M348.5 89.5h168v11h-168v-11Z" style="opacity:1"/><path fill="#fc581f" d="M37.5 100.5h168v10h-168v-10ZM348.5 100.5h168v10h-168v-10Z" style="opacity:1"/><path fill="#fc6420" d="M37.5 110.5h168v11h-168v-11ZM348.5 110.5h168v12h-168v-12Z" style="opacity:1"/><path fill="#fc7121" d="M37.5 121.5h168v10h-168v-10ZM348.5 122.5h168v10h-168v-10Z" style="opacity:1"/><path fill="#fd7d23" d="M37.5 131.5h168v11h-168v-11Z" style="opacity:1"/><path fill="#fd7e23" d="M348.5 132.5h168v11h-168v-11Z" style="opacity:1"/><path fill="#fd8a24" d="M37.5 142.5h168v10h-168v-10ZM348.5 143.5h168v10h-168v-10Z" style="opacity:1"/><path fill="#fd9225" d="M37.5 152.5h168v6h-168v-6Z" style="opacity:1"/><path fill="#fd9826" d="M37.5 158.5h168v6h-168v-6Z" style="opacity:1"/><path fill="#fd9626" d="M348.5 153.5h168v11h-168v-11Z" style="opacity:1"/><path fill="#fda328" d="M37.5 164.5h168v10h-168v-10ZM348.5 164.5h168v10h-168v-10Z" style="opacity:1"/><path fill="#fdab29" d="M37.5 174.5h168v5h-168v-5ZM348.5 174.5h168v5h-168v-5Z" style="opacity:1"/><path fill="#fdb22a" d="M37.5 179.5h168v6h-168v-6Z" style="opacity:1"/><path fill="#fdb52b" d="M348.5 179.5h168v11h-168v-11Z" style="opacity:1"/><path fill="#fdbc2c" d="M37.5 185.5h168v10h-168v-10Z" style="opacity:1"/><path fill="#fdc42d" d="M37.5 195.5h168v5h-168v-5Z" style="opacity:1"/><path fill="#fdc22d" d="M348.5 190.5h168v10h-168v-10Z" style="opacity:1"/><path fill="#fecb2e" d="M37.5 200.5h168v6h-168v-6Z" style="opacity:1"/><path fill="#feca2e" d="M348.5 200.5h168v6h-168v-6Z" style="opacity:1"/><path fill="#fed530" d="M37.5 206.5h168v11h-168v-11ZM348.5 206.5h168v11h-168v-11Z" style="opacity:1"/><path fill="#fedd31" d="M37.5 217.5h168v5h-168v-5ZM348.5 217.5h168v5h-168v-5Z" style="opacity:1"/><path fill="#fee433" d="M37.5 222.5h168v6h-168v-6ZM348.5 222.5h168v6h-168v-6Z" style="opacity:1"/><path fill="#feef34" d="M37.5 228.5h168v10h-168v-10ZM348.5 228.5h168v10h-168v-10Z" style="opacity:1"/><path fill="#fefb37" d="M37.5 238.5h168v18h-168v-18ZM348.5 238.5h168v18h-168v-18Z" style="opacity:1"/><path fill="#fefa37" d="M205.5 283.5h-168v-17h168v17ZM516.5 282.5h-168v-16h168v16Z" style="opacity:1"/><path fill="#feec34" d="M348.5 282.5h168v10h-168v-10ZM37.5 283.5h168v10h-168v-10Z" style="opacity:1"/><path fill="#fedf32" d="M348.5 292.5h168v11h-168v-11Z" style="opacity:1"/><path fill="#fee032" d="M37.5 293.5h168v11h-168v-11Z" style="opacity:1"/><path fill="#fed32f" d="M348.5 303.5h168v11h-168v-11Z" style="opacity:1"/><path fill="#fed330" d="M37.5 304.5h168v11h-168v-11Z" style="opacity:1"/><path fill="#fecb2e" d="M348.5 314.5h168v6h-168v-6ZM37.5 315.5h168v6h-168v-6Z" style="opacity:1"/><path fill="#fdc02c" d="M348.5 320.5h168v10h-168v-10ZM37.5 321.5h168v11h-168v-11Z" style="opacity:1"/><path fill="#fdb92b" d="M348.5 330.5h168v5h-168v-5Z" style="opacity:1"/><path fill="#fdb22a" d="M348.5 335.5h168v6h-168v-6Z" style="opacity:1"/><path fill="#fdb32a" d="M37.5 332.5h168v11h-168v-11Z" style="opacity:1"/><path fill="#fdac29" d="M348.5 341.5h168v5h-168v-5Z" style="opacity:1"/><path fill="#fda528" d="M348.5 346.5h168v6h-168v-6Z" style="opacity:1"/><path fill="#fda728" d="M37.5 343.5h168v10h-168v-10Z" style="opacity:1"/><path fill="#fd9f27" d="M37.5 353.5h168v5h-168v-5Z" style="opacity:1"/><path fill="#fd9a27" d="M348.5 352.5h168v11h-168v-11Z" style="opacity:1"/><path fill="#fd9926" d="M37.5 358.5h168v6h-168v-6Z" style="opacity:1"/><path fill="#fd8e25" d="M348.5 363.5h168v11h-168v-11ZM37.5 364.5h168v11h-168v-11Z" style="opacity:1"/><path fill="#fd8123" d="M348.5 374.5h168v11h-168v-11Z" style="opacity:1"/><path fill="#fd8223" d="M37.5 375.5h168v11h-168v-11Z" style="opacity:1"/><path fill="#fd7522" d="M348.5 385.5h168v10h-168v-10ZM37.5 386.5h168v11h-168v-11Z" style="opacity:1"/><path fill="#fc6820" d="M348.5 395.5h168v12h-168v-12ZM37.5 397.5h168v12h-168v-12Z" style="opacity:1"/><path fill="#fc5f20" d="M37.5 409.5h168v6h-168v-6Z" style="opacity:1"/><path fill="#fc5c1f" d="M348.5 407.5h168v10h-168v-10Z" style="opacity:1"/><path fill="#fc561f" d="M37.5 415.5h168v9h-168v-9Z" style="opacity:1"/><path fill="#fc501e" d="M348.5 417.5h168v11h-168v-11Z" style="opacity:1"/><path fill="#fc491e" d="M37.5 424.5h168v12h-168v-12Z" style="opacity:1"/><path fill="#fc441d" d="M348.5 428.5h168v11h-168v-11Z" style="opacity:1"/><path fill="#fc3d1d" d="M37.5 436.5h168c.313 3.542-.021 6.875-1 10h-167v-10Z" style="opacity:1"/><path fill="#fc371c" d="M348.5 439.5h168v12h-148l-20-4v-8Z" style="opacity:1"/><path fill="#fc2e1c" d="M37.5 446.5h167a5039.559 5039.559 0 0 1-96 24.5c-23.664.5-47.331.667-71 .5v-25Z" style="opacity:1"/><path fill="#fc271b" d="M368.5 451.5h148v18c-26.669.167-53.335 0-80-.5a2528.256 2528.256 0 0 1-68-17.5Z" style="opacity:1"/></svg>