<svg xmlns="http://www.w3.org/2000/svg" width="256" height="256" style="shape-rendering:geometricPrecision;text-rendering:geometricPrecision;image-rendering:optimizeQuality;fill-rule:evenodd;clip-rule:evenodd"><path d="M255.5 153.5v11c-4.392 23.621-16.058 42.787-35 57.5a44.679 44.679 0 0 1-14 6.5c-25.488-11.25-41.322-30.583-47.5-58-2.719-.944-5.552-1.277-8.5-1v25c3.35-.165 6.683.002 10 .5 2.667 2.333 2.667 4.667 0 7-51.667.667-103.333.667-155 0-2.523-1.36-4.523-3.193-6-5.5v-164c1.57-2.728 3.902-4.562 7-5.5a10815.71 10815.71 0 0 1 208 0c3.073.739 5.24 2.572 6.5 5.5a1721.64 1721.64 0 0 1 0 83c-2.333 2.667-4.667 2.667-7 0a84.902 84.902 0 0 1-.5-13h-63v25c27.999-.616 55.999-.783 84-.5 1.833.5 3 1.667 3.5 3.5a41.25 41.25 0 0 0 4 12c4.151 4.295 8.651 7.962 13.5 11Zm-246-119h61v26h-63c-.592-8.934.075-17.6 2-26Zm69 0h63v26h-63v-26Zm72 0c20.336-.167 40.669 0 61 .5 1.952 8.23 2.618 16.73 2 25.5h-63v-26Zm-143 34h27v25h-27v-25Zm36 0h63v25h-63v-25Zm71 0h63v25h-63v-25Zm72 0h27v25h-27v-25Zm-179 34h63v25h-63v-25Zm71 0h63v25h-63v-25Zm-71 33h27v25h-27v-25Zm36 0h63v25h-63v-25Zm71 0c19.678-.333 39.345 0 59 1-3.251 7.417-8.417 13.084-15.5 17-1.202 2.177-1.702 4.511-1.5 7h-42v-25Zm67 0h49c1.854 10.026 7.354 17.36 16.5 22-2.281 27.916-15.614 48.583-40 62-20.079-10.111-33.079-26.111-39-48-1.637-4.64-2.137-9.307-1.5-14 8.959-4.627 13.959-11.961 15-22Zm-174 34h63v25c-20.67.167-41.336 0-62-.5a153.91 153.91 0 0 1-1-24.5Zm71 0h63v25h-63v-25Z" style="opacity:.902"/><path d="M220.5 156.5c5.229.706 6.729 3.372 4.5 8l-15 23c-2.448 3.045-5.281 3.545-8.5 1.5L191 178.5c-.664-4.996 1.502-6.83 6.5-5.5a64.292 64.292 0 0 0 7 6.5 421.674 421.674 0 0 1 16-23Z" style="opacity:.856"/></svg>