<svg xmlns="http://www.w3.org/2000/svg" width="512" height="512" style="shape-rendering:geometricPrecision;text-rendering:geometricPrecision;image-rendering:optimizeQuality;fill-rule:evenodd;clip-rule:evenodd"><path d="M123.5-.5h264c6.407 2.578 10.574 7.245 12.5 14 .667 107.667.667 215.333 0 323-3.42 4.253-7.587 5.087-12.5 2.5-1.393-1.171-2.227-2.671-2.5-4.5-.5-82.999-.667-165.999-.5-249-13.337.167-26.671 0-40-.5-8.822-2.954-10.156-7.954-4-15 14.663-.5 29.33-.667 44-.5a722.939 722.939 0 0 0-1-53.5 4141.737 4141.737 0 0 0-128-1.5c-42.725-.159-85.391.341-128 1.5a722.939 722.939 0 0 0-1 53.5c64.001-.167 128.001 0 192 .5 4.432 3.523 5.099 7.69 2 12.5-1.412 1.306-3.079 2.14-5 2.5-62.999.5-125.999.667-189 .5.167 11.671 0 23.338-.5 35-4.606 7.487-9.606 7.821-15 1-.667-36-.667-72 0-108 1.926-6.755 6.093-11.422 12.5-14Z" style="opacity:.952"/><path d="M237.5 121.5a18.453 18.453 0 0 1 6 .5 140.089 140.089 0 0 0 12 7.5 124.062 124.062 0 0 1 11-7.5c9.548-.747 12.715 3.42 9.5 12.5a124.368 124.368 0 0 1-12 9 132.434 132.434 0 0 0 0 23 580.693 580.693 0 0 1 19.5-12 554.574 554.574 0 0 1 2.5-17c4.724-5.047 9.391-5.047 14 0a28.043 28.043 0 0 0 1.5 5c-1.275 4.315-1.275 8.649 0 13 5.21 1.52 9.71 4.186 13.5 8 1.758 6.492-.575 10.492-7 12a57.136 57.136 0 0 1-16-7L271.5 181a608.132 608.132 0 0 1 20.5 11.5 181.526 181.526 0 0 0 11.5-5.5c10.563-1.111 13.896 3.222 10 13a153.294 153.294 0 0 1-12.5 6.5c-.796 4.255-.629 8.421.5 12.5-1.335 6.668-5.335 9.335-12 8l-3.5-3.5a97.754 97.754 0 0 1-2-16 580.693 580.693 0 0 0-19.5-12c-1.333 8-1.333 16 0 24l11 8c4.013 7.24 2.013 11.907-6 14a66.683 66.683 0 0 1-14.5-9 58.317 58.317 0 0 1-10.5 7.5c-9.903 1.769-13.403-2.064-10.5-11.5a94.102 94.102 0 0 1 13-10c.667-8 .667-16 0-24a367.505 367.505 0 0 0-19.5 12 554.574 554.574 0 0 1-2.5 17c-4.724 5.047-9.391 5.047-14 0a28.043 28.043 0 0 0-1.5-5c1.275-4.315 1.275-8.649 0-13-5.21-1.52-9.71-4.186-13.5-8-1.836-8.154 1.331-11.988 9.5-11.5a83.921 83.921 0 0 1 13.5 6.5 189.534 189.534 0 0 1 19.5-11.5 578.532 578.532 0 0 0-19.5-11.5c-6.065 3.692-12.565 5.526-19.5 5.5-4.253-3.42-5.087-7.587-2.5-12.5a61.084 61.084 0 0 1 13-7c.796-4.255.629-8.421-.5-12.5.944-7.144 4.944-9.811 12-8l3.5 3.5a97.754 97.754 0 0 1 2 16 580.693 580.693 0 0 0 19.5 12 66.641 66.641 0 0 0 0-23c-5.038-3.09-9.538-6.756-13.5-11-1.224-4.874.276-8.541 4.5-11Z" style="opacity:.929"/><path d="M362.5 511.5h-8c-3.651-4.611-4.984-9.944-4-16h-190c.984 6.056-.349 11.389-4 16h-8c-3.651-4.611-4.984-9.944-4-16a93.752 93.752 0 0 1-21-1.5c-6.597-2.263-10.764-6.763-12.5-13.5-.667-112-.667-224 0-336 2.955-3.777 6.788-4.943 11.5-3.5 1.987 1.319 3.154 3.152 3.5 5.5.5 26.665.667 53.331.5 80 40.344-5.08 57.011 12.587 50 53 6.592 40.072-10.075 57.405-50 52v58h258c-.166-9.672 0-19.339.5-29 4.58-7.567 9.58-7.901 15-1a3658.67 3658.67 0 0 1 0 121c-1.736 6.737-5.903 11.237-12.5 13.5a93.752 93.752 0 0 1-21 1.5c.984 6.056-.349 11.389-4 16Zm-236-269c8.007-.166 16.007 0 24 .5 4.833 1.5 8 4.667 9.5 9.5a702.15 702.15 0 0 1 0 53c-1.105 4.706-3.938 7.873-8.5 9.5-8.327.5-16.66.666-25 .5v-73Zm0 163h258c.328 24.241-.006 48.408-1 72.5a4119.953 4119.953 0 0 1-128 1.5c-42.749.162-85.416-.338-128-1.5a1323.894 1323.894 0 0 1-1-72.5Z" style="opacity:.939"/><path d="M139.5 253.5c5.692-1.24 9.526.76 11.5 6 .667 13 .667 26 0 39-2.88 6.509-7.38 8.009-13.5 4.5a9.454 9.454 0 0 1-1.5-2.5 462.27 462.27 0 0 1 0-43 19.552 19.552 0 0 0 3.5-4Z" style="opacity:.917"/><path d="M159.5 420.5c64.001-.167 128.001 0 192 .5 4.249 3.377 5.082 7.543 2.5 12.5a14.444 14.444 0 0 1-5.5 2.5c-62 .667-124 .667-186 0-6.153-1.465-8.32-5.298-6.5-11.5a20.673 20.673 0 0 1 3.5-4Z" style="opacity:.933"/><path d="M161.5 448.5c62.668-.167 125.334 0 188 .5 5.406 1.98 7.239 5.814 5.5 11.5l-3.5 3.5c-64 .667-128 .667-192 0-4.253-3.42-5.087-7.587-2.5-12.5 1.409-1.281 2.909-2.281 4.5-3Z" style="opacity:.932"/></svg>