<svg xmlns="http://www.w3.org/2000/svg" width="656" height="838" style="shape-rendering:geometricPrecision;text-rendering:geometricPrecision;image-rendering:optimizeQuality;fill-rule:evenodd;clip-rule:evenodd"><path style="opacity:.11" fill="#fdfdfd" d="M109.5 5.5a31405.091 31405.091 0 0 1 434-.5c4.199.528 8.199 1.361 12 2.5a49.518 49.518 0 0 1-13-1.5c-142.666-.5-285.333-.667-428-.5h-5Z"/><path style="opacity:.531" fill="#b0b0b0" d="M109.5 5.5h5c-5.098 1.457-10.431 2.124-16 2 3.409-1.403 7.075-2.07 11-2Z"/><path style="opacity:.995" fill="#030303" d="M114.5 5.5c142.667-.167 285.334 0 428 .5a49.518 49.518 0 0 0 13 1.5c1.599-.268 2.932.066 4 1 3.695 1.932 7.695 3.265 12 4 2.292 1.767 4.958 2.767 8 3 2.319.492 4.319 1.492 6 3 .321 1.548 1.321 2.215 3 2l2 1c.321 1.548 1.321 2.215 3 2a49.072 49.072 0 0 1 13 10c3 3.667 6.333 7 10 10 1 .333 1.667 1 2 2 .238 1.904 1.238 3.238 3 4-.073 1.527.594 2.527 2 3 1 .333 1.667 1 2 2-.073 1.527.594 2.527 2 3-.073 1.527.594 2.527 2 3l1 2c-.073 1.527.594 2.527 2 3 1.508 1.681 2.508 3.681 3 6-.38 2.198.287 3.865 2 5 .904.709 1.237 1.709 1 3-.38 2.198.287 3.865 2 5-.329 2.728.337 5.061 2 7 1.511 3.044 2.178 6.378 2 10 .57 7.654.904 15.321 1 23v582a189.29 189.29 0 0 1-2 31c.09 2.652-.576 4.985-2 7-1.572 2.715-2.572 5.715-3 9-1.431 1.28-2.098 2.947-2 5-11.667 28.333-31.667 48.333-60 60-2.943.48-5.61 1.48-8 3a959.239 959.239 0 0 1-26 6c-144.228.267-288.561.267-433 0-4.411-1.63-9.078-2.63-14-3-2.405-1.268-5.072-1.935-8-2-1.903-.296-3.57-.963-5-2-1.43-1.037-3.097-1.704-5-2-1.653-.16-2.986-.826-4-2-1.681-1.508-3.681-2.508-6-3-.473-1.406-1.473-2.073-3-2-1.653-.16-2.986-.826-4-2-.762-1.762-2.096-2.762-4-3-.762-1.762-2.096-2.762-4-3-.762-1.762-2.096-2.762-4-3a6.544 6.544 0 0 1-3-3c-.762-1.762-2.096-2.762-4-3 .073-1.527-.594-2.527-2-3l-5-4a71.103 71.103 0 0 1-8-12c.073-1.527-.594-2.527-2-3-1.174-1.014-1.84-2.347-2-4-.492-2.319-1.492-4.319-3-6-3.497-5.481-5.83-11.481-7-18a625.343 625.343 0 0 1-3.5-20c-.824-207.676-.657-415.343.5-623-.178-3.622.489-6.956 2-10 1.663-1.939 2.33-4.272 2-7 2.49-3.126 3.823-6.792 4-11-.172-.992.162-1.658 1-2 1.604-.787 2.27-2.12 2-4-.172-.992.162-1.658 1-2 1.406-.473 2.073-1.473 2-3 1.406-.473 2.073-1.473 2-3-.172-.992.162-1.658 1-2 1.762-.762 2.762-2.096 3-4a5.728 5.728 0 0 0 1-3l11-12c2.927-1.257 5.26-3.257 7-6 1.527.073 2.527-.594 3-2 1.73-.526 3.064-1.526 4-3 .762-1.762 2.096-2.762 4-3 1.527.073 2.527-.594 3-2 .79-.901 1.79-1.568 3-2 4.318-1.492 8.318-3.492 12-6a127.788 127.788 0 0 0 17-6c1.068-.934 2.401-1.268 4-1 5.569.124 10.902-.543 16-2Zm13 24c133.661.221 267.328.221 401 0 6.117 1.38 12.45 2.046 19 2a189.112 189.112 0 0 1 21 6c.473 1.406 1.473 2.073 3 2 1.681 1.508 3.681 2.508 6 3 .473 1.406 1.473 2.073 3 2 .79.901 1.79 1.568 3 2 .762 1.762 2.096 2.762 4 3 2.069 3.072 4.736 5.406 8 7 .919 2.59 2.586 4.59 5 6a126.761 126.761 0 0 1 15 26 163.597 163.597 0 0 1 4.5 25c.5 18.33.667 36.664.5 55-3.871-.315-7.538.018-11 1h-2c-17.162-1.162-34.495-1.329-52-.5-.556.383-.889.883-1 1.5h-34c-5.628-1.329-11.628-1.996-18-2-20.171.383-40.171 1.05-60 2-97.272.834-194.606 1.167-292 1a795.73 795.73 0 0 0-69-.5c-.556.383-.89.883-1 1.5h-10c-2.07-1.309-4.57-1.975-7.5-2a331.14 331.14 0 0 1-29.5 1c.318-4.532-.015-8.866-1-13v-39c1.719-6.424 2.719-13.091 3-20 1.935-4.395 3.269-9.061 4-14 13.472-29.423 36.14-47.423 68-54 3.984-.219 7.818-.219 11.5 0a205.976 205.976 0 0 0 8.5-2Zm493 164c.167 174.334 0 348.667-.5 523a127.75 127.75 0 0 1-4.5 27 322.628 322.628 0 0 1-8 18c-1.762.762-2.762 2.096-3 4-1.762.762-2.762 2.096-3 4-2.743 1.739-4.743 4.073-6 7-1 .333-1.667 1-2 2-2.589.919-4.589 2.586-6 5-1.904.238-3.238 1.238-4 3-1.527-.073-2.527.594-3 2-.992-.172-1.658.162-2 1-1.527-.073-2.527.594-3 2-16.228 8.542-33.561 12.708-52 12.5-131.333.667-262.667.667-394 0-17.3.01-33.634-3.824-49-11.5-.79-.901-1.79-1.568-3-2-.342-.838-1.008-1.172-2-1-.79-.901-1.79-1.568-3-2a1715.843 1715.843 0 0 0-10-8c-.473-1.406-1.473-2.073-3-2 0-1.333-.667-2-2-2 .073-1.527-.594-2.527-2-3-1-1.667-2.333-3-4-4 .073-1.527-.594-2.527-2-3 .073-1.527-.594-2.527-2-3 .073-1.527-.594-2.527-2-3 .172-.992-.162-1.658-1-2 .073-1.527-.594-2.527-2-3a27355.78 27355.78 0 0 0-3-8 232.315 232.315 0 0 1-7-35c-.316-171.674.017-343.341 1-515 41.529-.288 83.029-.288 124.5 0 21.359-.078 42.693-.744 64-2 11.672.163 23.339.497 35 1 121.242-.682 242.408-1.348 363.5-2Zm-438 385a114.436 114.436 0 0 1 13 6c1.411 2.414 3.411 4.081 6 5-.073 1.527.594 2.527 2 3 2.012 2.705 4.012 5.372 6 8a563.614 563.614 0 0 1 10 24c.049 3.578.715 6.911 2 10a3580.81 3580.81 0 0 0 2 52v27c-.986 4.47-1.319 9.137-1 14h-94c.435-9.217.435-18.217 0-27 .672-20.069 1.339-40.236 2-60.5-.228-.399-.562-.565-1-.5.841-1.879 1.175-3.879 1-6 1.618-4.075 2.618-8.408 3-13 .904-.709 1.237-1.709 1-3 1.903-3.03 3.237-6.363 4-10 1.985-3.298 3.985-6.631 6-10 1.406-.473 2.073-1.473 2-3a65.57 65.57 0 0 1 12-11.5 29.749 29.749 0 0 1 9-3.5c5.182-.953 10.182-1.286 15-1Z"/><path style="opacity:.086" fill="#cfcfcf" d="M559.5 8.5c4.415.36 8.415 1.694 12 4-4.305-.735-8.305-2.068-12-4Z"/><path style="opacity:.059" fill="#dbdbdb" d="M94.5 8.5a127.788 127.788 0 0 1-17 6c5.133-3.158 10.8-5.158 17-6Z"/><path style="opacity:.092" fill="#dedede" d="M571.5 12.5c3.042.233 5.708 1.233 8 3-3.042-.233-5.708-1.233-8-3Z"/><path style="opacity:.416" fill="#cecece" d="M77.5 14.5c-3.682 2.508-7.682 4.508-12 6 3.414-3.04 7.414-5.04 12-6Z"/><path style="opacity:.776" fill="#7e7e7e" d="M585.5 18.5c1.21.432 2.21 1.099 3 2-1.679.215-2.679-.452-3-2Z"/><path style="opacity:.788" fill="#7e7e7e" d="M590.5 21.5c1.21.432 2.21 1.099 3 2-1.679.215-2.679-.452-3-2Z"/><path style="opacity:.647" fill="#828282" d="M62.5 22.5c-.473 1.406-1.473 2.073-3 2 .473-1.406 1.473-2.073 3-2Z"/><path style="opacity:.239" fill="#ababab" d="M55.5 27.5c-.936 1.474-2.27 2.474-4 3 .535-1.946 1.868-2.946 4-3Z"/><path style="opacity:.007" fill="#e7e7e7" d="M127.5 29.5a205.976 205.976 0 0 1-8.5 2 100.782 100.782 0 0 0-11.5 0c1.109-.79 2.442-1.29 4-1.5a128.43 128.43 0 0 1 16-.5Z"/><path style="opacity:.005" fill="#dadada" d="M528.5 29.5c6.582-.344 12.916.323 19 2-6.55.046-12.883-.62-19-2Z"/><path style="opacity:.706" fill="#797979" d="M51.5 30.5c-.473 1.406-1.473 2.073-3 2 .473-1.406 1.473-2.073 3-2Z"/><path style="opacity:.255" fill="#cacaca" d="M48.5 32.5c-1.74 2.743-4.073 4.743-7 6 1.74-2.743 4.073-4.743 7-6Z"/><path style="opacity:.012" fill="#c7c7c7" d="M606.5 33.5c4.333 2.333 7.667 5.667 10 10-3.667-3-7-6.333-10-10Z"/><path style="opacity:.353" fill="#9c9c9c" d="M568.5 37.5c1.527-.073 2.527.594 3 2-1.527.073-2.527-.594-3-2Z"/><path style="opacity:.012" fill="#050605" d="M25.5 41.5c1.333.667 1.333.667 0 0Z"/><path style="opacity:.024" fill="#050605" d="M25.5 42.5c-.667.667-.667.667 0 0Z"/><path style="opacity:.345" fill="#a3a3a3" d="M577.5 42.5c1.527-.073 2.527.594 3 2-1.527.073-2.527-.594-3-2Z"/><path style="opacity:.004" fill="#050605" d="M23.5 44.5c1.333.667 1.333.667 0 0Z"/><path style="opacity:.459" fill="#9f9f9f" d="M583.5 46.5c1.904.238 3.238 1.238 4 3-1.904-.238-3.238-1.238-4-3Z"/><path style="opacity:.502" fill="#8d8d8d" d="M618.5 45.5c1.762.762 2.762 2.096 3 4-1.762-.762-2.762-2.096-3-4Z"/><path style="opacity:.004" fill="#fefffe" d="M30.5 50.5c-.667-1.333-.667-1.333 0 0Z"/><path style="opacity:.694" fill="#a4a4a4" d="M587.5 49.5c3.264 1.594 5.931 3.928 8 7-3.264-1.594-5.931-3.928-8-7Z"/><path style="opacity:.537" fill="#7a7a7a" d="M621.5 49.5c1.406.473 2.073 1.473 2 3-1.406-.473-2.073-1.473-2-3Z"/><path style="opacity:.671" fill="#959595" d="M29.5 53.5c-.238 1.904-1.238 3.238-3 4 .238-1.904 1.238-3.238 3-4Z"/><path style="opacity:.263" fill="#bdbdbd" d="M625.5 54.5c1.406.473 2.073 1.473 2 3-1.406-.473-2.073-1.473-2-3Z"/><path style="opacity:.027" fill="#b4b4b4" d="M595.5 56.5c2.414 1.41 4.081 3.41 5 6-2.414-1.41-4.081-3.41-5-6Z"/><path style="opacity:.133" fill="#d3d3d3" d="M627.5 57.5c1.406.473 2.073 1.473 2 3-1.406-.473-2.073-1.473-2-3Z"/><path style="opacity:.329" fill="#b4b4b4" d="M25.5 59.5c.073 1.527-.594 2.527-2 3-.073-1.527.594-2.527 2-3Z"/><path style="opacity:.451" fill="#c4c4c4" d="M23.5 62.5c.073 1.527-.594 2.527-2 3-.073-1.527.594-2.527 2-3Z"/><path style="opacity:.173" fill="#d3d3d3" d="M630.5 62.5c1.406.473 2.073 1.473 2 3-1.406-.473-2.073-1.473-2-3Z"/><path style="opacity:.112" fill="#f2f2f2" d="M20.5 67.5c.27 1.88-.396 3.213-2 4 .16-1.653.826-2.986 2-4Z"/><path style="opacity:.702" fill="#969696" d="M635.5 71.5c1.431 1.28 2.098 2.947 2 5-1.713-1.135-2.38-2.802-2-5Z"/><path style="opacity:.675" fill="#939393" d="M17.5 73.5c-.177 4.208-1.51 7.874-4 11 .565-4.037 1.899-7.703 4-11Z"/><path style="opacity:.659" fill="#8b8b8b" d="M638.5 79.5c1.431 1.28 2.098 2.947 2 5-1.713-1.135-2.38-2.802-2-5Z"/><path style="opacity:.998" fill="#040404" d="M249.5 87.5h1c.321 1.548 1.321 2.215 3 2 2.947 1.28 5.281 3.28 7 6 .58 2.249 1.913 3.915 4 5-.073 1.527.594 2.527 2 3 .838.342 1.172 1.008 1 2 .095 2.286.762 4.286 2 6 1.561 8.831.894 17.498-2 26-1.75 1.159-2.75 2.826-3 5-.943 2.609-2.61 4.609-5 6-1 .333-1.667 1-2 2 0 .667-.333 1-1 1-1.527-.073-2.527.594-3 2-1.527-.073-2.527.594-3 2-.342.838-1.008 1.172-2 1a143.666 143.666 0 0 1-16.5 3 90.927 90.927 0 0 1-15.5-3c-1.159-1.75-2.826-2.75-5-3-1.411-2.414-3.411-4.081-6-5-6.306-5.944-9.972-13.278-11-22 .04-4.693.373-9.359 1-14 1.585-7.575 5.252-13.908 11-19 1.527.073 2.527-.594 3-2 1.302-2.322 3.302-3.655 6-4 1.653-.16 2.986-.826 4-2 10.228-2.938 20.228-2.272 30 2Z"/><path style="opacity:.999" fill="#040404" d="M139.5 88.5h1c.321 1.548 1.321 2.215 3 2 .473 1.406 1.473 2.073 3 2 1.667 1 3 2.333 4 4 .919 2.59 2.586 4.589 5 6 1.174 1.014 1.84 2.347 2 4a73.643 73.643 0 0 1 3 15.5 116.2 116.2 0 0 1-3 16.5c-1.816 1.618-3.149 3.618-4 6-2 4-5 7-9 9-1.73.526-3.064 1.526-4 3-.342.838-1.008 1.172-2 1-1.459-.067-2.792.266-4 1-.958.453-1.792 1.119-2.5 2-6.378.29-12.878-.044-19.5-1-1.714-1.238-3.714-1.905-6-2-3.661-2.66-7.328-5.326-11-8-2.087-1.085-3.42-2.751-4-5-.85-2.382-2.184-4.382-4-6a76.285 76.285 0 0 1-3-17 125.148 125.148 0 0 1 3-15c-.172-.992.162-1.658 1-2 1.826-1.647 3.16-3.647 4-6 1-1.667 2.333-3 4-4 1.904-.238 3.238-1.238 4-3 2.508-2.424 5.508-4.09 9-5 10.228-2.938 20.228-2.272 30 2Z"/><path style="opacity:.31" fill="#c5c5c5" d="M249.5 87.5c-9.772-4.272-19.772-4.938-30-2 6.287-2.785 12.953-3.618 20-2.5 3.764.852 7.097 2.352 10 4.5Z"/><path style="opacity:.318" fill="#c4c4c4" d="M139.5 88.5c-9.772-4.272-19.772-4.938-30-2 7.354-3.305 15.021-3.805 23-1.5 2.781.522 5.115 1.689 7 3.5Z"/><path style="opacity:.635" fill="#a4a4a4" d="M219.5 85.5c-1.014 1.174-2.347 1.84-4 2 .787-1.604 2.12-2.27 4-2Z"/><path style="opacity:.643" fill="#b3b3b3" d="M13.5 84.5c.33 2.728-.337 5.061-2 7-.09-2.652.576-4.986 2-7Z"/><path style="opacity:.824" fill="#838383" d="M250.5 87.5c1.21.432 2.21 1.099 3 2-1.679.215-2.679-.452-3-2Z"/><path style="opacity:.498" fill="#b3b3b3" d="M640.5 84.5c1.424 2.014 2.09 4.348 2 7-1.663-1.939-2.329-4.272-2-7Z"/><path style="opacity:.827" fill="#838383" d="M140.5 88.5c1.21.432 2.21 1.099 3 2-1.679.215-2.679-.452-3-2Z"/><path style="opacity:.008" fill="#d0d0d0" d="M143.5 90.5c1.527-.073 2.527.594 3 2-1.527.073-2.527-.594-3-2Z"/><path style="opacity:.037" fill="#eee" d="M39.5 85.5c-.731 4.939-2.065 9.605-4 14 .42-5.029 1.754-9.695 4-14Z"/><path style="opacity:.639" fill="#8a8a8a" d="M100.5 91.5c-.762 1.762-2.096 2.762-4 3 .762-1.762 2.096-2.762 4-3Z"/><path style="opacity:.745" fill="#797979" d="M209.5 91.5c-.473 1.406-1.473 2.073-3 2 .473-1.406 1.473-2.073 3-2Z"/><path style="opacity:.71" fill="#9e9e9e" d="M260.5 95.5c2.087 1.085 3.42 2.751 4 5-2.087-1.085-3.42-2.751-4-5Z"/><path style="opacity:.694" fill="#adadad" d="M150.5 96.5c2.414 1.41 4.081 3.41 5 6-2.414-1.411-4.081-3.41-5-6Z"/><path style="opacity:.302" fill="#d5d5d5" d="M92.5 98.5c-.84 2.353-2.174 4.353-4 6 .345-2.698 1.678-4.698 4-6Z"/><path style="opacity:.104" fill="#e1e1e1" d="M264.5 100.5c1.406.473 2.073 1.473 2 3-1.406-.473-2.073-1.473-2-3Z"/><path style="opacity:.04" fill="#d8d8d8" d="M35.5 99.5c-.281 6.909-1.281 13.576-3 20 .037-6.035.537-12.035 1.5-18 .278-.916.778-1.582 1.5-2Z"/><path style="opacity:.104" fill="#fcfcfc" d="M9.5 101.5a65327.986 65327.986 0 0 0-.5 623 625.343 625.343 0 0 0 3.5 20c-2.435-5.985-3.935-12.318-4.5-19-.667-206-.667-412 0-618 .19-2.208.69-4.208 1.5-6Z"/><path style="opacity:.088" fill="#e4e4e4" d="M267.5 105.5c1.574 1.602 2.241 3.602 2 6-1.238-1.714-1.905-3.714-2-6Z"/><path style="opacity:.08" fill="#eaeaea" d="M644.5 101.5c2.039 7.611 2.372 15.277 1 23a372.302 372.302 0 0 0-1-23Z"/><path style="opacity:.026" fill="#e2e2e2" d="M87.5 106.5a125.148 125.148 0 0 0-3 15 76.285 76.285 0 0 0 3 17c-3.138-4.771-4.471-10.104-4-16-.471-5.896.862-11.229 4-16Z"/><path style="opacity:.028" fill="#ededed" d="M157.5 106.5c1.755 2.261 2.922 4.928 3.5 8 .667 5 .667 10 0 15-.505 3.365-1.672 6.365-3.5 9a116.2 116.2 0 0 0 3-16.5 73.643 73.643 0 0 0-3-15.5Z"/><path style="opacity:.11" fill="#ececec" d="M269.5 111.5c.768.763 1.268 1.763 1.5 3 1.378 8.198.211 15.864-3.5 23 2.894-8.502 3.561-17.169 2-26Z"/><path style="opacity:.049" fill="#e0e0e0" d="M195.5 112.5c-.627 4.641-.96 9.307-1 14-.661-1.634-.994-3.467-1-5.5-.14-3.15.527-5.983 2-8.5Z"/><path style="opacity:.093" fill="#f4f4f4" d="M615.5 88.5c2.918 6.608 4.751 13.608 5.5 21 .5 19.997.667 39.997.5 60h-12c3.462-.982 7.129-1.315 11-1 .167-18.336 0-36.67-.5-55a163.597 163.597 0 0 0-4.5-25Z"/><path style="opacity:.09" fill="#e4e4e4" d="M267.5 137.5c-.25 2.174-1.25 3.841-3 5 .25-2.174 1.25-3.841 3-5Z"/><path style="opacity:.133" fill="#d4d4d4" d="M87.5 138.5c1.816 1.618 3.15 3.618 4 6-2.296-1.233-3.63-3.233-4-6Z"/><path style="opacity:.041" fill="#e4e4e4" d="M157.5 138.5c-.37 2.767-1.704 4.767-4 6 .851-2.382 2.184-4.382 4-6Z"/><path style="opacity:.057" fill="#eee" d="M259.5 148.5c0 1.333-.667 2-2 2 .333-1 1-1.667 2-2Z"/><path style="opacity:.231" fill="#a6a6a6" d="M205.5 148.5c2.589.919 4.589 2.586 6 5-2.589-.919-4.589-2.586-6-5Z"/><path style="opacity:.024" fill="#e1e1e1" d="M256.5 151.5c-.473 1.406-1.473 2.073-3 2 .473-1.406 1.473-2.073 3-2Z"/><path style="opacity:.022" fill="#e1e1e1" d="M144.5 153.5c-.535 1.946-1.868 2.946-4 3 .936-1.474 2.27-2.474 4-3Z"/><path style="opacity:.149" fill="#cecece" d="M211.5 153.5c2.174.25 3.841 1.25 5 3-2.174-.25-3.841-1.25-5-3Z"/><path style="opacity:.055" fill="#f0f0f0" d="M253.5 153.5c-.473 1.406-1.473 2.073-3 2 .473-1.406 1.473-2.073 3-2Z"/><path style="opacity:.122" fill="#c4c4c4" d="M95.5 149.5c3.672 2.674 7.339 5.34 11 8-4.792-1.127-8.459-3.793-11-8Z"/><path style="opacity:.008" fill="#e3e3e3" d="M106.5 157.5c2.286.095 4.286.762 6 2 .065.438-.101.772-.5 1-2.058-.729-3.891-1.729-5.5-3Z"/><path style="opacity:.014" fill="#f2f2f2" d="M138.5 157.5c-1.205 1.638-2.538 1.971-4 1 1.208-.734 2.541-1.067 4-1Z"/><path style="opacity:.008" fill="#e7e7e7" d="M216.5 156.5a90.927 90.927 0 0 0 15.5 3 143.666 143.666 0 0 0 16.5-3c-4.83 2.874-10.164 4.208-16 4-5.836.208-11.17-1.126-16-4Z"/><path style="opacity:.364" fill="#bdbdbd" d="M520.5 170.5h-78c19.829-.95 39.829-1.617 60-2 6.372.004 12.372.671 18 2Z"/><path style="opacity:.637" fill="#848484" d="M607.5 169.5a1160.52 1160.52 0 0 1-53 1c.111-.617.444-1.117 1-1.5 17.505-.829 34.838-.662 52 .5Z"/><path style="opacity:.247" fill="#cfcfcf" d="M32.5 158.5c.985 4.134 1.318 8.468 1 13a331.14 331.14 0 0 0 29.5-1c2.93.025 5.43.691 7.5 2h-38v-14Z"/><path style="opacity:.453" fill="#b3b3b3" d="M150.5 171.5c-23.336.167-46.67.5-70 1 .11-.617.444-1.117 1-1.5a795.73 795.73 0 0 1 69 .5Z"/><path style="opacity:.09" fill="#fdfdfd" d="M620.5 193.5a47010.04 47010.04 0 0 1 .5 531c-1.083 6.683-2.916 13.017-5.5 19a127.75 127.75 0 0 0 4.5-27c.5-174.333.667-348.666.5-523Z"/><path style="opacity:.649" fill="#b2cde8" d="M418.5 206.5c-1.553-1.885-3.553-2.885-6-3 .311-.978.978-1.645 2-2 2.111 1.105 3.445 2.771 4 5Z"/><path style="opacity:.996" fill="#2e79c1" d="M261.5 208.5c3.23 1.38 5.064 3.713 5.5 7a491.092 491.092 0 0 0-32.5 32 5.727 5.727 0 0 1-3-1c-2.98-2.644-5.98-5.311-9-8-1.153-1.187-1.153-2.187 0-3 5.274-3.605 9.941-7.938 14-13a30.025 30.025 0 0 1 6-7c4.906-3.398 9.406-7.398 13.5-12a38.47 38.47 0 0 0 5.5 5Z"/><path style="opacity:.995" fill="#317ac1" d="M412.5 203.5c2.447.115 4.447 1.115 6 3a119.872 119.872 0 0 1 5 4c.333 1 1 1.667 2 2l6 8c1.594 3.264 3.927 5.931 7 8 1 .333 1.667 1 2 2 .919 2.589 2.586 4.589 5 6 1.528.017 2.028.684 1.5 2a193.271 193.271 0 0 0-10.5 9 5.727 5.727 0 0 1-3 1l-7-8c-.238-1.904-1.238-3.238-3-4-2-1.333-3.667-3-5-5-1.257-2.927-3.257-5.261-6-7a93.637 93.637 0 0 1-9.5-10c-.74-1.249-.573-2.249.5-3 2.927-1.257 5.261-3.257 7-6 .333-1 1-1.667 2-2Z"/><path style="opacity:.651" fill="#9dbfe2" d="M261.5 208.5a38.47 38.47 0 0 1-5.5-5c-4.094 4.602-8.594 8.602-13.5 12a210.447 210.447 0 0 1 12-12.5c3.579.063 5.912 1.896 7 5.5Z"/><path style="opacity:.667" fill="#a2c2e3" d="M410.5 205.5c-1.739 2.743-4.073 4.743-7 6 1.739-2.743 4.073-4.743 7-6Z"/><path style="opacity:.995" fill="#2d79c1" d="M396.5 244.5c-.098 2.053.569 3.72 2 5 1.174 1.014 1.84 2.347 2 4-.098 2.053.569 3.72 2 5 .838.342 1.172 1.008 1 2 .067 1.459-.266 2.792-1 4a81.58 81.58 0 0 1-11 5 2.428 2.428 0 0 1-2-.5 29.01 29.01 0 0 0-3-4.5c.098-2.053-.569-3.72-2-5-.838-.342-1.172-1.008-1-2-.542-3.412-1.875-6.412-4-9-.207-2.741-1.207-5.074-3-7-1.8-5.399-3.8-10.732-6-16a99.697 99.697 0 0 1 12-5.5c1.444-.781 2.777-.614 4 .5a541.944 541.944 0 0 1 10 24Z"/><path style="opacity:.6" fill="#c1d7ed" d="M431.5 220.5c3.073 2.069 5.406 4.736 7 8-3.073-2.069-5.406-4.736-7-8Z"/><path style="opacity:.993" fill="#377dc2" d="M295.5 221.5a26.06 26.06 0 0 1 9.5 5l1-1c.278.916.778 1.582 1.5 2 1.051.722 1.718 1.722 2 3-.16 1.653-.826 2.986-2 4-1.406.473-2.073 1.473-2 3a845.163 845.163 0 0 1-18.5 34c-.69 1.238-1.19 1.238-1.5 0-.473-1.406-1.473-2.073-3-2-1.653-.16-2.986-.826-4-2-.473-1.406-1.473-2.073-3-2-1.59-.128-2.923-.795-4-2a69.96 69.96 0 0 1 7-12c1.406-.473 2.073-1.473 2-3a256.532 256.532 0 0 1 10-19c1.75-1.159 2.75-2.826 3-5 1.406-.473 2.073-1.473 2-3Z"/><path style="opacity:.141" fill="#d2e2f2" d="M295.5 221.5c.073 1.527-.594 2.527-2 3-.073-1.527.594-2.527 2-3Z"/><path style="opacity:.302" fill="#e5eff7" d="M293.5 224.5c-.25 2.174-1.25 3.841-3 5 .25-2.174 1.25-3.841 3-5Z"/><path style="opacity:.008" fill="#d8e7f4" d="M412.5 224.5c2.743 1.739 4.743 4.073 6 7-2.743-1.739-4.743-4.073-6-7Z"/><path style="opacity:.114" fill="#fefffe" d="M333.5 227.5c5.475-.989 11.142-1.322 17-1 .323 6.522-.01 12.855-1 19v-18h-16Z"/><path style="opacity:.051" fill="#fafbfd" d="M307.5 227.5h3c.237 1.291-.096 2.291-1 3-.282-1.278-.949-2.278-2-3Z"/><path style="opacity:.985" fill="#2175be" d="M333.5 227.5h16v48h-16v-17c-.983-10.497-.983-20.831 0-31Z"/><path style="opacity:.027" fill="#dfebf6" d="M370.5 225.5c2.2 5.268 4.2 10.601 6 16-2.627-4.01-4.794-8.344-6.5-13-.74-1.249-.573-2.249.5-3Z"/><path style="opacity:.698" fill="#8fb6de" d="M236.5 222.5c-4.059 5.062-8.726 9.395-14 13 4.059-5.062 8.726-9.395 14-13Z"/><path style="opacity:.682" fill="#bbd4eb" d="M440.5 230.5c2.414 1.411 4.081 3.411 5 6-2.414-1.411-4.081-3.411-5-6Z"/><path style="opacity:.012" fill="#e1ecf6" d="M307.5 234.5c.073 1.527-.594 2.527-2 3-.073-1.527.594-2.527 2-3Z"/><path style="opacity:.016" fill="#d5e5f3" d="M423.5 236.5c1.762.762 2.762 2.096 3 4-1.762-.762-2.762-2.096-3-4Z"/><path style="opacity:.141" fill="#e0ecf6" d="M376.5 241.5c1.793 1.926 2.793 4.259 3 7-1.793-1.926-2.793-4.259-3-7Z"/><path style="opacity:.073" fill="#edf4fa" d="M396.5 244.5c1.431 1.28 2.098 2.947 2 5-1.431-1.28-2.098-2.947-2-5Z"/><path style="opacity:.02" fill="#e7f0f8" d="M231.5 246.5c.891.61 1.891.943 3 1-1.447 1.385-2.447 1.052-3-1Z"/><path style="opacity:.075" fill="#fefffe" d="M436.5 247.5c-.553 2.052-1.553 2.385-3 1a5.727 5.727 0 0 0 3-1Z"/><path style="opacity:.994" fill="#377cc2" d="M212.5 248.5c.333 1 1 1.667 2 2 2.644 2.98 5.311 5.98 8 9a2968.346 2968.346 0 0 0-6 7c-1 .333-1.667 1-2 2a299.09 299.09 0 0 0-26 24.5c-.937.692-1.603.525-2-.5l-9-12a1459.898 1459.898 0 0 1 32-32.5c1.077-.47 2.077-.303 3 .5Z"/><path style="opacity:.18" fill="#d2e2f2" d="M280.5 248.5c.073 1.527-.594 2.527-2 3-.073-1.527.594-2.527 2-3Z"/><path style="opacity:.995" fill="#357cc2" d="M458.5 250.5c.58 2.249 1.913 3.915 4 5a248.65 248.65 0 0 1 25 28c1.234 1.898.901 3.565-1 5a54.235 54.235 0 0 1-9.5 8 84.87 84.87 0 0 1-7.5-8c-.238-1.904-1.238-3.238-3-4a377.197 377.197 0 0 1-22-24 164.077 164.077 0 0 0 11-10.5c1.249-.74 2.249-.573 3 .5Z"/><path style="opacity:.604" fill="#c4dbee" d="M458.5 250.5c2.087 1.085 3.42 2.751 4 5-2.087-1.085-3.42-2.751-4-5Z"/><path style="opacity:.208" fill="#ddeaf5" d="M379.5 248.5c2.125 2.588 3.458 5.588 4 9-2.125-2.588-3.458-5.588-4-9Z"/><path style="opacity:.041" fill="#f0f5fa" d="M400.5 253.5c1.431 1.28 2.098 2.947 2 5-1.431-1.28-2.098-2.947-2-5Z"/><path style="opacity:.146" fill="#fefffe" d="M349.5 257.5c.99 6.145 1.323 12.478 1 19h-18c-.323-6.19.01-12.19 1-18v17h16v-18Z"/><path style="opacity:.165" fill="#d8e7f4" d="M384.5 259.5c1.431 1.28 2.098 2.947 2 5-1.431-1.28-2.098-2.947-2-5Z"/><path style="opacity:.004" fill="#f3f7fb" d="M403.5 260.5c.624.417.957 1.084 1 2-.247 1.213-.914 1.88-2 2 .734-1.208 1.067-2.541 1-4Z"/><path style="opacity:.227" fill="#cee0f1" d="M275.5 265.5c1.527-.073 2.527.594 3 2-1.527.073-2.527-.594-3-2Z"/><path style="opacity:.129" fill="#e2edf7" d="M386.5 264.5a29.01 29.01 0 0 1 3 4.5 2.428 2.428 0 0 0 2 .5c-.751 1.073-1.751 1.24-3 .5-1.361-1.584-2.028-3.418-2-5.5Z"/><path style="opacity:.188" fill="#d4e4f3" d="M282.5 269.5c1.527-.073 2.527.594 3 2-1.527.073-2.527-.594-3-2Z"/><path style="opacity:.995" fill="#397ec3" d="M277.5 288.5c-1.75 1.159-2.75 2.826-3 5-.16 1.653-.826 2.986-2 4-1.406.473-2.073 1.473-2 3a148.295 148.295 0 0 1-15 26.5c-4.533-1.997-9.2-3.83-14-5.5 1.707-6.464 4.373-12.464 8-18 1.406-.473 2.073-1.473 2-3 .492-2.319 1.492-4.319 3-6 1.75-1.159 2.75-2.826 3-5 .16-1.653.826-2.986 2-4 1.406-.473 2.073-1.473 2-3a23.423 23.423 0 0 1 2.5-6 118.879 118.879 0 0 1 15.5 9c-.442 1.239-1.109 2.239-2 3Z"/><path style="opacity:.992" fill="#387dc3" d="M418.5 296.5c-.073 1.527.594 2.527 2 3a39867.09 39867.09 0 0 0 10 22 80.592 80.592 0 0 1-13 6c-1.322.17-2.489-.163-3.5-1-.67-2.674-1.837-5.007-3.5-7a294.901 294.901 0 0 1-15-36c4.871-2.447 9.871-4.28 15-5.5a150.528 150.528 0 0 1 8 18.5Z"/><path style="opacity:.533" fill="#aacae6" d="m177.5 280.5 9 12a162.014 162.014 0 0 1-11-10.5c.544-.717 1.211-1.217 2-1.5Z"/><path style="opacity:.416" fill="#d7e7f3" d="M261.5 282.5c.073 1.527-.594 2.527-2 3-.073-1.527.594-2.527 2-3Z"/><path style="opacity:.004" fill="#cce0f0" d="M466.5 284.5c1.762.762 2.762 2.096 3 4-1.762-.762-2.762-2.096-3-4Z"/><path style="opacity:.016" fill="#e5eff7" d="M487.5 283.5c1.844.704 2.344 2.037 1.5 4-.671.752-1.504 1.086-2.5 1 1.901-1.435 2.234-3.102 1-5Z"/><path style="opacity:.325" fill="#e5eff7" d="M257.5 289.5c-.25 2.174-1.25 3.841-3 5 .25-2.174 1.25-3.841 3-5Z"/><path style="opacity:.078" fill="#e7f0f8" d="M277.5 288.5c-.25 2.174-1.25 3.841-3 5 .25-2.174 1.25-3.841 3-5Z"/><path style="opacity:.116" fill="#fefffe" d="M333.5 291.5c5.475-.989 11.142-1.322 17-1 .325 7.852-.008 15.518-1 23v-22h-16Z"/><path style="opacity:.984" fill="#2375be" d="M333.5 291.5h16v48h-16v-11c-.986-12.497-.986-24.831 0-37Z"/><path style="opacity:.035" fill="#c9ddef" d="M164.5 293.5c.397-1.025 1.063-1.192 2-.5l9.5 9.5c.74 1.249.573 2.249-.5 3-2.936-4.605-6.602-8.605-11-12Z"/><path style="opacity:.99" fill="#347bc1" d="M164.5 293.5c4.398 3.395 8.064 7.395 11 12a102.102 102.102 0 0 1-12 12c-2 1.333-3.667 3-5 5a181.106 181.106 0 0 1-16 16c-3.921-3.58-7.921-7.247-12-11a817.176 817.176 0 0 1 34-34Z"/><path style="opacity:.043" fill="#e1ecf6" d="M272.5 297.5c.073 1.527-.594 2.527-2 3-.073-1.527.594-2.527 2-3Z"/><path style="opacity:.157" fill="#cbdef0" d="M418.5 296.5c1.406.473 2.073 1.473 2 3-1.406-.473-2.073-1.473-2-3Z"/><path style="opacity:.995" fill="#367cc2" d="M509.5 306.5c0 .667.333 1 1 1 1.976 2.648 3.976 5.315 6 8 1.594 3.264 3.927 5.931 7 8 1 .333 1.667 1 2 2 1.257 2.927 3.257 5.261 6 7 1.025.397 1.192 1.063.5 2a136.772 136.772 0 0 0-10.5 9c-1.562-.233-2.895-.9-4-2l-7-6a44.91 44.91 0 0 0-7-9c-.58-2.249-1.913-3.915-4-5-5.066-3.883-8.899-8.549-11.5-14a177.313 177.313 0 0 1 11.5-11 70.852 70.852 0 0 0 10 10Z"/><path style="opacity:.357" fill="#d7e7f3" d="M251.5 300.5c.073 1.527-.594 2.527-2 3-.073-1.527.594-2.527 2-3Z"/><path style="opacity:.612" fill="#c1d7ed" d="M516.5 315.5c3.073 2.069 5.406 4.736 7 8-3.073-2.069-5.406-4.736-7-8Z"/><path style="opacity:.004" fill="#e9f2f8" d="M163.5 317.5c-.667 2.667-2.333 4.333-5 5 1.333-2 3-3.667 5-5Z"/><path style="opacity:.078" fill="#ddeaf5" d="M410.5 319.5c1.663 1.993 2.83 4.326 3.5 7 1.011.837 2.178 1.17 3.5 1-1.384 1.301-2.884 1.301-4.5 0a37.914 37.914 0 0 1-2.5-8Z"/><path style="opacity:.008" fill="#d1e2f2" d="M499.5 321.5c2.087 1.085 3.42 2.751 4 5-2.087-1.085-3.42-2.751-4-5Z"/><path style="opacity:.146" fill="#fefffe" d="M349.5 324.5c.988 5.14 1.321 10.474 1 16h-18c-.317-4.202.017-8.202 1-12v11h16v-15Z"/><path style="opacity:.635" fill="#bfd6ec" d="M525.5 325.5c2.743 1.739 4.743 4.073 6 7-2.743-1.739-4.743-4.073-6-7Z"/><path style="opacity:.557" fill="#bcd3eb" d="m238.5 335.5-6-1c.283-.789.783-1.456 1.5-2a29.01 29.01 0 0 1 4.5 3Z"/><path style="opacity:.994" fill="#3f80c4" d="m232.5 334.5 6 1c3.533 1.262 6.533 3.262 9 6-1.501 4.335-3.501 8.335-6 12-1.75 1.159-2.75 2.826-3 5-.112 3.477-1.779 4.977-5 4.5a129.073 129.073 0 0 1-13-8c.566-.995 1.233-1.828 2-2.5 1.406-.473 2.073-1.473 2-3a160.636 160.636 0 0 1 8-15Z"/><path style="opacity:.247" fill="#d3e4f3" d="M437.5 338.5c-2.256-.938-4.59-.938-7 0 2.511-2.46 4.844-2.46 7 0Z"/><path style="opacity:.992" fill="#357cc2" d="M437.5 338.5c-.098 2.053.569 3.72 2 5 1.174 1.014 1.84 2.347 2 4 .207 2.741 1.207 5.074 3 7a20.69 20.69 0 0 0 1 5 80.864 80.864 0 0 1-16 6l-3-10c-.16-1.653-.826-2.986-2-4 .098-2.053-.569-3.72-2-5-1.348-1.027-1.848-2.36-1.5-4a117.8 117.8 0 0 1 9.5-4c2.41-.938 4.744-.938 7 0Z"/><path style="opacity:.061" fill="#edf4fa" d="M437.5 338.5c1.431 1.28 2.098 2.947 2 5-1.431-1.28-2.098-2.947-2-5Z"/><path style="opacity:.169" fill="#e4eef7" d="M517.5 341.5c1.105 1.1 2.438 1.767 4 2-2.209 1.476-3.542.809-4-2Z"/><path style="opacity:.18" fill="#d4e5f3" d="M422.5 346.5c1.431 1.28 2.098 2.947 2 5-1.431-1.28-2.098-2.947-2-5Z"/><path style="opacity:.037" fill="#f2f7fb" d="M441.5 347.5c1.793 1.926 2.793 4.259 3 7-1.793-1.926-2.793-4.259-3-7Z"/><path style="opacity:.275" fill="#d2e2f2" d="M224.5 349.5c.073 1.527-.594 2.527-2 3-.073-1.527.594-2.527 2-3Z"/><path style="opacity:.085" fill="#fefffe" d="M333.5 355.5c5.475-.989 11.142-1.322 17-1 .321 5.195-.013 10.195-1 15v-14h-16Z"/><path style="opacity:.188" fill="#dae8f4" d="M424.5 351.5c1.174 1.014 1.84 2.347 2 4-1.604-.787-2.271-2.12-2-4Z"/><path style="opacity:.043" fill="#e7f0f8" d="M241.5 353.5c-.25 2.174-1.25 3.841-3 5 .25-2.174 1.25-3.841 3-5Z"/><path style="opacity:.977" fill="#1071bd" d="M333.5 355.5h16v13h-16v-13Z"/><path style="opacity:.034" fill="#f7fafc" d="M444.5 354.5c1.845 1.495 2.178 3.162 1 5a20.69 20.69 0 0 1-1-5Z"/><path style="opacity:.358" fill="#c7ddef" d="M333.5 355.5v13h16v1c-5.63 1.037-11.297 1.037-17 0-.319-4.863.014-9.53 1-14Z"/><path style="opacity:.05" fill="#ebebeb" d="M344.5 393.5c-1.807-1.115-3.807-1.781-6-2-2.193.219-4.193.885-6 2 1.192-2.422 3.192-3.422 6-3 2.808-.422 4.808.578 6 3Z"/><path style="opacity:.995" fill="#020202" d="M344.5 393.5a42.47 42.47 0 0 0 1.5 5c.5 21.997.667 43.997.5 66 7.008-.166 14.008 0 21 .5a27.241 27.241 0 0 1 5 3.5c1.508 1.681 2.508 3.681 3 6 .16 1.653.826 2.986 2 4-.284 1.915.049 3.581 1 5-.241 2.398.426 4.398 2 6 2.944 10.341 4.611 21.007 5 32-.185 9.875.481 19.542 2 29a897.74 897.74 0 0 1-1 51 390.34 390.34 0 0 1-7 64c-.871 6.443-3.037 12.443-6.5 18-1.147 2.319-2.981 3.652-5.5 4h-21c.167 14.337 0 28.671-.5 43a42.47 42.47 0 0 0-1.5 5c-3.27 1.66-6.603 1.994-10 1a6.547 6.547 0 0 0-3-3 18816.727 18816.727 0 0 1-.5-335 42.47 42.47 0 0 0 1.5-5c1.807-1.115 3.807-1.781 6-2 2.193.219 4.193.885 6 2Z"/><path style="opacity:.997" fill="#030303" d="M426.5 391.5c3.285-.29 6.285.377 9 2 1.71 5.511 2.377 11.177 2 17v54a159.11 159.11 0 0 1 24 1c3.058 1.743 5.058 4.41 6 8-.38 2.198.287 3.865 2 5 2.249 4.997 3.583 10.33 4 16 .146 3.887.813 7.554 2 11 .968 2.107 1.302 4.441 1 7-.053 5.696.28 11.362 1 17 .925 14.32 1.592 28.653 2 43v6a637.173 637.173 0 0 1-1 34 484.085 484.085 0 0 1-8 56c-1.238 1.714-1.905 3.714-2 6-.782 5.768-3.782 9.768-9 12h-22v34c.318 5.159-.348 10.159-2 15-.342.838-1.008 1.172-2 1-2.697 1.13-5.363 1.13-8 0-.667 0-1-.333-1-1-.333-1-1-1.667-2-2a61.26 61.26 0 0 1-1-13c-.065-108.148-.065-216.148 0-324l5-5Z"/><path style="opacity:.008" fill="#e6e6e6" d="M426.5 391.5c2.128-1.129 4.461-1.296 7-.5.881.708 1.547 1.542 2 2.5-2.715-1.623-5.715-2.29-9-2Z"/><path style="opacity:.995" fill="#030303" d="M519.5 391.5c.473 1.406 1.473 2.073 3 2a141.762 141.762 0 0 1 2 32 380.934 380.934 0 0 0 1 39c7.39-.264 14.723.07 22 1 3.058 1.743 5.058 4.41 6 8-.38 2.198.287 3.865 2 5 4.697 13.833 7.363 28.166 8 43a205.274 205.274 0 0 0 1 23c.18 7.675.514 15.342 1 23v17c.39 31.931-3.61 63.264-12 94-1.075 4.525-3.742 7.525-8 9h-19v45c-1 1.667-2.333 3-4 4-3.615.345-6.948-.322-10-2-2.282-3.024-3.282-6.524-3-10.5a986.136 986.136 0 0 0 1-59.5v-65c-.568-29.663-.901-59.33-1-89v-23a961.42 961.42 0 0 0-1-62v-17a61.26 61.26 0 0 1 1-13c-.172-.992.162-1.658 1-2 1.527.073 2.527-.594 3-2 2-1.333 4-1.333 6 0Z"/><path style="opacity:.024" fill="#ddd" d="M519.5 391.5c1.527-.073 2.527.594 3 2-1.527.073-2.527-.594-3-2Z"/><path style="opacity:.067" fill="#e6e6e6" d="m426.5 391.5-5 5c.333-3 2-4.667 5-5Z"/><path style="opacity:.435" fill="#c5c5c5" d="M513.5 391.5c-.473 1.406-1.473 2.073-3 2 .473-1.406 1.473-2.073 3-2Z"/><path style="opacity:.037" fill="#fdfdfd" d="M332.5 393.5a42.47 42.47 0 0 1-1.5 5c-.827 111.694-.661 223.361.5 335-.617-.111-1.117-.444-1.5-1-.667-112-.667-224 0-336 .377-1.442 1.21-2.442 2.5-3Z"/><path style="opacity:.149" fill="#f4f4f4" d="M344.5 393.5c1.29.558 2.123 1.558 2.5 3 .5 22.331.667 44.664.5 67 7.008-.166 14.008 0 21 .5 2.251.748 3.584 2.248 4 4.5a27.241 27.241 0 0 0-5-3.5c-6.992-.5-13.992-.666-21-.5.167-22.003 0-44.003-.5-66a42.47 42.47 0 0 1-1.5-5Z"/><path style="opacity:.133" fill="#eaeaea" d="M435.5 393.5c1.29.558 2.123 1.558 2.5 3 .815 4.852.648 9.519-.5 14 .377-5.823-.29-11.489-2-17Z"/><path style="opacity:.142" fill="#eaeaea" d="M509.5 395.5a61.26 61.26 0 0 0-1 13c-.661-1.634-.994-3.467-1-5.5-.2-2.866.467-5.366 2-7.5Z"/><path style="opacity:.095" fill="#e2e2e2" d="M522.5 393.5c1.29.558 2.123 1.558 2.5 3 .5 9.661.666 19.328.5 29h-1c.54-10.8-.127-21.467-2-32Z"/><path style="opacity:.049" fill="#fbfbfb" d="M185.5 446.5v-15h44a29.356 29.356 0 0 1 2-9c-33.993-1-67.993-1.333-102-1l2 10h44v15c-.986-4.47-1.319-9.137-1-14h-44a76.246 76.246 0 0 1-2-12h104a116.21 116.21 0 0 1-2 12h-44c.319 4.863-.014 9.53-1 14Z"/><path style="opacity:.974" fill="#010101" d="M185.5 446.5v16a1406.593 1406.593 0 0 0-1 75v15a112.97 112.97 0 0 1-.5 15c-3.057-.951-6.223-1.284-9.5-1v-20a2117.171 2117.171 0 0 0 1-84v-31h-44l-2-10c34.007-.333 68.007 0 102 1a29.356 29.356 0 0 0-2 9h-44v15Z"/><path style="opacity:.496" fill="#898989" d="M508.5 425.5a961.42 961.42 0 0 1 1 62c-1.471-8.788-2.138-17.788-2-27 .37-11.668.704-23.334 1-35Z"/><path style="opacity:.243" fill="#bababa" d="M524.5 425.5h1c1.163 12.916 1.163 25.582 0 38v1a380.934 380.934 0 0 1-1-39Z"/><path style="opacity:.118" fill="#fafafa" d="M437.5 447.5c.988 5.14 1.321 10.474 1 16 7.341-.166 14.674 0 22 .5.556.383.889.883 1 1.5a159.11 159.11 0 0 0-24-1v-17Z"/><path style="opacity:.121" fill="#f6f6f6" d="M525.5 464.5v-1c7.008-.166 14.008 0 21 .5.556.383.889.883 1 1.5a135.183 135.183 0 0 0-22-1Z"/><path style="opacity:.006" fill="#cdcdcd" d="M375.5 474.5c1.604.787 2.271 2.12 2 4-1.174-1.014-1.84-2.347-2-4Z"/><path style="opacity:.647" fill="#8b8b8b" d="M467.5 473.5c1.431 1.28 2.098 2.947 2 5-1.713-1.135-2.38-2.802-2-5Z"/><path style="opacity:.616" fill="#8b8b8b" d="M553.5 473.5c1.431 1.28 2.098 2.947 2 5-1.713-1.135-2.38-2.802-2-5Z"/><path style="opacity:.326" fill="#b5b5b5" d="M175.5 462.5c.222 28.011-.111 56.011-1 84a536.69 536.69 0 0 1-1-33 526.016 526.016 0 0 1 2-51Z"/><path style="opacity:.741" fill="#8d8d8d" d="M377.5 478.5c1.428 1.574 1.761 3.241 1 5-.951-1.419-1.284-3.085-1-5Z"/><path style="opacity:.749" fill="#828282" d="M378.5 483.5c1.238 1.714 1.905 3.714 2 6-1.574-1.602-2.241-3.602-2-6Z"/><path style="opacity:.076" fill="#e4e4e4" d="M473.5 494.5c1.582 3.376 2.249 7.042 2 11-1.187-3.446-1.854-7.113-2-11Z"/><path style="opacity:.256" fill="#9b9b9b" d="M185.5 462.5c1.658 25.184 1.325 50.184-1 75-.331-25.172.002-50.172 1-75Z"/><path style="opacity:.531" fill="#bfbfbf" d="M476.5 512.5c1.384 5.444 2.05 11.111 2 17h-1a124.865 124.865 0 0 1-1-17Z"/><path style="opacity:.08" fill="#cecece" d="M385.5 521.5a537.052 537.052 0 0 1 3 27.5c-.556.383-.889.883-1 1.5-1.519-9.458-2.185-19.125-2-29Z"/><path style="opacity:.557" fill="#b8b8b8" d="M563.5 521.5c1.558 7.444 2.224 15.111 2 23h-1a205.274 205.274 0 0 1-1-23Z"/><path style="opacity:.543" fill="#b4b4b4" d="M477.5 529.5h1c1.86 14.438 2.193 28.771 1 43a1193.204 1193.204 0 0 0-2-43Z"/><path style="opacity:.586" fill="#aaa" d="M564.5 544.5h1c1.248 7.808 1.248 15.475 0 23a576.552 576.552 0 0 1-1-23Z"/><path style="opacity:.983" fill="#080808" d="M232.5 661.5c.24 18.959.24 37.959 0 57v18h-112v-39c-.167-19.003 0-38.003.5-57 1.651-24.798 11.484-45.631 29.5-62.5 17.362-12.611 34.695-12.611 52 0 14.742 13.309 23.908 29.809 27.5 49.5a162.019 162.019 0 0 1 2.5 34Zm-50-83a114.436 114.436 0 0 1 13 6c1.411 2.414 3.411 4.081 6 5-.073 1.527.594 2.527 2 3 2.012 2.705 4.012 5.372 6 8a563.614 563.614 0 0 1 10 24c.049 3.578.715 6.911 2 10a3580.81 3580.81 0 0 0 2 52v27c-.986 4.47-1.319 9.137-1 14h-94c.435-9.217.435-18.217 0-27 .672-20.069 1.339-40.236 2-60.5-.228-.399-.562-.565-1-.5.841-1.879 1.175-3.879 1-6 1.618-4.075 2.618-8.408 3-13 .904-.709 1.237-1.709 1-3 1.903-3.03 3.237-6.363 4-10 1.985-3.298 3.985-6.631 6-10 1.406-.473 2.073-1.473 2-3a65.57 65.57 0 0 1 12-11.5 29.749 29.749 0 0 1 9-3.5c5.182-.953 10.182-1.286 15-1Z"/><path style="opacity:.431" fill="#949494" d="M509.5 510.5c.099 29.67.432 59.337 1 89h-1a990.872 990.872 0 0 1 0-89Z"/><path style="opacity:.448" fill="#a6a6a6" d="M387.5 550.5c1.333 17 1.333 34 0 51h-1a897.74 897.74 0 0 0 1-51Z"/><path style="opacity:.256" fill="#c4c4c4" d="M174.5 549.5v17c3.277-.284 6.443.049 9.5 1 .499-4.989.666-9.989.5-15 .987 4.805 1.321 9.805 1 15 6.376.872 12.043 3.372 17 7.5 21.184 18.714 32.184 42.38 33 71-1.414 5.221-2.414 10.388-3 15.5a162.019 162.019 0 0 0-2.5-34c-3.592-19.691-12.758-36.191-27.5-49.5-17.305-12.611-34.638-12.611-52 0-18.016 16.869-27.849 37.702-29.5 62.5-.5 18.997-.667 37.997-.5 57-.722-.418-1.222-1.084-1.5-2a840.83 840.83 0 0 1 0-58c1.676-22.844 10.509-42.344 26.5-58.5 6.72-5.609 14.22-9.776 22.5-12.5 1.626.354 3.459.354 5.5 0-.322-5.858.011-11.525 1-17Z"/><path style="opacity:.004" fill="#dedede" d="M146.5 594.5c.073 1.527-.594 2.527-2 3-.073-1.527.594-2.527 2-3Z"/><path style="opacity:.004" fill="#d0d0d0" d="M201.5 589.5c1.406.473 2.073 1.473 2 3-1.406-.473-2.073-1.473-2-3Z"/><path style="opacity:.69" fill="#a1a1a1" d="M195.5 584.5c2.589.919 4.589 2.586 6 5-2.589-.919-4.589-2.586-6-5Z"/><path style="opacity:.047" fill="#d7d7d7" d="M182.5 578.5c-4.818-.286-9.818.047-15 1 2.307-1.547 4.973-2.213 8-2 2.421.06 4.754.393 7 1Z"/><path style="opacity:.085" fill="#f3f3f3" d="M479.5 578.5a185.706 185.706 0 0 1-1 42v-8a637.173 637.173 0 0 0 1-34Z"/><path style="opacity:.169" fill="#cfcfcf" d="M138.5 607.5c-.763 3.637-2.097 6.97-4 10 .372-3.797 1.706-7.13 4-10Z"/><path style="opacity:.141" fill="#dbdbdb" d="M209.5 600.5c5.069 7.189 8.402 15.189 10 24a563.614 563.614 0 0 0-10-24Z"/><path style="opacity:.238" fill="#b1b1b1" d="M509.5 599.5h1v65a7720.742 7720.742 0 0 1-2-58.5 26.045 26.045 0 0 1 1-6.5Z"/><path style="opacity:.024" fill="#e3e3e3" d="M133.5 620.5c-.382 4.592-1.382 8.925-3 13 .127-4.651 1.127-8.985 3-13Z"/><path style="opacity:.106" fill="#efefef" d="M219.5 624.5c1.511 3.044 2.178 6.378 2 10-1.285-3.089-1.951-6.422-2-10Z"/><path style="opacity:.091" fill="#c9c9c9" d="M478.5 612.5v8c-.543 16.486-3.209 32.486-8 48a484.085 484.085 0 0 0 8-56Z"/><path style="opacity:.034" fill="#f2f2f2" d="M129.5 639.5c.438-.065.772.101 1 .5-.661 20.264-1.328 40.431-2 60.5a931.31 931.31 0 0 1 1-61Z"/><path style="opacity:.101" fill="#f4f4f4" d="M221.5 634.5c.814 2.131 1.314 4.464 1.5 7 .5 14.996.667 29.996.5 45a3580.81 3580.81 0 0 1-2-52Z"/><path style="opacity:.059" fill="#c6c6c6" d="M386.5 601.5h1c.035 22.391-2.631 43.724-8 64a390.34 390.34 0 0 0 7-64Z"/><path style="opacity:.059" fill="#d8d8d8" d="M565.5 584.5c1.129 26.095-1.038 52.095-6.5 78-.97 5.746-2.803 11.079-5.5 16 8.39-30.736 12.39-62.069 12-94Z"/><path style="opacity:.069" fill="#cfcfcf" d="M470.5 668.5c.241 2.398-.426 4.398-2 6 .095-2.286.762-4.286 2-6Z"/><path style="opacity:.103" fill="#f5f5f5" d="M459.5 686.5c-6.813.991-13.813 1.325-21 1 .321 5.526-.012 10.86-1 16v-17h22Z"/><path style="opacity:.208" fill="#e4e4e4" d="M367.5 687.5c-6.479.991-13.146 1.324-20 1 .167 14.67 0 29.337-.5 44-.377 1.442-1.21 2.442-2.5 3a42.47 42.47 0 0 1 1.5-5c.5-14.329.667-28.663.5-43h21Z"/><path style="opacity:.106" fill="#f5f5f5" d="M545.5 687.5c-5.81.99-11.81 1.323-18 1 .315 3.871-.018 7.538-1 11v-12h19Z"/><path style="opacity:.111" fill="#fefffe" d="M223.5 713.5v15c-31.838.332-63.504-.002-95-1h94c-.319-4.863.014-9.53 1-14Z"/><path style="opacity:.296" fill="#cecece" d="M120.5 715.5v21h112v-18h3a108.41 108.41 0 0 1-1 20.5c-38.665.5-77.332.667-116 .5-.166-7.341 0-14.674.5-22 .278-.916.778-1.582 1.5-2Z"/><path style="opacity:.101" fill="#efefef" d="M421.5 720.5a61.26 61.26 0 0 0 1 13c-.617-.111-1.117-.444-1.5-1-.812-4.189-.645-8.189.5-12Z"/><path style="opacity:.175" fill="#dadada" d="M437.5 720.5c1.145 3.811 1.312 7.811.5 12-.377 1.442-1.21 2.442-2.5 3 1.652-4.841 2.318-9.841 2-15Z"/><path style="opacity:.332" fill="#ccc" d="M526.5 712.5c.617.111 1.117.444 1.5 1l.5 8c.206 3.969-.461 7.635-2 11v-20Z"/><path style="opacity:.039" fill="#e1e1e1" d="M32.5 711.5a232.315 232.315 0 0 0 7 35c-4.747-11.068-7.08-22.735-7-35Z"/><path style="opacity:.061" fill="#e5e5e5" d="M645.5 706.5c1.572 10.456.906 20.79-2 31a189.29 189.29 0 0 0 2-31Z"/><path style="opacity:.027" fill="#d3d3d3" d="M331.5 733.5a6.547 6.547 0 0 1 3 3c-2 0-3-1-3-3Z"/><path style="opacity:.012" fill="#cdcdcd" d="M422.5 733.5c1 .333 1.667 1 2 2-1.333 0-2-.667-2-2Z"/><path style="opacity:.043" fill="#e6e6e6" d="M512.5 734.5c3.052 1.678 6.385 2.345 10 2-2.466 1.134-5.133 1.301-8 .5-.881-.708-1.547-1.542-2-2.5Z"/><path style="opacity:.033" fill="#e5e5e5" d="M344.5 735.5c-1.398 2.033-3.398 3.033-6 3-1.855.16-3.188-.507-4-2 3.397.994 6.73.66 10-1Z"/><path style="opacity:.032" fill="#d9d9d9" d="M425.5 736.5c2.637 1.13 5.303 1.13 8 0-.812 1.493-2.145 2.16-4 2-1.855.16-3.188-.507-4-2Z"/><path style="opacity:.08" fill="#dedede" d="M641.5 744.5c-.028 3.416-1.028 6.416-3 9 .428-3.285 1.428-6.285 3-9Z"/><path style="opacity:.357" fill="#9f9f9f" d="M42.5 754.5c1.406.473 2.073 1.473 2 3-1.406-.473-2.073-1.473-2-3Z"/><path style="opacity:.31" fill="#bababa" d="M638.5 753.5c.098 2.053-.569 3.72-2 5-.098-2.053.569-3.72 2-5Z"/><path style="opacity:.365" fill="#9f9f9f" d="M45.5 759.5c1.406.473 2.073 1.473 2 3-1.406-.473-2.073-1.473-2-3Z"/><path style="opacity:.796" fill="#7f7f7f" d="M607.5 761.5c-.238 1.904-1.238 3.238-3 4 .238-1.904 1.238-3.238 3-4Z"/><path style="opacity:.184" fill="#c8c8c8" d="M19.5 762.5c1.508 1.681 2.508 3.681 3 6-2.039-1.411-3.039-3.411-3-6Z"/><path style="opacity:.349" fill="#aeaeae" d="M47.5 762.5c1.406.473 2.073 1.473 2 3-1.406-.473-2.073-1.473-2-3Z"/><path style="opacity:.671" fill="#999" d="M604.5 765.5c-.238 1.904-1.238 3.238-3 4 .238-1.904 1.238-3.238 3-4Z"/><path style="opacity:.514" fill="#7d7d7d" d="M49.5 765.5c1.406.473 2.073 1.473 2 3-1.406-.473-2.073-1.473-2-3Z"/><path style="opacity:.671" fill="#8b8b8b" d="M601.5 769.5c-1.257 2.927-3.257 5.261-6 7 1.257-2.927 3.257-5.261 6-7Z"/><path style="opacity:.576" fill="#a2a2a2" d="M55.5 772.5c1.406.473 2.073 1.473 2 3-1.406-.473-2.073-1.473-2-3Z"/><path style="opacity:.145" fill="#d7d7d7" d="M24.5 772.5c1.406.473 2.073 1.473 2 3-1.406-.473-2.073-1.473-2-3Z"/><path style="opacity:.051" fill="#c9c9c9" d="M59.5 777.5c1.527-.073 2.527.594 3 2-1.527.073-2.527-.594-3-2Z"/><path style="opacity:.635" fill="#7c7c7c" d="M593.5 778.5c-1.411 2.414-3.411 4.081-6 5 1.411-2.414 3.411-4.081 6-5Z"/><path style="opacity:.553" fill="#969696" d="M587.5 783.5c-.762 1.762-2.096 2.762-4 3 .762-1.762 2.096-2.762 4-3Z"/><path style="opacity:.004" fill="#fefffe" d="M34.5 787.5c-.667.667-.667.667 0 0Z"/><path style="opacity:.569" fill="#a6a6a6" d="M583.5 786.5c-.473 1.406-1.473 2.073-3 2 .473-1.406 1.473-2.073 3-2Z"/><path style="opacity:.718" fill="#8a8a8a" d="M72.5 787.5c1.21.432 2.21 1.099 3 2-1.679.215-2.679-.452-3-2Z"/><path style="opacity:.427" fill="#bdbdbd" d="M578.5 789.5c-.473 1.406-1.473 2.073-3 2 .473-1.406 1.473-2.073 3-2Z"/><path style="opacity:.682" fill="#8a8a8a" d="M77.5 790.5c1.21.432 2.21 1.099 3 2-1.679.215-2.679-.452-3-2Z"/><path style="opacity:.051" fill="#c9c9c9" d="M39.5 791.5c1.406.473 2.073 1.473 2 3-1.406-.473-2.073-1.473-2-3Z"/><path style="opacity:.463" fill="#b9b9b9" d="M41.5 794.5c1.904.238 3.238 1.238 4 3-1.904-.238-3.238-1.238-4-3Z"/><path style="opacity:.6" fill="#888" d="M48.5 800.5c1.904.238 3.238 1.238 4 3-1.904-.238-3.238-1.238-4-3Z"/><path style="opacity:.702" fill="#909090" d="M52.5 803.5c1.904.238 3.238 1.238 4 3-1.904-.238-3.238-1.238-4-3Z"/><path style="opacity:.667" fill="#959595" d="M56.5 806.5c1.904.238 3.238 1.238 4 3-1.904-.238-3.238-1.238-4-3Z"/><path style="opacity:.392" fill="#999" d="M64.5 811.5c1.527-.073 2.527.594 3 2-1.527.073-2.527-.594-3-2Z"/><path style="opacity:.161" fill="#c6c6c6" d="M67.5 813.5c2.319.492 4.319 1.492 6 3-2.589.039-4.589-.961-6-3Z"/><path style="opacity:.047" fill="#d8d8d8" d="M77.5 818.5c1.903.296 3.57.963 5 2-2.198.38-3.865-.287-5-2Z"/><path style="opacity:.045" fill="#ddd" d="M576.5 818.5c-2.184 2.085-4.851 3.085-8 3 2.39-1.52 5.057-2.52 8-3Z"/><path style="opacity:.147" fill="#e4e4e4" d="M87.5 822.5c2.928.065 5.595.732 8 2-2.995.206-5.662-.46-8-2Z"/><path style="opacity:.077" fill="#d3d3d3" d="M568.5 821.5c-8.114 3.86-16.78 5.86-26 6a959.239 959.239 0 0 0 26-6Z"/><path style="opacity:.163" fill="#dbdbdb" d="M95.5 824.5c4.922.37 9.589 1.37 14 3-4.971-.156-9.638-1.156-14-3Z"/></svg>