<?xml version="1.0" standalone="no"?>
<!DOCTYPE svg PUBLIC "-//W3C//DTD SVG 20010904//EN"
 "http://www.w3.org/TR/2001/REC-SVG-20010904/DTD/svg10.dtd">
<svg version="1.0" xmlns="http://www.w3.org/2000/svg"
 width="900.000000pt" height="520.000000pt" viewBox="0 0 900.000000 520.000000"
 preserveAspectRatio="xMidYMid meet">

<g transform="translate(0.000000,520.000000) scale(0.100000,-0.100000)"
fill="#000000" stroke="none">
<path d="M4273 5176 c-15 -13 -82 -97 -148 -186 l-120 -162 -525 -438 c-289
-241 -534 -448 -545 -460 -19 -21 -20 -36 -20 -231 0 -202 1 -209 22 -231 33
-33 89 -30 119 6 23 26 24 34 24 177 l0 149 445 0 445 0 -2 -387 -3 -388 -516
-430 c-285 -236 -522 -440 -528 -453 -7 -14 -11 -94 -11 -208 0 -147 3 -191
15 -215 29 -55 97 -61 135 -12 18 23 20 41 20 174 l0 149 431 0 c238 0 429 -4
427 -9 -1 -4 -147 -404 -323 -888 l-320 -881 -79 -4 c-71 -4 -82 -8 -103 -32
-25 -30 -29 -53 -12 -89 19 -43 45 -47 298 -47 223 0 240 1 264 20 30 24 40
60 27 94 -12 32 -42 48 -106 55 l-51 6 478 585 c264 322 483 586 487 588 7 2
972 -1170 972 -1182 0 -3 -9 -6 -19 -6 -23 0 -61 -45 -61 -71 0 -31 21 -66 47
-78 15 -7 109 -11 262 -11 223 0 240 1 264 20 51 40 42 111 -18 135 -22 10
-70 15 -137 15 l-103 0 -320 882 c-176 484 -321 885 -323 889 -2 5 187 9 426
9 l431 0 3 -155 c3 -144 4 -156 25 -177 30 -30 86 -30 116 0 21 22 22 31 25
219 2 131 -1 205 -8 222 -7 15 -235 211 -530 456 l-519 430 0 388 -1 387 445
0 445 0 0 -149 c0 -143 1 -151 24 -177 30 -36 86 -39 119 -6 21 22 22 29 22
231 0 195 -1 210 -20 231 -11 12 -254 218 -541 456 l-520 434 -128 170 c-70
93 -139 179 -153 190 -24 19 -40 20 -224 20 -194 0 -198 0 -226 -24z m431
-233 l66 -88 -135 -3 c-74 -1 -196 -1 -270 0 l-135 3 66 88 67 87 137 0 137 0
67 -87z m-82 -385 l-122 -123 -122 123 -123 122 245 0 245 0 -123 -122z m-655
-595 c-2 -2 -169 -2 -371 -1 l-367 3 368 306 368 306 3 -305 c1 -168 1 -307
-1 -309z m1443 302 c184 -153 342 -284 350 -291 12 -12 -44 -14 -358 -14
l-372 0 0 312 0 311 23 -20 c12 -11 173 -145 357 -298z m-1148 -67 l-122 -123
0 245 0 245 122 -123 123 -122 -123 -122z m598 120 l0 -243 -122 122 -123 123
120 120 c66 66 121 120 122 120 2 0 3 -109 3 -242z m-235 -238 l120 -120 -245
0 -245 0 120 120 c66 66 122 120 125 120 3 0 59 -54 125 -120z m-3 -402 l-122
-123 -122 123 -123 122 245 0 245 0 -123 -122z m-359 -126 l117 -117 -120
-120 -120 -120 0 238 c0 130 1 237 3 237 1 0 55 -53 120 -118z m597 -119 l0
-238 -120 120 -120 120 117 117 c65 65 119 118 120 118 2 0 3 -107 3 -237z
m-240 -238 l115 -115 -235 0 -235 0 115 115 c63 63 117 115 120 115 3 0 57
-52 120 -115z m2 -407 l-122 -123 -122 123 -123 122 245 0 245 0 -123 -122z
m-655 -595 c-2 -2 -169 -2 -372 -1 l-367 3 368 307 369 306 3 -305 c1 -168 1
-308 -1 -310z m1433 312 c184 -153 344 -286 355 -296 19 -19 11 -19 -353 -19
l-372 0 0 312 c0 295 1 310 18 296 9 -8 168 -140 352 -293z m-1138 -77 l-122
-123 0 245 0 245 122 -123 123 -122 -123 -122z m598 120 l0 -243 -122 122
-123 123 120 120 c66 66 121 120 122 120 2 0 3 -109 3 -242z m-235 -238 l120
-120 -245 0 -245 0 120 120 c66 66 122 120 125 120 3 0 59 -54 125 -120z m133
-289 c-6 -17 -250 -311 -258 -311 -8 0 -260 304 -260 314 0 3 117 6 261 6 151
0 259 -4 257 -9z m-518 -267 c137 -167 151 -187 138 -202 -8 -9 -184 -225
-392 -480 -207 -254 -379 -462 -381 -462 -3 0 6 28 18 63 13 34 122 333 242
665 121 331 220 602 222 602 1 0 70 -83 153 -186z m912 -464 c121 -333 227
-623 234 -645 15 -40 15 -40 -5 -20 -43 44 -771 940 -769 946 2 4 70 89 152
190 139 170 150 181 158 158 5 -13 109 -296 230 -629z"/>
</g>
</svg>
