<?xml version="1.0" encoding="UTF-8"?>
<!DOCTYPE svg PUBLIC "-//W3C//DTD SVG 1.1//EN" "http://www.w3.org/Graphics/SVG/1.1/DTD/svg11.dtd">
<svg xmlns="http://www.w3.org/2000/svg" version="1.1" width="512px" height="512px" style="shape-rendering:geometricPrecision; text-rendering:geometricPrecision; image-rendering:optimizeQuality; fill-rule:evenodd; clip-rule:evenodd" xmlns:xlink="http://www.w3.org/1999/xlink">
<g><path style="opacity:0.941" fill="#000000" d="M 511.5,196.5 C 511.5,202.167 511.5,207.833 511.5,213.5C 503.407,235.713 487.74,244.713 464.5,240.5C 464.667,313.501 464.5,386.501 464,459.5C 461.841,477.991 451.674,489.158 433.5,493C 313.833,493.667 194.167,493.667 74.5,493C 58.8171,489.915 48.6504,480.748 44,465.5C 43.6667,462.833 43.3333,460.167 43,457.5C 42.5,385.501 42.3333,313.501 42.5,241.5C 20.813,243.482 6.4797,234.149 -0.5,213.5C -0.5,207.833 -0.5,202.167 -0.5,196.5C 1.90486,188.542 6.23819,181.708 12.5,176C 84.78,124.054 156.78,71.7202 228.5,19C 236.568,17.8628 244.735,17.3628 253,17.5C 261.265,17.3628 269.432,17.8628 277.5,19C 308.579,41.2895 339.745,63.4561 371,85.5C 371.333,74.8333 371.667,64.1667 372,53.5C 372.232,50.262 373.732,47.762 376.5,46C 387.278,44.8803 398.111,44.3803 409,44.5C 418.5,44.6667 428,44.8333 437.5,45C 441.02,45.504 443.52,47.3374 445,50.5C 445.333,79.8333 445.667,109.167 446,138.5C 463.412,151.123 480.912,163.623 498.5,176C 504.762,181.708 509.095,188.542 511.5,196.5 Z M 237.5,36.5 C 248.172,36.3335 258.839,36.5002 269.5,37C 340.991,88.2456 412.657,139.246 484.5,190C 495.167,200 495.167,210 484.5,220C 478.167,223.333 471.833,223.333 465.5,220C 396.444,170.611 327.111,121.611 257.5,73C 254.036,72.1834 250.702,72.5167 247.5,74C 180.167,122.667 112.833,171.333 45.5,220C 30.4873,225.663 21.4873,220.663 18.5,205C 18.5306,198.606 21.1973,193.606 26.5,190C 97.0152,138.97 167.349,87.8035 237.5,36.5 Z M 391.5,64.5 C 403.167,64.5 414.833,64.5 426.5,64.5C 426.667,84.5028 426.5,104.503 426,124.5C 414.667,116.5 403.333,108.5 392,100.5C 391.5,88.5046 391.333,76.5046 391.5,64.5 Z M 252.5,94.5 C 254.783,94.6079 256.783,95.4412 258.5,97C 320.667,141.167 382.833,185.333 445,229.5C 445.667,305.167 445.667,380.833 445,456.5C 444.181,465.653 439.347,471.487 430.5,474C 396.168,474.5 361.835,474.667 327.5,474.5C 327.982,424.12 327.482,373.787 326,323.5C 324.048,321.106 321.548,319.606 318.5,319C 275.5,318.333 232.5,318.333 189.5,319C 185.562,319.214 182.728,321.047 181,324.5C 180.5,374.499 180.333,424.499 180.5,474.5C 146.165,474.667 111.832,474.5 77.5,474C 70.2104,472.712 65.3771,468.545 63,461.5C 62.3333,384.833 62.3333,308.167 63,231.5C 126.145,185.689 189.312,140.023 252.5,94.5 Z M 199.5,338.5 C 235.5,338.5 271.5,338.5 307.5,338.5C 307.5,383.833 307.5,429.167 307.5,474.5C 271.5,474.5 235.5,474.5 199.5,474.5C 199.5,429.167 199.5,383.833 199.5,338.5 Z"/></g>
</svg>
