<?xml version="1.0" encoding="UTF-8"?>
<!DOCTYPE svg PUBLIC "-//W3C//DTD SVG 1.1//EN" "http://www.w3.org/Graphics/SVG/1.1/DTD/svg11.dtd">
<svg xmlns="http://www.w3.org/2000/svg" version="1.1" width="618px" height="610px" style="shape-rendering:geometricPrecision; text-rendering:geometricPrecision; image-rendering:optimizeQuality; fill-rule:evenodd; clip-rule:evenodd" xmlns:xlink="http://www.w3.org/1999/xlink">
<g><path style="opacity:0.96" fill="#000000" d="M 25.5,60.5 C 27.1054,59.9941 27.4387,59.3274 26.5,58.5C 30.106,52.5622 34.4393,47.2288 39.5,42.5C 40.5,42.1667 41.1667,41.5 41.5,40.5C 54.923,26.1097 71.2564,16.2764 90.5,11C 96.0827,9.52096 101.749,8.52096 107.5,8C 240.167,7.33333 372.833,7.33333 505.5,8C 547.239,12.9551 577.072,34.4551 595,72.5C 598.914,82.1545 601.58,92.1545 603,102.5C 603.667,236.833 603.667,371.167 603,505.5C 595.587,550.916 570.087,581.082 526.5,596C 519.585,597.74 512.585,599.073 505.5,600C 372.46,600.496 239.626,600.663 107,600.5C 53.1079,590.941 21.1079,559.274 11,505.5C 10.3333,371.167 10.3333,236.833 11,102.5C 12.7739,87.3417 17.6072,73.3417 25.5,60.5 Z M 116.5,32.5 C 245.28,32.9404 372.446,32.9404 498,32.5C 542.079,36.9081 568.412,60.9081 577,104.5C 577.667,237.833 577.667,371.167 577,504.5C 567.788,547.373 541.288,570.873 497.5,575C 370.833,575.667 244.167,575.667 117.5,575C 76.4814,572 49.9814,550.5 38,510.5C 37.1357,504.857 36.469,499.19 36,493.5C 36.0179,385.872 35.8513,278.205 35.5,170.5C 35.4249,148.815 35.9249,127.148 37,105.5C 42.3664,70.4648 61.8664,47.2981 95.5,36C 102.564,34.3398 109.564,33.1731 116.5,32.5 Z M 432.5,130.5 C 439.451,129.428 445.285,131.428 450,136.5C 477.935,173.854 481.935,213.521 462,255.5C 441.846,289.088 412.012,306.755 372.5,308.5C 372.068,299.242 370.568,290.242 368,281.5C 406.547,241.088 425.547,192.754 425,136.5C 427.134,133.847 429.634,131.847 432.5,130.5 Z M 207.5,142.5 C 273.489,143.639 310.822,177.139 319.5,243C 319.043,243.414 318.709,243.914 318.5,244.5C 312.907,244.626 307.241,244.792 301.5,245C 297.686,245.234 294.019,246.068 290.5,247.5C 249.448,210.764 201.448,192.264 146.5,192C 138.046,182.73 138.713,174.063 148.5,166C 166.162,152.95 185.829,145.117 207.5,142.5 Z M 298.5,272.5 C 330.89,271.012 346.057,286.345 344,318.5C 336.988,340.173 322.155,349.673 299.5,347C 272.118,336.525 263.951,317.692 275,290.5C 280.689,281.638 288.522,275.638 298.5,272.5 Z M 216.5,365.5 C 215.662,365.842 215.328,366.508 215.5,367.5C 202.373,391.051 194.373,416.384 191.5,443.5C 191.357,447.143 191.357,450.477 191.5,453.5C 191.666,458.179 191.499,462.845 191,467.5C 187.973,474.978 182.473,477.811 174.5,476C 171.823,475.751 169.49,474.751 167.5,473C 135.551,432.543 132.051,389.709 157,344.5C 177.839,315.247 206.339,299.58 242.5,297.5C 242.455,304.709 242.621,312.043 243,319.5C 243.436,321.847 243.936,324.181 244.5,326.5C 233.944,338.607 224.611,351.607 216.5,365.5 Z M 321.5,372.5 C 324.226,372.264 326.559,373.097 328.5,375C 366.716,409.767 411.716,426.6 463.5,425.5C 474.905,430.656 477.405,438.656 471,449.5C 439.109,476.011 403.276,483.178 363.5,471C 321.036,452.932 298.703,420.766 296.5,374.5C 303.841,374.666 311.174,374.5 318.5,374C 319.737,373.768 320.737,373.268 321.5,372.5 Z"/></g>
<g><path style="opacity:0.224" fill="#080808" d="M 41.5,40.5 C 41.1667,41.5 40.5,42.1667 39.5,42.5C 39.5,41.1667 40.1667,40.5 41.5,40.5 Z"/></g>
<g><path style="opacity:0.149" fill="#080808" d="M 26.5,58.5 C 27.4387,59.3274 27.1054,59.9941 25.5,60.5C 25.3284,59.5084 25.6618,58.8417 26.5,58.5 Z"/></g>
<g><path style="opacity:0.952" fill="#000000" d="M 430.5,102.5 C 441.744,101.395 452.077,103.895 461.5,110C 497.48,147.515 509.313,191.682 497,242.5C 480.791,290.707 447.958,320.874 398.5,333C 387.652,334.853 376.985,336.353 366.5,337.5C 362.664,345.335 357.664,352.335 351.5,358.5C 367.099,372.81 385.099,383.31 405.5,390C 425.937,396.106 446.937,399.106 468.5,399C 485.583,403.083 496.416,413.583 501,430.5C 503.994,447.715 498.828,461.882 485.5,473C 440.707,506.83 392.374,512.83 340.5,491C 298.068,468.11 274.401,432.776 269.5,385C 267.946,377.23 267.446,369.397 268,361.5C 264.703,359.205 261.703,356.538 259,353.5C 239.065,376.6 226.398,403.267 221,433.5C 219.07,446.746 218.07,460.08 218,473.5C 208.335,498.918 190.168,508.418 163.5,502C 154.556,498.226 147.223,492.392 141.5,484.5C 109.869,440.501 104.703,393.501 126,343.5C 149.328,300.189 185.328,276.189 234,271.5C 241.421,270.684 248.921,270.184 256.5,270C 258.847,266.989 261.181,263.989 263.5,261C 240.05,240.279 212.717,227.613 181.5,223C 168.682,221.681 156.015,220.681 143.5,220C 127.865,215.366 118.032,205.2 114,189.5C 110.513,170.907 116.347,156.073 131.5,145C 180.743,109.456 232.076,106.122 285.5,135C 328.174,164.848 348.674,206.015 347,258.5C 348,259.167 349,259.833 350,260.5C 382.872,224.772 398.539,182.438 397,133.5C 402.295,116.701 413.461,106.368 430.5,102.5 Z M 432.5,130.5 C 429.634,131.847 427.134,133.847 425,136.5C 425.547,192.754 406.547,241.088 368,281.5C 370.568,290.242 372.068,299.242 372.5,308.5C 412.012,306.755 441.846,289.088 462,255.5C 481.935,213.521 477.935,173.854 450,136.5C 445.285,131.428 439.451,129.428 432.5,130.5 Z M 207.5,142.5 C 185.829,145.117 166.162,152.95 148.5,166C 138.713,174.063 138.046,182.73 146.5,192C 201.448,192.264 249.448,210.764 290.5,247.5C 294.019,246.068 297.686,245.234 301.5,245C 307.241,244.792 312.907,244.626 318.5,244.5C 318.709,243.914 319.043,243.414 319.5,243C 310.822,177.139 273.489,143.639 207.5,142.5 Z M 298.5,272.5 C 288.522,275.638 280.689,281.638 275,290.5C 263.951,317.692 272.118,336.525 299.5,347C 322.155,349.673 336.988,340.173 344,318.5C 346.057,286.345 330.89,271.012 298.5,272.5 Z M 216.5,365.5 C 215.662,365.842 215.328,366.508 215.5,367.5C 202.373,391.051 194.373,416.384 191.5,443.5C 191.357,447.143 191.357,450.477 191.5,453.5C 191.666,458.179 191.499,462.845 191,467.5C 187.973,474.978 182.473,477.811 174.5,476C 171.823,475.751 169.49,474.751 167.5,473C 135.551,432.543 132.051,389.709 157,344.5C 177.839,315.247 206.339,299.58 242.5,297.5C 242.455,304.709 242.621,312.043 243,319.5C 243.436,321.847 243.936,324.181 244.5,326.5C 233.944,338.607 224.611,351.607 216.5,365.5 Z M 321.5,372.5 C 320.737,373.268 319.737,373.768 318.5,374C 311.174,374.5 303.841,374.666 296.5,374.5C 298.703,420.766 321.036,452.932 363.5,471C 403.276,483.178 439.109,476.011 471,449.5C 477.405,438.656 474.905,430.656 463.5,425.5C 411.716,426.6 366.716,409.767 328.5,375C 326.559,373.097 324.226,372.264 321.5,372.5 Z"/></g>
<g><path style="opacity:0.149" fill="#080808" d="M 216.5,365.5 C 217.439,366.327 217.105,366.994 215.5,367.5C 215.328,366.508 215.662,365.842 216.5,365.5 Z"/></g>
<g><path style="opacity:0.179" fill="#090909" d="M 191.5,443.5 C 192.833,446.833 192.833,450.167 191.5,453.5C 191.357,450.477 191.357,447.143 191.5,443.5 Z"/></g>
</svg>
