<svg xmlns="http://www.w3.org/2000/svg" width="360" height="360" style="shape-rendering:geometricPrecision;text-rendering:geometricPrecision;image-rendering:optimizeQuality;fill-rule:evenodd;clip-rule:evenodd"><path fill="#f5f5f5" d="M-.5-.5h360v360H-.5V-.5Z" style="opacity:1"/><path fill="#080808" d="M61.5 22.5c78.334-.167 156.667 0 235 .5a32.463 32.463 0 0 1 10 4L342 54.5a38.526 38.526 0 0 1 6 13 14999 14999 0 0 1 0 245c-1.436 6.37-5.269 10.537-11.5 12.5-104.667.667-209.333.667-314 0-6.231-1.963-10.064-6.13-11.5-12.5-.667-81.333-.667-162.667 0-244 1.124-6.415 3.957-11.915 8.5-16.5a357.621 357.621 0 0 1 42-29.5Z" style="opacity:1"/><path fill="#f5f5f5" d="M291.5 33.5a22.39 22.39 0 0 1 8 2.5A2090.813 2090.813 0 0 1 334 62.5a20.512 20.512 0 0 1 3 8c.667 79.667.667 159.333 0 239-.11 2.348-1.277 3.848-3.5 4.5-103 .667-206 .667-309 0l-1.5-1.5c-.5-81.666-.667-163.333-.5-245 81.001.167 162.001 0 243-.5 3.921-1.747 4.921-4.58 3-8.5a7.468 7.468 0 0 0-3-2l-231-2a445.916 445.916 0 0 1 23-16c1.808 1.418 2.475 3.418 2 6h15v-10h15v10h15v-10h15v10h15v-10h15v10h15v-10h15v10h15v-10h15v10h15v-10h15v10h15v-10h15v10h15v-10c2.559.302 4.893-.032 7-1Z" style="opacity:1"/><path fill="#060606" d="M41.5 247.5c13.337-.167 26.67 0 40 .5 2.843 3.619 2.51 6.952-1 10a361.07 361.07 0 0 1-38 0c-4.957-3.044-5.29-6.544-1-10.5Z" style="opacity:1"/><path fill="#101010" d="M42.5 218.5c12.671-.167 25.338 0 38 .5 4.248 4.163 3.914 7.829-1 11a342.33 342.33 0 0 1-37 0c-3.945-3.831-3.945-7.664 0-11.5Z" style="opacity:1"/><path fill="#070707" d="M58.5 145.5c16.596 1.541 22.43 10.207 17.5 26-9.793 10.616-19.46 10.616-29 0-5.142-12.711-1.309-21.378 11.5-26Z" style="opacity:1"/><path fill="#ededed" d="M58.5 157.5c5.797-1.026 8.63 1.308 8.5 7-3.766 5.296-7.433 5.296-11 0-.667-1.333-.667-2.667 0-4a10.51 10.51 0 0 0 2.5-3Z" style="opacity:1"/><path fill="#070707" d="M77.5 123.5c-6.963 11.875-16.296 14.042-28 6.5-8.113-11.738-6.113-21.238 6-28.5 16.377-1.623 23.71 5.711 22 22Z" style="opacity:1"/><path fill="#ebebeb" d="M58.5 112.5c4.906-1.194 7.906.639 9 5.5-2.082 5.56-5.582 6.727-10.5 3.5-2.212-3.479-1.712-6.479 1.5-9Z" style="opacity:1"/><path fill="#0a0a0a" d="M209.5 89.5c8.34-.166 16.673 0 25 .5l7 3.5a39.726 39.726 0 0 1 7-3.5 676.216 676.216 0 0 1 52 0c6.794 1.146 11.294 4.98 13.5 11.5.667 59 .667 118 0 177-1.912 7.577-6.746 12.077-14.5 13.5-17.711.93-35.378.596-53-1a26.091 26.091 0 0 1-5-3.5c-2.535 2.35-5.535 3.85-9 4.5a624.938 624.938 0 0 1-50 0 20.924 20.924 0 0 1-8.5-4.5c-2.772 2.261-5.938 3.761-9.5 4.5a624.938 624.938 0 0 1-50 0 38.264 38.264 0 0 1-11-6.5 110.146 110.146 0 0 0-2.5-8c-.667-58-.667-116 0-174 1.763-6.762 5.93-11.262 12.5-13.5a676.216 676.216 0 0 1 52 0c3.139.488 5.972 1.655 8.5 3.5a60.289 60.289 0 0 1 6.5-3.5c9.661-.5 19.328-.666 29-.5Z" style="opacity:1"/><path fill="#f7f7f7" d="M179.5 209.5h15a84.902 84.902 0 0 0 .5 13c.69-1.238 1.19-1.238 1.5 0-.354 3.461.979 5.961 4 7.5 5.417.781 10.75.615 16-.5 2.597.221 2.597.721 0 1.5-2.31.497-4.643.663-7 .5v8h15v-15h10v-15h-10v-15h10v-15h-10v-15h10v-15h-10v-15h10v-15h-10v-15h-15c-.555 4.497.111 8.664 2 12.5-.228.399-.562.565-1 .5-8.409-.638-13.076 3.195-14 11.5 1.744 8.904 7.078 12.404 16 10.5 1.238.31 1.238.81 0 1.5a4.934 4.934 0 0 1-3 .5v8h-15v15h-15c-.167-20.336 0-40.669.5-61a6.978 6.978 0 0 1 3.5-2.5 600.2 600.2 0 0 1 49 0l2.5 2.5c.667 58.333.667 116.667 0 175l-1.5 1.5c-17 .667-34 .667-51 0l-2.5-2.5a2311.03 2311.03 0 0 1-.5-68Z" style="opacity:1"/><path fill="#080808" d="M198.5 247.5c6.009-.166 12.009.001 18 .5 2.843 3.619 2.51 6.952-1 10a64.218 64.218 0 0 1-16 0c-3.658-3.138-3.991-6.638-1-10.5Z" style="opacity:1"/><path fill="#101010" d="M216.5 229.5c-5.25 1.115-10.583 1.281-16 .5-3.021-1.539-4.354-4.039-4-7.5.816-1.644 2.15-2.81 4-3.5a49.226 49.226 0 0 1 14 0c4.482 2.722 5.149 6.222 2 10.5Z" style="opacity:1"/><path fill="#111" d="M132.5 230.5c-2.484-2.045-3.484-4.712-3-8 2.482-3.509 5.982-4.843 10.5-4l7.5.5c5.333 3.667 5.333 7.333 0 11a112.97 112.97 0 0 1-15 .5Z" style="opacity:1"/><path fill="#f9f9f9" d="M167.5 103.5a3791.63 3791.63 0 0 1 0 174c-3.575-9.917-3.909-20.084-1-30.5a128.725 128.725 0 0 1-2-22.5h-12c.372 2.522-.461 4.522-2.5 6a40.914 40.914 0 0 0-.5 9h-15c.409-3.355-.258-6.355-2-9a112.97 112.97 0 0 0 15-.5c5.333-3.667 5.333-7.333 0-11l-7.5-.5c-4.518-.843-8.018.491-10.5 4-.79 1.109-1.29 2.442-1.5 4-2.456-1.821-5.289-2.488-8.5-2v-15h15v8c4.93-.303 9.763.031 14.5 1 .498-2.982.665-5.982.5-9h15v-15h-12a12.93 12.93 0 0 1-.5 5c-.417 1.256-1.25 1.923-2.5 2 2.891-3.736 2.558-7.07-1-10 .93-3.9 1.263-7.9 1-12h15v-15h-14c-.667 0-1-.333-1-1v-14h15v-15a67.246 67.246 0 0 0-15 1c3.935-13.403-1.065-19.07-15-17a329.64 329.64 0 0 1 0-14h15v15h15a57.15 57.15 0 0 1 1-15c.683-.363 1.35-.696 2-1Z" style="opacity:1"/><path fill="#121212" d="M148.5 191.5c3.558 2.93 3.891 6.264 1 10a47.73 47.73 0 0 1-16 .5c-6.2-3.135-6.534-6.801-1-11 5.417-.781 10.75-.615 16 .5Z" style="opacity:1"/><path fill="#f2f2f2" d="M216.5 229.5c3.149-4.278 2.482-7.778-2-10.5a49.226 49.226 0 0 0-14 0c-1.85.69-3.184 1.856-4 3.5-.31-1.238-.81-1.238-1.5 0a84.902 84.902 0 0 1-.5-13h-15v-45h15v-15h15v-8a4.934 4.934 0 0 0 3-.5c1.238-.69 1.238-1.19 0-1.5 5.933-4.344 7.433-10.011 4.5-17-1.965-2.05-4.132-3.717-6.5-5 .438.065.772-.101 1-.5-1.889-3.836-2.555-8.003-2-12.5h15v15h10v15h-10v15h10v15h-10v15h10v15h-10v15h10v15h-10v15h-15v-8c2.357.163 4.69-.003 7-.5 2.597-.779 2.597-1.279 0-1.5Z" style="opacity:1"/><path fill="#111" d="M200.5 190.5a112.97 112.97 0 0 1 15 .5c4.247 4.163 3.914 7.829-1 11-5.449.896-10.782.563-16-1-3.098-4.342-2.431-7.842 2-10.5Z" style="opacity:1"/><path fill="#050505" d="M200.5 162.5a112.97 112.97 0 0 1 15 .5c3.51 3.048 3.843 6.381 1 10a56.766 56.766 0 0 1-18-.5c-3.038-4.145-2.371-7.478 2-10Z" style="opacity:1"/><path fill="#070707" d="M149.5 163.5c0 .667.333 1 1 1 1.761 3.456 1.094 6.289-2 8.5a72.464 72.464 0 0 1-17 0c-2.203-2.76-2.536-5.76-1-9 6.272-1.829 12.605-1.995 19-.5ZM210.5 117.5c2.368 1.283 4.535 2.95 6.5 5 2.933 6.989 1.433 12.656-4.5 17-8.922 1.904-14.256-1.596-16-10.5.924-8.305 5.591-12.138 14-11.5Z" style="opacity:1"/><path fill="#060606" d="M149.5 135.5c-6.159 6.414-12.326 6.414-18.5 0-2.777-6.553-1.611-12.22 3.5-17 13.935-2.07 18.935 3.597 15 17Z" style="opacity:1"/><path fill="#f4f4f4" d="M167.5 103.5c-.65.304-1.317.637-2 1a57.15 57.15 0 0 0-1 15h-15v-15h-15a329.64 329.64 0 0 0 0 14c-5.111 4.78-6.277 10.447-3.5 17 6.174 6.414 12.341 6.414 18.5 0a67.246 67.246 0 0 1 15-1v15h-15v14c-6.395-1.495-12.728-1.329-19 .5-1.536 3.24-1.203 6.24 1 9a72.464 72.464 0 0 0 17 0c3.094-2.211 3.761-5.044 2-8.5h14v15h-15c.263 4.1-.07 8.1-1 12-5.25-1.115-10.583-1.281-16-.5-5.534 4.199-5.2 7.865 1 11a47.73 47.73 0 0 0 16-.5c1.25-.077 2.083-.744 2.5-2a12.93 12.93 0 0 0 .5-5h12v15h-15a40.914 40.914 0 0 1-.5 9 55.155 55.155 0 0 0-14.5-1v-8h-15v15c3.211-.488 6.044.179 8.5 2 .21-1.558.71-2.891 1.5-4-.484 3.288.516 5.955 3 8 1.742 2.645 2.409 5.645 2 9h15a40.914 40.914 0 0 1 .5-9c2.039-1.478 2.872-3.478 2.5-6h12c.007 7.551.673 15.051 2 22.5-2.909 10.416-2.575 20.583 1 30.5-.453.958-1.119 1.792-2 2.5-17 .667-34 .667-51 0l-1.5-1.5a7652.674 7652.674 0 0 1 0-175l2.5-2.5a600.2 600.2 0 0 1 49 0c1.442.377 2.442 1.21 3 2.5Z" style="opacity:1"/><path fill="#0a0a0a" d="M131.5 247.5c5.676-.166 11.343.001 17 .5 4.082 3.697 3.749 7.03-1 10-5 .667-10 .667-15 0-4.957-3.044-5.29-6.544-1-10.5Z" style="opacity:1"/><path fill="#f5f5f5" d="M250.5 100.5c16.337-.167 32.67 0 49 .5 1.833.5 3 1.667 3.5 3.5a7478.76 7478.76 0 0 1 0 173l-2.5 2.5c-17 .667-34 .667-51 0l-1.5-1.5a7652.674 7652.674 0 0 1 0-175 10.515 10.515 0 0 0 2.5-3Z" style="opacity:1"/><path fill="#0a0a0a" d="M266.5 247.5c5.676-.166 11.343.001 17 .5 4.082 3.697 3.749 7.03-1 10-5 .667-10 .667-15 0-4.831-3.134-5.164-6.634-1-10.5Z" style="opacity:1"/><path fill="#111" d="M267.5 218.5a112.97 112.97 0 0 1 15 .5c5.333 3.667 5.333 7.333 0 11-5 .667-10 .667-15 0-3.945-3.831-3.945-7.664 0-11.5ZM267.5 190.5a112.97 112.97 0 0 1 15 .5c3.604 1.334 4.771 3.834 3.5 7.5-.5 1.833-1.667 3-3.5 3.5a49.226 49.226 0 0 1-14 0c-4.969-3.34-5.303-7.173-1-11.5Z" style="opacity:1"/><path fill="#070707" d="M267.5 162.5a112.97 112.97 0 0 1 15 .5c4.733 2.922 5.066 6.255 1 10a72.464 72.464 0 0 1-17 0c-2.779-3.819-2.446-7.319 1-10.5Z" style="opacity:1"/><path fill="#090909" d="M271.5 117.5c10.758-.564 15.592 4.436 14.5 15-7.816 10.906-15.149 10.572-22-1-.394-6.212 2.106-10.879 7.5-14Z" style="opacity:1"/><path fill="#fdfdfd" d="M209.5 89.5c-9.672-.166-19.339 0-29 .5a60.289 60.289 0 0 0-6.5 3.5c-2.528-1.845-5.361-3.012-8.5-3.5a676.216 676.216 0 0 0-52 0c-6.57 2.238-10.737 6.738-12.5 13.5-.667 58-.667 116 0 174a110.146 110.146 0 0 1 2.5 8 53.806 53.806 0 0 0-14-1v-15h10v-15h-10v-15h10v-15h-10v-15h10v-15h-10v-15h10v-15h-10v-15h10v-15h-10v-15h-10a10.098 10.098 0 0 1-1.5 6 2.427 2.427 0 0 1-.5-2c1.71-16.289-5.623-23.623-22-22a2.429 2.429 0 0 1-2-.5 20.088 20.088 0 0 1 6-1.5v-10h15v15h15v-15h15v-15h15v13h15v-13h15v13h15v-13h15v14a75.84 75.84 0 0 1 15-1v-13h15v15Z" style="opacity:1"/><path fill="#121212" d="M284.5 55.5c8.673-.166 17.34 0 26 .5 3.604 1.334 4.771 3.834 3.5 7.5-.5 1.833-1.667 3-3.5 3.5-8.667.667-17.333.667-26 0-5.216-3.925-5.216-7.758 0-11.5Z" style="opacity:1"/><path fill="#989898" d="m34.5 54.5 231 2c-77.336.333-154.67 0-232-1 .124-.607.457-.94 1-1Z" style="opacity:1"/><path fill="#fefefe" d="M291.5 33.5c-2.107.968-4.441 1.302-7 1v10h-15v-10h-15v10h-15v-10h-15v10h-15v-10h-15v10h-15v-10h-15v10h-15v-10h-15v10h-15v-10h-15v10h-15v-10h-15v10h-15c.475-2.582-.192-4.582-2-6 1.394-2.208 3.394-3.708 6-4.5 75.999-.5 151.999-.667 228-.5Z" style="opacity:1"/></svg>