<svg xmlns="http://www.w3.org/2000/svg" width="201" height="250" style="shape-rendering:geometricPrecision;text-rendering:geometricPrecision;image-rendering:optimizeQuality;fill-rule:evenodd;clip-rule:evenodd"><path style="opacity:1" fill="#fbfbfb" d="M-.5-.5h95C48.095 4.397 17.595 29.064 3 73.5a139.925 139.925 0 0 0-2.5 34h-1V-.5Z"/><path style="opacity:1" fill="#020202" d="M94.5-.5h11c46.709 4.97 77.209 29.97 91.5 75a113.791 113.791 0 0 1 2.5 30c-.898 19.861-7.064 37.861-18.5 54a121.19 121.19 0 0 1 0-22c4.885-9.766 7.385-20.1 7.5-31h-25c-.086 4.357-.42 8.69-1 13h-11c.204-3.018.537-6.018 1-9 .951-1.419 1.284-3.085 1-5a576.628 576.628 0 0 0-48 1v13h-11v-13a576.621 576.621 0 0 0-48-1c-.285 1.915.049 3.581 1 5 .204 3.018.537 6.018 1 9h-11c-.58-4.31-.913-8.643-1-13h-25c.114 10.123 2.28 19.79 6.5 29 .667 7.667.667 15.333 0 23-10.108-15.157-15.941-31.824-17.5-50a139.925 139.925 0 0 1 2.5-34C17.595 29.064 48.095 4.397 94.5-.5Z"/><path style="opacity:1" fill="#fbfbfb" d="M105.5-.5h95v105h-1a113.791 113.791 0 0 0-2.5-30c-14.291-45.03-44.791-70.03-91.5-75Z"/><path style="opacity:1" fill="#f9f9f9" d="M115.5 11.5c21.961 4.471 39.961 15.305 54 32.5-8.686.832-17.353.665-26-.5a213.72 213.72 0 0 0-28-32Z"/><path style="opacity:1" fill="#fafafa" d="M83.5 11.5c-3.233 4.777-7.4 9.444-12.5 14a295.343 295.343 0 0 0-14.5 18 113.226 113.226 0 0 1-26 .5c13.991-16.824 31.658-27.657 53-32.5ZM93.5 18.5c.993 8.484 1.326 17.15 1 26a144.877 144.877 0 0 1-24-1 407.91 407.91 0 0 1 23-25Z"/><path style="opacity:1" fill="#fbfbfb" d="M105.5 18.5a300.919 300.919 0 0 1 25 25.5c-8.327.5-16.66.666-25 .5v-26Z"/><path style="opacity:1" fill="#9c9c9c" d="M22.5 56.5c8.509-1.321 17.175-1.321 26 0-.124.607-.457.94-1 1-8.15-.993-16.483-1.326-25-1Z"/><path style="opacity:1" fill="silver" d="M177.5 56.5c-8.517-.326-16.85.007-25 1-.543-.06-.876-.393-1-1 8.825-1.321 17.491-1.321 26 0Z"/><path style="opacity:1" fill="#fcfcfc" d="M22.5 56.5c8.517-.326 16.85.007 25 1a101.743 101.743 0 0 0-11 34c-8.064 1.921-16.397 2.588-25 2 .661-13.309 4.328-25.642 11-37Z"/><path style="opacity:1" fill="#f9f9f9" d="M61.5 55.5h33v39h-47c1.492-14.142 6.158-27.142 14-39ZM105.5 55.5c11.005-.166 22.005 0 33 .5 7.941 11.658 12.608 24.492 14 38.5h-47v-39Z"/><path style="opacity:1" fill="#fcfcfc" d="M177.5 56.5c7.073 11.228 10.74 23.562 11 37-8.603.588-16.936-.079-25-2-1.669-12.005-5.335-23.339-11-34 8.15-.993 16.483-1.326 25-1Z"/><path style="opacity:1" fill="#b5b5b5" d="M36.5 91.5v3c-8.517.326-16.85-.007-25-1 8.603.588 16.936-.079 25-2Z"/><path style="opacity:1" fill="#b6b6b6" d="M163.5 91.5c8.064 1.921 16.397 2.588 25 2-8.15.993-16.483 1.326-25 1v-3Z"/><path style="opacity:1" fill="#424242" d="M94.5 105.5h-47v4c-.951-1.419-1.285-3.085-1-5 16.175-.33 32.175.004 48 1ZM105.5 105.5a576.628 576.628 0 0 1 48-1c.284 1.915-.049 3.581-1 5v-4h-47Z"/><path style="opacity:1" fill="#fdfdfd" d="M199.5 104.5h1v145h-55v-19h-16v19h-56v-19h-16v19h-58v-142h1c1.559 18.176 7.392 34.843 17.5 50 .667-7.667.667-15.333 0-23-4.22-9.21-6.386-18.877-6.5-29h25c.087 4.357.42 8.69 1 13h11a104.578 104.578 0 0 1-1-9v-4h47v13h11v-13h47v4a104.618 104.618 0 0 0-1 9h11c.58-4.31.914-8.643 1-13h25c-.115 10.9-2.615 21.234-7.5 31a121.19 121.19 0 0 0 0 22c11.436-16.139 17.602-34.139 18.5-54Z"/><path style="opacity:1" fill="#010101" d="M42.5 139.5c39.335-.167 78.668 0 118 .5a212.903 212.903 0 0 1 .5 35.5 2348.324 2348.324 0 0 1-118.5.5 168.227 168.227 0 0 1 0-36.5Z"/><path style="opacity:1" fill="#f3f3f3" d="M52.5 149.5h7v17h-7v-17Z"/><path style="opacity:1" fill="#fafafa" d="M71.5 149.5h7v17h-7v-17Z"/><path style="opacity:1" fill="#eee" d="M90.5 149.5h6v17h-6c-1.333-5.667-1.333-11.333 0-17Z"/><path style="opacity:1" fill="#797979" d="M90.5 149.5c2.107-.968 4.44-1.302 7-1v19c-2.56.302-4.893-.032-7-1h6v-17h-6Z"/><path style="opacity:1" fill="#f7f7f7" d="M136.5 150.5c7.533.029 11.033 3.696 10.5 11-2.541 4.569-6.375 6.069-11.5 4.5-5.466-5.566-5.132-10.733 1-15.5Z"/><path style="opacity:1" fill="#010101" d="M42.5 185.5c39.335-.167 78.668 0 118 .5a212.903 212.903 0 0 1 .5 35.5 2348.324 2348.324 0 0 1-118.5.5 168.227 168.227 0 0 1 0-36.5Z"/><path style="opacity:1" fill="#f3f3f3" d="M52.5 195.5h7v17h-7v-17Z"/><path style="opacity:1" fill="#fafafa" d="M71.5 195.5h7v17h-7v-17Z"/><path style="opacity:1" fill="#e4e4e4" d="M89.5 195.5h8v17h-8v-17Z"/><path style="opacity:1" fill="#666" d="M73.5 249.5h-1v-18h-14v18h-1v-19h16v19Z"/><path style="opacity:1" d="M72.5 249.5h-14v-18h14v18Z"/><path style="opacity:1" fill="#636363" d="M145.5 249.5h-1v-18h-14v18h-1v-19h16v19Z"/><path style="opacity:1" d="M144.5 249.5h-14v-18h14v18Z"/></svg>