<svg xmlns="http://www.w3.org/2000/svg" width="101" height="125" style="shape-rendering:geometricPrecision;text-rendering:geometricPrecision;image-rendering:optimizeQuality;fill-rule:evenodd;clip-rule:evenodd"><path style="opacity:.831" d="M39.5-.5h21c21.447 5.78 34.78 19.447 40 41v18c-1.429 7.86-4.762 14.86-10 21a24.558 24.558 0 0 1-.5-12 35.352 35.352 0 0 0 3.5-15h-11v7a16.869 16.869 0 0 1-8-1 11.989 11.989 0 0 0 1-6h-22v7h-7v-7h-22a11.989 11.989 0 0 0 1 6 16.869 16.869 0 0 1-8 1v-7h-11a35.353 35.353 0 0 0 3.5 15c.826 4.041.66 8.041-.5 12-4.95-5.899-8.283-12.565-10-20v-20c5.667-21 19-34.333 40-40Zm0 8a232.396 232.396 0 0 0-12 13.5 30.499 30.499 0 0 1-11 0c6.154-7.077 13.82-11.577 23-13.5Zm21 0c9.162 1.916 16.83 6.416 23 13.5a30.499 30.499 0 0 1-11 0 241.617 241.617 0 0 0-12-13.5Zm-15 4c.98 3.125 1.313 6.458 1 10a50.441 50.441 0 0 1-10-.5c3.14-3.187 6.14-6.354 9-9.5Zm8 0c3.64 2.708 6.973 5.874 10 9.5-3.317.498-6.65.665-10 .5v-10Zm-42 17c3.726-.323 7.393.01 11 1-3.066 5.264-4.732 10.93-5 17h-11c.454-6.358 2.12-12.358 5-18Zm19 0h16v18h-22a57.315 57.315 0 0 1 6-18Zm23 0a64.875 64.875 0 0 1 16 1c3.197 5.26 5.197 10.926 6 17h-22v-18Zm24 0c3.937-.294 7.77.04 11.5 1a45.969 45.969 0 0 1 4.5 17h-11c-.452-6.353-2.118-12.353-5-18Z"/><path style="opacity:.848" d="M21.5 68.5c19.67-.167 39.336 0 59 .5a98.284 98.284 0 0 1 1 19.5c-20.336.167-40.67 0-61-.5-1.14-5.75-1.307-11.584-.5-17.5.717-.544 1.217-1.21 1.5-2Zm6 6c1.248.834 1.915 2.167 2 4l-1 4a16.869 16.869 0 0 1-1-8Zm9 0c1.248.834 1.915 2.167 2 4l-1 4a16.869 16.869 0 0 1-1-8Zm9 0c1.248.834 1.915 2.167 2 4l-1 4a16.869 16.869 0 0 1-1-8Zm23 1c3.684.872 4.684 3.039 3 6.5-5.352.175-6.352-1.991-3-6.5Z"/><path style="opacity:.867" d="M21.5 91.5c19.67-.167 39.336 0 59 .5a98.283 98.283 0 0 1 1 19.5c-20.336.167-40.67 0-61-.5-1.14-5.75-1.307-11.584-.5-17.5.717-.544 1.217-1.21 1.5-2Zm6 6c1.248.834 1.915 2.167 2 4l-1 4a16.868 16.868 0 0 1-1-8Zm9 0c1.248.834 1.915 2.167 2 4l-1 4a16.868 16.868 0 0 1-1-8Zm9 0c1.248.834 1.915 2.167 2 4l-1 4a16.868 16.868 0 0 1-1-8Z"/><path style="opacity:.794" d="M37.5 124.5h-9v-10h9v10Z"/><path style="opacity:.795" d="M73.5 124.5h-9v-10h9v10Z"/></svg>