<svg xmlns="http://www.w3.org/2000/svg" width="654" height="838" style="shape-rendering:geometricPrecision;text-rendering:geometricPrecision;image-rendering:optimizeQuality;fill-rule:evenodd;clip-rule:evenodd"><path fill="#e2e2e2" d="M127.5 9.5c-9.696.29-19.363.957-29 2 9.543-2.855 19.21-3.522 29-2Z" style="opacity:.093"/><path fill="#040404" d="M542.5 9.5c4.067 1.554 8.4 2.22 13 2 1.599-.268 2.932.066 4 1 2.646 1.752 5.646 2.752 9 3 1.291-.237 2.291.096 3 1 1.28 1.431 2.947 2.098 5 2a95.392 95.392 0 0 1 20 10.5 55.671 55.671 0 0 1 11 9.5c2.333 3 5 5.667 8 8a86.79 86.79 0 0 1 10 12c-.073 1.527.594 2.527 2 3-.073 1.527.594 2.527 2 3l1 2c-.073 1.527.594 2.527 2 3-.343 1.983.324 3.317 2 4 .838.342 1.172 1.008 1 2-.155 3.216.845 5.883 3 8-.38 2.198.287 3.865 2 5-.329 2.728.337 5.061 2 7 1.511 3.044 2.178 6.378 2 10 .57 7.654.904 15.321 1 23v583a2529.442 2529.442 0 0 1-2 29v1c-1.663 1.938-2.329 4.272-2 7-.428 3.285-1.428 6.285-3 9-1.431 1.28-2.098 2.947-2 5a191.212 191.212 0 0 1-11 21 253.805 253.805 0 0 1-12.5 15 235.172 235.172 0 0 1-14.5 12c-.667 0-1 .333-1 1-1.527-.073-2.527.594-3 2a113.607 113.607 0 0 1-29 13c-2.652-.09-4.985.576-7 2-5.576.371-10.909 1.371-16 3h-1c-145.343.319-290.677-.014-436-1-11.535-.878-22.202-4.211-32-10-1.014-1.174-2.347-1.84-4-2-1.653-.16-2.986-.826-4-2-.473-1.406-1.473-2.073-3-2-.992.172-1.658-.162-2-1-.762-1.762-2.096-2.762-4-3-.762-1.762-2.096-2.762-4-3-.762-1.762-2.096-2.762-4-3a6.544 6.544 0 0 1-3-3c-.762-1.762-2.096-2.762-4-3 .073-1.527-.594-2.527-2-3a75.255 75.255 0 0 1-13-16c.073-1.527-.594-2.527-2-3-7.209-10.952-11.876-22.952-14-36-.039-4.233-.705-8.233-2-12v-1c-.324-207.343.01-414.677 1-622-.178-3.622.489-6.956 2-10 1.663-1.939 2.33-4.272 2-7 2.419-3.564 4.086-7.564 5-12v-1c1.604-.787 2.27-2.12 2-4 1.406-.473 2.073-1.473 2-3-.172-.992.162-1.658 1-2 1.406-.473 2.073-1.473 2-3 1.406-.473 2.073-1.473 2-3a72.034 72.034 0 0 1 14-18c1.527.073 2.527-.594 3-2 7.211-7.543 15.545-13.543 25-18 1.653-.16 2.986-.826 4-2 1.653-.16 2.986-.826 4-2 2.053.098 3.72-.569 5-2 3.285-.428 6.285-1.428 9-3 2.728.33 5.061-.337 7-2a373.035 373.035 0 0 1 29-2c138.511-.026 276.845-.026 415 0Zm33 36c.473 1.406 1.473 2.073 3 2 .342.838 1.008 1.172 2 1 .473 1.406 1.473 2.073 3 2 .762 1.762 2.096 2.762 4 3 1.739 2.743 4.073 4.743 7 6 .58 2.249 1.913 3.915 4 5a6.544 6.544 0 0 0 3 3c-.073 1.527.594 2.527 2 3 0 .667.333 1 1 1-.073 1.527.594 2.527 2 3a98.029 98.029 0 0 1 11 24c.831 6.324 1.665 12.657 2.5 19 .5 18.33.667 36.664.5 55-4.532-.318-8.866.015-13 1h-8c-14.496-.667-29.163-1-44-1-27.179-.053-54.179.614-81 2a2520.58 2520.58 0 0 0-60.5-1 3021.8 3021.8 0 0 1-130.5 2c.03-.997-.47-1.664-1.5-2-66.225.629-132.392 1.296-198.5 2h-50c.315-3.871-.018-7.538-1-11v-39c1.389-5.799 2.389-11.799 3-18-.043-.916-.376-1.583-1-2 3.665-16 10.998-30 22-42 1.406-.473 2.073-1.473 2-3a265.575 265.575 0 0 1 17-13c1.527.073 2.527-.594 3-2 15.9-8.392 32.901-12.558 51-12.5a39004.55 39004.55 0 0 1 395 0c18.012.253 35.012 4.42 51 12.5Zm-57 152h17a2.428 2.428 0 0 0 .5 2c27.322-.646 54.822-1.312 82.5-2a21989.14 21989.14 0 0 1 3.5 212c.831 98.07.664 196.07-.5 294a1028.236 1028.236 0 0 1-3 34c-2.456 11.584-7.123 22.251-14 32-1.762.762-2.762 2.096-3 4-2.743 1.739-4.743 4.073-6 7-.667 0-1 .333-1 1-2.927 1.257-5.261 3.257-7 6-1.904.238-3.238 1.238-4 3-1.527-.073-2.527.594-3 2-1.527-.073-2.527.594-3 2a108.909 108.909 0 0 1-29 11c-6.526.197-12.859.864-19 2h-405c-6.47-1.196-13.137-1.862-20-2-11.106-2.588-21.44-6.921-31-13-.936-1.474-2.27-2.474-4-3-.936-1.474-2.27-2.474-4-3-.333-1-1-1.667-2-2-2.333-3-5-5.667-8-8a6.544 6.544 0 0 0-3-3c-.238-1.904-1.238-3.238-3-4 .073-1.527-.594-2.527-2-3 .073-1.527-.594-2.527-2-3a119.37 119.37 0 0 1-11-28c.597-.235.93-.735 1-1.5a134.139 134.139 0 0 0-3-16.5c-.484-172.349.016-344.682 1.5-517 3.938 1.454 7.771 1.288 11.5-.5 19.33-.5 38.664-.667 58-.5-.03.997.47 1.664 1.5 2 35.364-.644 70.864-1.311 106.5-2h1a974.488 974.488 0 0 0 47.5 1c33.664-.589 67.164-1.256 100.5-2 32.74.389 65.407.389 98 0a416.933 416.933 0 0 1 40.5 1c6.599-.65 13.099-1.316 19.5-2Z" style="opacity:.992"/><path fill="#ccc" d="M542.5 9.5c4.576-.062 8.909.604 13 2-4.6.22-8.933-.446-13-2Z" style="opacity:.214"/><path fill="#aaa" d="M98.5 11.5c-1.939 1.663-4.272 2.33-7 2 2.014-1.424 4.348-2.09 7-2Z" style="opacity:.604"/><path fill="#d7d7d7" d="M91.5 13.5c-2.715 1.572-5.715 2.572-9 3 2.584-1.973 5.584-2.973 9-3Z" style="opacity:.084"/><path fill="#cfcfcf" d="M559.5 12.5c3.416.027 6.416 1.027 9 3-3.354-.248-6.354-1.248-9-3Z" style="opacity:.059"/><path fill="#bababa" d="M82.5 16.5c-1.28 1.431-2.947 2.098-5 2 1.28-1.431 2.947-2.098 5-2Z" style="opacity:.267"/><path fill="#c5c5c5" d="M571.5 16.5c2.053-.098 3.72.569 5 2-2.053.098-3.72-.569-5-2Z" style="opacity:.255"/><path fill="#bebebe" d="M77.5 18.5c-1.014 1.174-2.347 1.84-4 2 .787-1.604 2.12-2.27 4-2Z" style="opacity:.431"/><path fill="#b5b5b5" d="M73.5 20.5c-1.014 1.174-2.347 1.84-4 2 .787-1.604 2.12-2.27 4-2Z" style="opacity:.471"/><path fill="#c3c3c3" d="M607.5 38.5c3.667 1.667 6.333 4.333 8 8-3-2.333-5.667-5-8-8Z" style="opacity:.004"/><path fill="#a6a6a6" d="M44.5 40.5c-.473 1.406-1.473 2.073-3 2 .473-1.406 1.473-2.073 3-2Z" style="opacity:.549"/><path fill="#e8e8e8" d="M78.5 45.5c-.473 1.406-1.473 2.073-3 2 .473-1.406 1.473-2.073 3-2Z" style="opacity:.035"/><path fill="#cfcfcf" d="M575.5 45.5c1.527-.073 2.527.594 3 2-1.527.073-2.527-.594-3-2Z" style="opacity:.208"/><path fill="#b3b3b3" d="M580.5 48.5c1.527-.073 2.527.594 3 2-1.527.073-2.527-.594-3-2Z" style="opacity:.337"/><path fill="#9f9f9f" d="M583.5 50.5c1.904.238 3.238 1.238 4 3-1.904-.238-3.238-1.238-4-3Z" style="opacity:.463"/><path fill="#9e9e9e" d="M587.5 53.5c2.927 1.257 5.261 3.257 7 6-2.927-1.257-5.261-3.257-7-6Z" style="opacity:.694"/><path fill="#c8c8c8" d="M594.5 59.5c2.087 1.085 3.42 2.751 4 5-2.087-1.085-3.42-2.751-4-5Z" style="opacity:.016"/><path fill="#bdbdbd" d="M625.5 58.5c1.406.473 2.073 1.473 2 3-1.406-.473-2.073-1.473-2-3Z" style="opacity:.216"/><path fill="#d7d7d7" d="M58.5 60.5c.073 1.527-.594 2.527-2 3-.073-1.527.594-2.527 2-3Z" style="opacity:.067"/><path fill="#9f9f9f" d="M27.5 60.5c.073 1.527-.594 2.527-2 3-.073-1.527.594-2.527 2-3Z" style="opacity:.4"/><path fill="#d3d3d3" d="M627.5 61.5c1.406.473 2.073 1.473 2 3-1.406-.473-2.073-1.473-2-3Z" style="opacity:.133"/><path fill="#b4b4b4" d="M25.5 63.5c.073 1.527-.594 2.527-2 3-.073-1.527.594-2.527 2-3Z" style="opacity:.29"/><path fill="#d3d3d3" d="M630.5 66.5c1.406.473 2.073 1.473 2 3-1.406-.473-2.073-1.473-2-3Z" style="opacity:.145"/><path fill="#b4b4b4" d="M22.5 68.5c.073 1.527-.594 2.527-2 3-.073-1.527.594-2.527 2-3Z" style="opacity:.49"/><path fill="#ccc" d="M601.5 67.5c1.406.473 2.073 1.473 2 3-1.406-.473-2.073-1.473-2-3Z" style="opacity:.129"/><path fill="#cacaca" d="M604.5 71.5c1.406.473 2.073 1.473 2 3-1.406-.473-2.073-1.473-2-3Z" style="opacity:.012"/><path fill="#8d8d8d" d="M632.5 69.5c1.174 1.014 1.84 2.347 2 4-1.676-.683-2.343-2.017-2-4Z" style="opacity:.69"/><path fill="#f2f2f2" d="M20.5 71.5c.27 1.88-.396 3.213-2 4 .16-1.653.826-2.986 2-4Z" style="opacity:.084"/><path fill="#7a7a7a" d="M635.5 75.5c1.52 2.39 2.52 5.057 3 8-2.155-2.117-3.155-4.784-3-8Z" style="opacity:.6"/><path fill="#8d8d8d" d="M18.5 76.5c-.914 4.436-2.581 8.436-5 12 .614-4.548 2.281-8.548 5-12Z" style="opacity:.702"/><path fill="#e9e9e9" d="M227.5 87.5c1.634-.661 3.467-.994 5.5-1 3.15-.14 5.983.527 8.5 2-4.641-.627-9.307-.96-14-1Z" style="opacity:.075"/><path fill="#8b8b8b" d="M638.5 83.5c1.431 1.28 2.098 2.947 2 5-1.713-1.135-2.38-2.802-2-5Z" style="opacity:.561"/><path fill="#060606" d="M227.5 87.5c4.693.04 9.359.373 14 1 10.616 2.63 18.616 8.63 24 18-.073 1.527.594 2.527 2 3 .095 2.286.762 4.286 2 6 1.418 7.74 1.084 15.407-1 23 .237 1.291-.096 2.291-1 3-1.406.473-2.073 1.473-2 3-1.872 4.543-4.872 8.21-9 11-2.353.84-4.353 2.174-6 4-8.518 3.756-17.518 4.923-27 3.5-2.976-.705-5.642-1.871-8-3.5-1.465-1.237-3.132-2.237-5-3-4.333-2.333-7.667-5.667-10-10-.25-2.174-1.25-3.841-3-5-.904-.709-1.237-1.709-1-3a76.31 76.31 0 0 1-2-20c1.972-2.584 2.972-5.584 3-9 1.406-.473 2.073-1.473 2-3-.172-.992.162-1.658 1-2 1.406-.473 2.073-1.473 2-3 6.703-7.52 15.036-12.186 25-14Z" style="opacity:.997"/><path fill="#070707" d="M154.5 105.5c-.073 1.527.594 2.527 2 3v1c.16 1.653.826 2.986 2 4 .81 4.129 1.477 8.296 2 12.5a128.611 128.611 0 0 1-2 13.5c-1.49 5.649-4.49 10.316-9 14-1 .333-1.667 1-2 2 0 .667-.333 1-1 1-1.527-.073-2.527.594-3 2-1.527-.073-2.527.594-3 2-18.554 8.079-34.721 4.746-48.5-10a19.168 19.168 0 0 1-2.5-5c.073-1.527-.594-2.527-2-3-1.238-1.714-1.905-3.714-2-6a124.913 124.913 0 0 1-1-17c1.972-2.584 2.972-5.584 3-9-.172-.992.162-1.658 1-2 1.406-.473 2.073-1.473 2-3 3.56-6.058 8.56-10.558 15-13.5 19.837-7.996 36.17-3.496 49 13.5Z" style="opacity:.997"/><path fill="#b3b3b3" d="M13.5 88.5c.33 2.728-.337 5.061-2 7-.09-2.652.576-4.986 2-7Z" style="opacity:.62"/><path fill="#b3b3b3" d="M640.5 88.5c1.424 2.014 2.09 4.348 2 7-1.663-1.939-2.329-4.272-2-7Z" style="opacity:.416"/><path fill="#c5c5c5" d="M202.5 101.5c.073 1.527-.594 2.527-2 3-.073-1.527.594-2.527 2-3Z" style="opacity:.318"/><path fill="#c4c4c4" d="M90.5 105.5c.073 1.527-.594 2.527-2 3-.073-1.527.594-2.527 2-3Z" style="opacity:.443"/><path fill="#e1e1e1" d="M154.5 105.5c1.406.473 2.073 1.473 2 3-1.406-.473-2.073-1.473-2-3Z" style="opacity:.075"/><path fill="#b4b4b4" d="M199.5 106.5c.073 1.527-.594 2.527-2 3-.073-1.527.594-2.527 2-3Z" style="opacity:.502"/><path fill="#cbcbcb" d="M265.5 106.5c1.406.473 2.073 1.473 2 3-1.406-.473-2.073-1.473-2-3Z" style="opacity:.216"/><path fill="#dadada" d="M34.5 105.5c.624.417.957 1.084 1 2-.611 6.201-1.611 12.201-3 18-.206-6.896.461-13.563 2-20Z" style="opacity:.011"/><path fill="#fdfdfd" d="M9.5 105.5a98162.484 98162.484 0 0 0-1 622 63260.139 63260.139 0 0 1-.5-616c.19-2.208.69-4.208 1.5-6Z" style="opacity:.095"/><path fill="#b4b4b4" d="M156.5 109.5c1.604.787 2.271 2.12 2 4-1.174-1.014-1.84-2.347-2-4Z" style="opacity:.247"/><path fill="#e4e4e4" d="M267.5 109.5c1.574 1.602 2.241 3.602 2 6-1.238-1.714-1.905-3.714-2-6Z" style="opacity:.075"/><path fill="#b3b3b3" d="M197.5 109.5c-.028 3.416-1.028 6.416-3 9 .028-3.416 1.028-6.416 3-9Z" style="opacity:.659"/><path fill="#eaeaea" d="M644.5 105.5c2.039 7.611 2.372 15.277 1 23a372.302 372.302 0 0 0-1-23Z" style="opacity:.062"/><path fill="#b3b3b3" d="M87.5 110.5c-.028 3.416-1.028 6.416-3 9 .028-3.416 1.028-6.416 3-9Z" style="opacity:.682"/><path fill="#eaeaea" d="M269.5 115.5c1.506 2.856 2.172 6.023 2 9.5.153 4.876-.847 9.376-3 13.5 2.084-7.593 2.418-15.26 1-23Z" style="opacity:.093"/><path fill="#f3f3f3" d="M84.5 119.5c-.053 5.696.28 11.362 1 17-1.519-3.026-2.185-6.359-2-10 .003-2.525.337-4.859 1-7Z" style="opacity:.115"/><path fill="#e1e1e1" d="M158.5 113.5c2.86 6.267 3.693 12.933 2.5 20-.566 2.223-1.4 4.223-2.5 6a128.611 128.611 0 0 0 2-13.5 180.978 180.978 0 0 0-2-12.5Z" style="opacity:.09"/><path fill="#f4f4f4" d="M617.5 98.5c2.216 4.631 3.383 9.631 3.5 15 .5 19.997.667 39.997.5 60h-14c4.134-.985 8.468-1.318 13-1 .167-18.336 0-36.67-.5-55-.835-6.343-1.669-12.676-2.5-19Z" style="opacity:.067"/><path fill="#e5e5e5" d="M194.5 118.5a76.31 76.31 0 0 0 2 20c-1.427-1.648-2.26-3.648-2.5-6-.815-4.852-.648-9.519.5-14Z" style="opacity:.208"/><path fill="#ddd" d="M267.5 141.5c.073 1.527-.594 2.527-2 3-.073-1.527.594-2.527 2-3Z" style="opacity:.004"/><path fill="#d2d2d2" d="M197.5 141.5c1.75 1.159 2.75 2.826 3 5-1.75-1.159-2.75-2.826-3-5Z" style="opacity:.18"/><path fill="#cfcfcf" d="M87.5 142.5c1.406.473 2.073 1.473 2 3-1.406-.473-2.073-1.473-2-3Z" style="opacity:.212"/><path fill="#eee" d="M149.5 153.5c0 1.333-.667 2-2 2 .333-1 1-1.667 2-2Z" style="opacity:.039"/><path fill="#e5e5e5" d="M256.5 155.5c-1.302 2.322-3.302 3.655-6 4 1.647-1.826 3.647-3.16 6-4Z" style="opacity:.024"/><path fill="#e1e1e1" d="M146.5 156.5c-.473 1.406-1.473 2.073-3 2 .473-1.406 1.473-2.073 3-2Z" style="opacity:.02"/><path fill="#d4d4d4" d="M210.5 156.5c1.868.763 3.535 1.763 5 3-2.534.241-4.2-.759-5-3Z" style="opacity:.004"/><path fill="#f0f0f0" d="M143.5 158.5c-.473 1.406-1.473 2.073-3 2 .473-1.406 1.473-2.073 3-2Z" style="opacity:.022"/><path fill="#a6a6a6" d="M599.5 173.5a6237.742 6237.742 0 0 1-125 1 1512.166 1512.166 0 0 1 81-2c14.837 0 29.504.333 44 1Z" style="opacity:.42"/><path fill="#d8d8d8" d="M283.5 175.5h-200c66.108-.704 132.275-1.371 198.5-2 1.03.336 1.53 1.003 1.5 2Z" style="opacity:.339"/><path fill="#b7b7b7" d="M32.5 164.5c.982 3.462 1.315 7.129 1 11h77a1521.522 1521.522 0 0 1-78 1v-12Z" style="opacity:.236"/><path fill="#5f5f5f" d="M458.5 198.5a900.97 900.97 0 0 1 60-1c-6.401.684-12.901 1.35-19.5 2a416.933 416.933 0 0 0-40.5-1Z" style="opacity:.551"/><path fill="#b3b3b3" d="M535.5 197.5h83c-27.678.688-55.178 1.354-82.5 2a2.428 2.428 0 0 1-.5-2Z" style="opacity:.321"/><path fill="#bebebe" d="M103.5 199.5h108c-35.636.689-71.136 1.356-106.5 2-1.03-.336-1.53-1.003-1.5-2Z" style="opacity:.31"/><path fill="#cdcdcd" d="M360.5 198.5c-33.336.744-66.836 1.411-100.5 2a974.488 974.488 0 0 1-47.5-1 7566.37 7566.37 0 0 1 148-1Z" style="opacity:.007"/><path fill="#e7e7e7" d="M342.5 290.5a531.908 531.908 0 0 0-47 2 174.227 174.227 0 0 1 47-2Z" style="opacity:.018"/><path fill="#080707" d="M342.5 290.5h2c5.801 1.182 11.801 1.848 18 2 4.731 1.761 9.731 2.761 15 3 2.928.065 5.595.732 8 2 1.938 1.663 4.272 2.329 7 2 .992-.172 1.658.162 2 1 3.297 2.101 6.963 3.435 11 4 1.28 1.431 2.947 2.098 5 2 34.915 14.847 63.915 37.847 87 69-.073 1.527.594 2.527 2 3 .238 1.904 1.238 3.238 3 4-.073 1.527.594 2.527 2 3-.073 1.527.594 2.527 2 3 10.37 16.099 18.036 33.432 23 52-.241 2.398.426 4.398 2 6v1c-.206 2.995.46 5.662 2 8a63.643 63.643 0 0 1 3 18 282.675 282.675 0 0 1-2 62c-1.285 3.089-1.951 6.422-2 10-1.268 2.405-1.935 5.072-2 8-1.424 2.015-2.09 4.348-2 7-5.191 17.044-12.524 33.044-22 48-1.406.473-2.073 1.473-2 3-23.534 35.699-54.868 62.199-94 79.5a81 81 0 0 1-20 6.5c-2.286.095-4.286.762-6 2-5.664.461-10.997 1.794-16 4-2.217.869-4.55 1.202-7 1-5.904-.179-11.571.488-17 2a303.943 303.943 0 0 1-58-4c-3.739-1.602-7.739-2.602-12-3-1.938-1.663-4.272-2.329-7-2-17.233-4.846-33.233-12.179-48-22-.473-1.406-1.473-2.073-3-2-.473-1.406-1.473-2.073-3-2-.473-1.406-1.473-2.073-3-2-.762-1.762-2.096-2.762-4-3-.333-1-1-1.667-2-2-.992.172-1.658-.162-2-1-.333-1-1-1.667-2-2-.473-1.406-1.473-2.073-3-2-1.69-.356-2.69-1.356-3-3-1.085-2.087-2.751-3.42-5-4a79.863 79.863 0 0 1-15-15c-.238-1.904-1.238-3.238-3-4-1.667-1-3-2.333-4-4 .073-1.527-.594-2.527-2-3a21.614 21.614 0 0 1-4-5c-.238-1.904-1.238-3.238-3-4 .073-1.527-.594-2.527-2-3-1.406-.473-2.073-1.473-2-3 .073-1.527-.594-2.527-2-3 .073-1.527-.594-2.527-2-3-.838-.342-1.172-1.008-1-2-.16-1.653-.826-2.986-2-4-7.582-12.382-13.249-25.716-17-40 .241-2.398-.426-4.398-2-6-1.602-3.739-2.602-7.739-3-12 .07-3.925-.597-7.591-2-11a303.99 303.99 0 0 1-1-57c-.148-4.822.519-9.488 2-14 2.075-3.974 3.075-8.308 3-13 2.106-3.991 3.439-8.324 4-13a208.252 208.252 0 0 1 19-42c1.406-.473 2.073-1.473 2-3 1.406-.473 2.073-1.473 2-3 1.406-.473 2.073-1.473 2-3 1.762-.762 2.762-2.096 3-4a5.727 5.727 0 0 1 1-3c1.474-.936 2.474-2.27 3-4a238.814 238.814 0 0 1 42-40c1.904-.238 3.238-1.238 4-3 1.904-.238 3.238-1.238 4-3 1.527.073 2.527-.594 3-2a141.143 141.143 0 0 1 28-15c1.653-.16 2.986-.826 4-2 1.28-1.431 2.947-2.098 5-2 2.053.098 3.72-.569 5-2 .709-.904 1.709-1.237 3-1 2.286-.095 4.286-.762 6-2 4.938-.731 9.605-2.065 14-4 5 .002 9.667-.998 14-3a531.908 531.908 0 0 1 47-2Z" style="opacity:.996"/><path fill="#e9e9e9" d="M344.5 290.5c6.239-.224 12.239.443 18 2-6.199-.152-12.199-.818-18-2Z" style="opacity:.016"/><path fill="#e1e1e1" d="M362.5 292.5c5.269.239 10.269 1.239 15 3-5.269-.239-10.269-1.239-15-3Z" style="opacity:.026"/><path fill="#eaeaea" d="M295.5 292.5c-4.333 2.002-9 3.002-14 3 4.389-1.746 9.056-2.746 14-3Z" style="opacity:.049"/><path fill="#d7d7d7" d="M281.5 295.5c-4.395 1.935-9.062 3.269-14 4 4.294-2.316 8.96-3.65 14-4Z" style="opacity:.088"/><path fill="#cdcdcd" d="M385.5 297.5c2.567.221 4.901.888 7 2-2.728.329-5.062-.337-7-2Z" style="opacity:.216"/><path fill="#dcdcdc" d="M267.5 299.5c-1.714 1.238-3.714 1.905-6 2 1.602-1.574 3.602-2.241 6-2Z" style="opacity:.069"/><path fill="#c7c7c7" d="M394.5 300.5c4.037.565 7.703 1.899 11 4-4.037-.565-7.703-1.899-11-4Z" style="opacity:.231"/><path fill="#cbcbcb" d="M258.5 302.5c-1.28 1.431-2.947 2.098-5 2 1.28-1.431 2.947-2.098 5-2Z" style="opacity:.227"/><path fill="#c5c5c5" d="M405.5 304.5c2.053-.098 3.72.569 5 2-2.053.098-3.72-.569-5-2Z" style="opacity:.231"/><path fill="#b8b8b8" d="M248.5 306.5c-1.014 1.174-2.347 1.84-4 2 .787-1.604 2.12-2.271 4-2Z" style="opacity:.443"/><path fill="#edc966" d="M360.5 313.5h-63c20.991-3.934 41.991-3.934 63 0Z" style="opacity:1"/><path fill="#f8c745" d="M297.5 313.5h63c6.318.416 12.318 1.749 18 4h-99c5.787-1.749 11.787-3.082 18-4Z" style="opacity:1"/><path fill="#fbbc2c" d="M279.5 317.5h99a122.701 122.701 0 0 1 31 11 6481.967 6481.967 0 0 1-161 1c9.656-5.555 19.989-9.555 31-12Z" style="opacity:1"/><path fill="#a6a6a6" d="M216.5 323.5c-.473 1.406-1.473 2.073-3 2 .473-1.406 1.473-2.073 3-2Z" style="opacity:.525"/><path fill="#969696" d="M213.5 325.5c-.762 1.762-2.096 2.762-4 3 .762-1.762 2.096-2.762 4-3Z" style="opacity:.478"/><path fill="#969696" d="M209.5 328.5c-.762 1.762-2.096 2.762-4 3 .762-1.762 2.096-2.762 4-3Z" style="opacity:.455"/><path fill="#fcb72b" d="M409.5 328.5a152.789 152.789 0 0 1 25 14c-70 1.333-140 1.333-210 0 7.388-5.363 15.388-9.696 24-13 53.836.332 107.503-.001 161-1Z" style="opacity:1"/><path fill="#fcb12b" d="M224.5 342.5c70 1.333 140 1.333 210 0a259.688 259.688 0 0 1 21 17c-84 1.333-168 1.333-252 0a259.688 259.688 0 0 1 21-17Z" style="opacity:1"/><path fill="#fcaa2a" d="M203.5 359.5c84 1.333 168 1.333 252 0a159.435 159.435 0 0 1 15 15 702.728 702.728 0 0 1-53 1 246.626 246.626 0 0 1-13.5-13 156.298 156.298 0 0 0-19.5 27 380.934 380.934 0 0 1-39-1 25.14 25.14 0 0 1 4-4.5L328 362.5a219.064 219.064 0 0 1-11.5 13h-56c-4.313-3.978-8.646-7.978-13-12-4.398 3.395-8.064 7.395-11 12a576.628 576.628 0 0 1-48-1 159.435 159.435 0 0 1 15-15Z" style="opacity:1"/><path fill="#fc0f1b" d="M260.5 375.5a95.356 95.356 0 0 0 8 8.5c-5.47 5.783-9.804 12.283-13 19.5-3.36 4.737-5.36 10.071-6 16-1.844 5.051-2.844 10.384-3 16-1.124 10.286-.457 20.619 2 31 1.882 6.094 4.548 11.76 8 17a123.638 123.638 0 0 0 14.5 18c2.393 3.554 4.56 7.22 6.5 11 5.416 10.718 9.082 22.052 11 34v29a187.301 187.301 0 0 1-8 32c-5.589 13.104-13.422 24.771-23.5 35a577.46 577.46 0 0 0-20.5-20c7.645-10.01 13.645-21.01 18-33a131.558 131.558 0 0 0 4-29c.377-4.953-.289-9.619-2-14-.352-8.053-2.685-15.386-7-22a417.39 417.39 0 0 0-21-27 3653.2 3653.2 0 0 0-7-16 247.16 247.16 0 0 0-4-15l-2-14v-15c.293-5.717.96-11.384 2-17a108.057 108.057 0 0 1 5-17c3.087-10.175 7.754-19.508 14-28 2.936-4.605 6.602-8.605 11-12 4.354 4.022 8.687 8.022 13 12ZM345.5 388.5c-7.789 9.319-13.122 19.985-16 32a66.208 66.208 0 0 0-2 16c-1.049 9.954-.383 19.954 2 30 1.532 6.293 4.198 11.959 8 17a236.935 236.935 0 0 1 21 29 108.505 108.505 0 0 1 10 34 198.855 198.855 0 0 1 1 27c-1.568 11.937-4.568 23.604-9 35-5.326 12.979-12.993 24.312-23 34a312.323 312.323 0 0 1-21-21c4.069-3.823 7.402-8.156 10-13 6.257-10.104 9.924-21.104 11-33 2.567-9.582 2.567-19.248 0-29-1.443-13.553-7.11-24.887-17-34a114.469 114.469 0 0 1-18-30 342.696 342.696 0 0 1-4-16 163.757 163.757 0 0 1-2-29 66.582 66.582 0 0 1 2-17 314.425 314.425 0 0 1 4-17 154.274 154.274 0 0 1 14-28 219.064 219.064 0 0 0 11.5-13l21.5 21.5a25.14 25.14 0 0 0-4 4.5ZM417.5 375.5a95.356 95.356 0 0 0 8 8.5 25.14 25.14 0 0 0-4 4.5c-4.185 4.208-7.185 9.208-9 15-3.294 5.203-5.628 10.87-7 17a76.32 76.32 0 0 0-2 14c-1.219 5.857-1.219 11.857 0 18-.15 4.8.516 9.467 2 14 1.532 6.293 4.198 11.959 8 17 3.063 5.452 7.063 10.118 12 14a164.34 164.34 0 0 1 15 29 327.575 327.575 0 0 1 4 20 113.05 113.05 0 0 1 0 29 187.301 187.301 0 0 1-8 32c-5.664 12.654-13.331 23.987-23 34a312.323 312.323 0 0 1-21-21 63.396 63.396 0 0 0 9-12c5.972-10.245 9.972-21.245 12-33 1.222-9.721 1.222-19.387 0-29-1.708-13.746-7.374-25.412-17-35-7.798-8.605-13.798-18.272-18-29a211.625 211.625 0 0 0-5-18 256.016 256.016 0 0 1-1-27 66.582 66.582 0 0 1 2-17 140.319 140.319 0 0 1 10-31 156.298 156.298 0 0 1 19.5-27 246.626 246.626 0 0 0 13.5 13Z" style="opacity:1"/><path fill="#fba429" d="M470.5 374.5a85.569 85.569 0 0 1 11 14c-20 1.333-40 1.333-60 0a25.14 25.14 0 0 1 4-4.5 95.356 95.356 0 0 1-8-8.5c17.841.33 35.508-.003 53-1Z" style="opacity:1"/><path fill="#aeaeae" d="M497.5 375.5c1.406.473 2.073 1.473 2 3-1.406-.473-2.073-1.473-2-3Z" style="opacity:.227"/><path fill="#999" d="M159.5 378.5c-.238 1.904-1.238 3.238-3 4 .238-1.904 1.238-3.238 3-4Z" style="opacity:.612"/><path fill="#8d8d8d" d="M499.5 378.5c1.762.762 2.762 2.096 3 4-1.762-.762-2.762-2.096-3-4Z" style="opacity:.349"/><path fill="#b4b4b4" d="M156.5 382.5c.073 1.527-.594 2.527-2 3-.073-1.527.594-2.527 2-3Z" style="opacity:.224"/><path fill="#bdbdbd" d="M502.5 382.5c1.406.473 2.073 1.473 2 3-1.406-.473-2.073-1.473-2-3Z" style="opacity:.059"/><path fill="#bdbdbd" d="M154.5 385.5c.073 1.527-.594 2.527-2 3-.073-1.527.594-2.527 2-3Z" style="opacity:.208"/><path fill="#bdbdbd" d="M504.5 385.5c1.406.473 2.073 1.473 2 3-1.406-.473-2.073-1.473-2-3Z" style="opacity:.075"/><path fill="#fca029" d="M188.5 374.5a576.628 576.628 0 0 0 48 1c-6.246 8.492-10.913 17.825-14 28a729.55 729.55 0 0 1-54-1 138.53 138.53 0 0 1 20-28Z" style="opacity:1"/><path fill="#fda129" d="M260.5 375.5h56a154.274 154.274 0 0 0-14 28h-47c3.196-7.217 7.53-13.717 13-19.5a95.356 95.356 0 0 1-8-8.5Z" style="opacity:1"/><path fill="#fc9e29" d="M421.5 388.5c20 1.333 40 1.333 60 0 3.781 4.124 6.781 8.791 9 14a1521.522 1521.522 0 0 1-78 1c1.815-5.792 4.815-10.792 9-15Z" style="opacity:1"/><path fill="#d3d3d3" d="M152.5 388.5c.073 1.527-.594 2.527-2 3-.073-1.527.594-2.527 2-3Z" style="opacity:.157"/><path fill="#fc9829" d="M168.5 402.5a729.55 729.55 0 0 0 54 1 108.057 108.057 0 0 0-5 17c-19.696.654-39.029-.012-58-2a93.691 93.691 0 0 1 9-16Z" style="opacity:1"/><path fill="#fd9829" d="M255.5 403.5h47a314.425 314.425 0 0 0-4 17 600.937 600.937 0 0 1-49-1c.64-5.929 2.64-11.263 6-16Z" style="opacity:1"/><path fill="#fd9a29" d="M345.5 388.5a380.934 380.934 0 0 0 39 1 140.319 140.319 0 0 0-10 31h-45c2.878-12.015 8.211-22.681 16-32Z" style="opacity:1"/><path fill="#fc9829" d="M490.5 402.5a74.903 74.903 0 0 1 6.5 10c1.411 2.15 2.245 4.484 2.5 7a2209.105 2209.105 0 0 1-94 1c1.372-6.13 3.706-11.797 7-17 26.172.331 52.172-.002 78-1Z" style="opacity:1"/><path fill="#fb9128" d="M159.5 418.5c18.971 1.988 38.304 2.654 58 2a129.727 129.727 0 0 0-2 17c-21.36.655-42.36-.011-63-2 1.545-6.077 3.878-11.744 7-17Z" style="opacity:1"/><path fill="#fd9228" d="M249.5 419.5a600.937 600.937 0 0 0 49 1 66.582 66.582 0 0 0-2 17c-17.034.652-33.7-.015-50-2 .156-5.616 1.156-10.949 3-16ZM329.5 420.5h45a66.582 66.582 0 0 0-2 17 507.055 507.055 0 0 1-45-1 66.208 66.208 0 0 1 2-16Z" style="opacity:1"/><path fill="#fc9228" d="M499.5 419.5c3.293 5.199 5.627 10.865 7 17a2652.905 2652.905 0 0 1-103 1v-3a76.32 76.32 0 0 1 2-14c31.504.332 62.838-.002 94-1Z" style="opacity:1"/><path fill="#fb8b28" d="M152.5 435.5c20.64 1.989 41.64 2.655 63 2v15c-22.839.331-45.506-.003-68-1 1.173-5.574 2.839-10.907 5-16Z" style="opacity:1"/><path fill="#fd8a28" d="M246.5 435.5c16.3 1.985 32.966 2.652 50 2-.191 9.75.475 19.417 2 29h-50c-2.457-10.381-3.124-20.714-2-31Z" style="opacity:1"/><path fill="#fc8c28" d="M403.5 434.5v3c34.504.332 68.837-.002 103-1 2.238 4.715 3.905 9.715 5 15a2916.974 2916.974 0 0 1-108 1c-1.219-6.143-1.219-12.143 0-18Z" style="opacity:1"/><path fill="#9d9d9d" d="M131.5 433.5c-.561 4.676-1.894 9.009-4 13 .578-4.665 1.911-8.999 4-13Z" style="opacity:.443"/><path fill="#a2a2a2" d="M529.5 440.5c1.238 1.714 1.905 3.714 2 6-1.574-1.602-2.241-3.602-2-6Z" style="opacity:.375"/><path fill="#b7b7b7" d="M127.5 446.5c.075 4.692-.925 9.026-3 13 .557-4.552 1.557-8.885 3-13Z" style="opacity:.486"/><path fill="#fb8528" d="M147.5 451.5c22.494.997 45.161 1.331 68 1l2 14h-73c.239-5.269 1.239-10.269 3-15Z" style="opacity:1"/><path fill="#fd8828" d="M327.5 436.5a507.055 507.055 0 0 0 45 1 256.016 256.016 0 0 0 1 27c-14.295 1.983-28.962 2.65-44 2-2.383-10.046-3.049-20.046-2-30Z" style="opacity:1"/><path fill="#fc8628" d="M511.5 451.5c1.575 4.769 2.575 9.769 3 15h-109a40.584 40.584 0 0 1-2-14c36.171.332 72.171-.002 108-1Z" style="opacity:1"/><path fill="#b2b2b2" d="M531.5 447.5c1.268 2.405 1.935 5.072 2 8-1.54-2.338-2.206-5.005-2-8Z" style="opacity:.216"/><path fill="#fb7f28" d="M144.5 466.5h73a247.16 247.16 0 0 1 4 15c-25.979 1.991-52.312 2.658-79 2 .302 2.559-.032 4.893-1 7 .136-8.245 1.136-16.245 3-24Z" style="opacity:1"/><path fill="#fc7f28" d="M248.5 466.5h50a342.696 342.696 0 0 0 4 16 529.493 529.493 0 0 1-46 1c-3.452-5.24-6.118-10.906-8-17ZM373.5 464.5a211.625 211.625 0 0 1 5 18 420.766 420.766 0 0 1-41 1c-3.802-5.041-6.468-10.707-8-17 15.038.65 29.705-.017 44-2ZM405.5 466.5h109c1.539 4.843 2.206 9.843 2 15-33.984 1.993-68.317 2.66-103 2-3.802-5.041-6.468-10.707-8-17Z" style="opacity:1"/><path fill="#e4e4e4" d="M122.5 473.5a303.99 303.99 0 0 0 1 57c-2.099-10.585-3.099-21.418-3-32.5-.103-8.38.563-16.547 2-24.5Z" style="opacity:.083"/><path fill="#fc7928" d="M221.5 481.5a3653.2 3653.2 0 0 1 7 16h-87v-7c.968-2.107 1.302-4.441 1-7 26.688.658 53.021-.009 79-2ZM516.5 481.5c.988 5.14 1.321 10.474 1 16h-92c-4.937-3.882-8.937-8.548-12-14 34.683.66 69.016-.007 103-2Z" style="opacity:1"/><path fill="#fc7528" d="M302.5 482.5a114.469 114.469 0 0 0 18 30h-43a107.856 107.856 0 0 0-6.5-11 123.638 123.638 0 0 1-14.5-18c15.509.33 30.842-.004 46-1ZM378.5 482.5c4.202 10.728 10.202 20.395 18 29a361.608 361.608 0 0 1-38 1 236.935 236.935 0 0 0-21-29c13.844.329 27.51-.004 41-1Z" style="opacity:1"/><path fill="#fc6f28" d="M141.5 497.5h87a417.39 417.39 0 0 1 21 27c-34.984 1.993-70.318 2.66-106 2a291.798 291.798 0 0 1-2-29ZM425.5 497.5h92a303.491 303.491 0 0 1-2 29h-75a164.34 164.34 0 0 0-15-29Z" style="opacity:1"/><path fill="#d4d4d4" d="M536.5 473.5c2.49 16.154 2.657 32.487.5 49-.272 4.576-1.105 8.909-2.5 13a282.675 282.675 0 0 0 2-62Z" style="opacity:.094"/><path fill="#fb6628" d="M249.5 524.5c4.315 6.614 6.648 13.947 7 22-36.171-.332-72.171.002-108 1-2.404-6.712-4.071-13.712-5-21 35.682.66 71.016-.007 106-2Z" style="opacity:1"/><path fill="#fc6828" d="M277.5 512.5h43c9.89 9.113 15.557 20.447 17 34h-49c-1.918-11.948-5.584-23.282-11-34ZM396.5 511.5c9.626 9.588 15.292 21.254 17 35h-45a108.505 108.505 0 0 0-10-34 361.608 361.608 0 0 0 38-1Z" style="opacity:1"/><path fill="#fb6628" d="M440.5 526.5h75a317.43 317.43 0 0 1-5 22c-21.641-1.989-43.641-2.656-66-2a327.575 327.575 0 0 0-4-20Z" style="opacity:1"/><path fill="#dadada" d="M123.5 530.5c1.403 3.409 2.07 7.075 2 11-1.403-3.409-2.07-7.075-2-11Z" style="opacity:.125"/><path fill="#d7d7d7" d="M534.5 535.5c.178 3.622-.489 6.956-2 10 .049-3.578.715-6.911 2-10Z" style="opacity:.063"/><path fill="#fb6028" d="M256.5 546.5c1.711 4.381 2.377 9.047 2 14h-106c-2.089-4.001-3.422-8.335-4-13a2916.974 2916.974 0 0 1 108-1Z" style="opacity:1"/><path fill="#dadada" d="M532.5 545.5c.206 2.995-.46 5.662-2 8 .065-2.928.732-5.595 2-8Z" style="opacity:.06"/><path fill="#dedede" d="M530.5 553.5c.09 2.652-.576 4.985-2 7-.09-2.652.576-4.985 2-7Z" style="opacity:.049"/><path fill="#919191" d="M128.5 553.5c1.574 1.602 2.241 3.602 2 6-1.238-1.714-1.905-3.714-2-6Z" style="opacity:.376"/><path fill="#fb5829" d="M152.5 560.5h106a131.558 131.558 0 0 1-4 29h-89c-5.673-9.017-10.007-18.684-13-29Z" style="opacity:1"/><path fill="#fc5c29" d="M288.5 546.5h49c2.567 9.752 2.567 19.418 0 29h-49v-29ZM368.5 546.5h45c1.222 9.613 1.222 19.279 0 29-15.038.65-29.705-.017-44-2a198.855 198.855 0 0 0-1-27Z" style="opacity:1"/><path fill="#fb5c29" d="M444.5 546.5c22.359-.656 44.359.011 66 2-2.279 9.492-5.612 18.492-10 27h-56a113.05 113.05 0 0 0 0-29Z" style="opacity:1"/><path fill="#fb4c2a" d="M165.5 589.5h89c-4.355 11.99-10.355 22.99-18 33l-46 2a146.45 146.45 0 0 1-25-35Z" style="opacity:1"/><path fill="#fc4f2a" d="M288.5 575.5h49c-1.076 11.896-4.743 22.896-11 33a529.493 529.493 0 0 1-46-1 187.301 187.301 0 0 0 8-32ZM369.5 573.5c14.295 1.983 28.962 2.65 44 2-2.028 11.755-6.028 22.755-12 33h-41c4.432-11.396 7.432-23.063 9-35Z" style="opacity:1"/><path fill="#fb4f29" d="M444.5 575.5h56c-4.682 12.64-11.348 23.973-20 34l-44-2a187.301 187.301 0 0 0 8-32Z" style="opacity:1"/><path fill="#c8c8c8" d="M147.5 599.5c1.174 1.014 1.84 2.347 2 4-1.604-.787-2.271-2.12-2-4Z" style="opacity:.098"/><path fill="#d7d7d7" d="M150.5 605.5c1.406.473 2.073 1.473 2 3-1.406-.473-2.073-1.473-2-3Z" style="opacity:.098"/><path fill="#d7d7d7" d="M506.5 608.5c.073 1.527-.594 2.527-2 3-.073-1.527.594-2.527 2-3Z" style="opacity:.008"/><path fill="#cfcfcf" d="M152.5 608.5c1.406.473 2.073 1.473 2 3-1.406-.473-2.073-1.473-2-3Z" style="opacity:.137"/><path fill="#ccc" d="M156.5 614.5c1.406.473 2.073 1.473 2 3-1.406-.473-2.073-1.473-2-3Z" style="opacity:.102"/><path fill="#dadada" d="M158.5 617.5c1.762.762 2.762 2.096 3 4-1.762-.762-2.762-2.096-3-4Z" style="opacity:.008"/><path fill="#cacaca" d="M165.5 626.5c1.406.473 2.073 1.473 2 3-1.406-.473-2.073-1.473-2-3Z" style="opacity:.008"/><path fill="#aaa" d="M171.5 633.5c1.762.762 2.762 2.096 3 4-1.762-.762-2.762-2.096-3-4Z" style="opacity:.004"/><path fill="#fb3e2b" d="M280.5 607.5a529.493 529.493 0 0 0 46 1c-2.598 4.844-5.931 9.177-10 13a312.323 312.323 0 0 0 21 21c10.007-9.688 17.674-21.021 23-34h41a63.396 63.396 0 0 1-9 12 312.323 312.323 0 0 0 21 21c9.669-10.013 17.336-21.346 23-34l44 2c-13.086 18.42-29.086 33.753-48 46a5306.326 5306.326 0 0 0-206 0c-13.532-8.451-25.532-18.784-36-31l46-2a577.46 577.46 0 0 1 20.5 20c10.078-10.229 17.911-21.896 23.5-35Z" style="opacity:1"/><path fill="#919191" d="M189.5 652.5c2.249.58 3.915 1.913 5 4-2.249-.58-3.915-1.913-5-4Z" style="opacity:.655"/><path fill="#fa352c" d="M432.5 655.5a183.482 183.482 0 0 1-32 17 2521.63 2521.63 0 0 0-142 0c-11.357-4.549-22.024-10.215-32-17a5306.326 5306.326 0 0 1 206 0Z" style="opacity:1"/><path fill="#8e8e8e" d="M197.5 659.5c1.527-.073 2.527.594 3 2-1.527.073-2.527-.594-3-2Z" style="opacity:.502"/><path fill="#dedede" d="M200.5 661.5c1 .333 1.667 1 2 2-1.333 0-2-.667-2-2ZM204.5 664.5c1 .333 1.667 1 2 2-1.333 0-2-.667-2-2Z" style="opacity:.008"/><path fill="silver" d="M206.5 666.5c1.904.238 3.238 1.238 4 3-1.904-.238-3.238-1.238-4-3Z" style="opacity:.337"/><path fill="#c1c1c1" d="M210.5 669.5c1.527-.073 2.527.594 3 2-1.527.073-2.527-.594-3-2Z" style="opacity:.196"/><path fill="#f62e2d" d="M400.5 672.5c-41.901 16.478-84.568 18.311-128 5.5a134.568 134.568 0 0 1-14-5.5 2521.63 2521.63 0 0 1 142 0Z" style="opacity:1"/><path fill="#b9b9b9" d="M213.5 671.5c1.527-.073 2.527.594 3 2-1.527.073-2.527-.594-3-2Z" style="opacity:.165"/><path fill="#cfcfcf" d="M216.5 673.5c1.527-.073 2.527.594 3 2-1.527.073-2.527-.594-3-2Z" style="opacity:.055"/><path fill="#c3c3c3" d="M267.5 697.5c2.728-.329 5.062.337 7 2-2.652.09-4.985-.576-7-2Z" style="opacity:.063"/><path fill="#d5d5d5" d="M390.5 697.5c-1.602 1.574-3.602 2.241-6 2 1.714-1.238 3.714-1.905 6-2Z" style="opacity:.045"/><path fill="#c8c8c8" d="M274.5 699.5c4.261.398 8.261 1.398 12 3-4.337-.084-8.337-1.084-12-3Z" style="opacity:.286"/><path fill="#d4d4d4" d="M384.5 699.5c-5.064 1.952-10.397 3.285-16 4 5.003-2.206 10.336-3.539 16-4Z" style="opacity:.06"/><path fill="#d6d6d6" d="M361.5 704.5c-5.429 1.512-11.096 2.179-17 2 5.429-1.512 11.096-2.179 17-2Z" style="opacity:.02"/><path fill="#efefef" d="M286.5 702.5a303.943 303.943 0 0 0 58 4c-19.548 2.037-38.881.703-58-4Z" style="opacity:.015"/><path fill="#d3d3d3" d="M32.5 717.5a134.139 134.139 0 0 1 3 16.5c-.07.765-.403 1.265-1 1.5a83.02 83.02 0 0 1-2-18Z" style="opacity:.012"/><path fill="#e6e6e6" d="M621.5 703.5c.166 8.34 0 16.673-.5 25-.66 3.178-1.493 6.178-2.5 9a1028.236 1028.236 0 0 0 3-34Z" style="opacity:.021"/><path fill="#bbb" d="M645.5 711.5c1.522 9.791.855 19.458-2 29 .722-9.662 1.389-19.329 2-29Z" style="opacity:.141"/><path fill="#ddd" d="M8.5 728.5c1.295 3.767 1.961 7.767 2 12-1.49-3.736-2.156-7.736-2-12Z" style="opacity:.116"/><path fill="#b1b1b1" d="M643.5 741.5c-.221 2.567-.888 4.901-2 7-.329-2.728.337-5.062 2-7Z" style="opacity:.224"/><path fill="#bababa" d="M638.5 757.5c.098 2.053-.569 3.72-2 5-.098-2.053.569-3.72 2-5Z" style="opacity:.216"/><path fill="#9f9f9f" d="M45.5 763.5c1.406.473 2.073 1.473 2 3-1.406-.473-2.073-1.473-2-3Z" style="opacity:.286"/><path fill="#aeaeae" d="M47.5 766.5c1.406.473 2.073 1.473 2 3-1.406-.473-2.073-1.473-2-3Z" style="opacity:.278"/><path fill="#999" d="M604.5 769.5c-.238 1.904-1.238 3.238-3 4 .238-1.904 1.238-3.238 3-4Z" style="opacity:.58"/><path fill="#8d8d8d" d="M49.5 769.5c1.762.762 2.762 2.096 3 4-1.762-.762-2.762-2.096-3-4Z" style="opacity:.451"/><path fill="#878787" d="M52.5 773.5a6.544 6.544 0 0 1 3 3c-2 0-3-1-3-3Z" style="opacity:.655"/><path fill="#8b8b8b" d="M601.5 773.5c-1.257 2.927-3.257 5.261-6 7 1.257-2.927 3.257-5.261 6-7Z" style="opacity:.6"/><path fill="#b8b8b8" d="M55.5 776.5c3 2.333 5.667 5 8 8-3.667-1.667-6.333-4.333-8-8Z" style="opacity:.533"/><path fill="#d7d7d7" d="M24.5 776.5c1.406.473 2.073 1.473 2 3-1.406-.473-2.073-1.473-2-3Z" style="opacity:.098"/><path fill="#fefffe" d="M625.5 783.5c1.333.667 1.333.667 0 0Z" style="opacity:.004"/><path fill="#868686" d="M594.5 781.5c-1.739 2.743-4.073 4.743-7 6 1.739-2.743 4.073-4.743 7-6Z" style="opacity:.557"/><path fill="#8f8f8f" d="M65.5 786.5c1.73.526 3.064 1.526 4 3-2.132-.054-3.465-1.054-4-3Z" style="opacity:.737"/><path fill="#969696" d="M587.5 787.5c-.762 1.762-2.096 2.762-4 3 .762-1.762 2.096-2.762 4-3Z" style="opacity:.494"/><path fill="#8f8f8f" d="M69.5 789.5c1.73.526 3.064 1.526 4 3-2.132-.054-3.465-1.054-4-3Z" style="opacity:.706"/><path fill="#a6a6a6" d="M583.5 790.5c-.473 1.406-1.473 2.073-3 2 .473-1.406 1.473-2.073 3-2Z" style="opacity:.529"/><path fill="#909090" d="M580.5 792.5c-.473 1.406-1.473 2.073-3 2 .473-1.406 1.473-2.073 3-2Z" style="opacity:.573"/><path fill="#c9c9c9" d="M39.5 795.5c1.406.473 2.073 1.473 2 3-1.406-.473-2.073-1.473-2-3Z" style="opacity:.055"/><path fill="#b9b9b9" d="M41.5 798.5c1.904.238 3.238 1.238 4 3-1.904-.238-3.238-1.238-4-3Z" style="opacity:.439"/><path fill="#888" d="M48.5 804.5c1.904.238 3.238 1.238 4 3-1.904-.238-3.238-1.238-4-3Z" style="opacity:.565"/><path fill="#d3d3d3" d="M104.5 805.5c6.863.138 13.53.804 20 2-6.905.293-13.572-.374-20-2Z" style="opacity:.029"/><path fill="#c2c2c2" d="M548.5 805.5c-6.094 1.594-12.428 2.261-19 2 6.141-1.136 12.474-1.803 19-2Z" style="opacity:.192"/><path fill="#909090" d="M52.5 807.5c1.904.238 3.238 1.238 4 3-1.904-.238-3.238-1.238-4-3Z" style="opacity:.651"/><path fill="#959595" d="M56.5 810.5c1.904.238 3.238 1.238 4 3a5.727 5.727 0 0 1-3-1l-1-2Z" style="opacity:.635"/><path fill="#fefffe" d="M598.5 810.5c1.333.667 1.333.667 0 0ZM597.5 811.5h1c-.185.67-.519.67-1 0ZM57.5 812.5c-.667.667-.667.667 0 0ZM594.5 813.5c1.333.667 1.333.667 0 0Z" style="opacity:.004"/><path fill="#b9b9b9" d="M62.5 814.5c1.527-.073 2.527.594 3 2-1.527.073-2.527-.594-3-2Z" style="opacity:.259"/><path fill="#c5c5c5" d="M69.5 818.5c1.653.16 2.986.826 4 2-1.88.271-3.213-.396-4-2Z" style="opacity:.2"/><path fill="#d6d6d6" d="M565.5 826.5c-2.015 1.424-4.348 2.09-7 2 2.015-1.424 4.348-2.09 7-2Z" style="opacity:.047"/><path fill="#d3d3d3" d="M558.5 828.5c-5.051 1.844-10.384 2.844-16 3 5.091-1.629 10.424-2.629 16-3Z" style="opacity:.051"/><path fill="#fdfdfd" d="M105.5 830.5c145.323.986 290.657 1.319 436 1a30683.296 30683.296 0 0 1-429 .5c-2.536-.186-4.869-.686-7-1.5Z" style="opacity:.064"/></svg>