<svg xmlns="http://www.w3.org/2000/svg" width="216" height="446" style="shape-rendering:geometricPrecision;text-rendering:geometricPrecision;image-rendering:optimizeQuality;fill-rule:evenodd;clip-rule:evenodd"><path style="opacity:.966" d="M35.5 4.5c48.001-.167 96.001 0 144 .5 16.169 4.5 25.669 15 28.5 31.5.667 123.667.667 247.333 0 371-2.942 16.942-12.775 27.442-29.5 31.5-47.667.667-95.333.667-143 0-15.714-4.38-25.214-14.547-28.5-30.5-.667-124-.667-248 0-372 3.048-16.541 12.548-27.208 28.5-32Z"/><path style="opacity:1" fill="#fb0d1b" d="M168.5 16.5a18988.861 18988.861 0 0 1-149 177v-156c2.306-10.476 8.64-17.31 19-20.5 43.332-.5 86.665-.667 130-.5Z"/><path style="opacity:1" fill="#ec111e" d="M168.5 16.5c5.526-.264 10.526 1.07 15 4a22424.306 22424.306 0 0 1-164 196v-23a18988.861 18988.861 0 0 0 149-177Z"/><path style="opacity:1" fill="#e31320" d="M183.5 20.5c2.589.92 4.589 2.586 6 5a12287.192 12287.192 0 0 1-170 203v-12a22424.306 22424.306 0 0 0 164-196Z"/><path style="opacity:1" fill="#dd1422" d="M189.5 25.5c1.826 1.648 3.16 3.648 4 6a4.934 4.934 0 0 1-.5 3 48355.518 48355.518 0 0 0-173.5 206v-12a12287.192 12287.192 0 0 0 170-203Z"/><path style="opacity:1" fill="#d71625" d="M193.5 31.5c1.424 2.014 2.09 4.348 2 7v6l-176 208v-12A48355.518 48355.518 0 0 1 193 34.5a4.934 4.934 0 0 0 .5-3Z"/><path style="opacity:1" fill="#cf1929" d="M195.5 44.5v15a25985.882 25985.882 0 0 0-176 208v-15l176-208Z"/><path style="opacity:1" fill="#ca1a2c" d="M195.5 59.5v9l-176 209v-10a25985.882 25985.882 0 0 1 176-208Z"/><path style="opacity:1" fill="#c41c2f" d="M195.5 68.5v11l-176 208v-10l176-209Z"/><path style="opacity:1" fill="#be1e33" d="M195.5 79.5v12a25985.882 25985.882 0 0 0-176 208v-12l176-208Z"/><path style="opacity:1" fill="#b82137" d="M195.5 91.5v10l-176 209v-11a25985.882 25985.882 0 0 1 176-208Z"/><path style="opacity:1" fill="#b2233b" d="M195.5 101.5v14a25985.882 25985.882 0 0 0-176 208v-13l176-209Z"/><path style="opacity:1" fill="#ab263f" d="M195.5 115.5v11a25985.882 25985.882 0 0 0-176 208v-11a25985.882 25985.882 0 0 1 176-208Z"/><path style="opacity:1" fill="#a62743" d="M195.5 126.5v7l-176 209v-8a25985.882 25985.882 0 0 1 176-208Z"/><path style="opacity:1" fill="#a12a46" d="M195.5 133.5v11l-176 209v-11l176-209Z"/><path style="opacity:1" fill="#9d2c49" d="M195.5 144.5v6A54907.876 54907.876 0 0 0 20 359.5a18.437 18.437 0 0 1-.5-6l176-209Z"/><path style="opacity:1" fill="#902a45" d="M19.5 37.5v316a18.437 18.437 0 0 0 .5 6 54907.876 54907.876 0 0 1 175.5-209v11A54907.876 54907.876 0 0 0 20 370.5a84.94 84.94 0 0 0-.5 13v22a16928.923 16928.923 0 0 1 0-368Z"/><path style="opacity:1" fill="#923050" d="M195.5 161.5v14a25985.882 25985.882 0 0 0-176 208 84.94 84.94 0 0 1 .5-13 54907.876 54907.876 0 0 1 175.5-209Z"/><path style="opacity:1" fill="#8c3355" d="M195.5 175.5c.354 4.137-.146 8.137-1.5 12a384066.641 384066.641 0 0 1-174.5 207v-11a25985.882 25985.882 0 0 1 176-208Z"/><path style="opacity:1" fill="#823455" d="M195.5 38.5a7227.464 7227.464 0 0 1 1 170h-1a72.367 72.367 0 0 0-.5-12 54907.876 54907.876 0 0 1-175.5 209v-11a384066.641 384066.641 0 0 0 174.5-207c1.354-3.863 1.854-7.863 1.5-12v-137Z"/><path style="opacity:1" fill="#7f395e" d="M195.5 208.5v2l-173 204c-1.572-2.715-2.572-5.715-3-9a54907.876 54907.876 0 0 0 175.5-209c.499 3.986.666 7.986.5 12Z"/><path style="opacity:1" fill="#793b62" d="M195.5 210.5v11a37509.516 37509.516 0 0 0-168 199c-2.39-1.391-4.057-3.391-5-6l173-204Z"/><path style="opacity:1" fill="#733d67" d="M195.5 221.5v13a1577254.802 1577254.802 0 0 1-160 191c-3.204-.883-5.87-2.55-8-5a37509.516 37509.516 0 0 1 168-199Z"/><path style="opacity:1" fill="#6a416e" d="M195.5 234.5v15a14482.679 14482.679 0 0 0-149 178c-3.989.384-7.655-.283-11-2 53.363-63.692 106.696-127.358 160-191Z"/><path style="opacity:1" fill="#624574" d="M195.5 249.5v20a11457.202 11457.202 0 0 0-133 158h-16a14482.679 14482.679 0 0 1 149-178Z"/><path style="opacity:1" fill="#5a497a" d="M195.5 269.5a31.116 31.116 0 0 1-1 11 12932.038 12932.038 0 0 0-123 147h-9a11457.202 11457.202 0 0 1 133-158Z"/><path style="opacity:1" fill="#4f4878" d="M195.5 208.5h1a9707.393 9707.393 0 0 1-1 197v-88c.166-8.673 0-17.34-.5-26a21483.115 21483.115 0 0 0-113.5 136h-10a12932.038 12932.038 0 0 1 123-147 31.116 31.116 0 0 0 1-11v-61Z"/><path style="opacity:1" fill="#495086" d="M195.5 317.5a7221.419 7221.419 0 0 0-92 110h-22a21483.115 21483.115 0 0 1 113.5-136c.5 8.66.666 17.327.5 26Z"/><path style="opacity:1" fill="#3d5691" d="M195.5 317.5v26a3251.759 3251.759 0 0 0-71 84h-21a7221.419 7221.419 0 0 1 92-110Z"/><path style="opacity:1" fill="#305d9b" d="M195.5 343.5v25a1082.066 1082.066 0 0 0-50 59h-21a3251.759 3251.759 0 0 1 71-84Z"/><path style="opacity:1" fill="#2165a7" d="M195.5 368.5v37c-2.065 11.899-9.065 19.066-21 21.5-9.661.5-19.328.666-29 .5a1082.066 1082.066 0 0 1 50-59Z"/></svg>