<svg xmlns="http://www.w3.org/2000/svg" width="654" height="836" style="shape-rendering:geometricPrecision;text-rendering:geometricPrecision;image-rendering:optimizeQuality;fill-rule:evenodd;clip-rule:evenodd"><path fill="#f1f1f1" d="M523.5 7.5c10.122-1.548 20.122-.882 30 2a183.526 183.526 0 0 0-30-2Z" style="opacity:.104"/><path fill="#c8c8c8" d="M133.5 7.5c-12.386-.156-24.72.51-37 2 3.764-1.332 7.764-2.165 12-2.5 8.51-.823 16.844-.657 25 .5Z" style="opacity:.473"/><path fill="#030303" d="M133.5 7.5h390a183.526 183.526 0 0 1 30 2c1.599-.268 2.932.066 4 1 3.695 1.932 7.695 3.265 12 4 1.28 1.431 2.947 2.098 5 2 3.244.963 6.244 2.296 9 4 .321 1.548 1.321 2.215 3 2a85.729 85.729 0 0 1 20 15 25.647 25.647 0 0 0 6 6c.333 1 1 1.667 2 2a78.236 78.236 0 0 1 15 21c-.073 1.527.594 2.527 2 3 2.092 2.588 3.425 5.588 4 9-.098 2.053.569 3.72 2 5 .904.709 1.237 1.709 1 3-.329 2.728.337 5.061 2 7 1.582 3.376 2.249 7.042 2 11a296.602 296.602 0 0 1 1 25v573a288.983 288.983 0 0 1-1 24 73.314 73.314 0 0 0-1 12v1c-1.663 1.938-2.329 4.272-2 7-.428 3.285-1.428 6.285-3 9-1.431 1.28-2.098 2.947-2 5-13.65 30.647-36.317 51.647-68 63-3.616.399-6.95 1.399-10 3-5.576.371-10.909 1.371-16 3-145.677.319-291.343-.014-437-1-3.127-1.081-6.46-1.747-10-2-7.904-1.299-15.238-3.966-22-8-1.681-1.508-3.681-2.508-6-3-.992.172-1.658-.162-2-1-.473-1.406-1.473-2.073-3-2-.473-1.406-1.473-2.073-3-2-.473-1.406-1.473-2.073-3-2-.762-1.762-2.096-2.762-4-3-.762-1.762-2.096-2.762-4-3a6.544 6.544 0 0 1-3-3c-.762-1.762-2.096-2.762-4-3 .073-1.527-.594-2.527-2-3a38.47 38.47 0 0 1-5.5-5 50.461 50.461 0 0 1-7.5-11c.073-1.527-.594-2.527-2-3-1.508-1.681-2.508-3.681-3-6-.16-1.653-.826-2.986-2-4-3.497-5.481-5.83-11.481-7-18a226.797 226.797 0 0 1-4-27 37144.19 37144.19 0 0 0 .5-472A1075.234 1075.234 0 0 1 5.5 182l.5-64.5c.717-.544 1.217-1.211 1.5-2 .002-6.023.335-12.023 1-18-.268-1.599.066-2.932 1-4 1.663-1.939 2.33-4.272 2-7 2.49-3.126 3.823-6.792 4-11-.172-.992.162-1.658 1-2 1.604-.787 2.27-2.12 2-4 1.406-.473 2.073-1.473 2-3-.172-.992.162-1.658 1-2 1.406-.473 2.073-1.473 2-3-.172-.992.162-1.658 1-2 1.762-.762 2.762-2.096 3-4a64.956 64.956 0 0 1 12-15c1.527.073 2.527-.594 3-2a6.541 6.541 0 0 1 3-3c2.249-.58 3.915-1.913 5-4a60.019 60.019 0 0 1 15-10c3.651-1.159 6.985-2.826 10-5 2.053.098 3.72-.569 5-2 3.285-.428 6.285-1.428 9-3 2.728.33 5.061-.337 7-2a277.822 277.822 0 0 1 37-2Zm440 36c.473 1.406 1.473 2.073 3 2 1.647 1.826 3.647 3.16 6 4 .473 1.406 1.473 2.073 3 2 1.739 2.743 4.073 4.743 7 6 .58 2.249 1.913 3.915 4 5a6.544 6.544 0 0 0 3 3c-.073 1.527.594 2.527 2 3 0 .667.333 1 1 1-.073 1.527.594 2.527 2 3 7.03 11.42 11.696 23.753 14 37-.08 20.138-.08 40.471 0 61-9.515-.327-18.848.006-28 1-2.671-.769-5.171-1.102-7.5-1-9.598.655-19.098 1.322-28.5 2-25.664-.43-51.331-.763-77-1a2733.652 2733.652 0 0 1-112.5 2 25923.03 25923.03 0 0 0-256.5 0h-77c.317-4.202-.017-8.202-1-12v-38c1.572-7.119 2.572-14.453 3-22 .806-1.497 1.472-3.164 2-5-.124-.607-.457-.94-1-1 3.212-10.1 8.212-19.1 15-27a26.006 26.006 0 0 1 5-7c1.406-.473 2.073-1.473 2-3 4.69-3.697 9.358-7.364 14-11 1.527.073 2.527-.594 3-2 1.527.073 2.527-.594 3-2 13.022-7.256 27.022-11.09 42-11.5 137.333-.667 274.667-.667 412 0 15.242.56 29.575 4.393 43 11.5Zm22 152h11c3.798.983 7.798 1.317 12 1v522a54.968 54.968 0 0 0-1 12c-1.705 11.067-5.372 21.401-11 31-1.406.473-2.073 1.473-2 3-1.406.473-2.073 1.473-2 3l-2 1a5.727 5.727 0 0 0-1 3c-2.743 1.739-4.743 4.073-6 7-.667 0-1 .333-1 1-2.927 1.257-5.261 3.257-7 6-1.904.238-3.238 1.238-4 3-1.527-.073-2.527.594-3 2-.992-.172-1.658.162-2 1-1.527-.073-2.527.594-3 2-12.677 7.088-26.343 10.921-41 11.5-138.333.667-276.667.667-415 0-13.874-.55-26.874-4.05-39-10.5-.79-.901-1.79-1.568-3-2-1.014-1.174-2.347-1.84-4-2-.936-1.474-2.27-2.474-4-3-.936-1.474-2.27-2.474-4-3-.333-1-1-1.667-2-2-2.333-3-5-5.667-8-8a6.544 6.544 0 0 0-3-3c-.238-1.904-1.238-3.238-3-4 .073-1.527-.594-2.527-2-3 .073-1.527-.594-2.527-2-3 .172-.992-.162-1.658-1-2 .073-1.527-.594-2.527-2-3-2.625-6.573-4.958-12.907-7-19 .597-.235.93-.735 1-1.5a251.452 251.452 0 0 0-4-19.5v-505c.983-3.798 1.317-7.798 1-12 28.505.331 56.838-.002 85-1 3.228-.914 6.561-1.247 10-1 .834 1.248 2.167 1.915 4 2 22.157-.624 44.157-1.291 66-2 82.596-.997 165.263-1.33 248-1 41.882.753 81.049 1.086 117.5 1 11.265-.657 22.431-1.323 33.5-2Zm-255 112a332.457 332.457 0 0 1 42 8c1.602 1.574 3.602 2.241 6 2 3.611 2.431 7.611 4.097 12 5 2.588 2.125 5.588 3.458 9 4 2.349 1.841 5.015 3.174 8 4 .473 1.406 1.473 2.073 3 2 .342.838 1.008 1.172 2 1 .473 1.406 1.473 2.073 3 2 .473 1.406 1.473 2.073 3 2 .473 1.406 1.473 2.073 3 2 .762 1.762 2.096 2.762 4 3 .762 1.762 2.096 2.762 4 3 .762 1.762 2.096 2.762 4 3 0 .667.333 1 1 1 1.739 2.743 4.073 4.743 7 6 1 1.667 2.333 3 4 4l3 4c-.438-.065-.772.101-1 .5l2.5 2.5c.399-.228.565-.562.5-1l4 3c.58 2.249 1.913 3.915 4 5 2.012 2.705 4.012 5.372 6 8 .526 1.73 1.526 3.064 3 4 0 .667.333 1 1 1-.073 1.527.594 2.527 2 3-.073 1.527.594 2.527 2 3-.073 1.527.594 2.527 2 3 .25 2.174 1.25 3.841 3 5a245.284 245.284 0 0 1 15 33c.172.992-.162 1.658-1 2 .172-.992-.162-1.658-1-2 .039-2.589-.961-4.589-3-6-2.107-.968-4.441-1.302-7-1v9a101.401 101.401 0 0 1-5 13c-1.762.762-2.762 2.096-3 4a3741.969 3741.969 0 0 1-8 7c-1.527-.073-2.527.594-3 2a150.922 150.922 0 0 1-18 7 105.651 105.651 0 0 1-29 0 183.677 183.677 0 0 1-17-7c-.473-1.406-1.473-2.073-3-2-.762-1.762-2.096-2.762-4-3-1-1.667-2.333-3-4-4 .073-1.527-.594-2.527-2-3 .073-1.527-.594-2.527-2-3-.16-1.653-.826-2.986-2-4a66.444 66.444 0 0 1-2-16h-13v7c-.99 3.239-1.99 6.572-3 10-1.75 1.159-2.75 2.826-3 5a57.51 57.51 0 0 0-9 9c-1.527-.073-2.527.594-3 2-1.527-.073-2.527.594-3 2-1.653.16-2.986.826-4 2a79.262 79.262 0 0 0-12 4h-2a87.798 87.798 0 0 1-31-1 2507.794 2507.794 0 0 0-12-5c-.473-1.406-1.473-2.073-3-2-.936-1.474-2.27-2.474-4-3-2.333-3-5-5.667-8-8 .073-1.527-.594-2.527-2-3 .172-.992-.162-1.658-1-2a1033.42 1033.42 0 0 0-3-10v-7a40.914 40.914 0 0 0-9 .5 40.03 40.03 0 0 0-3 11.5c-1.174 1.014-1.84 2.347-2 4-1.826 1.647-3.16 3.647-4 6a3741.969 3741.969 0 0 1-8 7c-1.527-.073-2.527.594-3 2-2.985.826-5.651 2.159-8 4-3.548.63-6.881 1.63-10 3a184.69 184.69 0 0 1-21 1h-1c-3.446-1.187-7.113-1.854-11-2-1.28-1.431-2.947-2.098-5-2-2.349-1.841-5.015-3.174-8-4-.473-1.406-1.473-2.073-3-2-.473-1.406-1.473-2.073-3-2-1.333-2-3-3.667-5-5-.238-1.904-1.238-3.238-3-4-.492-2.319-1.492-4.319-3-6a65.102 65.102 0 0 0-2.5-11c-2.394-.636-4.894-.636-7.5 0a16.339 16.339 0 0 0 2-5c1.431-1.28 2.098-2.947 2-5 2.508-3.682 4.508-7.682 6-12 1.406-.473 2.073-1.473 2-3 1.174-1.014 1.84-2.347 2-4 1.406-.473 2.073-1.473 2-3 1.406-.473 2.073-1.473 2-3 .901-.79 1.568-1.79 2-3 1.406-.473 2.073-1.473 2-3a120.938 120.938 0 0 1 17-20c-.065.438.101.772.5 1l2.5-2.5c-.228-.399-.562-.565-1-.5 9.853-11.192 21.187-20.525 34-28 .473-1.406 1.473-2.073 3-2a129.073 129.073 0 0 1 13-8c2.741-.207 5.074-1.207 7-3 .992.172 1.658-.162 2-1 2.053.098 3.72-.569 5-2a176.645 176.645 0 0 0 20-7h1c20.372-4.822 41.038-6.822 62-6Z" style="opacity:.995"/><path fill="#aaa" d="M96.5 9.5c-1.939 1.663-4.272 2.33-7 2 2.014-1.424 4.348-2.09 7-2Z" style="opacity:.624"/><path fill="#d7d7d7" d="M89.5 11.5c-2.715 1.572-5.715 2.572-9 3 2.584-1.973 5.584-2.973 9-3Z" style="opacity:.092"/><path fill="#cfcfcf" d="M557.5 10.5c4.415.36 8.415 1.694 12 4-4.305-.735-8.305-2.068-12-4Z" style="opacity:.078"/><path fill="#bababa" d="M80.5 14.5c-1.28 1.431-2.947 2.098-5 2 1.28-1.431 2.947-2.098 5-2Z" style="opacity:.314"/><path fill="#c5c5c5" d="M569.5 14.5c2.053-.098 3.72.569 5 2-2.053.098-3.72-.569-5-2Z" style="opacity:.275"/><path fill="#d1d1d1" d="M75.5 16.5c-3.015 2.174-6.349 3.841-10 5 2.747-2.707 6.08-4.373 10-5Z" style="opacity:.092"/><path fill="#7e7e7e" d="M583.5 20.5c1.21.432 2.21 1.099 3 2-1.679.215-2.679-.452-3-2Z" style="opacity:.804"/><path fill="#818181" d="M50.5 31.5c-1.085 2.087-2.751 3.42-5 4 1.085-2.087 2.751-3.42 5-4Z" style="opacity:.612"/><path fill="#bfbfbf" d="M606.5 37.5c3 1 5 3 6 6a25.647 25.647 0 0 1-6-6Z" style="opacity:.02"/><path fill="#a6a6a6" d="M42.5 38.5c-.473 1.406-1.473 2.073-3 2 .473-1.406 1.473-2.073 3-2Z" style="opacity:.573"/><path fill="#030403" d="M23.5 43.5c1.333.667 1.333.667 0 0Z" style="opacity:.008"/><path fill="#cdcdcd" d="M612.5 43.5c1.333 0 2 .667 2 2-1-.333-1.667-1-2-2Z" style="opacity:.004"/><path fill="#030403" d="M23.5 44.5c-.667.667-.667.667 0 0Z" style="opacity:.016"/><path fill="#e8e8e8" d="M76.5 43.5c-.473 1.406-1.473 2.073-3 2 .473-1.406 1.473-2.073 3-2Z" style="opacity:.047"/><path fill="#cfcfcf" d="M573.5 43.5c1.527-.073 2.527.594 3 2-1.527.073-2.527-.594-3-2Z" style="opacity:.204"/><path fill="#f3f3f3" d="M73.5 45.5c-.473 1.406-1.473 2.073-3 2 .473-1.406 1.473-2.073 3-2Z" style="opacity:.076"/><path fill="#cfcfcf" d="M576.5 45.5c2.698.345 4.698 1.678 6 4-2.353-.84-4.353-2.174-6-4Z" style="opacity:.184"/><path fill="#c1c1c1" d="M582.5 49.5c1.527-.073 2.527.594 3 2-1.527.073-2.527-.594-3-2Z" style="opacity:.235"/><path fill="#9e9e9e" d="M585.5 51.5c2.927 1.257 5.261 3.257 7 6-2.927-1.257-5.261-3.257-7-6Z" style="opacity:.698"/><path fill="#959595" d="M27.5 55.5c-.238 1.904-1.238 3.238-3 4 .238-1.904 1.238-3.238 3-4Z" style="opacity:.694"/><path fill="#c8c8c8" d="M592.5 57.5c2.087 1.085 3.42 2.751 4 5-2.087-1.085-3.42-2.751-4-5Z" style="opacity:.031"/><path fill="#d7d7d7" d="M56.5 58.5c.073 1.527-.594 2.527-2 3-.073-1.527.594-2.527 2-3Z" style="opacity:.067"/><path fill="#b4b4b4" d="M23.5 61.5c.073 1.527-.594 2.527-2 3-.073-1.527.594-2.527 2-3Z" style="opacity:.282"/><path fill="#b4b4b4" d="M20.5 66.5c.073 1.527-.594 2.527-2 3-.073-1.527.594-2.527 2-3Z" style="opacity:.486"/><path fill="#ccc" d="M599.5 65.5c1.406.473 2.073 1.473 2 3-1.406-.473-2.073-1.473-2-3Z" style="opacity:.102"/><path fill="#c7c7c7" d="M629.5 66.5c1.406.473 2.073 1.473 2 3-1.406-.473-2.073-1.473-2-3Z" style="opacity:.184"/><path fill="#cacaca" d="M602.5 69.5c1.406.473 2.073 1.473 2 3-1.406-.473-2.073-1.473-2-3Z" style="opacity:.004"/><path fill="#f2f2f2" d="M18.5 69.5c.27 1.88-.396 3.213-2 4 .16-1.653.826-2.986 2-4Z" style="opacity:.1"/><path fill="#ebebeb" d="M635.5 78.5c1.431 1.28 2.098 2.947 2 5-1.431-1.28-2.098-2.947-2-5Z" style="opacity:.053"/><path fill="#959595" d="M15.5 75.5c-.177 4.208-1.51 7.874-4 11 .565-4.037 1.899-7.703 4-11Z" style="opacity:.647"/><path fill="#050505" d="M248.5 89.5c1.647 1.826 3.647 3.16 6 4 .31 1.644 1.31 2.644 3 3 .919 2.59 2.586 4.589 5 6 1.174 1.014 1.84 2.347 2 4 .16 1.653.826 2.986 2 4 1.424 2.015 2.09 4.348 2 7a72.257 72.257 0 0 1-2 19c-3.965 11.298-11.632 18.965-23 23-2.398-.241-4.398.426-6 2h-1a118.435 118.435 0 0 1-16-1c-1.291.237-2.291-.096-3-1-1.014-1.174-2.347-1.84-4-2-2.174-.25-3.841-1.25-5-3-1.085-2.087-2.751-3.42-5-4a6.547 6.547 0 0 1-3-3c.073-1.527-.594-2.527-2-3-.838-.342-1.172-1.008-1-2 .073-1.527-.594-2.527-2-3a65.164 65.164 0 0 1-3-23c1.972-2.584 2.972-5.584 3-9-.172-.992.162-1.658 1-2 1.406-.473 2.073-1.473 2-3 1.406-.473 2.073-1.473 2-3a6.544 6.544 0 0 1 3-3c2.254-.624 3.921-1.957 5-4 .626-1.029 1.459-2.029 2.5-3l1 1c8.566-5.122 17.732-6.622 27.5-4.5a91.399 91.399 0 0 1 9 3.5ZM132.5 88.5c1.43 1.037 3.097 1.704 5 2h1c1.647 1.826 3.647 3.16 6 4 .31 1.644 1.31 2.644 3 3 .919 2.589 2.586 4.589 5 6 1.174 1.014 1.84 2.347 2 4 .16 1.653.826 2.986 2 4 1.424 2.015 2.09 4.348 2 7a72.257 72.257 0 0 1-2 19c-3.965 11.298-11.632 18.965-23 23-2.398-.241-4.398.426-6 2h-1a118.435 118.435 0 0 1-16-1c-2.286-.095-4.286-.762-6-2-.473-1.406-1.473-2.073-3-2-.992.172-1.658-.162-2-1-1.41-2.414-3.41-4.081-6-5a6.544 6.544 0 0 1-3-3c.073-1.527-.594-2.527-2-3-.838-.342-1.172-1.008-1-2 .073-1.527-.594-2.527-2-3a65.15 65.15 0 0 1-3-23c1.972-2.584 2.972-5.584 3-9-.172-.992.162-1.658 1-2 1.406-.473 2.073-1.473 2-3 1.28-2.947 3.28-5.28 6-7 1.904-.238 3.238-1.238 4-3 1.21-.432 2.21-1.099 3-2 8.697-4.71 18.03-6.21 28-4.5l3 1.5Z" style="opacity:.997"/><path fill="#a6a6a6" d="M132.5 88.5c2.198-.38 3.865.287 5 2-1.903-.296-3.57-.963-5-2Z" style="opacity:.424"/><path fill="#b3b3b3" d="M11.5 86.5c.33 2.728-.337 5.061-2 7-.09-2.652.576-4.986 2-7Z" style="opacity:.608"/><path fill="#ddd" d="M248.5 89.5c2.698.345 4.698 1.678 6 4-2.353-.84-4.353-2.174-6-4Z" style="opacity:.035"/><path fill="#b3b3b3" d="M638.5 86.5c1.424 2.014 2.09 4.348 2 7-1.663-1.939-2.329-4.272-2-7Z" style="opacity:.447"/><path fill="#d0d0d0" d="M101.5 91.5c-.79.901-1.79 1.568-3 2-.13-.876.203-1.543 1-2 .929-1.05 1.595-1.05 2 0Z" style="opacity:.396"/><path fill="#ddd" d="M138.5 90.5c2.698.345 4.698 1.678 6 4-2.353-.84-4.353-2.174-6-4Z" style="opacity:.053"/><path fill="#9d9d9d" d="M208.5 92.5c-1.079 2.043-2.746 3.376-5 4 1.039-2.031 2.705-3.365 5-4Z" style="opacity:.671"/><path fill="#8a8a8a" d="M98.5 93.5c-.762 1.762-2.096 2.762-4 3 .762-1.762 2.096-2.762 4-3Z" style="opacity:.686"/><path fill="#c6c6c6" d="M254.5 93.5c1.69.356 2.69 1.356 3 3-1.69-.356-2.69-1.356-3-3ZM144.5 94.5c1.69.356 2.69 1.356 3 3-1.69-.356-2.69-1.356-3-3Z" style="opacity:.004"/><path fill="#d3d3d3" d="M34.5 95.5c.543.06.876.393 1 1-.528 1.836-1.194 3.503-2 5-.295-2.235.039-4.235 1-6Z" style="opacity:.017"/><path fill="#9f9f9f" d="M257.5 96.5c2.414 1.41 4.081 3.41 5 6-2.414-1.411-4.081-3.41-5-6Z" style="opacity:.471"/><path fill="#9f9f9f" d="M147.5 97.5c2.414 1.41 4.081 3.411 5 6-2.414-1.411-4.081-3.411-5-6Z" style="opacity:.49"/><path fill="#c5c5c5" d="M200.5 99.5c.073 1.527-.594 2.527-2 3-.073-1.527.594-2.527 2-3Z" style="opacity:.31"/><path fill="#c4c4c4" d="M198.5 102.5c.073 1.527-.594 2.527-2 3-.073-1.527.594-2.527 2-3Z" style="opacity:.451"/><path fill="#c4c4c4" d="M88.5 103.5c.073 1.527-.594 2.527-2 3-.073-1.527.594-2.527 2-3Z" style="opacity:.463"/><path fill="#d9d9d9" d="M33.5 101.5c-.428 7.547-1.428 14.881-3 22a121.294 121.294 0 0 1 1.5-20c.278-.916.778-1.582 1.5-2Z" style="opacity:.026"/><path fill="#b4b4b4" d="M264.5 106.5c1.604.787 2.271 2.12 2 4-1.174-1.014-1.84-2.347-2-4Z" style="opacity:.239"/><path fill="#b4b4b4" d="M154.5 107.5c1.604.787 2.271 2.12 2 4-1.174-1.014-1.84-2.347-2-4Z" style="opacity:.231"/><path fill="silver" d="M8.5 97.5a163.247 163.247 0 0 0-1 18c-1.193-.47-1.86-1.47-2-3 .549-5.225 1.549-10.225 3-15Z" style="opacity:.427"/><path fill="#b3b3b3" d="M195.5 107.5c-.028 3.416-1.028 6.416-3 9 .028-3.416 1.028-6.416 3-9Z" style="opacity:.69"/><path fill="#ececec" d="M642.5 104.5c1.454 4.923 2.121 10.089 2 15.5-.002 3.352-.335 6.518-1 9.5a296.602 296.602 0 0 0-1-25Z" style="opacity:.073"/><path fill="#b3b3b3" d="M85.5 108.5c-.028 3.416-1.028 6.416-3 9 .028-3.416 1.028-6.416 3-9Z" style="opacity:.71"/><path fill="#f6f6f6" d="M618.5 109.5a995.08 995.08 0 0 1 1 62h-29c9.152-.994 18.485-1.327 28-1-.08-20.529-.08-40.862 0-61Z" style="opacity:.033"/><path fill="#e1e1e1" d="M268.5 117.5c1.593 6.538.927 12.871-2 19a72.257 72.257 0 0 0 2-19Z" style="opacity:.082"/><path fill="#e1e1e1" d="M158.5 118.5c1.593 6.538.927 12.871-2 19a72.257 72.257 0 0 0 2-19Z" style="opacity:.108"/><path fill="#e5e5e5" d="M192.5 116.5a65.164 65.164 0 0 0 3 23c-1.828-2.635-2.995-5.635-3.5-9-.815-4.852-.648-9.519.5-14ZM82.5 117.5a65.15 65.15 0 0 0 3 23c-1.828-2.635-2.995-5.635-3.5-9-.815-4.852-.648-9.519.5-14Z" style="opacity:.22"/><path fill="#cfcfcf" d="M195.5 139.5c1.406.473 2.073 1.473 2 3-1.406-.473-2.073-1.473-2-3Z" style="opacity:.243"/><path fill="#cfcfcf" d="M85.5 140.5c1.406.473 2.073 1.473 2 3-1.406-.473-2.073-1.473-2-3Z" style="opacity:.231"/><path fill="#d7d7d7" d="M198.5 144.5c1.406.473 2.073 1.473 2 3-1.406-.473-2.073-1.473-2-3Z" style="opacity:.012"/><path fill="#d7d7d7" d="M88.5 145.5c1.406.473 2.073 1.473 2 3-1.406-.473-2.073-1.473-2-3Z" style="opacity:.035"/><path fill="#7e7e7e" d="M203.5 150.5c2.249.58 3.915 1.913 5 4-2.249-.58-3.915-1.913-5-4Z" style="opacity:.788"/><path fill="#a6a6a6" d="M93.5 151.5c2.59.919 4.59 2.586 6 5-1.562-.233-2.895-.9-4-2l-2-3Z" style="opacity:.298"/><path fill="#cfcfcf" d="M101.5 157.5c1.527-.073 2.527.594 3 2-1.527.073-2.527-.594-3-2Z" style="opacity:.188"/><path fill="#bfbfbf" d="M213.5 157.5c1.653.16 2.986.826 4 2-1.88.271-3.213-.396-4-2Z" style="opacity:.192"/><path fill="#dadada" d="M243.5 159.5c-1.714 1.238-3.714 1.905-6 2 1.602-1.574 3.602-2.241 6-2Z" style="opacity:.069"/><path fill="#dadada" d="M133.5 160.5c-1.714 1.238-3.714 1.905-6 2 1.602-1.574 3.602-2.241 6-2Z" style="opacity:.067"/><path fill="#ededed" d="M220.5 160.5a118.435 118.435 0 0 0 16 1c-1.804.662-3.804.995-6 1-3.617.102-6.95-.565-10-2Z" style="opacity:.1"/><path fill="#ededed" d="M110.5 161.5a118.435 118.435 0 0 0 16 1c-1.804.662-3.804.995-6 1-3.617.102-6.95-.565-10-2Z" style="opacity:.097"/><path fill="#555" d="M590.5 171.5c-11.822.995-23.822 1.328-36 1 9.402-.678 18.902-1.345 28.5-2 2.329-.102 4.829.231 7.5 1Z" style="opacity:.614"/><path fill="#b8b8b8" d="M30.5 161.5c.983 3.798 1.317 7.798 1 12h77a1521.522 1521.522 0 0 1-78 1v-13Z" style="opacity:.204"/><path fill="#b7b7b7" d="M595.5 195.5c-11.069.677-22.235 1.343-33.5 2-36.451.086-75.618-.247-117.5-1a6240.005 6240.005 0 0 1 151-1Z" style="opacity:.206"/><path fill="#fefefe" d="M606.5 195.5h13v523h-1v-522c-4.202.317-8.202-.017-12-1Z" style="opacity:.035"/><path fill="#d9d9d9" d="M126.5 197.5h70c-21.843.709-43.843 1.376-66 2-1.833-.085-3.166-.752-4-2Z" style="opacity:.177"/><path fill="#fefffe" d="M116.5 198.5a1807.262 1807.262 0 0 1-85 1c.317 4.202-.017 8.202-1 12v-13h86Z" style="opacity:.073"/><path fill="#cfcfcf" d="m358.5 288.5-20-1a2.428 2.428 0 0 1 .5-2c6.61.906 13.11 1.906 19.5 3Z" style="opacity:.061"/><path fill="silver" d="M314.5 287.5c-6.345.153-12.678.486-19 1a205.443 205.443 0 0 1 18.5-3c.464.594.631 1.261.5 2Z" style="opacity:.469"/><path fill="#0a0a0a" d="M314.5 287.5h24l20 1c14.132 2.272 27.799 5.938 41 11a183.21 183.21 0 0 0 20 9c2.985.826 5.651 2.159 8 4 .321 1.548 1.321 2.215 3 2a38.198 38.198 0 0 1 10 6c.535 1.946 1.868 2.946 4 3a141.893 141.893 0 0 1 13 10c1.085 2.087 2.751 3.42 5 4 3 2.333 5.667 5 8 8a6.547 6.547 0 0 0 3 3 25.658 25.658 0 0 1 6 6c-.073 1.527.594 2.527 2 3 2 1.333 3.667 3 5 5-.073 1.527.594 2.527 2 3 .238 1.904 1.238 3.238 3 4 .238 1.904 1.238 3.238 3 4 .238 1.904 1.238 3.238 3 4 .238 1.904 1.238 3.238 3 4-.073 1.527.594 2.527 2 3 .838.342 1.172 1.008 1 2-.073 1.527.594 2.527 2 3a101.395 101.395 0 0 1 10 21c-.073 1.527.594 2.527 2 3 .61.891.943 1.891 1 3-.38 2.198.287 3.865 2 5 .904.709 1.237 1.709 1 3-.38 2.198.287 3.865 2 5 1.424 2.015 2.09 4.348 2 7-.329 2.728.337 5.062 2 7 1.746 4.389 2.746 9.056 3 14 .124 4.549.791 8.882 2 13 2.019 24.524.686 48.857-4 73-.065 2.928-.732 5.595-2 8-1.424 2.015-2.09 4.348-2 7a195.074 195.074 0 0 1-18 42c-1.75 1.159-2.75 2.826-3 5-1.75 1.159-2.75 2.826-3 5a208.14 208.14 0 0 1-14 20c-1 .333-1.667 1-2 2-1.474.936-2.474 2.27-3 4-1 .333-1.667 1-2 2-1 .333-1.667 1-2 2-.667 0-1 .333-1 1a338.68 338.68 0 0 1-23 21c-1.73.526-3.064 1.526-4 3-.667 0-1 .333-1 1a123.321 123.321 0 0 1-18 11c-1.527-.073-2.527.594-3 2-.342.838-1.008 1.172-2 1-2.985.826-5.651 2.159-8 4a181.065 181.065 0 0 1-45 16c-4.624.263-8.958 1.263-13 3h-1c-7.327.444-14.66.777-22 1a67.938 67.938 0 0 0-21.5 2 53.508 53.508 0 0 1-4.5-1c-5.116-1.306-10.449-1.973-16-2-4.756-1.618-9.756-2.618-15-3-1.599.268-2.932-.066-4-1-1.938-1.663-4.272-2.329-7-2-1.602-1.574-3.602-2.241-6-2-9.478-2.709-18.478-6.376-27-11-2.349-1.841-5.015-3.174-8-4-.992.172-1.658-.162-2-1-1.159-1.75-2.826-2.75-5-3-.473-1.406-1.473-2.073-3-2-.473-1.406-1.473-2.073-3-2-.473-1.406-1.473-2.073-3-2-.762-1.762-2.096-2.762-4-3-.762-1.762-2.096-2.762-4-3-.667 0-1-.333-1-1-.473-1.406-1.473-2.073-3-2-2.254-.624-3.921-1.957-5-4-2.069-3.073-4.736-5.406-8-7-1.667-1-3-2.333-4-4a6.547 6.547 0 0 0-3-3c-2.667-2-5-4.333-7-7-.238-1.904-1.238-3.238-3-4a36.883 36.883 0 0 1-9-11c.073-1.527-.594-2.527-2-3-.667 0-1-.333-1-1 .073-1.527-.594-2.527-2-3-.054-2.132-1.054-3.465-3-4-.838-.342-1.172-1.008-1-2 .073-1.527-.594-2.527-2-3-.25-2.174-1.25-3.841-3-5a35.158 35.158 0 0 1-5-10c-.16-1.653-.826-2.986-2-4-7.699-14.761-13.032-30.427-16-47a345.008 345.008 0 0 1-4-60v-2c1.645-4.734 2.311-9.734 2-15 1.717-3.345 2.384-7.011 2-11 .398-4.261 1.398-8.261 3-12 3.102-6.302 5.436-12.969 7-20a153.796 153.796 0 0 1 14-30c1.75-1.159 2.75-2.826 3-5 1.406-.473 2.073-1.473 2-3 1.406-.473 2.073-1.473 2-3 2.087-1.085 3.42-2.751 4-5 1.762-.762 2.762-2.096 3-4 6.893-9.898 14.893-18.898 24-27 3.264-1.594 5.931-3.927 8-7 .333-1 1-1.667 2-2 1.527.073 2.527-.594 3-2 0-.667.333-1 1-1 1.527.073 2.527-.594 3-2a46.493 46.493 0 0 1 9-7c1.527.073 2.527-.594 3-2 1.527.073 2.527-.594 3-2 1.527.073 2.527-.594 3-2 .342-.838 1.008-1.172 2-1 1.527.073 2.527-.594 3-2 1.014-1.174 2.347-1.84 4-2 4.318-1.492 8.318-3.492 12-6 4.99-1.435 9.656-3.435 14-6a191.878 191.878 0 0 1 40-10 333.668 333.668 0 0 1 19-1Zm26 20a332.457 332.457 0 0 1 42 8c1.602 1.574 3.602 2.241 6 2 3.611 2.431 7.611 4.097 12 5 2.588 2.125 5.588 3.458 9 4 2.349 1.841 5.015 3.174 8 4 .473 1.406 1.473 2.073 3 2 .342.838 1.008 1.172 2 1 .473 1.406 1.473 2.073 3 2 .473 1.406 1.473 2.073 3 2 .473 1.406 1.473 2.073 3 2 .762 1.762 2.096 2.762 4 3 .762 1.762 2.096 2.762 4 3 .762 1.762 2.096 2.762 4 3 0 .667.333 1 1 1 1.739 2.743 4.073 4.743 7 6 1 1.667 2.333 3 4 4l3 4c-.438-.065-.772.101-1 .5l2.5 2.5c.399-.228.565-.562.5-1l4 3c.58 2.249 1.913 3.915 4 5 2.012 2.705 4.012 5.372 6 8 .526 1.73 1.526 3.064 3 4 0 .667.333 1 1 1-.073 1.527.594 2.527 2 3-.073 1.527.594 2.527 2 3-.073 1.527.594 2.527 2 3 .25 2.174 1.25 3.841 3 5a245.284 245.284 0 0 1 15 33c.172.992-.162 1.658-1 2 .172-.992-.162-1.658-1-2 .039-2.589-.961-4.589-3-6-2.107-.968-4.441-1.302-7-1v9a101.401 101.401 0 0 1-5 13c-1.762.762-2.762 2.096-3 4a3741.969 3741.969 0 0 1-8 7c-1.527-.073-2.527.594-3 2a150.922 150.922 0 0 1-18 7 105.651 105.651 0 0 1-29 0 183.677 183.677 0 0 1-17-7c-.473-1.406-1.473-2.073-3-2-.762-1.762-2.096-2.762-4-3-1-1.667-2.333-3-4-4 .073-1.527-.594-2.527-2-3 .073-1.527-.594-2.527-2-3-.16-1.653-.826-2.986-2-4a66.444 66.444 0 0 1-2-16h-13v7c-.99 3.239-1.99 6.572-3 10-1.75 1.159-2.75 2.826-3 5a57.51 57.51 0 0 0-9 9c-1.527-.073-2.527.594-3 2-1.527-.073-2.527.594-3 2-1.653.16-2.986.826-4 2a79.262 79.262 0 0 0-12 4h-2a87.798 87.798 0 0 1-31-1 2507.794 2507.794 0 0 0-12-5c-.473-1.406-1.473-2.073-3-2-.936-1.474-2.27-2.474-4-3-2.333-3-5-5.667-8-8 .073-1.527-.594-2.527-2-3 .172-.992-.162-1.658-1-2a1033.42 1033.42 0 0 0-3-10v-7a40.914 40.914 0 0 0-9 .5 40.03 40.03 0 0 0-3 11.5c-1.174 1.014-1.84 2.347-2 4-1.826 1.647-3.16 3.647-4 6a3741.969 3741.969 0 0 1-8 7c-1.527-.073-2.527.594-3 2-2.985.826-5.651 2.159-8 4-3.548.63-6.881 1.63-10 3a184.69 184.69 0 0 1-21 1h-1c-3.446-1.187-7.113-1.854-11-2-1.28-1.431-2.947-2.098-5-2-2.349-1.841-5.015-3.174-8-4-.473-1.406-1.473-2.073-3-2-.473-1.406-1.473-2.073-3-2-1.333-2-3-3.667-5-5-.238-1.904-1.238-3.238-3-4-.492-2.319-1.492-4.319-3-6a65.102 65.102 0 0 0-2.5-11c-2.394-.636-4.894-.636-7.5 0a16.339 16.339 0 0 0 2-5c1.431-1.28 2.098-2.947 2-5 2.508-3.682 4.508-7.682 6-12 1.406-.473 2.073-1.473 2-3 1.174-1.014 1.84-2.347 2-4 1.406-.473 2.073-1.473 2-3 1.406-.473 2.073-1.473 2-3 .901-.79 1.568-1.79 2-3 1.406-.473 2.073-1.473 2-3a120.938 120.938 0 0 1 17-20c-.065.438.101.772.5 1l2.5-2.5c-.228-.399-.562-.565-1-.5 9.853-11.192 21.187-20.525 34-28 .473-1.406 1.473-2.073 3-2a129.073 129.073 0 0 1 13-8c2.741-.207 5.074-1.207 7-3 .992.172 1.658-.162 2-1 2.053.098 3.72-.569 5-2a176.645 176.645 0 0 0 20-7h1c20.372-4.822 41.038-6.822 62-6Z" style="opacity:.995"/><path fill="#dbdbdb" d="M399.5 299.5a23.91 23.91 0 0 1 9 2.5c4.027 1.676 7.694 3.842 11 6.5a183.21 183.21 0 0 1-20-9Z" style="opacity:.02"/><path fill="#dfdfdf" d="M255.5 298.5c-4.344 2.565-9.01 4.565-14 6 4.157-2.949 8.823-4.949 14-6Z" style="opacity:.031"/><path fill="#e2e2e2" d="M241.5 304.5c-3.682 2.508-7.682 4.508-12 6 3.414-3.04 7.414-5.04 12-6Z" style="opacity:.071"/><path fill="#d3d3d3" d="M340.5 307.5c-20.962-.822-41.628 1.178-62 6 1.648-1.427 3.648-2.26 6-2.5 18.631-4.29 37.298-5.457 56-3.5Z" style="opacity:.075"/><path fill="#bdbdbd" d="M225.5 312.5c-.473 1.406-1.473 2.073-3 2 .473-1.406 1.473-2.073 3-2Z" style="opacity:.443"/><path fill="#7e7e7e" d="M427.5 312.5c1.21.432 2.21 1.099 3 2-1.679.215-2.679-.452-3-2Z" style="opacity:.769"/><path fill="#b6b6b6" d="M220.5 315.5c-.473 1.406-1.473 2.073-3 2 .473-1.406 1.473-2.073 3-2Z" style="opacity:.471"/><path fill="#e5e5e5" d="M277.5 313.5a176.645 176.645 0 0 1-20 7c6.169-3.502 12.835-5.835 20-7Z" style="opacity:.061"/><path fill="#e0e0e0" d="M382.5 315.5c2.286.095 4.286.762 6 2-2.398.241-4.398-.426-6-2Z" style="opacity:.057"/><path fill="#a6a6a6" d="M217.5 317.5c-.473 1.406-1.473 2.073-3 2 .473-1.406 1.473-2.073 3-2Z" style="opacity:.588"/><path fill="#ddd" d="M388.5 317.5c4.389.903 8.389 2.569 12 5-4.389-.903-8.389-2.569-12-5Z" style="opacity:.073"/><path fill="#909090" d="M214.5 319.5c-.473 1.406-1.473 2.073-3 2 .473-1.406 1.473-2.073 3-2Z" style="opacity:.635"/><path fill="#f1f1f1" d="M257.5 320.5c-1.28 1.431-2.947 2.098-5 2 1.28-1.431 2.947-2.098 5-2Z" style="opacity:.049"/><path fill="#8f8f8f" d="M440.5 320.5c1.73.526 3.064 1.526 4 3-2.132-.054-3.465-1.054-4-3Z" style="opacity:.757"/><path fill="#ddd" d="M250.5 323.5c-1.926 1.793-4.259 2.793-7 3 1.926-1.793 4.259-2.793 7-3Z" style="opacity:.057"/><path fill="#d5d5d5" d="M400.5 322.5c3.412.542 6.412 1.875 9 4-3.412-.542-6.412-1.875-9-4Z" style="opacity:.071"/><path fill="#7b7b7b" d="M202.5 328.5c-.473 1.406-1.473 2.073-3 2 .473-1.406 1.473-2.073 3-2Z" style="opacity:.663"/><path fill="#999" d="M417.5 330.5c1.527-.073 2.527.594 3 2-1.527.073-2.527-.594-3-2Z" style="opacity:.396"/><path fill="#7b7b7b" d="M198.5 331.5c-.473 1.406-1.473 2.073-3 2 .473-1.406 1.473-2.073 3-2Z" style="opacity:.682"/><path fill="#c7c7c7" d="M457.5 333.5c2.249.58 3.915 1.913 5 4-2.249-.58-3.915-1.913-5-4Z" style="opacity:.027"/><path fill="#9c9c9c" d="M422.5 333.5c1.527-.073 2.527.594 3 2-1.527.073-2.527-.594-3-2Z" style="opacity:.365"/><path fill="#a3a3a3" d="M425.5 335.5c1.527-.073 2.527.594 3 2-1.527.073-2.527-.594-3-2Z" style="opacity:.373"/><path fill="#7c7c7c" d="M193.5 335.5c-2.069 3.073-4.736 5.406-8 7 2.069-3.073 4.736-5.406 8-7Z" style="opacity:.576"/><path fill="#ababab" d="M428.5 337.5c1.527-.073 2.527.594 3 2-1.527.073-2.527-.594-3-2Z" style="opacity:.357"/><path fill="#9a9a9a" d="M431.5 339.5c1.904.238 3.238 1.238 4 3-1.904-.238-3.238-1.238-4-3Z" style="opacity:.471"/><path fill="#909090" d="M435.5 342.5c1.904.238 3.238 1.238 4 3-1.904-.238-3.238-1.238-4-3Z" style="opacity:.718"/><path fill="#c2c2c2" d="M470.5 345.5c2 0 3 1 3 3a6.547 6.547 0 0 1-3-3Z" style="opacity:.008"/><path fill="#888" d="M439.5 345.5c1.904.238 3.238 1.238 4 3-1.904-.238-3.238-1.238-4-3Z" style="opacity:.573"/><path fill="#a8a8a8" d="M444.5 349.5c2.927 1.257 5.261 3.257 7 6-2.927-1.257-5.261-3.257-7-6Z" style="opacity:.651"/><path fill="#989898" d="M479.5 354.5c1.406.473 2.073 1.473 2 3-1.406-.473-2.073-1.473-2-3Z" style="opacity:.431"/><path fill="#8c8c8c" d="M455.5 359.5c2.333.333 3.667 1.667 4 4h-1l-3-4Z" style="opacity:.647"/><path fill="#a2a2a2" d="M486.5 362.5c1.406.473 2.073 1.473 2 3-1.406-.473-2.073-1.473-2-3Z" style="opacity:.471"/><path fill="#8a8a8a" d="M488.5 365.5c1.762.762 2.762 2.096 3 4-1.762-.762-2.762-2.096-3-4Z" style="opacity:.486"/><path fill="#b2b2b2" d="M464.5 368.5c2.087 1.085 3.42 2.751 4 5-2.087-1.085-3.42-2.751-4-5Z" style="opacity:.02"/><path fill="#999" d="M161.5 369.5c-.238 1.904-1.238 3.238-3 4 .238-1.904 1.238-3.238 3-4Z" style="opacity:.592"/><path fill="#8d8d8d" d="M491.5 369.5c1.762.762 2.762 2.096 3 4-1.762-.762-2.762-2.096-3-4Z" style="opacity:.451"/><path fill="#a4a4a4" d="M494.5 373.5c1.762.762 2.762 2.096 3 4-1.762-.762-2.762-2.096-3-4Z" style="opacity:.431"/><path fill="#c2c2c2" d="M158.5 373.5c-.58 2.249-1.913 3.915-4 5 .58-2.249 1.913-3.915 4-5Z" style="opacity:.318"/><path fill="#d3d3d3" d="M154.5 378.5c.073 1.527-.594 2.527-2 3-.073-1.527.594-2.527 2-3Z" style="opacity:.384"/><path fill="#b4b4b4" d="M497.5 377.5c1.762.762 2.762 2.096 3 4-1.762-.762-2.762-2.096-3-4Z" style="opacity:.302"/><path fill="#e2e2e2" d="M152.5 381.5c.073 1.527-.594 2.527-2 3-.073-1.527.594-2.527 2-3Z" style="opacity:.31"/><path fill="#f0f0f0" d="M500.5 381.5c1.406.473 2.073 1.473 2 3-1.406-.473-2.073-1.473-2-3Z" style="opacity:.033"/><path fill="#c6c6c6" d="M474.5 381.5c1.946.535 2.946 1.868 3 4-1.474-.936-2.474-2.27-3-4Z" style="opacity:.008"/><path fill="#e2e2e2" d="M150.5 384.5c-.25 2.174-1.25 3.841-3 5 .25-2.174 1.25-3.841 3-5Z" style="opacity:.239"/><path fill="#dedede" d="M174.5 386.5c.073 1.527-.594 2.527-2 3-.073-1.527.594-2.527 2-3Z" style="opacity:.02"/><path fill="#dedede" d="M478.5 386.5c1.406.473 2.073 1.473 2 3-1.406-.473-2.073-1.473-2-3Z" style="opacity:.027"/><path fill="#e8e8e8" d="M503.5 386.5c1.406.473 2.073 1.473 2 3-1.406-.473-2.073-1.473-2-3Z" style="opacity:.035"/><path fill="#e4e4e4" d="M480.5 389.5c1.406.473 2.073 1.473 2 3-1.406-.473-2.073-1.473-2-3Z" style="opacity:.012"/><path fill="#e4e4e4" d="M170.5 392.5c.073 1.527-.594 2.527-2 3-.073-1.527.594-2.527 2-3Z" style="opacity:.024"/><path fill="#d7d7d7" d="M482.5 392.5c1.406.473 2.073 1.473 2 3-1.406-.473-2.073-1.473-2-3Z" style="opacity:.086"/><path fill="#d7d7d7" d="M168.5 395.5c.073 1.527-.594 2.527-2 3-.073-1.527.594-2.527 2-3Z" style="opacity:.012"/><path fill="#d6d6d6" d="M484.5 395.5c1.75 1.159 2.75 2.826 3 5-1.75-1.159-2.75-2.826-3-5Z" style="opacity:.133"/><path fill="#ddd" d="M164.5 402.5c.073 1.527-.594 2.527-2 3-.073-1.527.594-2.527 2-3Z" style="opacity:.008"/><path fill="#c4c4c4" d="M515.5 410.5c1.406.473 2.073 1.473 2 3-1.406-.473-2.073-1.473-2-3Z" style="opacity:.106"/><path fill="#8b8b8b" d="M518.5 416.5c1.431 1.28 2.098 2.947 2 5-1.713-1.135-2.38-2.802-2-5Z" style="opacity:.671"/><path fill="#bdbdbd" d="M156.5 417.5c.098 2.053-.569 3.72-2 5-.098-2.053.569-3.72 2-5Z" style="opacity:.259"/><path fill="#141514" d="M368.5 425.5c-.039-1.256.461-2.256 1.5-3 .585 1.498.085 2.498-1.5 3Z" style="opacity:.039"/><path fill="#c5d4e5" d="M162.5 438.5c-.617-.111-1.117-.444-1.5-1-.44-2.366-.94-4.699-1.5-7-2.135-1.869-4.802-2.536-8-2 0-.667.333-1 1-1 2.606-.636 5.106-.636 7.5 0a65.102 65.102 0 0 1 2.5 11Z" style="opacity:.366"/><path fill="#8b8b8b" d="M521.5 424.5c1.431 1.28 2.098 2.947 2 5-1.713-1.135-2.38-2.802-2-5Z" style="opacity:.667"/><path fill="#e4edf7" d="M390.5 442.5c-.617-.111-1.117-.444-1.5-1a66.755 66.755 0 0 1-1.5-14h-11c.295 2.235-.039 4.235-1 6v-7h13a66.444 66.444 0 0 0 2 16Z" style="opacity:.151"/><path fill="#e7eef5" d="M497.5 427.5c-2.582-.475-4.582.192-6 2 .295 2.235-.039 4.235-1 6v-9c2.559-.302 4.893.032 7 1Z" style="opacity:.11"/><path fill="#1172bd" d="M390.5 442.5c1.174 1.014 1.84 2.347 2 4-.073 1.527.594 2.527 2 3-.073 1.527.594 2.527 2 3 1.667 1 3 2.333 4 4 .762 1.762 2.096 2.762 4 3 .473 1.406 1.473 2.073 3 2a183.677 183.677 0 0 0 17 7c4.565 1.54 9.398 2.207 14.5 2 5.102.207 9.935-.46 14.5-2a150.922 150.922 0 0 0 18-7c1.527.073 2.527-.594 3-2 2.641-2.304 5.308-4.638 8-7 1.762-.762 2.762-2.096 3-4a101.401 101.401 0 0 0 5-13c.961-1.765 1.295-3.765 1-6 1.788-.285 3.455.048 5 1 27.276 68.189 18.443 131.189-26.5 189-48.947 53.094-109.114 73.261-180.5 60.5-73.191-17.855-121.358-62.688-144.5-134.5-10.179-39.001-8.345-77.334 5.5-115h9c.56 2.301 1.06 4.634 1.5 7 .383.556.883.889 1.5 1 1.508 1.681 2.508 3.681 3 6 .238 1.904 1.238 3.238 3 4 2 1.333 3.667 3 5 5 .473 1.406 1.473 2.073 3 2 .473 1.406 1.473 2.073 3 2 2.985.826 5.651 2.159 8 4 1.28 1.431 2.947 2.098 5 2 3.376 1.582 7.042 2.249 11 2h1c2.646.664 5.479.998 8.5 1 4.442.174 8.609-.493 12.5-2 3.845.212 7.179-.788 10-3 2.349-1.841 5.015-3.174 8-4 1.527.073 2.527-.594 3-2 2.641-2.304 5.308-4.638 8-7 2.322-1.302 3.655-3.302 4-6 .16-1.653.826-2.986 2-4 .617-.111 1.117-.444 1.5-1a70.523 70.523 0 0 0 1.5-9h8c-.284 1.915.049 3.581 1 5-.476 3.878.524 7.212 3 10 .838.342 1.172 1.008 1 2-.073 1.527.594 2.527 2 3 1.667 3.667 4.333 6.333 8 8 .535 1.946 1.868 2.946 4 3 .473 1.406 1.473 2.073 3 2 4.076 1.686 8.076 3.353 12 5 5.798 2.411 11.965 3.411 18.5 3l10.5-.5c.916-.278 1.582-.778 2-1.5h2c4.579.03 8.579-1.304 12-4 1.014-1.174 2.347-1.84 4-2 1.527.073 2.527-.594 3-2 1.527.073 2.527-.594 3-2 4-2 7-5 9-9 1.75-1.159 2.75-2.826 3-5 2.476-2.788 3.476-6.122 3-10 .961-1.765 1.295-3.765 1-6h11a66.755 66.755 0 0 0 1.5 14c.383.556.883.889 1.5 1Z" style="opacity:1"/><path fill="#959595" d="M133.5 419.5c-1.564 7.031-3.898 13.698-7 20 1.561-7.02 3.894-13.687 7-20Z" style="opacity:.631"/><path fill="#c2d4e7" d="M272.5 433.5c-.951-1.419-1.284-3.085-1-5h-8a70.523 70.523 0 0 1-1.5 9c-.383.556-.883.889-1.5 1a40.03 40.03 0 0 1 3-11.5 40.914 40.914 0 0 1 9-.5v7Z" style="opacity:.518"/><path fill="#aab5cf" d="M497.5 427.5c2.039 1.411 3.039 3.411 3 6-1.745-1.533-2.745-3.533-3-6Z" style="opacity:.89"/><path fill="#dcdee2" d="M502.5 433.5c5.019 12.078 8.019 24.745 9 38a216.148 216.148 0 0 0-9-32c1.333-.333 1.333-.667 0-1-.904-.709-1.237-1.709-1-3 .838-.342 1.172-1.008 1-2Z" style="opacity:.217"/><path fill="#cecece" d="M525.5 436.5c1.424 2.015 2.09 4.348 2 7-1.663-1.938-2.329-4.272-2-7Z" style="opacity:.052"/><path fill="#dbdbdb" d="M123.5 451.5c.384 3.989-.283 7.655-2 11-.07-3.925.597-7.591 2-11Z" style="opacity:.112"/><path fill="#e5e5e5" d="M530.5 457.5c1.554 4.067 2.22 8.4 2 13-1.209-4.118-1.876-8.451-2-13Z" style="opacity:.084"/><path fill="#c4c4c4" d="M121.5 462.5c.311 5.266-.355 10.266-2 15-.056-5.231.611-10.231 2-15Z" style="opacity:.561"/><path fill="#e0e0e0" d="M532.5 470.5c2.679 19.532 2.513 39.199-.5 59-.741 4.902-1.908 9.568-3.5 14 4.686-24.143 6.019-48.476 4-73Z" style="opacity:.073"/><path fill="#e5e5e5" d="M119.5 479.5a345.008 345.008 0 0 0 4 60c-4.781-19.784-6.114-39.784-4-60Z" style="opacity:.087"/><path fill="#d9d9d9" d="M526.5 551.5c.09 2.652-.576 4.985-2 7-.09-2.652.576-4.985 2-7Z" style="opacity:.057"/><path fill="#cecece" d="M139.5 586.5c1.174 1.014 1.84 2.347 2 4-1.604-.787-2.271-2.12-2-4Z" style="opacity:.165"/><path fill="#d2d2d2" d="M146.5 600.5c1.75 1.159 2.75 2.826 3 5-1.75-1.159-2.75-2.826-3-5Z" style="opacity:.125"/><path fill="#e4e4e4" d="M506.5 600.5c-.25 2.174-1.25 3.841-3 5 .25-2.174 1.25-3.841 3-5Z" style="opacity:.01"/><path fill="#cfcfcf" d="M149.5 605.5c1.406.473 2.073 1.473 2 3-1.406-.473-2.073-1.473-2-3Z" style="opacity:.094"/><path fill="#e6e6e6" d="M503.5 605.5c-.25 2.174-1.25 3.841-3 5 .25-2.174 1.25-3.841 3-5Z" style="opacity:.018"/><path fill="#8b8b8b" d="M152.5 610.5c1.946.535 2.946 1.868 3 4-1.474-.936-2.474-2.27-3-4Z" style="opacity:.843"/><path fill="#ccc" d="M155.5 614.5c1.406.473 2.073 1.473 2 3-1.406-.473-2.073-1.473-2-3Z" style="opacity:.125"/><path fill="#ccc" d="M158.5 618.5c1.406.473 2.073 1.473 2 3-1.406-.473-2.073-1.473-2-3Z" style="opacity:.133"/><path fill="#c6c6c6" d="M169.5 632.5c1.762.762 2.762 2.096 3 4-1.762-.762-2.762-2.096-3-4Z" style="opacity:.016"/><path fill="#cbcbcb" d="M179.5 643.5a6.547 6.547 0 0 1 3 3c-2 0-3-1-3-3Z" style="opacity:.275"/><path fill="#a0a0a0" d="M186.5 650.5c3.264 1.594 5.931 3.927 8 7-3.264-1.594-5.931-3.927-8-7Z" style="opacity:.757"/><path fill="#2e5087" d="M497.5 427.5c.255 2.467 1.255 4.467 3 6 .838.342 1.172 1.008 1 2-.237 1.291.096 2.291 1 3v1a216.148 216.148 0 0 1 9 32c9.32 66.873-10.68 123.373-60 169.5-55.326 43.997-116.992 55.663-185 35-75.777-29.009-118.944-83.842-129.5-164.5-2.373-28.354 1.794-55.688 12.5-82 .457-.798 1.124-1.131 2-1 3.198-.536 5.865.131 8 2h-9c-13.845 37.666-15.679 75.999-5.5 115 23.142 71.812 71.309 116.645 144.5 134.5 71.386 12.761 131.553-7.406 180.5-60.5 44.943-57.811 53.776-120.811 26.5-189-1.545-.952-3.212-1.285-5-1 1.418-1.808 3.418-2.475 6-2Z" style="opacity:1"/><path fill="#c4dbee" d="M424.5 468.5a105.651 105.651 0 0 0 29 0c-4.565 1.54-9.398 2.207-14.5 2-5.102.207-9.935-.46-14.5-2Z" style="opacity:.071"/><path fill="#d1e3f2" d="M305.5 466.5a87.798 87.798 0 0 0 31 1c-.418.722-1.084 1.222-2 1.5l-10.5.5c-6.535.411-12.702-.589-18.5-3Z" style="opacity:.094"/><path fill="#9fc2e3" d="M350.5 463.5c-3.421 2.696-7.421 4.03-12 4a79.262 79.262 0 0 1 12-4Z" style="opacity:.678"/><path fill="#bbd6ec" d="M225.5 464.5c-3.891 1.507-8.058 2.174-12.5 2-3.021-.002-5.854-.336-8.5-1a184.69 184.69 0 0 0 21-1Z" style="opacity:.714"/><path fill="#e7f0f8" d="M192.5 463.5c3.887.146 7.554.813 11 2-3.958.249-7.624-.418-11-2Z" style="opacity:.055"/><path fill="#a5c4e4" d="M235.5 461.5c-2.821 2.212-6.155 3.212-10 3 3.119-1.37 6.452-2.37 10-3Z" style="opacity:.816"/><path fill="#cadff0" d="M187.5 461.5c2.053-.098 3.72.569 5 2-2.053.098-3.72-.569-5-2Z" style="opacity:.306"/><path fill="#c7deef" d="M474.5 459.5c-.473 1.406-1.473 2.073-3 2 .473-1.406 1.473-2.073 3-2Z" style="opacity:.455"/><path fill="#c9dff0" d="M357.5 459.5c-.473 1.406-1.473 2.073-3 2 .473-1.406 1.473-2.073 3-2Z" style="opacity:.471"/><path fill="#e1edf7" d="M404.5 459.5c1.527-.073 2.527.594 3 2-1.527.073-2.527-.594-3-2Z" style="opacity:.031"/><path fill="#e4eff7" d="M290.5 459.5c1.527-.073 2.527.594 3 2-1.527.073-2.527-.594-3-2Z" style="opacity:.004"/><path fill="#cee2f2" d="M360.5 457.5c-.473 1.406-1.473 2.073-3 2 .473-1.406 1.473-2.073 3-2Z" style="opacity:.435"/><path fill="#cfe1f1" d="M286.5 456.5c1.73.526 3.064 1.526 4 3-2.132-.054-3.465-1.054-4-3Z" style="opacity:.024"/><path fill="#d8e8f4" d="M400.5 456.5c1.904.238 3.238 1.238 4 3-1.904-.238-3.238-1.238-4-3Z" style="opacity:.004"/><path fill="#c7deef" d="M246.5 455.5c-.473 1.406-1.473 2.073-3 2 .473-1.406 1.473-2.073 3-2Z" style="opacity:.443"/><path fill="#e1edf7" d="M176.5 455.5c1.527-.073 2.527.594 3 2-1.527.073-2.527-.594-3-2Z" style="opacity:.027"/><path fill="#c3dbee" d="M369.5 448.5c-2 4-5 7-9 9a57.51 57.51 0 0 1 9-9Z" style="opacity:.31"/><path fill="#d3e5f3" d="M173.5 453.5c1.527-.073 2.527.594 3 2-1.527.073-2.527-.594-3-2Z" style="opacity:.043"/><path fill="#d5e6f3" d="M394.5 449.5c1.406.473 2.073 1.473 2 3-1.406-.473-2.073-1.473-2-3Z" style="opacity:.224"/><path fill="#cde1f1" d="M278.5 448.5c3 2.333 5.667 5 8 8-3.667-1.667-6.333-4.333-8-8Z" style="opacity:.357"/><path fill="#c1daee" d="M485.5 448.5c-.238 1.904-1.238 3.238-3 4 .238-1.904 1.238-3.238 3-4Z" style="opacity:.416"/><path fill="#edf4fa" d="M392.5 446.5c1.406.473 2.073 1.473 2 3-1.406-.473-2.073-1.473-2-3Z" style="opacity:.106"/><path fill="#d3e5f2" d="M276.5 445.5c1.406.473 2.073 1.473 2 3-1.406-.473-2.073-1.473-2-3Z" style="opacity:.227"/><path fill="#d6e7f4" d="M258.5 442.5c-.345 2.698-1.678 4.698-4 6 .84-2.353 2.174-4.353 4-6Z" style="opacity:.216"/><path fill="#c1daee" d="M165.5 444.5c1.762.762 2.762 2.096 3 4-1.762-.762-2.762-2.096-3-4Z" style="opacity:.463"/><path fill="#dbeaf5" d="M372.5 443.5c-.25 2.174-1.25 3.841-3 5 .25-2.174 1.25-3.841 3-5Z" style="opacity:.333"/><path fill="#deebf6" d="M375.5 433.5c.476 3.878-.524 7.212-3 10 1.01-3.428 2.01-6.761 3-10Z" style="opacity:.153"/><path fill="#deebf6" d="M272.5 433.5c.99 3.239 1.99 6.572 3 10-2.476-2.788-3.476-6.122-3-10Z" style="opacity:.188"/><path fill="#8e8e8e" d="M199.5 661.5c1.527-.073 2.527.594 3 2h-2l-1-2Z" style="opacity:.51"/><path fill="#909090" d="M203.5 664.5c1.904.238 3.238 1.238 4 3a5.727 5.727 0 0 1-3-1l-1-2Z" style="opacity:.643"/><path fill="#888" d="M207.5 667.5c1.904.238 3.238 1.238 4 3a5.727 5.727 0 0 1-3-1l-1-2Z" style="opacity:.561"/><path fill="#ababab" d="M211.5 670.5c1.527-.073 2.527.594 3 2-1.527.073-2.527-.594-3-2Z" style="opacity:.329"/><path fill="#b9b9b9" d="M214.5 672.5c1.527-.073 2.527.594 3 2-1.527.073-2.527-.594-3-2Z" style="opacity:.275"/><path fill="#cfcfcf" d="M217.5 674.5c1.527-.073 2.527.594 3 2-1.527.073-2.527-.594-3-2Z" style="opacity:.22"/><path fill="#d5d5d5" d="M220.5 676.5c2.174.25 3.841 1.25 5 3-2.174-.25-3.841-1.25-5-3Z" style="opacity:.129"/><path fill="#f0f0f0" d="M430.5 677.5c-.473 1.406-1.473 2.073-3 2 .473-1.406 1.473-2.073 3-2Z" style="opacity:.094"/><path fill="#d4d4d4" d="M227.5 680.5c2.985.826 5.651 2.159 8 4-3.254-.294-5.921-1.627-8-4Z" style="opacity:.035"/><path fill="#e4e4e4" d="M425.5 680.5c-2.176 2.015-4.676 3.682-7.5 5-.399-.228-.565-.562-.5-1 2.349-1.841 5.015-3.174 8-4Z" style="opacity:.012"/><path fill="#898989" d="M262.5 695.5c2.398-.241 4.398.426 6 2-2.286-.095-4.286-.762-6-2Z" style="opacity:.643"/><path fill="#bababa" d="M268.5 697.5c2.728-.329 5.062.337 7 2-2.652.09-4.985-.576-7-2Z" style="opacity:.116"/><path fill="#d6d6d6" d="M279.5 700.5c5.244.382 10.244 1.382 15 3-5.294-.125-10.294-1.125-15-3Z" style="opacity:.078"/><path fill="#d9d9d9" d="M372.5 700.5c-4.042 1.737-8.376 2.737-13 3 4.042-1.737 8.376-2.737 13-3Z" style="opacity:.059"/><path fill="#e6e6e6" d="M294.5 703.5c5.551.027 10.884.694 16 2-5.569.124-10.902-.543-16-2Z" style="opacity:.082"/><path fill="#cdcdcd" d="M358.5 703.5a240.914 240.914 0 0 1-19.5 3c-1.376-.184-2.209-.851-2.5-2 7.34-.223 14.673-.556 22-1Z" style="opacity:.104"/><path fill="#eaeaea" d="M30.5 716.5a251.452 251.452 0 0 1 4 19.5c-.07.765-.403 1.265-1 1.5a98.09 98.09 0 0 1-3-21Z" style="opacity:.026"/><path fill="#bababa" d="M618.5 718.5h1c.302 4.29-.364 8.29-2 12a54.968 54.968 0 0 1 1-12Z" style="opacity:.324"/><path fill="#9f9f9f" d="M643.5 702.5c1.333 8 1.333 16 0 24h-1c.666-7.983.999-15.983 1-24Z" style="opacity:.433"/><path fill="#b7b7b7" d="M642.5 726.5h1c.156 4.264-.511 8.264-2 12a73.314 73.314 0 0 1 1-12Z" style="opacity:.204"/><path fill="#e1e1e1" d="M6.5 719.5a226.797 226.797 0 0 0 4 27c-2.343-6.003-3.843-12.336-4.5-19-.8-2.867-.634-5.534.5-8Z" style="opacity:.125"/><path fill="#b1b1b1" d="M641.5 739.5c-.221 2.567-.888 4.901-2 7-.329-2.728.337-5.062 2-7Z" style="opacity:.247"/><path fill="#9f9f9f" d="M40.5 756.5c1.406.473 2.073 1.473 2 3-1.406-.473-2.073-1.473-2-3Z" style="opacity:.353"/><path fill="#bababa" d="M636.5 755.5c.098 2.053-.569 3.72-2 5-.098-2.053.569-3.72 2-5Z" style="opacity:.259"/><path fill="#9f9f9f" d="M43.5 761.5c1.406.473 2.073 1.473 2 3-1.406-.473-2.073-1.473-2-3Z" style="opacity:.329"/><path fill="#a3a3a3" d="M606.5 761.5c.073 1.527-.594 2.527-2 3-.073-1.527.594-2.527 2-3Z" style="opacity:.337"/><path fill="#c8c8c8" d="M17.5 764.5c1.174 1.014 1.84 2.347 2 4-1.604-.787-2.27-2.12-2-4Z" style="opacity:.176"/><path fill="#aeaeae" d="M45.5 764.5c1.406.473 2.073 1.473 2 3-1.406-.473-2.073-1.473-2-3Z" style="opacity:.322"/><path fill="#b4b4b4" d="M604.5 764.5c.073 1.527-.594 2.527-2 3-.073-1.527.594-2.527 2-3Z" style="opacity:.294"/><path fill="#999" d="M602.5 767.5c-.238 1.904-1.238 3.238-3 4a5.727 5.727 0 0 1 1-3l2-1Z" style="opacity:.604"/><path fill="#8d8d8d" d="M47.5 767.5c1.762.762 2.762 2.096 3 4-1.762-.762-2.762-2.096-3-4Z" style="opacity:.506"/><path fill="#878787" d="M50.5 771.5a6.544 6.544 0 0 1 3 3c-2 0-3-1-3-3Z" style="opacity:.671"/><path fill="#8b8b8b" d="M599.5 771.5c-1.257 2.927-3.257 5.261-6 7 1.257-2.927 3.257-5.261 6-7Z" style="opacity:.616"/><path fill="#b8b8b8" d="M53.5 774.5c3 2.333 5.667 5 8 8-3.667-1.667-6.333-4.333-8-8Z" style="opacity:.533"/><path fill="#d7d7d7" d="M22.5 774.5c1.406.473 2.073 1.473 2 3-1.406-.473-2.073-1.473-2-3Z" style="opacity:.129"/><path fill="#868686" d="M592.5 779.5c-1.739 2.743-4.073 4.743-7 6 1.739-2.743 4.073-4.743 7-6Z" style="opacity:.643"/><path fill="#8f8f8f" d="M63.5 784.5c1.73.526 3.064 1.526 4 3-2.132-.054-3.465-1.054-4-3Z" style="opacity:.753"/><path fill="#969696" d="M585.5 785.5c-.762 1.762-2.096 2.762-4 3 .762-1.762 2.096-2.762 4-3Z" style="opacity:.545"/><path fill="#8f8f8f" d="M67.5 787.5c1.73.526 3.064 1.526 4 3-2.132-.054-3.465-1.054-4-3Z" style="opacity:.694"/><path fill="#a6a6a6" d="M581.5 788.5c-.473 1.406-1.473 2.073-3 2 .473-1.406 1.473-2.073 3-2Z" style="opacity:.569"/><path fill="#bdbdbd" d="M576.5 791.5c-.473 1.406-1.473 2.073-3 2 .473-1.406 1.473-2.073 3-2Z" style="opacity:.427"/><path fill="#8a8a8a" d="M75.5 792.5c1.21.432 2.21 1.099 3 2-1.679.215-2.679-.452-3-2Z" style="opacity:.655"/><path fill="#c9c9c9" d="M37.5 793.5c1.406.473 2.073 1.473 2 3-1.406-.473-2.073-1.473-2-3Z" style="opacity:.043"/><path fill="#b9b9b9" d="M39.5 796.5c1.904.238 3.238 1.238 4 3-1.904-.238-3.238-1.238-4-3Z" style="opacity:.431"/><path fill="#888" d="M46.5 802.5c1.904.238 3.238 1.238 4 3-1.904-.238-3.238-1.238-4-3Z" style="opacity:.592"/><path fill="#909090" d="M50.5 805.5c1.904.238 3.238 1.238 4 3-1.904-.238-3.238-1.238-4-3Z" style="opacity:.698"/><path fill="#818181" d="M54.5 808.5c1.527-.073 2.527.594 3 2-1.527.073-2.527-.594-3-2Z" style="opacity:.655"/><path fill="#999" d="M57.5 810.5c1.527-.073 2.527.594 3 2-1.527.073-2.527-.594-3-2Z" style="opacity:.412"/><path fill="#b9b9b9" d="M60.5 812.5c1.527-.073 2.527.594 3 2-1.527.073-2.527-.594-3-2Z" style="opacity:.275"/><path fill="#c6c6c6" d="M65.5 815.5c2.319.492 4.319 1.492 6 3-2.589.039-4.589-.961-6-3Z" style="opacity:.184"/><path fill="#ccc" d="M566.5 823.5c-2.952 1.91-6.286 2.91-10 3 3.05-1.601 6.384-2.601 10-3Z" style="opacity:.049"/><path fill="#d2d2d2" d="M93.5 826.5c3.54.253 6.873.919 10 2-3.66.341-6.993-.325-10-2Z" style="opacity:.118"/><path fill="#dfdfdf" d="M556.5 826.5c-5.006 2.059-10.34 3.059-16 3 5.091-1.629 10.424-2.629 16-3Z" style="opacity:.039"/><path fill="#fdfdfd" d="M103.5 828.5c145.657.986 291.323 1.319 437 1a30826.503 30826.503 0 0 1-430 .5c-2.536-.186-4.869-.686-7-1.5Z" style="opacity:.072"/></svg>