<?xml version="1.0" encoding="UTF-8"?>
<!DOCTYPE svg PUBLIC "-//W3C//DTD SVG 1.1//EN" "http://www.w3.org/Graphics/SVG/1.1/DTD/svg11.dtd">
<svg xmlns="http://www.w3.org/2000/svg" version="1.1" width="512px" height="512px" style="shape-rendering:geometricPrecision; text-rendering:geometricPrecision; image-rendering:optimizeQuality; fill-rule:evenodd; clip-rule:evenodd" xmlns:xlink="http://www.w3.org/1999/xlink">
<g><path style="opacity:0.925" fill="#000000" d="M 123.5,6.5 C 211.501,6.33334 299.501,6.5 387.5,7C 408.381,10.881 419.881,23.381 422,44.5C 422.667,166.833 422.667,289.167 422,411.5C 421.11,431.055 411.276,443.555 392.5,449C 301.167,449.667 209.833,449.667 118.5,449C 99.7236,443.555 89.8903,431.055 89,411.5C 88.3333,289.167 88.3333,166.833 89,44.5C 91.3038,23.3675 102.804,10.7008 123.5,6.5 Z M 122.5,23.5 C 211.167,23.3333 299.834,23.5 388.5,24C 397.219,26.2628 402.719,31.7628 405,40.5C 405.667,165.5 405.667,290.5 405,415.5C 402.509,424.658 396.675,430.491 387.5,433C 299.5,433.667 211.5,433.667 123.5,433C 114.325,430.491 108.491,424.658 106,415.5C 105.333,290.5 105.333,165.5 106,40.5C 108.349,31.6522 113.849,25.9855 122.5,23.5 Z M 249.5,68.5 C 272.612,68.1116 283.779,79.445 283,102.5C 277.582,118.578 266.416,125.745 249.5,124C 233.422,118.582 226.255,107.416 228,90.5C 231.376,79.2917 238.543,71.9584 249.5,68.5 Z"/></g>
<g><path style="opacity:0.957" fill="#000000" d="M 172.5,37.5 C 175.187,37.3359 177.854,37.5026 180.5,38C 182.333,38.5 183.5,39.6667 184,41.5C 184.333,77.5 184.667,113.5 185,149.5C 187.275,160.108 193.775,166.275 204.5,168C 238.833,168.667 273.167,168.667 307.5,168C 318.667,166.167 325.167,159.667 327,148.5C 327.333,112.833 327.667,77.1667 328,41.5C 328.5,39.6667 329.667,38.5 331.5,38C 334.964,37.1834 338.298,37.5167 341.5,39C 342.126,39.7504 342.626,40.5838 343,41.5C 343.667,78.8333 343.667,116.167 343,153.5C 338.833,169.667 328.667,179.833 312.5,184C 274.833,184.667 237.167,184.667 199.5,184C 183.093,180.558 172.927,170.725 169,154.5C 168.333,116.833 168.333,79.1667 169,41.5C 169.69,39.6498 170.856,38.3164 172.5,37.5 Z M 249.5,68.5 C 238.543,71.9584 231.376,79.2917 228,90.5C 226.255,107.416 233.422,118.582 249.5,124C 266.416,125.745 277.582,118.578 283,102.5C 283.779,79.445 272.612,68.1116 249.5,68.5 Z"/></g>
<g><path style="opacity:0.926" fill="#000000" d="M 250.5,51.5 C 280.454,51.7897 297.121,66.7897 300.5,96.5C 297.841,123.826 282.841,138.826 255.5,141.5C 228.158,138.824 213.158,123.824 210.5,96.5C 212.644,71.3653 225.977,56.3653 250.5,51.5 Z M 249.5,68.5 C 238.543,71.9584 231.376,79.2917 228,90.5C 226.255,107.416 233.422,118.582 249.5,124C 266.416,125.745 277.582,118.578 283,102.5C 283.779,79.445 272.612,68.1116 249.5,68.5 Z"/></g>
<g><path style="opacity:0.942" fill="#000000" d="M 202.5,272.5 C 237.502,272.333 272.502,272.5 307.5,273C 325.451,275.284 336.951,285.118 342,302.5C 342.667,340.167 342.667,377.833 342,415.5C 339.774,419.861 336.274,421.361 331.5,420C 329.333,419.167 327.833,417.667 327,415.5C 326.667,379.5 326.333,343.5 326,307.5C 323.596,298.763 318.096,292.929 309.5,290C 273.167,289.333 236.833,289.333 200.5,290C 191.031,293.136 185.531,299.636 184,309.5C 183.667,345.167 183.333,380.833 183,416.5C 178.62,421.343 173.954,421.677 169,417.5C 167.845,398.421 167.345,379.254 167.5,360C 167.363,339.792 167.863,319.626 169,299.5C 174.795,283.702 185.962,274.702 202.5,272.5 Z"/></g>
<g><path style="opacity:0.94" fill="#000000" d="M 253.5,310.5 C 257.622,310.476 260.788,312.143 263,315.5C 263.667,330.5 263.667,345.5 263,360.5C 259.87,365.312 255.704,366.479 250.5,364C 249.299,363.097 248.465,361.931 248,360.5C 247.333,345.5 247.333,330.5 248,315.5C 249.352,313.251 251.185,311.584 253.5,310.5 Z"/></g>
<g><path style="opacity:0.925" fill="#000000" d="M 222.5,339.5 C 230.662,339.498 233.828,343.498 232,351.5C 222.947,367.789 226.113,381.289 241.5,392C 257.806,398.453 270.64,394.287 280,379.5C 283.833,369.498 283.166,359.831 278,350.5C 277.284,340.956 281.451,337.79 290.5,341C 296.862,348.416 299.862,357.083 299.5,367C 297.694,390.129 285.694,404.796 263.5,411C 236.411,413.887 218.911,402.387 211,376.5C 208.858,364.657 210.858,353.657 217,343.5C 218.5,341.531 220.333,340.198 222.5,339.5 Z"/></g>
<g><path style="opacity:0.919" fill="#000000" d="M 143.5,464.5 C 147.516,463.9 151.016,464.9 154,467.5C 155.377,474.076 155.877,480.743 155.5,487.5C 169.167,487.5 182.833,487.5 196.5,487.5C 196.334,481.158 196.5,474.825 197,468.5C 202.486,462.92 207.486,463.253 212,469.5C 212.667,479.167 212.667,488.833 212,498.5C 211.215,500.286 210.049,501.786 208.5,503C 187.256,504.644 165.922,504.977 144.5,504C 142,502.833 140.167,501 139,498.5C 138.333,489.167 138.333,479.833 139,470.5C 139.599,467.746 141.099,465.746 143.5,464.5 Z"/></g>
<g><path style="opacity:0.916" fill="#000000" d="M 303.5,464.5 C 305.857,464.337 308.19,464.503 310.5,465C 312.333,465.5 313.5,466.667 314,468.5C 314.5,474.825 314.666,481.158 314.5,487.5C 328.167,487.5 341.833,487.5 355.5,487.5C 355.334,481.824 355.501,476.157 356,470.5C 358.083,465.096 361.916,463.263 367.5,465C 369.667,465.833 371.167,467.333 372,469.5C 372.667,479.167 372.667,488.833 372,498.5C 371.215,500.286 370.049,501.786 368.5,503C 347.256,504.644 325.922,504.977 304.5,504C 301.943,503.315 300.109,501.815 299,499.5C 298.333,489.5 298.333,479.5 299,469.5C 300.025,467.313 301.525,465.646 303.5,464.5 Z"/></g>
</svg>
