<svg xmlns="http://www.w3.org/2000/svg" width="350" height="412" style="shape-rendering:geometricPrecision;text-rendering:geometricPrecision;image-rendering:optimizeQuality;fill-rule:evenodd;clip-rule:evenodd"><path style="opacity:.983" fill="#1f314f" d="M171.5 12.5c51.899 17.461 70.732 52.794 56.5 106a354.146 354.146 0 0 1-7 20 121.19 121.19 0 0 0 0 22c14.885-23.866 36.052-39.032 63.5-45.5 14.31-1.265 28.31.235 42 4.5-2.389 55.889-31.556 84.222-87.5 85a571.414 571.414 0 0 1-23.5-1 298.213 298.213 0 0 1-13 53.5l1 1.5c11.666-10.502 24.666-19.002 39-25.5 22.261-9.475 44.595-9.808 67-1a157.159 157.159 0 0 1 25 15c-21.648 53.489-60.315 72.155-116 56a278.365 278.365 0 0 1-29-12.5 373.999 373.999 0 0 1-32.5 48c-17.143 19.824-37.643 34.991-61.5 45.5a166.618 166.618 0 0 1-37 9c-6.776.92-13.443.586-20-1-4.292-5.682-3.96-11.016 1-16 28.402-1.466 54.068-10.466 77-27 20.347-16.008 36.68-35.341 49-58-48.288 16.018-85.788 2.518-112.5-40.5a150.027 150.027 0 0 1-11.5-26 244.574 244.574 0 0 1 42-11.5c42.028-5.4 74.194 9.767 96.5 45.5a321.498 321.498 0 0 0 16.5-57.5c-31.717 3.26-61.051-3.407-88-20-17.491-15.823-26.825-35.657-28-59.5 44.401-18.027 79.901-7.36 106.5 32a229.14 229.14 0 0 1 12 26c.88-12.711 1.546-25.377 2-38-15.989-12.312-28.656-27.312-38-45-10.502-21.38-11.169-43.047-2-65a130.69 130.69 0 0 1 10.5-19Z"/></svg>