<svg xmlns="http://www.w3.org/2000/svg" width="309" height="412" style="shape-rendering:geometricPrecision;text-rendering:geometricPrecision;image-rendering:optimizeQuality;fill-rule:evenodd;clip-rule:evenodd"><path style="opacity:.985" fill="#1f314f" d="M147.5 16.5c12.32-2.713 22.487.62 30.5 10 11.58 35.785 27.913 69.119 49 100l40 52c13.432 17.466 23.432 36.799 30 58 11.918 63.656-9.582 112.489-64.5 146.5-51 26-102 26-153 0C20.048 345.249-.118 292.416 19 224.5a219.58 219.58 0 0 1 21-39 1509.428 1509.428 0 0 0 55-75c15.9-25.802 28.566-53.135 38-82 3.515-5.69 8.348-9.69 14.5-12Zm8 57a528.016 528.016 0 0 0 51.5 88 571.976 571.976 0 0 1 46 64c21.388 51.164 9.221 92.331-36.5 123.5-40.333 22-80.667 22-121 0-45.509-30.862-57.675-71.695-36.5-122.5a615.323 615.323 0 0 1 43-61 907.329 907.329 0 0 0 38-59 370.433 370.433 0 0 0 15.5-33Z"/><path style="opacity:.973" fill="#1f314f" d="M185.5 208.5c2.489-.202 4.823.298 7 1.5l11.5 9.5c.667 2 .667 4 0 6A3050.737 3050.737 0 0 1 125.5 330c-1.333.667-2.667.667-4 0a272.332 272.332 0 0 1-12.5-9.5c-2-3-2-6 0-9a11096.412 11096.412 0 0 0 76.5-103Z"/><path style="opacity:.972" fill="#1f314f" d="M106.5 214.5c20.135.297 28.302 10.297 24.5 30-7.142 13.048-17.642 16.548-31.5 10.5-8.647-5.928-11.814-14.095-9.5-24.5 2.786-8.289 8.286-13.622 16.5-16Z"/><path style="opacity:.973" fill="#1f314f" d="M199.5 280.5c17.295 1.462 24.795 10.795 22.5 28-5.328 12.914-14.828 17.748-28.5 14.5-14.533-8.275-17.699-19.775-9.5-34.5 4.379-4.438 9.546-7.105 15.5-8Z"/></svg>