<svg xmlns="http://www.w3.org/2000/svg" width="389" height="388" style="shape-rendering:geometricPrecision;text-rendering:geometricPrecision;image-rendering:optimizeQuality;fill-rule:evenodd;clip-rule:evenodd"><path style="opacity:.983" fill="#1f314f" d="M132.5 11.5c28.04-2.211 52.04 6.455 72 26 34.179-15.417 64.679-10.084 91.5 16a118.083 118.083 0 0 1 16.5 28c33.492 7.992 54.659 28.659 63.5 62 6.544 42.413-9.289 73.246-47.5 92.5a89.545 89.545 0 0 1-30 6c-72 .667-144 .667-216 0-31.017-3.041-53.183-18.541-66.5-46.5-14.978-45.078-1.978-79.412 39-103 6.705-45.534 32.538-72.534 77.5-81Zm8 35c20.593.956 36.259 10.123 47 27.5 5.891 5.139 12.558 6.472 20 4a64.745 64.745 0 0 0 11-8c15.721-7.83 31.054-7.163 46 2 9.622 9.077 15.122 20.244 16.5 33.5 2.368 4.935 6.201 8.102 11.5 9.5 29.547 1.553 46.213 16.886 50 46-1.848 24.711-14.848 39.711-39 45-74 .667-148 .667-222 0-30.894-9.284-41.727-29.45-32.5-60.5 7.578-12.891 18.745-21.058 33.5-24.5 5.228-2.949 8.061-7.449 8.5-13.5-2.468-24.903 7.032-43.403 28.5-55.5 6.921-2.646 13.921-4.479 21-5.5Z"/><path style="opacity:.984" fill="#1f314f" d="M76.5 275.5c2.49-.202 4.823.298 7 1.5a3682.227 3682.227 0 0 1 27.5 50.5c6.005 16.72 2.838 31.553-9.5 44.5-17.086 10.916-33.253 9.75-48.5-3.5-8.428-11.464-10.761-24.13-7-38 9.196-19.075 19.362-37.408 30.5-55ZM190.5 275.5c3.102-.346 5.935.321 8.5 2l27 51c4.843 14.421 2.843 27.755-6 40-15.247 13.25-31.414 14.416-48.5 3.5-12.652-12.724-15.818-27.557-9.5-44.5a1938.507 1938.507 0 0 1 28.5-52ZM305.5 275.5c5.232-.969 8.732 1.031 10.5 6a1579.163 1579.163 0 0 0 25 47c5.051 14.996 2.717 28.663-7 41-14.624 11.89-30.124 13.057-46.5 3.5-13.191-11.93-17.024-26.43-11.5-43.5a2092.503 2092.503 0 0 1 29.5-54Z"/></svg>