<svg xmlns="http://www.w3.org/2000/svg" width="450" height="260" style="shape-rendering:geometricPrecision;text-rendering:geometricPrecision;image-rendering:optimizeQuality;fill-rule:evenodd;clip-rule:evenodd"><path style="opacity:.992" fill="#3b4551" d="M199.5-.5h24a95.09 95.09 0 0 1 18 6c-.417.624-1.084.957-2 1-1.336-.923-2.67-1.423-4-1.5 1.222 4.626-.445 7.96-5 10l6 1a4.451 4.451 0 0 1-2 1.5 9.107 9.107 0 0 0-5-1c-17.093-3.983-33.426-1.983-49 6a81.216 81.216 0 0 0-3-2.5c2.553-4.561 5.886-8.561 10-12l-1-1 4-2c-1.237-.232-2.237-.732-3-1.5a82.809 82.809 0 0 1 12-4Z"/><path style="opacity:1" fill="#3b4551" d="M187.5 3.5c.763.768 1.763 1.268 3 1.5l-4 2 1 1c-4.114 3.439-7.447 7.439-10 12a81.216 81.216 0 0 1 3 2.5 117.768 117.768 0 0 0-14 12c-2.609-2.967-3.275-2.633-2 1a26.107 26.107 0 0 0-3.5 5 10.256 10.256 0 0 0-1.5-4 65.321 65.321 0 0 0-11.5 12c-1.405-3.119-1.905-6.452-1.5-10 6.762-13.93 17.096-24.43 31-31.5a61.521 61.521 0 0 1 10-3.5Z"/><path style="opacity:.996" fill="#3b4551" d="M241.5 5.5c13.835 5.66 24.835 14.826 33 27.5 12.076-1.361 22.743 1.805 32 9.5-2.403.107-4.236-.893-5.5-3-.318 1.56-1.151 2.728-2.5 3.5l4 1c-2.864 3.43-5.864 5.93-9 7.5-7.12-3.26-14.454-3.76-22-1.5a73.21 73.21 0 0 1-10 5.5c-7.002-2.003-9.168-6.337-6.5-13a36.012 36.012 0 0 1 4.5-3.5c-7.737-10.683-17.737-18.183-30-22.5a9.107 9.107 0 0 1 5 1 4.451 4.451 0 0 0 2-1.5l-6-1c4.555-2.04 6.222-5.374 5-10 1.33.077 2.664.577 4 1.5.916-.043 1.583-.376 2-1Z"/><path style="opacity:.964" fill="#3b4551" d="M306.5 42.5c9.584 7.496 14.751 17.496 15.5 30 .995.566 1.828 1.233 2.5 2-1.392 1.022-2.725.689-4-1a38.855 38.855 0 0 1-1.5-7c-2.556.72-3.723 2.386-3.5 5a4.932 4.932 0 0 0-3 .5c-1.031 3.04-2.865 5.54-5.5 7.5-.383-.556-.883-.89-1.5-1 1.692-11.61-2.308-20.61-12-27 3.136-1.57 6.136-4.07 9-7.5l-4-1c1.349-.772 2.182-1.94 2.5-3.5 1.264 2.107 3.097 3.107 5.5 3Z"/><path style="opacity:.993" fill="#3b4551" d="M166.5 34.5c-5.856 7.715-9.522 16.381-11 26 17.455-.351 31.955 5.982 43.5 19 1.326 7.671-1.841 11.171-9.5 10.5-23.783-20.003-46.783-19.17-69 2.5-1.517.01-2.684.677-3.5 2a7.292 7.292 0 0 1-2-3l-12 12-1.5-6c6.772-17.436 19.105-29.103 37-35 1.698-8.429 4.365-16.429 8-24-.405 3.548.095 6.881 1.5 10a65.321 65.321 0 0 1 11.5-12 10.256 10.256 0 0 1 1.5 4 26.107 26.107 0 0 1 3.5-5c-1.275-3.633-.609-3.967 2-1Z"/><path style="opacity:.976" fill="#3b4551" d="M120.5 92.5c-13.894 25.03-9.561 46.197 13 63.5a274.858 274.858 0 0 1 17.5 7.5c2.619 6.431.619 10.764-6 13-34.63-9.98-50.296-32.98-47-69 .572-3.663 1.738-6.997 3.5-10l1.5 6 12-12a7.292 7.292 0 0 0 2 3c.816-1.323 1.983-1.99 3.5-2Z"/><path style="opacity:.984" fill="#3b4551" d="M324.5 74.5c20.091 12.18 29.091 30.18 27 54-1.694-1.186-3.361-1.019-5 .5-2.72 4.596-6.22 8.429-10.5 11.5l-1-2c-1.067 2.192-2.567 3.858-4.5 5 10.994-21.684 6.994-40.017-12-55-10.236 4.087-14.569.753-13-10 .617.11 1.117.444 1.5 1 2.635-1.96 4.469-4.46 5.5-7.5a4.932 4.932 0 0 1 3-.5c-.223-2.614.944-4.28 3.5-5 .287 2.39.787 4.724 1.5 7 1.275 1.689 2.608 2.022 4 1Z"/><path style="opacity:.991" fill="#3b4551" d="M351.5 128.5c-5.874 29.373-23.707 45.707-53.5 49-5.455.026-8.622-2.641-9.5-8 .333-2.51 1.333-4.677 3-6.5 16.316-.158 29.316-6.658 39-19.5 1.933-1.142 3.433-2.808 4.5-5l1 2c4.28-3.071 7.78-6.904 10.5-11.5 1.639-1.519 3.306-1.686 5-.5Z"/><path style="opacity:.99" fill="#2a77c0" d="M269.5 147.5c1.431.381 2.264 1.381 2.5 3a63.17 63.17 0 0 1-1 21c-3.435 5.294-8.268 7.127-14.5 5.5-6.408-3.323-8.575-8.489-6.5-15.5 1.597-2.719 3.763-4.886 6.5-6.5 4.396-2.527 8.729-5.027 13-7.5Z"/><path style="opacity:1" fill="#2a77bf" d="M227.5 147.5c1.322 3.268 1.989 6.935 2 11 2.109 14.73-3.891 20.564-18 17.5-6.953-7.005-6.62-13.672 1-20a6944.024 6944.024 0 0 0 15-8.5Z"/><path style="opacity:1" fill="#2b77bf" d="M183.5 147.5h3c-.293 3.937.04 7.77 1 11.5a73.396 73.396 0 0 0-1.5 11.5c-4.965 7.522-11.298 8.855-19 4-5.143-6.954-4.31-13.121 2.5-18.5a217.432 217.432 0 0 0 14-8.5Z"/><path style="opacity:1" fill="#2a77c0" d="M248.5 186.5c3.993 8.849 3.826 17.849-.5 27-5.377 3.775-10.877 3.942-16.5.5-4.49-4.789-4.99-9.955-1.5-15.5a185.368 185.368 0 0 1 18.5-12ZM205.5 186.5c1.431.381 2.264 1.381 2.5 3a66.025 66.025 0 0 1-1 21c-3.435 5.294-8.268 7.127-14.5 5.5-6.408-3.323-8.575-8.489-6.5-15.5a11.532 11.532 0 0 1 3.5-4.5 198.512 198.512 0 0 1 16-9.5ZM162.5 186.5h3a106.884 106.884 0 0 1-1.5 24c-4.168 5.986-9.668 7.486-16.5 4.5-5.725-5.415-6.392-11.415-2-18a246.716 246.716 0 0 1 17-10.5Z"/><path style="opacity:1" fill="#2b77bf" d="M291.5 186.5c1.322 3.268 1.989 6.935 2 11 2.109 14.73-3.891 20.564-18 17.5-4.968-4.311-6.135-9.478-3.5-15.5 5.861-5.373 12.361-9.707 19.5-13Z"/><path style="opacity:1" fill="#2a77c0" d="M184.5 225.5c4.037 8.819 3.87 17.819-.5 27-6.264 4.24-12.264 3.907-18-1-3.212-4.7-3.212-9.367 0-14a185.368 185.368 0 0 1 18.5-12ZM270.5 225.5c.722.418 1.222 1.084 1.5 2a90.455 90.455 0 0 1 0 19c-2.579 8.208-8.079 11.041-16.5 8.5-7.981-6.905-7.981-13.905 0-21a6944.024 6944.024 0 0 0 15-8.5Z"/><path style="opacity:1" fill="#2b77be" d="M227.5 225.5c1.322 3.268 1.989 6.935 2 11 2.109 14.73-3.891 20.564-18 17.5-5.13-4.218-6.296-9.384-3.5-15.5 5.861-5.373 12.361-9.707 19.5-13Z"/></svg>