<svg xmlns="http://www.w3.org/2000/svg" width="315" height="315" style="shape-rendering:geometricPrecision;text-rendering:geometricPrecision;image-rendering:optimizeQuality;fill-rule:evenodd;clip-rule:evenodd"><path style="opacity:.986" fill="#1f314f" d="M191.5 9.5c14.284-.883 28.284.617 42 4.5 21.74 10.427 33.073 27.76 34 52-1.985 29.987-17.651 48.32-47 55-66.333.667-132.667.667-199 0C9.057 115.599 5.224 106.433 10 93.5c3.09-5.797 7.924-8.964 14.5-9.5l193-1c11.046-5.271 14.546-13.771 10.5-25.5-3.091-5.797-7.924-8.964-14.5-9.5l-26-1c-8.827-2.996-13.16-9.162-13-18.5.854-10.745 6.521-17.078 17-19Z"/><path style="opacity:.974" fill="#a5adb8" d="M21.5 139.5c78.667-.167 157.334 0 236 .5 25.491 5.491 40.991 20.991 46.5 46.5 2.321 33.902-12.846 55.069-45.5 63.5a306.347 306.347 0 0 1-35 0c-11.119-5.673-14.619-14.506-10.5-26.5 2.552-4.219 6.052-7.386 10.5-9.5l26-1c10.606-1.105 16.273-6.938 17-17.5-.011-7.194-3.011-12.694-9-16.5a13624.823 13624.823 0 0 0-232-2C11.643 174.154 6.143 165.654 9 151.5c2.208-6.163 6.375-10.163 12.5-12Z"/><path style="opacity:.975" fill="#1f314f" d="M22.5 194.5c27.669-.167 55.335 0 83 .5 27.686 3.685 44.519 19.185 50.5 46.5 2.908 24.679-5.926 43.846-26.5 57.5a57.995 57.995 0 0 1-16 6 180.704 180.704 0 0 1-36 1c-12.335-4.84-16.501-13.673-12.5-26.5 2.332-5.664 6.5-9.164 12.5-10.5l28-1c6.4-1.399 10.566-5.233 12.5-11.5 2.48-11.546-1.686-19.379-12.5-23.5a1986.525 1986.525 0 0 1-87-2c-10.308-7.289-12.808-16.789-7.5-28.5 3.15-3.811 6.983-6.477 11.5-8Z"/></svg>