<?xml version="1.0" encoding="UTF-8"?>
<!DOCTYPE svg PUBLIC "-//W3C//DTD SVG 1.1//EN" "http://www.w3.org/Graphics/SVG/1.1/DTD/svg11.dtd">
<svg xmlns="http://www.w3.org/2000/svg" version="1.1" width="854px" height="860px" style="shape-rendering:geometricPrecision; text-rendering:geometricPrecision; image-rendering:optimizeQuality; fill-rule:evenodd; clip-rule:evenodd" xmlns:xlink="http://www.w3.org/1999/xlink">
<g><path style="opacity:1" fill="#fefefe" d="M -0.5,-0.5 C 284.167,-0.5 568.833,-0.5 853.5,-0.5C 853.5,286.167 853.5,572.833 853.5,859.5C 568.833,859.5 284.167,859.5 -0.5,859.5C -0.5,572.833 -0.5,286.167 -0.5,-0.5 Z"/></g>
<g><path style="opacity:1" fill="#bfbfbf" d="M 399.5,8.5 C 528.631,4.40781 638.131,48.0745 728,139.5C 816.614,236.685 853.614,351.019 839,482.5C 818.503,612.919 753.003,713.752 642.5,785C 540.366,844.639 431.699,860.639 316.5,833C 208.249,802.374 124.415,739.541 65,644.5C 5.29791,541.854 -10.0354,432.854 19,317.5C 54.7138,195.21 129.547,105.71 243.5,49C 293.16,26.086 345.16,12.586 399.5,8.5 Z"/></g>
<g><path style="opacity:1" fill="#fefefe" d="M 399.5,36.5 C 532.722,32.3616 642.222,80.6949 728,181.5C 814.102,294.654 835.768,419.321 793,555.5C 756.155,656.693 689.655,731.527 593.5,780C 480.884,830.973 368.218,831.306 255.5,781C 149.45,727.594 79.6168,643.76 46,529.5C 18.5357,421.752 32.8691,320.085 89,224.5C 161.608,111.421 265.108,48.754 399.5,36.5 Z"/></g>
</svg>
