<?xml version="1.0" encoding="UTF-8"?>
<!DOCTYPE svg PUBLIC "-//W3C//DTD SVG 1.1//EN" "http://www.w3.org/Graphics/SVG/1.1/DTD/svg11.dtd">
<svg xmlns="http://www.w3.org/2000/svg" version="1.1" width="864px" height="864px" style="shape-rendering:geometricPrecision; text-rendering:geometricPrecision; image-rendering:optimizeQuality; fill-rule:evenodd; clip-rule:evenodd" xmlns:xlink="http://www.w3.org/1999/xlink">
<g><path style="opacity:1" fill="#fefefe" d="M -0.5,-0.5 C 287.5,-0.5 575.5,-0.5 863.5,-0.5C 863.5,287.5 863.5,575.5 863.5,863.5C 575.5,863.5 287.5,863.5 -0.5,863.5C -0.5,575.5 -0.5,287.5 -0.5,-0.5 Z"/></g>
<g><path style="opacity:1" fill="#bebebe" d="M 405.5,11.5 C 554.553,8.2856 674.72,64.9523 766,181.5C 841.265,288.39 864.265,405.723 835,533.5C 797.496,668.011 714.663,763.178 586.5,819C 464.531,865.675 345.531,859.008 229.5,799C 138.975,748.146 74.8087,674.313 37,577.5C -1.61637,469.009 2.05029,362.009 48,256.5C 104.515,139.652 195.015,62.819 319.5,26C 347.944,18.8708 376.61,14.0375 405.5,11.5 Z"/></g>
<g><path style="opacity:1" fill="#000000" d="M 406.5,39.5 C 543.202,36.1086 654.369,87.4419 740,193.5C 813.563,294.648 835.896,406.315 807,528.5C 770.299,657.528 689.799,747.028 565.5,797C 453.647,836.181 345.314,828.181 240.5,773C 132.888,710.706 67.3877,618.206 44,495.5C 24.1428,354.718 65.6428,235.885 168.5,139C 236.665,79.4358 315.999,46.2692 406.5,39.5 Z"/></g>
</svg>
