<?xml version="1.0" encoding="UTF-8"?>
<!DOCTYPE svg PUBLIC "-//W3C//DTD SVG 1.1//EN" "http://www.w3.org/Graphics/SVG/1.1/DTD/svg11.dtd">
<svg xmlns="http://www.w3.org/2000/svg" version="1.1" width="868px" height="862px" style="shape-rendering:geometricPrecision; text-rendering:geometricPrecision; image-rendering:optimizeQuality; fill-rule:evenodd; clip-rule:evenodd" xmlns:xlink="http://www.w3.org/1999/xlink">
<g><path style="opacity:1" fill="#fefefe" d="M -0.5,-0.5 C 288.833,-0.5 578.167,-0.5 867.5,-0.5C 867.5,286.833 867.5,574.167 867.5,861.5C 578.167,861.5 288.833,861.5 -0.5,861.5C -0.5,574.167 -0.5,286.833 -0.5,-0.5 Z"/></g>
<g><path style="opacity:1" fill="#bebebe" d="M 584.5,10.5 C 605.548,10.0806 626.548,10.7473 647.5,12.5C 647.5,24.8333 647.5,37.1667 647.5,49.5C 520.98,83.1869 431.147,159.854 378,279.5C 333.233,394.519 339.233,506.852 396,616.5C 452.333,715.989 535.833,780.323 646.5,809.5C 647.499,821.815 647.832,834.149 647.5,846.5C 513.353,856.306 399.187,813.64 305,718.5C 214.259,618.926 177.259,501.926 194,367.5C 215.839,238.89 281.672,140.056 391.5,71C 451.024,35.2127 515.357,15.046 584.5,10.5 Z"/></g>
<g><path style="opacity:1" fill="#000000" d="M 577.5,39.5 C 580.187,39.3359 582.854,39.5026 585.5,40C 481.087,82.7441 404.921,155.244 357,257.5C 308.709,371.026 308.376,484.693 356,598.5C 403.478,702.314 479.978,775.814 585.5,819C 465.196,810.274 368.362,758.441 295,663.5C 222.325,561.147 200.992,448.814 231,326.5C 265.415,210.843 336.915,126.676 445.5,74C 487.51,54.7008 531.51,43.2008 577.5,39.5 Z"/></g>
</svg>
