<?xml version="1.0" encoding="UTF-8"?>
<!DOCTYPE svg PUBLIC "-//W3C//DTD SVG 1.1//EN" "http://www.w3.org/Graphics/SVG/1.1/DTD/svg11.dtd">
<svg xmlns="http://www.w3.org/2000/svg" version="1.1" width="872px" height="860px" style="shape-rendering:geometricPrecision; text-rendering:geometricPrecision; image-rendering:optimizeQuality; fill-rule:evenodd; clip-rule:evenodd" xmlns:xlink="http://www.w3.org/1999/xlink">
<g><path style="opacity:1" fill="#fefefe" d="M -0.5,-0.5 C 290.167,-0.5 580.833,-0.5 871.5,-0.5C 871.5,286.167 871.5,572.833 871.5,859.5C 580.833,859.5 290.167,859.5 -0.5,859.5C -0.5,572.833 -0.5,286.167 -0.5,-0.5 Z"/></g>
<g><path style="opacity:1" fill="#bebebe" d="M 598.5,15.5 C 601.5,15.5 604.5,15.5 607.5,15.5C 607.833,29.8488 607.499,44.1821 606.5,58.5C 485.685,98.482 401.519,177.482 354,295.5C 317.536,398.807 321.869,500.474 367,600.5C 417.783,703.793 497.95,772.793 607.5,807.5C 607.5,821.833 607.5,836.167 607.5,850.5C 482.9,836.584 383.067,779.917 308,680.5C 232.141,571.372 210.141,452.039 242,322.5C 275.285,208.568 343.452,122.402 446.5,64C 494.371,38.8756 545.037,22.7089 598.5,15.5 Z"/></g>
<g><path style="opacity:1" fill="#010101" d="M 526.5,59.5 C 527.552,59.3505 528.552,59.5172 529.5,60C 426.288,114.532 356.454,197.365 320,308.5C 285.753,428.522 299.753,542.522 362,650.5C 404.092,717.93 459.425,769.93 528,806.5C 412.189,766.689 330.522,690.355 283,577.5C 240.31,463.78 246.977,353.114 303,245.5C 354.057,155.272 428.557,93.2723 526.5,59.5 Z"/></g>
</svg>
