<?xml version="1.0" encoding="UTF-8"?>
<!DOCTYPE svg PUBLIC "-//W3C//DTD SVG 1.1//EN" "http://www.w3.org/Graphics/SVG/1.1/DTD/svg11.dtd">
<svg xmlns="http://www.w3.org/2000/svg" version="1.1" width="870px" height="862px" style="shape-rendering:geometricPrecision; text-rendering:geometricPrecision; image-rendering:optimizeQuality; fill-rule:evenodd; clip-rule:evenodd" xmlns:xlink="http://www.w3.org/1999/xlink">
<g><path style="opacity:1" fill="#fefefe" d="M -0.5,-0.5 C 289.5,-0.5 579.5,-0.5 869.5,-0.5C 869.5,286.833 869.5,574.167 869.5,861.5C 579.5,861.5 289.5,861.5 -0.5,861.5C -0.5,574.167 -0.5,286.833 -0.5,-0.5 Z"/></g>
<g><path style="opacity:1" fill="#bebebe" d="M 549.5,13.5 C 589.458,12.4068 628.958,16.0735 668,24.5C 670.449,24.1387 672.782,23.472 675,22.5C 675.832,32.1839 675.665,41.8505 674.5,51.5C 555.219,81.6235 467.386,151.29 411,260.5C 362.028,366.224 358.695,473.558 401,582.5C 449.36,693.53 530.86,768.364 645.5,807C 655.056,809.972 664.723,812.472 674.5,814.5C 675.665,824.149 675.832,833.816 675,843.5C 672.583,842.648 670.083,841.981 667.5,841.5C 546.785,867.645 435.451,846.145 333.5,777C 238.748,708.466 180.914,616.299 160,500.5C 140.201,355.05 182.035,230.884 285.5,128C 360.111,59.5412 448.111,21.3746 549.5,13.5 Z"/></g>
<g><path style="opacity:1" fill="#000000" d="M 550.5,41.5 C 569.524,41.1975 588.524,41.6975 607.5,43C 493.577,90.9227 414.077,172.423 369,287.5C 326.07,413.862 337.737,534.862 404,650.5C 453.214,730.054 521.047,787.554 607.5,823C 479.665,831.071 371.832,788.905 284,696.5C 193.383,590.821 163.716,469.821 195,333.5C 228.47,216.708 299.637,131.541 408.5,78C 453.679,57.1007 501.012,44.934 550.5,41.5 Z"/></g>
</svg>
