<?xml version="1.0" encoding="UTF-8"?>
<!DOCTYPE svg PUBLIC "-//W3C//DTD SVG 1.1//EN" "http://www.w3.org/Graphics/SVG/1.1/DTD/svg11.dtd">
<svg xmlns="http://www.w3.org/2000/svg" version="1.1" width="872px" height="868px" style="shape-rendering:geometricPrecision; text-rendering:geometricPrecision; image-rendering:optimizeQuality; fill-rule:evenodd; clip-rule:evenodd" xmlns:xlink="http://www.w3.org/1999/xlink">
<g><path style="opacity:1" fill="#fefefe" d="M -0.5,-0.5 C 290.167,-0.5 580.833,-0.5 871.5,-0.5C 871.5,288.833 871.5,578.167 871.5,867.5C 580.833,867.5 290.167,867.5 -0.5,867.5C -0.5,578.167 -0.5,288.833 -0.5,-0.5 Z"/></g>
<g><path style="opacity:1" fill="#bebebe" d="M 542.5,13.5 C 592.493,12.041 641.493,18.041 689.5,31.5C 689.5,41.5 689.5,51.5 689.5,61.5C 588.276,96.5533 512.776,161.553 463,256.5C 413.977,358.352 408.31,462.685 446,569.5C 489.252,680.752 566.419,757.919 677.5,801C 681.43,802.477 685.43,803.644 689.5,804.5C 689.5,814.5 689.5,824.5 689.5,834.5C 552.227,872.399 426.227,849.565 311.5,766C 218.645,692.165 164.812,595.998 150,477.5C 138.575,349.055 176.241,237.722 263,143.5C 339.803,65.5217 432.97,22.1884 542.5,13.5 Z"/></g>
<g><path style="opacity:1" fill="#000000" d="M 543.5,41.5 C 568.595,40.805 593.595,41.9717 618.5,45C 626.255,46.0837 633.921,47.5837 641.5,49.5C 535.464,99.0365 461.297,178.37 419,287.5C 379.305,401.484 385.639,512.818 438,621.5C 483.743,710.246 551.91,775.412 642.5,817C 499.222,840.795 377.389,800.629 277,696.5C 186.383,590.821 156.716,469.821 188,333.5C 221.47,216.708 292.637,131.541 401.5,78C 446.679,57.1007 494.012,44.934 543.5,41.5 Z"/></g>
</svg>
