<?xml version="1.0" encoding="UTF-8"?>
<!DOCTYPE svg PUBLIC "-//W3C//DTD SVG 1.1//EN" "http://www.w3.org/Graphics/SVG/1.1/DTD/svg11.dtd">
<svg xmlns="http://www.w3.org/2000/svg" version="1.1" width="870px" height="868px" style="shape-rendering:geometricPrecision; text-rendering:geometricPrecision; image-rendering:optimizeQuality; fill-rule:evenodd; clip-rule:evenodd" xmlns:xlink="http://www.w3.org/1999/xlink">
<g><path style="opacity:1" fill="#fefefe" d="M -0.5,-0.5 C 289.5,-0.5 579.5,-0.5 869.5,-0.5C 869.5,288.833 869.5,578.167 869.5,867.5C 579.5,867.5 289.5,867.5 -0.5,867.5C -0.5,578.167 -0.5,288.833 -0.5,-0.5 Z"/></g>
<g><path style="opacity:1" fill="#bebebe" d="M 547.5,13.5 C 588.337,12.3715 628.67,16.2048 668.5,25C 686.74,29.8031 704.74,35.3031 722.5,41.5C 722.666,51.5056 722.5,61.5056 722,71.5C 598.102,127.725 520.769,222.058 490,354.5C 467.561,483.107 498.561,596.774 583,695.5C 622.266,738.695 668.766,771.361 722.5,793.5C 722.5,803.833 722.5,814.167 722.5,824.5C 586.073,873.317 457.073,858.484 335.5,780C 231.229,706.029 171.062,605.196 155,477.5C 143.595,350.716 180.261,240.383 265,146.5C 342.128,66.1881 436.295,21.8548 547.5,13.5 Z"/></g>
<g><path style="opacity:1" fill="#000000" d="M 548.5,41.5 C 567.529,41.1424 586.529,41.6424 605.5,43C 632.081,45.5917 658.081,50.7583 683.5,58.5C 566.636,121.482 493.136,217.815 463,347.5C 437.945,488.66 472.612,612.66 567,719.5C 601.045,755.234 639.878,784.401 683.5,807C 573.019,839.249 468.019,826.249 368.5,768C 255.229,694.903 192.729,590.737 181,455.5C 176.969,316.751 229.136,204.584 337.5,119C 389.128,80.6953 446.795,56.3619 510.5,46C 523.314,44.4756 535.981,42.9756 548.5,41.5 Z"/></g>
</svg>
