<?xml version="1.0" encoding="UTF-8"?>
<!DOCTYPE svg PUBLIC "-//W3C//DTD SVG 1.1//EN" "http://www.w3.org/Graphics/SVG/1.1/DTD/svg11.dtd">
<svg xmlns="http://www.w3.org/2000/svg" version="1.1" width="872px" height="866px" style="shape-rendering:geometricPrecision; text-rendering:geometricPrecision; image-rendering:optimizeQuality; fill-rule:evenodd; clip-rule:evenodd" xmlns:xlink="http://www.w3.org/1999/xlink">
<g><path style="opacity:1" fill="#fefefe" d="M -0.5,-0.5 C 290.167,-0.5 580.833,-0.5 871.5,-0.5C 871.5,288.167 871.5,576.833 871.5,865.5C 580.833,865.5 290.167,865.5 -0.5,865.5C -0.5,576.833 -0.5,288.167 -0.5,-0.5 Z"/></g>
<g><path style="opacity:1" fill="#bebebe" d="M 509.5,13.5 C 580.471,10.7273 648.138,24.0606 712.5,53.5C 712.832,64.5202 712.499,75.5202 711.5,86.5C 611.372,141.144 545.872,223.477 515,333.5C 485.922,456.777 508.588,569.443 583,671.5C 618.397,717.074 661.563,753.074 712.5,779.5C 712.832,790.52 712.499,801.52 711.5,812.5C 611.391,858.007 508.724,864.507 403.5,832C 276.686,787.52 188.853,702.686 140,577.5C 97.2487,453.581 107.915,334.581 172,220.5C 249.695,95.4045 362.195,26.4045 509.5,13.5 Z"/></g>
<g><path style="opacity:1" fill="#000000" d="M 510.5,41.5 C 569.706,39.1874 626.706,49.0207 681.5,71C 568.933,139.856 501.433,239.689 479,370.5C 462.24,502.523 497.573,618.19 585,717.5C 613.421,748.256 645.588,774.089 681.5,795C 577.892,835.789 474.892,834.122 372.5,790C 274.637,743.806 206.137,670.306 167,569.5C 131.354,468.818 134.688,369.484 177,271.5C 237.467,146.814 335.967,71.6472 472.5,46C 485.314,44.4756 497.981,42.9756 510.5,41.5 Z"/></g>
</svg>
