<?xml version="1.0" encoding="UTF-8"?>
<!DOCTYPE svg PUBLIC "-//W3C//DTD SVG 1.1//EN" "http://www.w3.org/Graphics/SVG/1.1/DTD/svg11.dtd">
<svg xmlns="http://www.w3.org/2000/svg" version="1.1" width="876px" height="868px" style="shape-rendering:geometricPrecision; text-rendering:geometricPrecision; image-rendering:optimizeQuality; fill-rule:evenodd; clip-rule:evenodd" xmlns:xlink="http://www.w3.org/1999/xlink">
<g><path style="opacity:1" fill="#fefefe" d="M -0.5,-0.5 C 290.833,-0.5 582.167,-0.5 873.5,-0.5C 873.157,1.48324 873.824,2.81658 875.5,3.5C 875.5,290.833 875.5,578.167 875.5,865.5C 874.167,865.5 873.5,866.167 873.5,867.5C 582.167,867.5 290.833,867.5 -0.5,867.5C -0.5,578.167 -0.5,288.833 -0.5,-0.5 Z"/></g>
<g><path style="opacity:1" fill="#000000" d="M 873.5,-0.5 C 874.167,-0.5 874.833,-0.5 875.5,-0.5C 875.5,0.833333 875.5,2.16667 875.5,3.5C 873.824,2.81658 873.157,1.48324 873.5,-0.5 Z"/></g>
<g><path style="opacity:1" fill="#bebebe" d="M 506.5,15.5 C 588.591,11.9966 665.258,30.1633 736.5,70C 737.793,70.49 739.127,70.6567 740.5,70.5C 740.832,81.5202 740.499,92.5202 739.5,103.5C 636.588,171.011 576.421,266.011 559,388.5C 547.743,506.382 580.743,609.715 658,698.5C 682.392,724.908 709.725,747.575 740,766.5C 740.667,777.5 740.667,788.5 740,799.5C 739.667,799.167 739.333,798.833 739,798.5C 667.113,839.845 589.613,858.345 506.5,854C 361.366,841.561 249.866,774.394 172,652.5C 112.289,549.493 96.956,440.159 126,324.5C 169.417,181.081 261.917,84.5809 403.5,35C 437.313,25.0342 471.646,18.5342 506.5,15.5 Z"/></g>
<g><path style="opacity:1" fill="#000000" d="M 507.5,43.5 C 579.677,40.0498 647.677,54.8831 711.5,88C 585.764,179.312 524.931,303.145 529,459.5C 540.577,595.549 601.41,703.049 711.5,782C 611.744,832.341 508.744,840.007 402.5,805C 273.575,756.409 190.075,665.909 152,533.5C 120.596,397.447 150.263,276.78 241,171.5C 313.284,94.6097 402.117,51.9431 507.5,43.5 Z"/></g>
<g><path style="opacity:1" fill="#000000" d="M 875.5,865.5 C 875.5,866.167 875.5,866.833 875.5,867.5C 874.833,867.5 874.167,867.5 873.5,867.5C 873.5,866.167 874.167,865.5 875.5,865.5 Z"/></g>
</svg>
