<?xml version="1.0" encoding="UTF-8"?>
<!DOCTYPE svg PUBLIC "-//W3C//DTD SVG 1.1//EN" "http://www.w3.org/Graphics/SVG/1.1/DTD/svg11.dtd">
<svg xmlns="http://www.w3.org/2000/svg" version="1.1" width="870px" height="864px" style="shape-rendering:geometricPrecision; text-rendering:geometricPrecision; image-rendering:optimizeQuality; fill-rule:evenodd; clip-rule:evenodd" xmlns:xlink="http://www.w3.org/1999/xlink">
<g><path style="opacity:1" fill="#fefefe" d="M -0.5,-0.5 C 289.5,-0.5 579.5,-0.5 869.5,-0.5C 869.5,287.5 869.5,575.5 869.5,863.5C 579.5,863.5 289.5,863.5 -0.5,863.5C -0.5,575.5 -0.5,287.5 -0.5,-0.5 Z"/></g>
<g><path style="opacity:1" fill="#bebebe" d="M 484.5,13.5 C 579.012,9.61268 665.345,33.7793 743.5,86C 744.448,86.4828 745.448,86.6495 746.5,86.5C 746.832,98.1857 746.499,109.852 745.5,121.5C 635.643,209.582 584.81,324.248 593,465.5C 604.768,580.407 655.602,673.407 745.5,744.5C 746.499,756.148 746.832,767.814 746.5,779.5C 739.269,783.122 732.269,787.289 725.5,792C 599.09,864.353 468.757,872.019 334.5,815C 208.501,753.969 129.334,655.136 97,518.5C 70.4222,368.881 109.922,240.047 215.5,132C 291.156,60.8416 380.823,21.3416 484.5,13.5 Z"/></g>
<g><path style="opacity:1" fill="#000000" d="M 485.5,41.5 C 571.069,38.054 649.735,59.2207 721.5,105C 629.787,179.56 577.62,276.06 565,394.5C 556.198,531.818 601.032,647.984 699.5,743C 706.833,749 714.167,755 721.5,761C 635.634,815.604 542.301,834.937 441.5,819C 310.105,792.564 214.272,719.731 154,600.5C 104.757,490.419 104.09,380.086 152,269.5C 197.309,174.856 268.475,107.689 365.5,68C 404.426,53.7652 444.426,44.9318 485.5,41.5 Z"/></g>
</svg>
