<?xml version="1.0" encoding="UTF-8"?>
<!DOCTYPE svg PUBLIC "-//W3C//DTD SVG 1.1//EN" "http://www.w3.org/Graphics/SVG/1.1/DTD/svg11.dtd">
<svg xmlns="http://www.w3.org/2000/svg" version="1.1" width="874px" height="864px" style="shape-rendering:geometricPrecision; text-rendering:geometricPrecision; image-rendering:optimizeQuality; fill-rule:evenodd; clip-rule:evenodd" xmlns:xlink="http://www.w3.org/1999/xlink">
<g><path style="opacity:1" fill="#fefefe" d="M -0.5,-0.5 C 290.833,-0.5 582.167,-0.5 873.5,-0.5C 873.5,287.5 873.5,575.5 873.5,863.5C 582.167,863.5 290.833,863.5 -0.5,863.5C -0.5,575.5 -0.5,287.5 -0.5,-0.5 Z"/></g>
<g><path style="opacity:1" fill="#bebebe" d="M 494.5,13.5 C 585.738,10.0094 669.738,32.5094 746.5,81C 758.678,89.5892 770.678,98.4225 782.5,107.5C 783.666,119.82 783.833,132.153 783,144.5C 691.543,231.801 649.876,338.801 658,465.5C 667.66,566.815 709.327,652.148 783,721.5C 783.833,733.847 783.666,746.18 782.5,758.5C 688.604,832.548 581.938,862.714 462.5,849C 330.049,828.252 228.549,761.419 158,648.5C 101.186,550.14 85.186,445.473 110,334.5C 139.858,219.206 205.691,131.04 307.5,70C 365.544,36.7635 427.878,17.9302 494.5,13.5 Z"/></g>
<g><path style="opacity:1" fill="#000000" d="M 495.5,41.5 C 584.462,38.2323 665.796,61.0657 739.5,110C 747.119,115.284 754.452,120.951 761.5,127C 684.8,199.573 640.966,288.739 630,394.5C 621.035,529.813 664.535,644.813 760.5,739.5C 707.194,782.306 646.527,809.139 578.5,820C 458.663,835.886 352.663,805.22 260.5,728C 166.759,642.534 122.259,536.034 127,408.5C 136.877,289.218 188.71,193.051 282.5,120C 345.822,73.3885 416.822,47.2218 495.5,41.5 Z"/></g>
</svg>
