<?xml version="1.0" encoding="UTF-8"?>
<!DOCTYPE svg PUBLIC "-//W3C//DTD SVG 1.1//EN" "http://www.w3.org/Graphics/SVG/1.1/DTD/svg11.dtd">
<svg xmlns="http://www.w3.org/2000/svg" version="1.1" width="880px" height="872px" style="shape-rendering:geometricPrecision; text-rendering:geometricPrecision; image-rendering:optimizeQuality; fill-rule:evenodd; clip-rule:evenodd" xmlns:xlink="http://www.w3.org/1999/xlink">
<g><path style="opacity:1" fill="#fefefe" d="M -0.5,-0.5 C 290.833,-0.5 582.167,-0.5 873.5,-0.5C 874.167,4.83333 874.833,4.83333 875.5,-0.5C 876.833,-0.5 878.167,-0.5 879.5,-0.5C 879.5,290.167 879.5,580.833 879.5,871.5C 586.167,871.5 292.833,871.5 -0.5,871.5C -0.5,580.833 -0.5,290.167 -0.5,-0.5 Z"/></g>
<g><path style="opacity:1" fill="#000000" d="M 873.5,-0.5 C 874.167,-0.5 874.833,-0.5 875.5,-0.5C 874.833,4.83333 874.167,4.83333 873.5,-0.5 Z"/></g>
<g><path style="opacity:1" fill="#bebebe" d="M 464.5,15.5 C 588.097,11.5099 694.264,51.8432 783,136.5C 784,135.5 785,134.5 786,133.5C 786.667,146.833 786.667,160.167 786,173.5C 714.149,255.039 680.816,350.372 686,459.5C 692.523,550.483 725.856,629.816 786,697.5C 786.667,710.833 786.667,724.167 786,737.5C 784.867,735.789 783.367,735.289 781.5,736C 686.814,825.678 574.147,864.678 443.5,853C 306.748,834.759 201.914,767.592 129,651.5C 71.3778,551.425 55.7112,445.092 82,332.5C 121.434,192.404 208.601,95.2378 343.5,41C 382.906,27.4202 423.239,18.9202 464.5,15.5 Z"/></g>
<g><path style="opacity:1" fill="#000000" d="M 465.5,43.5 C 581.272,39.7892 680.606,77.6226 763.5,157C 693.813,236.297 658.48,329.13 657.5,435.5C 658.877,540.842 693.71,633.175 762,712.5C 762.667,713.5 762.667,714.5 762,715.5C 679.26,794.427 580.427,831.593 465.5,827C 342.646,816.674 244.479,762.508 171,664.5C 103.987,567.101 82.9874,460.434 108,344.5C 135.904,235.443 198.071,152.276 294.5,95C 347.827,65.2569 404.827,48.0902 465.5,43.5 Z"/></g>
</svg>
