<svg xmlns="http://www.w3.org/2000/svg" width="450" height="556" style="shape-rendering:geometricPrecision;text-rendering:geometricPrecision;image-rendering:optimizeQuality;fill-rule:evenodd;clip-rule:evenodd"><path style="opacity:.976" fill="#eaeaea" d="M366.5 107.5c-3.417 1.981-3.751 4.315-1 7a7.248 7.248 0 0 0 2.5-2l.5 2.5a89.219 89.219 0 0 0-6 15 22.956 22.956 0 0 0 1 5c-2.402 3.024-2.568 6.19-.5 9.5a185.56 185.56 0 0 1-1.5 40 12.906 12.906 0 0 0 1 4 201.482 201.482 0 0 0-3.5 29 88.638 88.638 0 0 1-3.5 12c3.09-.67 4.757.497 5 3.5-1.771 8.034-4.771 15.534-9 22.5a51.569 51.569 0 0 1 1-7c-1.644-.214-3.144.12-4.5 1-.758 2.269-.591 4.436.5 6.5-9.103 6.79-15.603 15.624-19.5 26.5-5.643 2.838-8.81 7.505-9.5 14l-4 2c-1.153 6.172-3.153 6.506-6 1l-1 1.5c1.725 2.886 2.392 6.052 2 9.5-4.304.047-7.637 1.881-10 5.5-5.857 1.813-8.357-.354-7.5-6.5-4 3-6 2-6-3a4308.072 4308.072 0 0 0 17-34 14.488 14.488 0 0 1 5.5-5 63.221 63.221 0 0 1 7-11c1.489-4.989 3.822-9.489 7-13.5a60.931 60.931 0 0 1 11-.5 32.462 32.462 0 0 1 .5-8c3.129-.63 6.296-1.296 9.5-2 2.315-2.525 3.815-5.525 4.5-9a293.651 293.651 0 0 0 3-42c2.477-3.224 3.143-6.89 2-11a51.775 51.775 0 0 0-4-7c-.037-6.899-1.037-13.565-3-20l-5-8-1-17c-2.788-1.912-4.121-4.579-4-8a39.032 39.032 0 0 0-6-9l-1-4-13-13c-4.004-8.995-10.838-14.828-20.5-17.5l-3-5-22-11c-13.978-4.177-28.312-5.51-43-4a75.56 75.56 0 0 0-3 8c-7.671.611-15.338 1.278-23 2-4.575 6.463-10.575 11.13-18 14-6.167 7.5-13 14.333-20.5 20.5a19.057 19.057 0 0 1-2.5 7c-6.21 4.369-10.71 10.036-13.5 17-6.221 6.304-9.555 13.971-10 23l-3 6c-1.972.805-3.472 2.139-4.5 4 1.437 1.521 2.104 3.355 2 5.5a26.737 26.737 0 0 1-3.5 8.5c.295 10.582-3.205 19.749-10.5 27.5a83.383 83.383 0 0 0-2.5 13.5 139.8 139.8 0 0 0-5 9l-1 11-1.5 1.5a80.945 80.945 0 0 1-13-2 220.519 220.519 0 0 1-7.5-17.5c-2.38-.935-4.88-1.268-7.5-1-.16 1.699.007 3.366.5 5 1.9 2.354 3.233 5.02 4 8-.06 6.527 1.606 12.527 5 18a20.441 20.441 0 0 1-.5 10c.394 2.455 1.56 4.455 3.5 6 1.893 5.799 4.393 11.466 7.5 17 1.791 1.96 3.957 3.293 6.5 4a45.567 45.567 0 0 1 4 11 29.517 29.517 0 0 0 4.5 2.5c1.4 3.402 3.567 6.236 6.5 8.5 2.39 7.119 6.057 13.453 11 19a80.235 80.235 0 0 0 8 16c.286 4.302 2.286 7.635 6 10l1 11a172.568 172.568 0 0 0 8 19c.534 3.965.034 7.798-1.5 11.5.2 3.233 1.367 6.067 3.5 8.5-1.117 10.297 3.383 16.13 13.5 17.5a64.888 64.888 0 0 1-12 3c.556.383.889.883 1 1.5h-4c-.12-6.362-2.12-12.362-6-18l1-2c-5.711-12.085-7.711-24.752-6-38-5.994-1.141-10.494-4.474-13.5-10-1.585.876-2.585 2.209-3 4a349.326 349.326 0 0 0 1.5-13 74.086 74.086 0 0 0-1.5-12 167.723 167.723 0 0 0-11.5-18.5c.906-1.699 1.239-3.533 1-5.5a11.988 11.988 0 0 1-6-1l-6-11c-5.886-3.029-7.552-7.696-5-14-2.252-.833-4.419-.833-6.5 0a181.993 181.993 0 0 0-11-27c-2.887-2.252-4.22-5.252-4-9-1.158-.498-1.992-1.331-2.5-2.5a171.542 171.542 0 0 1-1.5-16.5c-5.73-6.892-8.396-14.892-8-24-.605-1.981-1.605-2.315-3-1-2.133-10.783-1.967-21.45.5-32-.038-2.687-1.038-3.354-3-2a116.981 116.981 0 0 0-4-12.5c1.212-1.107.879-1.607-1-1.5.296-6.176 1.963-11.843 5-17 2.596.595 4.263 2.262 5 5 .897-3.45.897-6.784 0-10 4.495-.221 5.161-2.387 2-6.5 2.32-1.713 3.32-.88 3 2.5 2.09.05 3.423-.95 4-3a164.325 164.325 0 0 0-2.5-9c3.16 1.074 5.493 3.074 7 6a19.953 19.953 0 0 1 2.5-8c-1.223-1.114-2.556-1.281-4-.5 1.211.893 1.211 1.726 0 2.5-1.333-2.333-1.333-4.667 0-7 1.299-.59 2.132-1.59 2.5-3a15.39 15.39 0 0 0 3 6 57.933 57.933 0 0 1 13-18c.667-.667.667-1.333 0-2-1.011.837-2.178 1.17-3.5 1-.13-3.229 1.038-4.895 3.5-5 .398-2.732 1.898-4.565 4.5-5.5-1.333-.667-1.333-1.333 0-2a17.346 17.346 0 0 1 7-3.5 4.458 4.458 0 0 1 1.5 2 20.883 20.883 0 0 1 6.5-3.5c3.374-2.749 3.707-5.749 1-9 1.119-1.876 2.786-2.71 5-2.5.979 6.183 2.979 6.516 6 1a9.2 9.2 0 0 0-2-4.5c6.85 2.047 12.684.547 17.5-4.5a8.43 8.43 0 0 0 .5-4c-3.274-.128-3.441-1.461-.5-4 1.463 2.07 3.463 3.403 6 4 1.28-.114 2.113-.78 2.5-2a969.404 969.404 0 0 0-6-5c41.11-18.43 83.11-20.597 126-6.5 40.973 14.553 71.973 40.72 93 78.5Zm-121 79c-.838.342-1.172 1.008-1 2a418.09 418.09 0 0 0-14 36c-.366 4.23-1.366 8.23-3 12h-2a49.87 49.87 0 0 1-14-1c-.494-1.526-1.161-2.859-2-4a97.915 97.915 0 0 0-5.5-20c-1.462-1.937-2.628-3.937-3.5-6 .067-1.459-.266-2.792-1-4-.891-4.109-2.558-7.776-5-11 .098-2.053-.569-3.72-2-5 0-.667-.333-1-1-1 1.721-2.194 4.055-3.361 7-3.5a256.122 256.122 0 0 1 32 0c5.8-.015 10.8 1.819 15 5.5Zm-67-2a168.395 168.395 0 0 0 5 11l2 3a47.647 47.647 0 0 0 5 12v4a79.523 79.523 0 0 1 5 13c.963 5.039.963 10.039 0 15-2.227.901-3.227 2.567-3 5-3.228.914-6.561 1.247-10 1-.801-1.542-1.134-3.208-1-5a117.125 117.125 0 0 1-7.5-19c-.708-.881-1.542-1.547-2.5-2-.177-4.208-1.51-7.874-4-11 .271-1.88-.396-3.213-2-4 .067-1.459-.266-2.792-1-4a6708.195 6708.195 0 0 0-6-12c-1.59-2.495-1.09-4.495 1.5-6a94.524 94.524 0 0 1 18.5-1Z"/><path style="opacity:1" fill="#f1f1f1" d="M188.5 35.5a290.05 290.05 0 0 1 24 1.5l-12 1a79.85 79.85 0 0 1-19 5A282.906 282.906 0 0 0 156 53.5c-8.6 5.38-17.1 10.88-25.5 16.5a240.466 240.466 0 0 0-18 19 29.465 29.465 0 0 0-4.5 2.5c-5.947 7.555-10.614 15.889-14 25a26.598 26.598 0 0 0-3.5 2 91.522 91.522 0 0 1-9.5 20 748.693 748.693 0 0 1 0 37l-1-11c-1.011-.837-2.178-1.17-3.5-1a150.168 150.168 0 0 0-3.5 32 22.956 22.956 0 0 1-2 5 255.142 255.142 0 0 1-2-46 231.378 231.378 0 0 1 4.5-16.5 6.291 6.291 0 0 0-1-3A1789.549 1789.549 0 0 1 93 94.5c3.058-2.457 5.392-5.457 7-9a476.295 476.295 0 0 1 33.5-30c5.145-.572 9.478-2.74 13-6.5a154.026 154.026 0 0 0 15-7l24-4a81.216 81.216 0 0 0 3-2.5Z"/><path style="opacity:.59" fill="#e4e4e4" d="M147.5 35.5a969.404 969.404 0 0 1 6 5c-.387 1.22-1.22 1.886-2.5 2-2.537-.597-4.537-1.93-6-4-2.941 2.539-2.774 3.872.5 4a8.43 8.43 0 0 1-.5 4c-4.816 5.047-10.65 6.547-17.5 4.5a9.2 9.2 0 0 1 2 4.5c-3.021 5.516-5.021 5.183-6-1-2.214-.21-3.881.624-5 2.5 2.707 3.251 2.374 6.251-1 9a20.883 20.883 0 0 0-6.5 3.5 4.458 4.458 0 0 0-1.5-2 17.346 17.346 0 0 0-7 3.5c-1.333.667-1.333 1.333 0 2-2.602.935-4.102 2.768-4.5 5.5-2.462.105-3.63 1.771-3.5 5 1.322.17 2.489-.163 3.5-1 .667.667.667 1.333 0 2a57.933 57.933 0 0 0-13 18 15.39 15.39 0 0 1-3-6c-.368 1.41-1.201 2.41-2.5 3-1.333 2.333-1.333 4.667 0 7 1.211-.774 1.211-1.607 0-2.5 1.444-.781 2.777-.614 4 .5a19.953 19.953 0 0 0-2.5 8c-1.507-2.926-3.84-4.926-7-6 .877 2.827 1.71 5.827 2.5 9-.577 2.05-1.91 3.05-4 3 .32-3.38-.68-4.213-3-2.5 3.161 4.113 2.495 6.279-2 6.5.897 3.216.897 6.55 0 10-.737-2.738-2.404-4.405-5-5 2.498-9.989 6.998-18.989 13.5-27 17.39-28.896 41.223-50.562 71.5-65Z"/><path style="opacity:1" fill="#e4e4e4" d="M215.5 38.5c1.193.47 1.86 1.47 2 3-.482 2.42-1.815 4.253-4 5.5l-11 1-4 4a52.204 52.204 0 0 0-10 1.5 119.662 119.662 0 0 1-13 13 14.962 14.962 0 0 1-3.5-3c-2.505 1.696-4.005 4.03-4.5 7-4.878 2.05-7.711 5.716-8.5 11-5.421 2.921-9.254 7.255-11.5 13 1.89 4.06 1.056 7.393-2.5 10a118.322 118.322 0 0 1-15 29 997.478 997.478 0 0 0-11 39c-7.8 8.587-11.967 18.587-12.5 30h-12c.481-5.103-1.019-9.436-4.5-13a531.586 531.586 0 0 1 2.5-46c.495-3.448-.505-6.281-3-8.5a46.996 46.996 0 0 1 5.5-3.5 225.915 225.915 0 0 0 12-27c3.5-1.5 6-4 7.5-7.5a15.28 15.28 0 0 0 4.5-1.5c.233-2.28 1.066-4.28 2.5-6l10-5c1.431-4.052 4.097-6.885 8-8.5l3-5c5.676-.65 10.009-3.317 13-8a20.507 20.507 0 0 1 8-3c2.667-2 2.667-4 0-6 5.99-2.327 11.99-4.66 18-7 2.63-.845 4.964-.345 7 1.5 1.717-1.169 2.384-2.835 2-5 8.59-1.706 16.924-3.373 25-5Z"/><path style="opacity:1" fill="#f0f0f0" d="M351.5 255.5a374.98 374.98 0 0 0-10.5 21c-6.242 6.48-10.409 14.147-12.5 23a83.084 83.084 0 0 1-7.5 8c-4.034 8.086-8.534 15.753-13.5 23-.958.453-1.792 1.119-2.5 2a253.858 253.858 0 0 0-12.5 50 7.248 7.248 0 0 0-2.5 2c.22-6.655.22-13.322 0-20-1.101-1.894-2.434-2.561-4-2-.895 13.605-2.895 26.939-6 40-4.786 3.492-9.952 4.325-15.5 2.5a9.454 9.454 0 0 1-1.5-2.5c-2.318 6.229-3.484 6.229-3.5 0a194.525 194.525 0 0 1 3-7.5 32.462 32.462 0 0 1 8-.5 6340.489 6340.489 0 0 0 1.5-62 20.64 20.64 0 0 0 2-6 1794.691 1794.691 0 0 1 24-53 13.92 13.92 0 0 0 4-3 688.47 688.47 0 0 0 20-39c3.592-2.797 5.592-6.463 6-11 1.667-1 3-2.333 4-4a74.086 74.086 0 0 1 1.5-12 21.028 21.028 0 0 1 7-2c-.691-10.384.309-20.551 3-30.5a25494.776 25494.776 0 0 0-32.5-64.5 57.516 57.516 0 0 1-3-17 14.584 14.584 0 0 0-4-6 8.43 8.43 0 0 1-.5-4 8.435 8.435 0 0 1-4-.5 609.786 609.786 0 0 1-29-16 420.479 420.479 0 0 0-41 0 14.506 14.506 0 0 1-4 5l-11 1a14.505 14.505 0 0 0-5 4c-4.6-.011-8.933.989-13 3a286.43 286.43 0 0 0-30.5 26.5 58.12 58.12 0 0 0-5 11 23.65 23.65 0 0 1-3.5 3 253.415 253.415 0 0 0-8.5 16 9.454 9.454 0 0 1-2.5 1.5 3.943 3.943 0 0 1 1 2 129.514 129.514 0 0 1-12.5 24.5l-1 14-6 14a328.704 328.704 0 0 1-2 28c-1.117 1.449-1.784 3.116-2 5-3.808 1.723-5.475 4.723-5 9a199.396 199.396 0 0 0-1 25l3 3c-1.503 11.455 2.163 20.789 11 28a44.353 44.353 0 0 0 5 10c3.456 1.048 4.956 3.381 4.5 7h3v6c1.322-.17 2.489.163 3.5 1 1.856 8.577 5.189 16.577 10 24a880.702 880.702 0 0 0 3.5 32c6.367.372 8.534 3.706 6.5 10-1.319 1.987-3.152 3.154-5.5 3.5 3.599.764 5.599 2.93 6 6.5 2.411-.363 3.911.637 4.5 3 .079 3.858.746 7.524 2 11a800.89 800.89 0 0 0 2-42c.232-1.237.732-2.237 1.5-3a376.355 376.355 0 0 0 0 54 81.883 81.883 0 0 1-18 1c-.111-.617-.444-1.117-1-1.5a64.888 64.888 0 0 0 12-3c-10.117-1.37-14.617-7.203-13.5-17.5-2.133-2.433-3.3-5.267-3.5-8.5 1.534-3.702 2.034-7.535 1.5-11.5a172.568 172.568 0 0 1-8-19l-1-11c-3.714-2.365-5.714-5.698-6-10a80.235 80.235 0 0 1-8-16c-4.943-5.547-8.61-11.881-11-19-2.933-2.264-5.1-5.098-6.5-8.5a29.517 29.517 0 0 1-4.5-2.5 45.567 45.567 0 0 0-4-11c-2.543-.707-4.709-2.04-6.5-4-3.107-5.534-5.607-11.201-7.5-17-1.94-1.545-3.106-3.545-3.5-6a20.441 20.441 0 0 0 .5-10c-3.394-5.473-5.06-11.473-5-18-.767-2.98-2.1-5.646-4-8a12.935 12.935 0 0 1-.5-5c2.62-.268 5.12.065 7.5 1a220.519 220.519 0 0 0 7.5 17.5 80.945 80.945 0 0 0 13 2l1.5-1.5 1-11a139.8 139.8 0 0 1 5-9 83.383 83.383 0 0 1 2.5-13.5c7.295-7.751 10.795-16.918 10.5-27.5a26.737 26.737 0 0 0 3.5-8.5c.104-2.145-.563-3.979-2-5.5 1.028-1.861 2.528-3.195 4.5-4l3-6c.445-9.029 3.779-16.696 10-23 2.79-6.964 7.29-12.631 13.5-17a19.057 19.057 0 0 0 2.5-7c7.5-6.167 14.333-13 20.5-20.5 7.425-2.87 13.425-7.537 18-14 7.662-.722 15.329-1.389 23-2a75.56 75.56 0 0 1 3-8c14.688-1.51 29.022-.177 43 4l22 11 3 5c9.662 2.672 16.496 8.505 20.5 17.5l13 13 1 4a39.032 39.032 0 0 1 6 9c-.121 3.421 1.212 6.088 4 8l1 17 5 8c1.963 6.435 2.963 13.101 3 20a51.775 51.775 0 0 1 4 7c1.143 4.11.477 7.776-2 11a293.651 293.651 0 0 1-3 42c-.685 3.475-2.185 6.475-4.5 9-3.204.704-6.371 1.37-9.5 2a32.462 32.462 0 0 0-.5 8 60.931 60.931 0 0 0-11 .5c-3.178 4.011-5.511 8.511-7 13.5a63.221 63.221 0 0 0-7 11 14.488 14.488 0 0 0-5.5 5 4308.072 4308.072 0 0 1-17 34c0 5 2 6 6 3-.857 6.146 1.643 8.313 7.5 6.5 2.363-3.619 5.696-5.453 10-5.5.392-3.448-.275-6.614-2-9.5l1-1.5c2.847 5.506 4.847 5.172 6-1l4-2c.69-6.495 3.857-11.162 9.5-14 3.897-10.876 10.397-19.71 19.5-26.5-1.091-2.064-1.258-4.231-.5-6.5 1.356-.88 2.856-1.214 4.5-1a51.569 51.569 0 0 0-1 7Zm-106-69c-.838.342-1.172 1.008-1 2a418.09 418.09 0 0 0-14 36c-.366 4.23-1.366 8.23-3 12h-2a49.87 49.87 0 0 1-14-1c-.494-1.526-1.161-2.859-2-4a97.915 97.915 0 0 0-5.5-20c-1.462-1.937-2.628-3.937-3.5-6 .067-1.459-.266-2.792-1-4-.891-4.109-2.558-7.776-5-11 .098-2.053-.569-3.72-2-5 0-.667-.333-1-1-1 1.721-2.194 4.055-3.361 7-3.5a256.122 256.122 0 0 1 32 0c5.8-.015 10.8 1.819 15 5.5Zm-67-2a168.395 168.395 0 0 0 5 11l2 3a47.647 47.647 0 0 0 5 12v4a79.523 79.523 0 0 1 5 13c.963 5.039.963 10.039 0 15-2.227.901-3.227 2.567-3 5-3.228.914-6.561 1.247-10 1-.801-1.542-1.134-3.208-1-5a117.125 117.125 0 0 1-7.5-19c-.708-.881-1.542-1.547-2.5-2-.177-4.208-1.51-7.874-4-11 .271-1.88-.396-3.213-2-4 .067-1.459-.266-2.792-1-4a6708.195 6708.195 0 0 0-6-12c-1.59-2.495-1.09-4.495 1.5-6a94.524 94.524 0 0 1 18.5-1Z"/><path style="opacity:1" fill="#f6f6f6" d="M259.5 402.5c.167-16.337 0-32.67-.5-49-.422-1.926-1.589-2.926-3.5-3-.473-1.406-1.473-2.073-3-2v-19c.79 1.109 1.29 2.442 1.5 4a286.64 286.64 0 0 0 2.5-20 72.367 72.367 0 0 0 12-.5c.837-1.011 1.17-2.178 1-3.5h3v-10a23.142 23.142 0 0 1 8-2 396.389 396.389 0 0 0 9.5-28c1.667 1.333 3.333 1.333 5 0a25.777 25.777 0 0 1 2-8c3.298-4.3 6.965-8.3 11-12a188.013 188.013 0 0 1 13-29 296.676 296.676 0 0 1 5-34c.839-5.421.506-10.754-1-16a83.902 83.902 0 0 1-11-25 6056.438 6056.438 0 0 0-14-34l-9.5-9.5a385.98 385.98 0 0 1-17-7c-2.677-4.033-6.344-6.366-11-7-2.395-2.69-5.395-4.357-9-5a361.232 361.232 0 0 0-38 0 9.465 9.465 0 0 0-2.5 1.5 50.464 50.464 0 0 0-.5 10 88.641 88.641 0 0 0-24 2.5c-2.654 3.327-3.654 7.161-3 11.5a40.914 40.914 0 0 0-9 .5c-5.47 5.023-10.97 10.19-16.5 15.5l-1 5a821.072 821.072 0 0 1-16 29 93.208 93.208 0 0 0-2 17c-1.991 4.222-3.158 8.722-3.5 13.5a1817.382 1817.382 0 0 1 1.5 57.5c4.735 7.601 7.735 15.934 9 25 3.719 2.291 5.385 5.624 5 10l2 2 1 17a321.442 321.442 0 0 0 6 13l8.5 8.5c.949.617 1.782.451 2.5-.5 1.207-10.331 3.04-10.331 5.5 0a202.115 202.115 0 0 0 1.5-20c.29-2.452.956-4.785 2-7a247.139 247.139 0 0 1 2 31c.383.556.883.889 1.5 1a162.597 162.597 0 0 1-.5 18c-1.201 3.21-3.201 5.877-6 8a8.43 8.43 0 0 0-.5 4c-.768.763-1.268 1.763-1.5 3a800.89 800.89 0 0 1-2 42c-1.254-3.476-1.921-7.142-2-11-.589-2.363-2.089-3.363-4.5-3-.401-3.57-2.401-5.736-6-6.5 2.348-.346 4.181-1.513 5.5-3.5 2.034-6.294-.133-9.628-6.5-10a880.702 880.702 0 0 1-3.5-32c-4.811-7.423-8.144-15.423-10-24-1.011-.837-2.178-1.17-3.5-1v-6h-3c.456-3.619-1.044-5.952-4.5-7a44.353 44.353 0 0 1-5-10c-8.837-7.211-12.503-16.545-11-28l-3-3a199.396 199.396 0 0 1 1-25c-.475-4.277 1.192-7.277 5-9 .216-1.884.883-3.551 2-5a328.704 328.704 0 0 0 2-28l6-14 1-14a129.514 129.514 0 0 0 12.5-24.5 3.943 3.943 0 0 0-1-2 9.454 9.454 0 0 0 2.5-1.5 253.415 253.415 0 0 1 8.5-16 23.65 23.65 0 0 0 3.5-3 58.12 58.12 0 0 1 5-11A286.43 286.43 0 0 1 196.5 77c4.067-2.011 8.4-3.011 13-3a14.505 14.505 0 0 1 5-4l11-1a14.506 14.506 0 0 0 4-5 420.479 420.479 0 0 1 41 0 609.786 609.786 0 0 0 29 16 8.435 8.435 0 0 0 4 .5 8.43 8.43 0 0 0 .5 4 14.584 14.584 0 0 1 4 6 57.516 57.516 0 0 0 3 17 25494.776 25494.776 0 0 1 32.5 64.5c-2.691 9.949-3.691 20.116-3 30.5a21.028 21.028 0 0 0-7 2 74.086 74.086 0 0 0-1.5 12c-1 1.667-2.333 3-4 4-.408 4.537-2.408 8.203-6 11a688.47 688.47 0 0 1-20 39 13.92 13.92 0 0 1-4 3 1794.691 1794.691 0 0 0-24 53 20.64 20.64 0 0 1-2 6 6340.489 6340.489 0 0 1-1.5 62 32.462 32.462 0 0 0-8 .5 194.525 194.525 0 0 0-3 7.5Zm-14-216c-.838.342-1.172 1.008-1 2a418.09 418.09 0 0 0-14 36c-.366 4.23-1.366 8.23-3 12h-2a49.87 49.87 0 0 1-14-1c-.494-1.526-1.161-2.859-2-4a97.915 97.915 0 0 0-5.5-20c-1.462-1.937-2.628-3.937-3.5-6 .067-1.459-.266-2.792-1-4-.891-4.109-2.558-7.776-5-11 .098-2.053-.569-3.72-2-5 0-.667-.333-1-1-1 1.721-2.194 4.055-3.361 7-3.5a256.122 256.122 0 0 1 32 0c5.8-.015 10.8 1.819 15 5.5Zm-67-2a168.395 168.395 0 0 0 5 11l2 3a47.647 47.647 0 0 0 5 12v4a79.523 79.523 0 0 1 5 13c.963 5.039.963 10.039 0 15-2.227.901-3.227 2.567-3 5-3.228.914-6.561 1.247-10 1-.801-1.542-1.134-3.208-1-5a117.125 117.125 0 0 1-7.5-19c-.708-.881-1.542-1.547-2.5-2-.177-4.208-1.51-7.874-4-11 .271-1.88-.396-3.213-2-4 .067-1.459-.266-2.792-1-4a6708.195 6708.195 0 0 0-6-12c-1.59-2.495-1.09-4.495 1.5-6a94.524 94.524 0 0 1 18.5-1Z"/><path style="opacity:1" fill="#ddd" d="M144.5 80.5a4.932 4.932 0 0 1 3 .5 15.252 15.252 0 0 0-1.5 4.5c-3.098 2.428-5.431 5.428-7 9a4827.153 4827.153 0 0 1-7 21c-6.671 10.003-11.005 21.003-13 33a13.92 13.92 0 0 1-4 3l-1 11c-.817 3.819-3.15 5.819-7 6-1.707 2.409-2.54 5.075-2.5 8h-10c-.331-8.36.002-16.693 1-25a14.984 14.984 0 0 0 3.5-3l1-16a67.09 67.09 0 0 0 8-19 26.489 26.489 0 0 1 10-6 54.199 54.199 0 0 1 4.5-12.5l12-5a133.67 133.67 0 0 1 10-9.5Z"/><path style="opacity:1" fill="#fcfcfc" d="M252.5 329.5c-.167-12.338 0-24.671.5-37a7.293 7.293 0 0 1 2-3l1-13 3-3 1-9 2-2 1-10 3-3a247.326 247.326 0 0 1 2.5-16c.717-2.453 1.884-4.787 3.5-7 .195-6.222 2.362-11.722 6.5-16.5a74.344 74.344 0 0 0 1.5-9.5c1.883-1.153 2.716-2.819 2.5-5 3.258-2.869 4.591-6.536 4-11h3a60.931 60.931 0 0 0-.5-11c-1.699-.906-3.533-1.239-5.5-1v3h-20c1.784-3.247.784-5.247-3-6-1.529.029-2.696.696-3.5 2a22.144 22.144 0 0 0-4 7c-6.869-5.24-14.702-7.407-23.5-6.5-2.837-1.902-6.004-2.735-9.5-2.5a250.801 250.801 0 0 0-32.5 3.5 11.38 11.38 0 0 1-2 2.5c-.783-1.788-2.116-2.788-4-3-2.283-2.714-4.283-2.547-6 .5-6.039 2.424-12.372 3.757-19 4a19.887 19.887 0 0 1-4 3.5 19.887 19.887 0 0 1-4-3.5 18.453 18.453 0 0 0-6-.5v8c1.322-.17 2.489.163 3.5 1 2.253 3.575 4.087 7.241 5.5 11 .667 0 1 .333 1 1a146.088 146.088 0 0 1 3.5 15c3.151 3.66 5.651 7.66 7.5 12v2c1.56 3.413 2.393 7.079 2.5 11 1.299.59 2.132 1.59 2.5 3a126.57 126.57 0 0 0 11 28 32.462 32.462 0 0 0 .5 8 189.285 189.285 0 0 1 5 12c.5 12.662.667 25.329.5 38-.617-.111-1.117-.444-1.5-1a247.139 247.139 0 0 0-2-31 22.508 22.508 0 0 0-2 7 202.115 202.115 0 0 1-1.5 20c-2.46-10.331-4.293-10.331-5.5 0-.718.951-1.551 1.117-2.5.5l-8.5-8.5a321.442 321.442 0 0 1-6-13l-1-17-2-2c.385-4.376-1.281-7.709-5-10-1.265-9.066-4.265-17.399-9-25a1817.382 1817.382 0 0 0-1.5-57.5c.342-4.778 1.509-9.278 3.5-13.5a93.208 93.208 0 0 1 2-17 821.072 821.072 0 0 0 16-29l1-5c5.53-5.31 11.03-10.477 16.5-15.5a40.914 40.914 0 0 1 9-.5c-.654-4.339.346-8.173 3-11.5a88.641 88.641 0 0 1 24-2.5c-.165-3.35.002-6.683.5-10a9.465 9.465 0 0 1 2.5-1.5 361.232 361.232 0 0 1 38 0c3.605.643 6.605 2.31 9 5 4.656.634 8.323 2.967 11 7a385.98 385.98 0 0 0 17 7l9.5 9.5a6056.438 6056.438 0 0 1 14 34 83.902 83.902 0 0 0 11 25c1.506 5.246 1.839 10.579 1 16a296.676 296.676 0 0 0-5 34 188.013 188.013 0 0 0-13 29 93.285 93.285 0 0 0-11 12 25.777 25.777 0 0 0-2 8c-1.667 1.333-3.333 1.333-5 0a396.389 396.389 0 0 1-9.5 28c-2.808.193-5.475.86-8 2v10h-3c.17 1.322-.163 2.489-1 3.5a72.367 72.367 0 0 1-12 .5 286.64 286.64 0 0 1-2.5 20c-.21-1.558-.71-2.891-1.5-4Zm-7-143c-.838.342-1.172 1.008-1 2a418.09 418.09 0 0 0-14 36c-.366 4.23-1.366 8.23-3 12h-2a49.87 49.87 0 0 1-14-1c-.494-1.526-1.161-2.859-2-4a97.915 97.915 0 0 0-5.5-20c-1.462-1.937-2.628-3.937-3.5-6 .067-1.459-.266-2.792-1-4-.891-4.109-2.558-7.776-5-11 .098-2.053-.569-3.72-2-5 0-.667-.333-1-1-1 1.721-2.194 4.055-3.361 7-3.5a256.122 256.122 0 0 1 32 0c5.8-.015 10.8 1.819 15 5.5Zm-67-2a168.395 168.395 0 0 0 5 11l2 3a47.647 47.647 0 0 0 5 12v4a79.523 79.523 0 0 1 5 13c.963 5.039.963 10.039 0 15-2.227.901-3.227 2.567-3 5-3.228.914-6.561 1.247-10 1-.801-1.542-1.134-3.208-1-5a117.125 117.125 0 0 1-7.5-19c-.708-.881-1.542-1.547-2.5-2-.177-4.208-1.51-7.874-4-11 .271-1.88-.396-3.213-2-4 .067-1.459-.266-2.792-1-4a6708.195 6708.195 0 0 0-6-12c-1.59-2.495-1.09-4.495 1.5-6a94.524 94.524 0 0 1 18.5-1Z"/><path style="opacity:.951" fill="#e1e1e1" d="M366.5 107.5a156.456 156.456 0 0 1 8.5 16 90.942 90.942 0 0 1 2.5 10c-1.682 1.217-3.682 2.884-6 5a1251.938 1251.938 0 0 0-1.5 50 6605.064 6605.064 0 0 0-4.5 27c.508 4.661.008 9.328-1.5 14a490.513 490.513 0 0 1-9 22 12.93 12.93 0 0 0-.5 5 717.915 717.915 0 0 0-16.5 32 154.507 154.507 0 0 1-9.5 11c2.091-8.853 6.258-16.52 12.5-23a374.98 374.98 0 0 1 10.5-21c4.229-6.966 7.229-14.466 9-22.5-.243-3.003-1.91-4.17-5-3.5a88.638 88.638 0 0 0 3.5-12 201.482 201.482 0 0 1 3.5-29 12.906 12.906 0 0 1-1-4 185.56 185.56 0 0 0 1.5-40c-2.068-3.31-1.902-6.476.5-9.5a22.956 22.956 0 0 1-1-5 89.219 89.219 0 0 1 6-15l-.5-2.5a7.248 7.248 0 0 1-2.5 2c-2.751-2.685-2.417-5.019 1-7Z"/><path style="opacity:.988" fill="#d6d6d6" d="M377.5 133.5a100.083 100.083 0 0 1 5 15c-1.25-.077-2.083-.744-2.5-2l-1 1a102.127 102.127 0 0 1-4 12c-.073 24.09-3.073 47.756-9 71a465.802 465.802 0 0 1-11.5 26 12.93 12.93 0 0 1 .5-5 490.513 490.513 0 0 0 9-22c1.508-4.672 2.008-9.339 1.5-14a6605.064 6605.064 0 0 1 4.5-27c.167-16.677.667-33.343 1.5-50 2.318-2.116 4.318-3.783 6-5Z"/><path style="opacity:.894" fill="#e3e3e3" d="M57.5 144.5c1.879-.107 2.212.393 1 1.5a116.981 116.981 0 0 1 4 12.5c1.962-1.354 2.962-.687 3 2-2.467 10.55-2.633 21.217-.5 32 1.395-1.315 2.395-.981 3 1-.396 9.108 2.27 17.108 8 24 .236 5.538.736 11.038 1.5 16.5.508 1.169 1.342 2.002 2.5 2.5-.22 3.748 1.113 6.748 4 9a181.993 181.993 0 0 1 11 27c2.081-.833 4.248-.833 6.5 0-2.552 6.304-.886 10.971 5 14l6 11a11.988 11.988 0 0 0 6 1c.239 1.967-.094 3.801-1 5.5a167.723 167.723 0 0 1 11.5 18.5 74.086 74.086 0 0 1 1.5 12 349.326 349.326 0 0 1-1.5 13c.415-1.791 1.415-3.124 3-4 3.006 5.526 7.506 8.859 13.5 10-1.711 13.248.289 25.915 6 38l-1 2c3.88 5.638 5.88 11.638 6 18-.996.086-1.829-.248-2.5-1a84.85 84.85 0 0 0-7-16 97.638 97.638 0 0 1-3-13 7.293 7.293 0 0 0-2-3c-.186-8.791-2.186-17.124-6-25l-5-2a30.786 30.786 0 0 0-4.5 3 424.287 424.287 0 0 1-8-22c2.243-1.005 2.576-2.505 1-4.5a660.832 660.832 0 0 1 3-5 7.293 7.293 0 0 0-3-2c-2.389-9.823-7.555-18.323-15.5-25.5a97.864 97.864 0 0 0-13-19 22.5 22.5 0 0 1-2-7l-5-5c-.58-3.088-1.912-5.755-4-8a79.084 79.084 0 0 0-2-10c-.667-2-2-3.333-4-4-.376-7.293-2.543-13.96-6.5-20a3.647 3.647 0 0 0-1.5 1 37.795 37.795 0 0 0-2.5-12c-1.032 1.54-2.365 2.04-4 1.5 1.497-3.172.497-5.005-3-5.5a155.585 155.585 0 0 1-2-28.5 138.636 138.636 0 0 1 3-34.5Z"/><path style="opacity:.314" fill="#bfbfbf" d="M383.5 154.5c4.186 43.981-4.981 84.648-27.5 122a208.311 208.311 0 0 1-4.5 5 30.334 30.334 0 0 1-.5-10 9.568 9.568 0 0 0 3 3l1.5-1c-1.729-2.351-2.396-5.018-2-8h3a12.992 12.992 0 0 0-1-5.5c.454-1.622 1.454-2.788 3-3.5 1.705-8.304 4.705-15.971 9-23a7.248 7.248 0 0 1 2.5 2l.5-2a37.222 37.222 0 0 1-.5-14 105.448 105.448 0 0 0 4-18 1356.513 1356.513 0 0 0 3-41 60.377 60.377 0 0 1 3.5-10c.557 1.832 1.557 3.165 3 4Z"/><path style="opacity:.793" fill="#efefef" d="M282.5 195.5c1.953-3.677 2.953-7.677 3-12 2.672-1.891 3.672-4.558 3-8-8.811 2.209-17.811 2.542-27 1-1.764-3.462-3.931-3.462-6.5 0-.129 3.618-1.962 5.285-5.5 5v5h-4c-4.2-3.681-9.2-5.515-15-5.5a256.122 256.122 0 0 0-32 0c-2.945.139-5.279 1.306-7 3.5a70.849 70.849 0 0 1-10-10v-2c1.884.212 3.217 1.212 4 3a11.38 11.38 0 0 0 2-2.5 250.801 250.801 0 0 1 32.5-3.5c3.496-.235 6.663.598 9.5 2.5 8.798-.907 16.631 1.26 23.5 6.5a22.144 22.144 0 0 1 4-7c.804-1.304 1.971-1.971 3.5-2 3.784.753 4.784 2.753 3 6h20v-3c1.967-.239 3.801.094 5.5 1 .499 3.652.665 7.318.5 11h-3c.591 4.464-.742 8.131-4 11Z"/><path style="opacity:.356" fill="#d0cfd0" d="M181.5 172.5v2h-4c-.104 2.59.563 4.923 2 7a10.014 10.014 0 0 1-1 3 94.524 94.524 0 0 0-18.5 1c-2.59 1.505-3.09 3.505-1.5 6h-3c.268-1.599-.066-2.932-1-4a30.233 30.233 0 0 1-3.5-3c-.481-4.652-2.981-6.985-7.5-7 2.686 5.76 5.353 11.427 8 17v2c-1.413-3.759-3.247-7.425-5.5-11-1.011-.837-2.178-1.17-3.5-1v-8a18.453 18.453 0 0 1 6 .5 19.887 19.887 0 0 0 4 3.5 19.887 19.887 0 0 0 4-3.5c6.628-.243 12.961-1.576 19-4 1.717-3.047 3.717-3.214 6-.5Z"/><path style="opacity:.997" fill="#d8d8d8" d="M285.5 183.5c3.046-6.19 1.879-7.19-3.5-3-.002 2.551-.836 4.551-2.5 6v-6c-8.3-.584-16.3.583-24 3.5a182.501 182.501 0 0 0-4.5 14.5c-.697 2.084-1.864 3.751-3.5 5l2-14c-1.792.134-3.458-.199-5-1-.172-.992.162-1.658 1-2h4v-5c3.538.285 5.371-1.382 5.5-5 2.569-3.462 4.736-3.462 6.5 0 9.189 1.542 18.189 1.209 27-1 .672 3.442-.328 6.109-3 8Z"/><path style="opacity:1" fill="#fbfbfb" d="M279.5 186.5a902.556 902.556 0 0 1-6 13c-1.624-.14-2.79.527-3.5 2a167.354 167.354 0 0 1-4 16l-2 2a50.464 50.464 0 0 0-.5 10c-1.59 3.447-2.59 7.113-3 11v1l-3 3c-.487 3.296-1.654 6.296-3.5 9a40.914 40.914 0 0 0-.5 9v1c-1.673.843-2.84 2.176-3.5 4a329.605 329.605 0 0 0-3.5 22v4c-.722.418-1.222 1.084-1.5 2-.5 14.996-.667 29.996-.5 45a32.462 32.462 0 0 1-8-.5 9.454 9.454 0 0 1-1.5-2.5 2660.526 2660.526 0 0 0-1.5-72.5c.906-1.699 1.239-3.533 1-5.5.709-.904 1.709-1.237 3-1a13.227 13.227 0 0 1 5-2c.783-6.486-.55-12.319-4-17.5 2.01-11.88 5.01-23.38 9-34.5v-1c1.636-1.249 2.803-2.916 3.5-5a182.501 182.501 0 0 1 4.5-14.5c7.7-2.917 15.7-4.084 24-3.5v6Z"/><path style="opacity:.99" fill="#969696" d="M154.5 187.5h-3v7a2653.831 2653.831 0 0 1-8-17c4.519.015 7.019 2.348 7.5 7a30.233 30.233 0 0 0 3.5 3Z"/><path style="opacity:.755" fill="#c2c2c2" d="M181.5 174.5a70.849 70.849 0 0 0 10 10c.667 0 1 .333 1 1a26.472 26.472 0 0 1-7 5c.098 2.053-.569 3.72-2 5a168.395 168.395 0 0 1-5-11c.482-.916.815-1.916 1-3-1.437-2.077-2.104-4.41-2-7h4Z"/><path style="opacity:.303" fill="#adadad" d="M192.5 185.5c1.431 1.28 2.098 2.947 2 5-1.894.548-3.56 1.548-5 3-.634 2.272-1.968 3.939-4 5l-2-3c1.431-1.28 2.098-2.947 2-5a26.472 26.472 0 0 0 7-5Z"/><path style="opacity:1" fill="#b0b0b0" d="M285.5 183.5a177.93 177.93 0 0 0-6.5 14 45.984 45.984 0 0 1-2 10c-.708.881-1.542 1.547-2.5 2 .262-1.478-.071-2.811-1-4a173.55 173.55 0 0 1-3 4c.055-3.682 1.055-7.015 3-10a902.556 902.556 0 0 0 6-13c1.664-1.449 2.498-3.449 2.5-6 5.379-4.19 6.546-3.19 3.5 3Z"/><path style="opacity:.675" fill="#7c7c7c" d="M154.5 187.5c.934 1.068 1.268 2.401 1 4h3c1.999 3.988 3.999 7.988 6 12h-3c.117 1.984-.55 3.65-2 5a20.2 20.2 0 0 1-1.5-6c-1.011-.837-2.178-1.17-3.5-1-.489-1.495-1.155-2.829-2-4 0-.667-.333-1-1-1v-9h3Z"/><path style="opacity:.167" fill="#b8b8b8" d="M194.5 190.5c2.442 3.224 4.109 6.891 5 11a2.428 2.428 0 0 0-2 .5c-1.473 3.631-3.806 6.464-7 8.5a47.647 47.647 0 0 1-5-12c2.032-1.061 3.366-2.728 4-5 1.44-1.452 3.106-2.452 5-3Z"/><path style="opacity:1" fill="#dadada" d="M285.5 183.5c-.047 4.323-1.047 8.323-3 12 .216 2.181-.617 3.847-2.5 5a74.344 74.344 0 0 1-1.5 9.5c-4.138 4.778-6.305 10.278-6.5 16.5-1.616 2.213-2.783 4.547-3.5 7-.163-2.357.003-4.69.5-7a242.624 242.624 0 0 0 5.5-17c.958-.453 1.792-1.119 2.5-2a45.984 45.984 0 0 0 2-10 177.93 177.93 0 0 1 6.5-14Z"/><path style="opacity:.098" fill="#a0a0a0" d="M199.5 201.5c.734 1.208 1.067 2.541 1 4-1.306.967-1.973 2.301-2 4h-3c0 3.333-1.667 5-5 5v-4c3.194-2.036 5.527-4.869 7-8.5a2.428 2.428 0 0 1 2-.5Z"/><path style="opacity:.292" fill="#696969" d="M165.5 207.5c1.604.787 2.271 2.12 2 4-1.693.975-3.193 2.308-4.5 4-1.694-2.183-1.861-4.516-.5-7a5.576 5.576 0 0 1 3-1Z"/><path style="opacity:1" fill="#e6e6e6" d="M273.5 199.5c-1.945 2.985-2.945 6.318-3 10-1.845 7.002-4.178 13.669-7 20-.165-3.35.002-6.683.5-10l2-2a167.354 167.354 0 0 0 4-16c.71-1.473 1.876-2.14 3.5-2Z"/><path style="opacity:1" fill="#cfcfcf" d="M152.5 197.5c.845 1.171 1.511 2.505 2 4 3.796 7.274 6.796 14.94 9 23-1.849-4.34-4.349-8.34-7.5-12a146.088 146.088 0 0 0-3.5-15Z"/><path style="opacity:.536" fill="#898989" d="M154.5 201.5c1.322-.17 2.489.163 3.5 1a20.2 20.2 0 0 0 1.5 6c1.45-1.35 2.117-3.016 2-5h3c.734 1.208 1.067 2.541 1 4a5.576 5.576 0 0 0-3 1c-1.361 2.484-1.194 4.817.5 7 1.307-1.692 2.807-3.025 4.5-4 2.49 3.126 3.823 6.792 4 11-.709.904-1.709 1.237-3 1v-7c-1.322-.17-2.489.163-3.5 1a40.914 40.914 0 0 0-.5 9h-1v-2c-2.204-8.06-5.204-15.726-9-23Z"/><path style="opacity:1" fill="#9e9e9e" d="M274.5 209.5a242.624 242.624 0 0 1-5.5 17 24.935 24.935 0 0 0-.5 7c-1.29.558-2.123 1.558-2.5 3a116.123 116.123 0 0 1-2 13c-.383.556-.883.889-1.5 1a33.73 33.73 0 0 0 1.5-13l-1-1a51.22 51.22 0 0 0-2.5 4c.41-3.887 1.41-7.553 3-11 2.822-6.331 5.155-12.998 7-20a173.55 173.55 0 0 0 3-4c.929 1.189 1.262 2.522 1 4Z"/><path style="opacity:.115" fill="#b1b1b1" d="M200.5 205.5c.872 2.063 2.038 4.063 3.5 6a97.915 97.915 0 0 1 5.5 20 232.069 232.069 0 0 0-7 9c.368-3.124-.798-5.457-3.5-7a18.453 18.453 0 0 1-.5-6h-3a79.523 79.523 0 0 0-5-13c3.333 0 5-1.667 5-5h3c.027-1.699.694-3.033 2-4Z"/><path style="opacity:.731" fill="#acacac" d="M227.5 236.5c1.634-3.77 2.634-7.77 3-12 3.25-1.791 5.083-.791 5.5 3a322.84 322.84 0 0 0 .5 17c-1.643-.02-2.976.647-4 2a950.1 950.1 0 0 1-5-10Z"/><path style="opacity:1" fill="#e7e7e7" d="M247.5 204.5c-3.99 11.12-6.99 22.62-9 34.5 3.45 5.181 4.783 11.014 4 17.5a13.227 13.227 0 0 0-5 2v-1c2.892-3.397 3.726-7.397 2.5-12-1.908-1.318-2.742-3.152-2.5-5.5.515-8.334 1.848-16.5 4-24.5a3.647 3.647 0 0 0 1.5-1c.498-2.982.665-5.982.5-9 1.459.067 2.792-.266 4-1Z"/><path style="opacity:1" fill="#cdcdcd" d="M163.5 226.5h1c4.33 11.25 8.663 22.584 13 34 1.928 2.281 2.928 4.947 3 8h-1a126.57 126.57 0 0 1-11-28c-.368-1.41-1.201-2.41-2.5-3-.107-3.921-.94-7.587-2.5-11Z"/><path style="opacity:.217" fill="#a4a3a4" d="M209.5 231.5c.839 1.141 1.506 2.474 2 4a49.87 49.87 0 0 0 14 1c-.111.617-.444 1.117-1 1.5 1.537 1.11 2.203 2.61 2 4.5h-17c.667 4-1 5.667-5 5 .256-2.412-.744-4.079-3-5 .363-.683.696-1.35 1-2a232.069 232.069 0 0 1 7-9Z"/><path style="opacity:.569" fill="#d7d7d7" d="M195.5 227.5h3a18.453 18.453 0 0 0 .5 6c2.702 1.543 3.868 3.876 3.5 7l-7 2c.963-4.961.963-9.961 0-15Z"/><path style="opacity:1" fill="#c6c6c6" d="M244.5 188.5c1.542.801 3.208 1.134 5 1l-2 14v1c-1.208.734-2.541 1.067-4 1a40.914 40.914 0 0 1-.5 9 3.647 3.647 0 0 1-1.5 1c-2.152 8-3.485 16.166-4 24.5-.242 2.348.592 4.182 2.5 5.5 1.226 4.603.392 8.603-2.5 12h-6c-.067-1.459.266-2.792 1-4h1c3.186-1.037 4.186-3.037 3-6-1.831 1.429-3.831 1.929-6 1.5-.837-1.011-1.17-2.178-1-3.5a162.597 162.597 0 0 0-18 .5c-1.427 1.797-3.26 2.964-5.5 3.5-1.567-1.356-3.4-2.023-5.5-2v3c-.968-2.107-1.302-4.441-1-7h-4c.463 2.982.796 5.982 1 9-.611-2.211-1.944-3.878-4-5-.227-2.433.773-4.099 3-5l7-2c-.304.65-.637 1.317-1 2 2.256.921 3.256 2.588 3 5 4 .667 5.667-1 5-5h17c.203-1.89-.463-3.39-2-4.5.556-.383.889-.883 1-1.5h2a950.1 950.1 0 0 0 5 10c1.024-1.353 2.357-2.02 4-2a322.84 322.84 0 0 1-.5-17c-.417-3.791-2.25-4.791-5.5-3a418.09 418.09 0 0 1 14-36Z"/><path style="opacity:1" fill="#e8e8e8" d="M233.5 253.5c-2.607-1.678-4.941-3.844-7-6.5a49.226 49.226 0 0 0-14 0c-2.346 2.876-5.013 5.042-8 6.5-1.904-.238-3.238-1.238-4-3v-3c2.1-.023 3.933.644 5.5 2 2.24-.536 4.073-1.703 5.5-3.5a162.597 162.597 0 0 1 18-.5c-.17 1.322.163 2.489 1 3.5 2.169.429 4.169-.071 6-1.5 1.186 2.963.186 4.963-3 6Z"/><path style="opacity:.953" fill="#fafafa" d="M192.5 247.5c2.056 1.122 3.389 2.789 4 5 1.846 1.53 2.846 3.53 3 6h4v80a57.403 57.403 0 0 1-9 2c.167-16.67 0-33.337-.5-50a81.316 81.316 0 0 0-2.5-3 24.935 24.935 0 0 0-.5-7c-.377-1.442-1.21-2.442-2.5-3-.838-.342-1.172-1.008-1-2a185.928 185.928 0 0 1-5-25v-2c3.439.247 6.772-.086 10-1Z"/><path style="opacity:1" fill="#fdfdfd" d="M233.5 253.5h-1c-2.412.194-3.412 1.527-3 4-1.25.077-2.083.744-2.5 2l-1 71-1 4a51.532 51.532 0 0 0-9-8 35.716 35.716 0 0 0-3 9 1496.018 1496.018 0 0 1-2-77 81.316 81.316 0 0 0-2.5-3c-.683-1.676-2.017-2.343-4-2 2.987-1.458 5.654-3.624 8-6.5a49.226 49.226 0 0 1 14 0c2.059 2.656 4.393 4.822 7 6.5Z"/><path style="opacity:1" fill="#b3b3b3" d="M200.5 250.5c.762 1.762 2.096 2.762 4 3 1.442 1.32 2.108 2.986 2 5h-7c-.154-2.47-1.154-4.47-3-6a104.618 104.618 0 0 0-1-9h4c-.302 2.559.032 4.893 1 7Z"/><path style="opacity:1" fill="#d2d2d2" d="M260.5 241.5c-2.297 4.295-3.464 8.962-3.5 14-1.616 2.213-2.783 4.547-3.5 7a40.914 40.914 0 0 1 .5-9c1.846-2.704 3.013-5.704 3.5-9l3-3Z"/><path style="opacity:1" fill="#777" d="M171.5 222.5c.958.453 1.792 1.119 2.5 2a117.125 117.125 0 0 0 7.5 19c-1.493.812-2.16 2.145-2 4 1.154 4.68 1.154 9.346 0 14a43.836 43.836 0 0 0-2-1 8373.312 8373.312 0 0 0-13-34 40.914 40.914 0 0 1 .5-9c1.011-.837 2.178-1.17 3.5-1v7c1.291.237 2.291-.096 3-1Z"/><path style="opacity:.569" fill="#525252" d="M172.5 234.5c1.808 1.418 2.475 3.418 2 6h-3c-.175-2.121.159-4.121 1-6Z"/><path style="opacity:1" fill="#8d8d8d" d="M262.5 250.5c-1.94 8.334-4.44 16.668-7.5 25a436.267 436.267 0 0 0-1.5 11c-1.466.847-2.3 2.18-2.5 4-.5 6.658-.666 13.325-.5 20-.827 5.151-1.327 10.484-1.5 16a647.854 647.854 0 0 1-.5-36c-.345-3.615.322-6.948 2-10a172.28 172.28 0 0 1 3-17v-1c.717-2.453 1.884-4.787 3.5-7 .036-5.038 1.203-9.705 3.5-14v-1a51.22 51.22 0 0 1 2.5-4l1 1a33.73 33.73 0 0 1-1.5 13Z"/><path style="opacity:1" fill="#bababa" d="M182.5 250.5a185.928 185.928 0 0 0 5 25h-1a36.138 36.138 0 0 1-3-10c-1.132-3.179-1.799-6.512-2-10 .007-1.869.34-3.536 1-5Z"/><path style="opacity:1" fill="#dadada" d="M232.5 253.5c-.734 1.208-1.067 2.541-1 4h6v1c-1.291-.237-2.291.096-3 1-.722.418-1.222 1.084-1.5 2a1368.566 1368.566 0 0 0 0 74c2.034 6.864.701 7.53-4 2a24.935 24.935 0 0 1-.5-7 818.961 818.961 0 0 1-.5-70l1.5-3c-.412-2.473.588-3.806 3-4Z"/><path style="opacity:1" fill="#7b7b7b" d="M183.5 265.5a36.138 36.138 0 0 0 3 10 18.453 18.453 0 0 1-.5 6c-1.392-2.778-1.892-5.778-1.5-9h-3a40.914 40.914 0 0 1 .5-9c.278.916.778 1.582 1.5 2Z"/><path style="opacity:1" fill="#9e9e9e" d="M181.5 243.5c-.134 1.792.199 3.458 1 5v2c-.66 1.464-.993 3.131-1 5 .201 3.488.868 6.821 2 10-.722-.418-1.222-1.084-1.5-2a40.914 40.914 0 0 0-.5 9h3c-.392 3.222.108 6.222 1.5 9 .495-1.973.662-3.973.5-6h1c-.172.992.162 1.658 1 2a46.86 46.86 0 0 1 2 9 44.093 44.093 0 0 1-2-3 21.127 21.127 0 0 0-1 9c-2.926-7.682-5.259-15.682-7-24-.072-3.053-1.072-5.719-3-8 .65.304 1.317.637 2 1 1.154-4.654 1.154-9.32 0-14-.16-1.855.507-3.188 2-4Z"/><path style="opacity:1" fill="#d6d6d6" d="M253.5 263.5a172.28 172.28 0 0 0-3 17c-.958.453-1.792 1.119-2.5 2-.186 2.536-.686 4.869-1.5 7 .923-7.4 2.09-14.734 3.5-22 .66-1.824 1.827-3.157 3.5-4Z"/><path style="opacity:.631" fill="#c6c6c6" d="M382.5 148.5c-.175 2.121.159 4.121 1 6-1.443-.835-2.443-2.168-3-4a60.377 60.377 0 0 0-3.5 10 1356.513 1356.513 0 0 1-3 41 105.448 105.448 0 0 1-4 18 37.222 37.222 0 0 0 .5 14l-.5 2a7.248 7.248 0 0 0-2.5-2c-4.295 7.029-7.295 14.696-9 23-1.546.712-2.546 1.878-3 3.5a12.992 12.992 0 0 1 1 5.5h-3c-.396 2.982.271 5.649 2 8l-1.5 1a9.568 9.568 0 0 1-3-3 30.334 30.334 0 0 0 .5 10 342.94 342.94 0 0 1-28.5 41 131.242 131.242 0 0 0-8 20c-.377 1.442-1.21 2.442-2.5 3a61.16 61.16 0 0 1-2-5.5c1.405-1.269 3.071-1.769 5-1.5-1.325-3.858-1.825-7.858-1.5-12 .414.457.914.791 1.5 1 .502-3.471 1.836-6.471 4-9-.985-1.598-1.151-3.265-.5-5a67.387 67.387 0 0 0 9.5-14 154.507 154.507 0 0 0 9.5-11 717.915 717.915 0 0 1 16.5-32 465.802 465.802 0 0 0 11.5-26c5.927-23.244 8.927-46.91 9-71a102.127 102.127 0 0 0 4-12l1-1c.417 1.256 1.25 1.923 2.5 2Z"/><path style="opacity:1" fill="#c1c1c1" d="M188.5 277.5c1.29.558 2.123 1.558 2.5 3 .497 2.31.663 4.643.5 7a113.034 113.034 0 0 1 2 23c-1.493 11.504-2.159 23.171-2 35v1h-1c.631-18.17.631-36.17 0-54v-6a46.86 46.86 0 0 0-2-9Z"/><path style="opacity:1" fill="#a2a1a2" d="m187.5 292.5 2 56c.167 16.003 0 32.003-.5 48a1859.85 1859.85 0 0 0-2.5-39c-.715-3.407-.715-6.74 0-10a786.737 786.737 0 0 0 1-55Z"/><path style="opacity:1" fill="#d9d9d9" d="M268.5 233.5a247.326 247.326 0 0 0-2.5 16l-3 3-1 10-2 2-1 9-3 3-1 13a7.293 7.293 0 0 0-2 3 684.346 684.346 0 0 0-.5 37v18a524.65 524.65 0 0 1-.5-56 42.47 42.47 0 0 0 1.5-5c.452-3.663.952-7.33 1.5-11 3.06-8.332 5.56-16.666 7.5-25 .617-.111 1.117-.444 1.5-1a116.123 116.123 0 0 0 2-13c.377-1.442 1.21-2.442 2.5-3Z"/><path style="opacity:1" fill="#b5b5b5" d="M253.5 286.5a42.47 42.47 0 0 1-1.5 5 524.65 524.65 0 0 0 .5 56v2c-.617-.111-1.117-.444-1.5-1a721.824 721.824 0 0 1-.5-38c-.166-6.675 0-13.342.5-20 .2-1.82 1.034-3.153 2.5-4Z"/><path style="opacity:.362" fill="#d3d3d3" d="M56.5 207.5c3.497.495 4.497 2.328 3 5.5 1.635.54 2.968.04 4-1.5a37.795 37.795 0 0 1 2.5 12 3.647 3.647 0 0 1 1.5-1c3.957 6.04 6.124 12.707 6.5 20 2 .667 3.333 2 4 4a79.084 79.084 0 0 1 2 10c2.088 2.245 3.42 4.912 4 8l5 5a22.5 22.5 0 0 0 2 7 97.864 97.864 0 0 1 13 19c7.945 7.177 13.111 15.677 15.5 25.5a7.293 7.293 0 0 1 3 2 660.832 660.832 0 0 0-3 5c1.576 1.995 1.243 3.495-1 4.5-8.673-16.201-18.84-31.535-30.5-46-16.622-23.908-27.122-50.241-31.5-79Z"/><path style="opacity:1" fill="#898989" d="M190.5 286.5v6c-.462 18.664-.796 37.33-1 56l-2-56a21.127 21.127 0 0 1 1-9 44.093 44.093 0 0 0 2 3Z"/><path style="opacity:1" fill="#9a9a9a" d="M248.5 290.5c-.167 12.005 0 24.005.5 36 .173-5.516.673-10.849 1.5-16-.167 12.671 0 25.338.5 38 .383.556.883.889 1.5 1 .56 9.681-.107 19.348-2 29a345.94 345.94 0 0 0-2-8c.325-7.187-.009-14.187-1-21-.33-19.84.003-39.507 1-59Z"/><path style="opacity:.78" fill="#d7d7d7" d="M328.5 299.5a67.387 67.387 0 0 1-9.5 14c-.651 1.735-.485 3.402.5 5-2.164 2.529-3.498 5.529-4 9a3.647 3.647 0 0 1-1.5-1c-.325 4.142.175 8.142 1.5 12-1.929-.269-3.595.231-5 1.5a61.16 61.16 0 0 0 2 5.5v5a9.175 9.175 0 0 1-4.5-2 9.454 9.454 0 0 1-1.5 2.5c1.102 2.401 1.269 4.901.5 7.5-1.044-1.123-1.71-2.456-2-4-.718-.951-1.551-1.117-2.5-.5a119.041 119.041 0 0 0-2.5 9.5c-.383.556-.883.889-1.5 1l9-34c4.966-7.247 9.466-14.914 13.5-23a83.084 83.084 0 0 0 7.5-8Z"/><path style="opacity:1" fill="#a1a1a1" d="M190.5 292.5c.631 17.83.631 35.83 0 54v2h-1c.204-18.67.538-37.336 1-56Z"/><path style="opacity:1" fill="#f3f3f3" d="M208.5 255.5a81.316 81.316 0 0 1 2.5 3c.009 25.813.676 51.48 2 77a35.716 35.716 0 0 1 3-9 51.532 51.532 0 0 1 9 8l1-4 1-71c.417-1.256 1.25-1.923 2.5-2l-1.5 3a818.961 818.961 0 0 0 .5 70c-.163 2.357.003 4.69.5 7 4.701 5.53 6.034 4.864 4-2a1368.566 1368.566 0 0 1 0-74c.278-.916.778-1.582 1.5-2 .239 1.967-.094 3.801-1 5.5a2660.526 2660.526 0 0 1 1.5 72.5c.374.916.874 1.75 1.5 2.5 2.646.497 5.313.664 8 .5-1.135 1.713-2.802 2.38-5 2v4c2.412-.256 4.079.744 5 3a26.724 26.724 0 0 1 1.5 7c.168 17.505.668 34.838 1.5 52v3a36.875 36.875 0 0 1-12-1c1.772-.77 2.772-2.103 3-4a494.897 494.897 0 0 1-1.5-29 127.96 127.96 0 0 0-2.5-8c-1.043-2.556-2.71-4.723-5-6.5-13.905-8.887-23.238-5.387-28 10.5a361.608 361.608 0 0 0-1 38 25.879 25.879 0 0 1-10-1 1040.942 1040.942 0 0 0 1-64v-1c5.886.837 11.053-.496 15.5-4a79.066 79.066 0 0 1 2-10c.765-25.348.599-50.681-.5-76Z"/><path style="opacity:1" fill="#cacaca" d="M228.5 330.5c-.167-21.669 0-43.336.5-65a288.78 288.78 0 0 1 1.5 33.5c-.001 10.855-.668 21.355-2 31.5Z"/><path style="opacity:1" fill="#dcdbdb" d="M246.5 293.5c.167 16.337 0 32.67-.5 49-1.415 2.576-.915 4.909 1.5 7v59a1339.267 1339.267 0 0 1-1.5-52 26.724 26.724 0 0 0-1.5-7c-.921-2.256-2.588-3.256-5-3v-4c2.198.38 3.865-.287 5-2-.167-15.004 0-30.004.5-45 .278-.916.778-1.582 1.5-2Z"/><path style="opacity:1" fill="#e0e0e0" d="M204.5 253.5c1.983-.343 3.317.324 4 2a1033.215 1033.215 0 0 1 .5 76 79.066 79.066 0 0 0-2 10c-4.447 3.504-9.614 4.837-15.5 4-.159-11.829.507-23.496 2-35 .117-7.752-.55-15.419-2-23a81.316 81.316 0 0 1 2.5 3c.5 16.663.667 33.33.5 50a57.403 57.403 0 0 0 9-2v-80h3c.108-2.014-.558-3.68-2-5Z"/><path style="opacity:1" fill="#bfbfbf" d="M250.5 280.5c-1.678 3.052-2.345 6.385-2 10a871.155 871.155 0 0 0-1 59c-2.415-2.091-2.915-4.424-1.5-7 .5-16.33.667-32.663.5-49v-4c.814-2.131 1.314-4.464 1.5-7 .708-.881 1.542-1.547 2.5-2Z"/><path style="opacity:.614" fill="#c9c9c9" d="M252.5 349.5v-1c1.527-.073 2.527.594 3 2a16.58 16.58 0 0 1 2.5 4 590.466 590.466 0 0 1-.5 58c8.918.317 17.751-.016 26.5-1a163.183 163.183 0 0 0 11-24 76.98 76.98 0 0 0 3.5-23c.617-.111 1.117-.444 1.5-1a119.041 119.041 0 0 1 2.5-9.5c.949-.617 1.782-.451 2.5.5.29 1.544.956 2.877 2 4 .769-2.599.602-5.099-.5-7.5a9.454 9.454 0 0 0 1.5-2.5 9.175 9.175 0 0 0 4.5 2c-3.495 15.316-6.995 30.65-10.5 46l-7 15a28.65 28.65 0 0 1-7.5 8c-2.012-.841-3.345-2.341-4-4.5-12.005-.46-24.005-.96-36-1.5-33.002-.167-66.002 0-99 .5-.544.717-1.211 1.217-2 1.5a61.044 61.044 0 0 1-10-21c4.756-2.796 6.09-1.296 4 4.5.545 3.013 1.711 3.179 3.5.5 1.216 2.462 1.882 5.129 2 8a3.647 3.647 0 0 1 1.5-1 9.86 9.86 0 0 1 1 6h9a2026.42 2026.42 0 0 0 90-1v-62c.991 6.813 1.325 13.813 1 21-.167 11.338 0 22.672.5 34 .414.457.914.791 1.5 1a22.226 22.226 0 0 0 2.5-6c1.207 5.655 2.54 5.988 4 1a484.008 484.008 0 0 0 0-44 74.796 74.796 0 0 0-4.5-7Z"/><path style="opacity:.773" fill="#d7d7d7" d="M156.5 411.5h1v1h-9a9.86 9.86 0 0 0-1-6 3.647 3.647 0 0 0-1.5 1c-.118-2.871-.784-5.538-2-8-1.789 2.679-2.955 2.513-3.5-.5 2.09-5.796.756-7.296-4-4.5-5.187-12.748-8.52-26.081-10-40a30.786 30.786 0 0 1 4.5-3l5 2c3.814 7.876 5.814 16.209 6 25a7.293 7.293 0 0 1 2 3 97.638 97.638 0 0 0 3 13 84.85 84.85 0 0 1 7 16c.671.752 1.504 1.086 2.5 1Z"/><path style="opacity:1" fill="#e9e9e9" d="m307.5 330.5-9 34a76.98 76.98 0 0 1-3.5 23 163.183 163.183 0 0 1-11 24 179.674 179.674 0 0 1-26.5 1 590.466 590.466 0 0 0 .5-58 16.58 16.58 0 0 0-2.5-4c1.911.074 3.078 1.074 3.5 3 .5 16.33.667 32.663.5 49 .016 6.229 1.182 6.229 3.5 0 .374.916.874 1.75 1.5 2.5 5.548 1.825 10.714.992 15.5-2.5 3.105-13.061 5.105-26.395 6-40 1.566-.561 2.899.106 4 2 .22 6.678.22 13.345 0 20a7.248 7.248 0 0 1 2.5-2 253.858 253.858 0 0 1 12.5-50c.708-.881 1.542-1.547 2.5-2Z"/><path style="opacity:1" fill="#b3b3b2" d="M252.5 349.5a74.796 74.796 0 0 1 4.5 7 484.008 484.008 0 0 1 0 44c-1.46 4.988-2.793 4.655-4-1a22.226 22.226 0 0 1-2.5 6 3.647 3.647 0 0 1-1.5-1 577.896 577.896 0 0 1-.5-34 345.94 345.94 0 0 1 2 8c1.893-9.652 2.56-19.319 2-29Z"/><path style="opacity:1" fill="#dadad9" d="M234.5 369.5c.182 13.005.515 26.005 1 39h-4c.167-13.004 0-26.004-.5-39-.671-.752-1.504-1.086-2.5-1-5.235-5.274-11.235-6.107-18-2.5-1.674 1.506-2.674 3.339-3 5.5-.667 12.173-1.333 24.507-2 37a6.846 6.846 0 0 1-4 1v-36c4.762-15.887 14.095-19.387 28-10.5 2.29 1.777 3.957 3.944 5 6.5Z"/><path style="opacity:1" fill="#f2f2f1" d="M228.5 368.5c.283.789.783 1.456 1.5 2a843.944 843.944 0 0 0 1.5 40 85.021 85.021 0 0 1-26 0 9.425 9.425 0 0 0 3-3 334.262 334.262 0 0 1-1-36c.326-2.161 1.326-3.994 3-5.5 6.765-3.607 12.765-2.774 18 2.5Z"/><path style="opacity:1" fill="#dfdfde" d="M179.5 268.5h1c1.741 8.318 4.074 16.318 7 24a786.737 786.737 0 0 1-1 55l-6 7a756.853 756.853 0 0 0-1 55c1.644.214 3.144-.12 4.5-1l1-10c.383.556.883.889 1.5 1a345.94 345.94 0 0 1 2 8 4.457 4.457 0 0 0 1.5-2c.5-18.997.667-37.997.5-57v-2h1c.322 21.379-.011 42.712-1 64a25.879 25.879 0 0 0 10 1 361.608 361.608 0 0 1 1-38v36a6.846 6.846 0 0 0 4-1c.667-12.493 1.333-24.827 2-37a334.262 334.262 0 0 0 1 36 9.425 9.425 0 0 1-3 3 85.021 85.021 0 0 0 26 0 843.944 843.944 0 0 1-1.5-40c-.717-.544-1.217-1.211-1.5-2 .996-.086 1.829.248 2.5 1 .5 12.996.667 25.996.5 39h4a1673.558 1673.558 0 0 1-1-39 127.96 127.96 0 0 1 2.5 8c.217 9.694.717 19.361 1.5 29-.228 1.897-1.228 3.23-3 4a36.875 36.875 0 0 0 12 1 2026.42 2026.42 0 0 1-90 1v-1h3a81.883 81.883 0 0 0 18-1 376.355 376.355 0 0 1 0-54 8.43 8.43 0 0 1 .5-4c2.799-2.123 4.799-4.79 6-8 .499-5.991.666-11.991.5-18 .167-12.671 0-25.338-.5-38a189.285 189.285 0 0 0-5-12 32.462 32.462 0 0 1-.5-8Z"/><path style="opacity:1" fill="#d4d3d3" d="M180.5 354.5a480.787 480.787 0 0 0 1.5 53 40.23 40.23 0 0 0 2-11l1-40c.383.556.883.889 1.5 1v42c-.617-.111-1.117-.444-1.5-1l-1 10c-1.356.88-2.856 1.214-4.5 1a756.853 756.853 0 0 1 1-55Z"/><path style="opacity:1" fill="#bebdbd" d="M189.5 348.5h1c.167 19.003 0 38.003-.5 57a4.457 4.457 0 0 1-1.5 2 345.94 345.94 0 0 0-2-8v-42a1859.85 1859.85 0 0 1 2.5 39c.5-15.997.667-31.997.5-48Z"/><path style="opacity:1" fill="#c0c0bf" d="M186.5 347.5c-.715 3.26-.715 6.593 0 10-.617-.111-1.117-.444-1.5-1l-1 40a40.23 40.23 0 0 1-2 11 480.787 480.787 0 0 1-1.5-53l6-7Z"/><path style="opacity:1" fill="#b7b6b3" d="M247.5 413.5a4496.168 4496.168 0 0 1-95 1.5 26.67 26.67 0 0 0-1.5 6.5c-.383.556-.883.889-1.5 1-1.236-2.149-2.236-4.482-3-7 .789-.283 1.456-.783 2-1.5 32.998-.5 65.998-.667 99-.5Z"/><path style="opacity:1" fill="#a19f9c" d="M247.5 413.5c11.995.54 23.995 1.04 36 1.5.655 2.159 1.988 3.659 4 4.5-1.668 1.979-2.334 4.312-2 7-6.099-.298-7.432-2.965-4-8a3.647 3.647 0 0 0-1-1.5c-10.796-1.688-21.463-1.855-32-.5h-9c-7.721.966-7.721 2.3 0 4-.244 2.763-1.577 4.929-4 6.5a76.366 76.366 0 0 1-12 2.5 253.894 253.894 0 0 1-30-1c-.552-1.831-.552-3.497 0-5 3.822-2.149 7.822-3.483 12-4a46.052 46.052 0 0 1 8-1.5 25.777 25.777 0 0 1-8-2 675.912 675.912 0 0 0-52 0c-1.102 2.401-1.269 4.901-.5 7.5 5.991-2.569 11.658-1.902 17 2 .684 1.284.517 2.451-.5 3.5a56.846 56.846 0 0 1-9 4.5c-.239 1.967.094 3.801 1 5.5 15.168 1.981 30.168 1.814 45-.5a460.549 460.549 0 0 1 49-.5l-7 1c-1.926.422-2.926 1.589-3 3.5a97.703 97.703 0 0 1-26 5.5c-16.348.821-32.681 1.655-49 2.5h-6v5a254.418 254.418 0 0 0 41 0c-1.792.809-3.792 1.309-6 1.5-10.995.5-21.995.667-33 .5-1.291.237-2.291-.096-3-1-2.138-4.488-.805-7.322 4-8.5a1596.428 1596.428 0 0 0 52-2 218.952 218.952 0 0 1 20-4.5 4.457 4.457 0 0 0-2-1.5l-14.5-.5a1605.59 1605.59 0 0 1-56.5 3c-4.816-.661-9.149.339-13 3-.318-4.532.015-8.866 1-13 1.302-1.307 2.635-1.307 4 0 8.988-2.963 9.155-6.296.5-10-2.319 1.371-4.819 2.038-7.5 2-1-.333-1.667-1-2-2 .617-.111 1.117-.444 1.5-1a26.67 26.67 0 0 1 1.5-6.5c31.836-.168 63.503-.668 95-1.5Z"/><path style="opacity:1" fill="#bbb9b5" d="M213.5 420.5c4.481-1.148 9.148-1.315 14-.5 2.073.118 3.407 1.118 4 3-1.779 2.446-4.112 4.113-7 5a90.455 90.455 0 0 1-19 0c-3.759-.131-5.092-1.797-4-5 3.753-1.989 7.753-2.822 12-2.5Z"/><path style="opacity:1" fill="#cdcbc8" d="M213.5 420.5h13c.214 1.644-.12 3.144-1 4.5-5.915 1.527-11.915 1.861-18 1-1.227-1.587-.894-2.921 1-4 1.882-.198 3.548-.698 5-1.5Z"/><path style="opacity:1" fill="#8b8986" d="M205.5 419.5c-5.862-.348-11.528.485-17 2.5-.935 2.381-1.268 4.881-1 7.5 1.915-.284 3.581.049 5 1a116.788 116.788 0 0 0-32 3 56.846 56.846 0 0 0 9-4.5c1.017-1.049 1.184-2.216.5-3.5-5.342-3.902-11.009-4.569-17-2-.769-2.599-.602-5.099.5-7.5a675.912 675.912 0 0 1 52 0 25.777 25.777 0 0 0 8 2 46.052 46.052 0 0 0-8 1.5Z"/><path style="opacity:1" fill="#767572" d="M154.5 416.5a500.647 500.647 0 0 1 50 1.5l-24 3c-8.716.004-17.383.171-26 .5-1.166-1.667-1.166-3.334 0-5Z"/><path style="opacity:1" fill="#9a9794" d="M205.5 419.5c-4.178.517-8.178 1.851-12 4-.552 1.503-.552 3.169 0 5a253.894 253.894 0 0 0 30 1c-10.153.994-20.486 1.328-31 1-1.419-.951-3.085-1.284-5-1-.268-2.619.065-5.119 1-7.5 5.472-2.015 11.138-2.848 17-2.5Z"/><path style="opacity:.994" fill="#b3b3b1" d="M154.5 432.5c.484-3.288-.516-5.955-3-8 2.681.038 5.181-.629 7.5-2 8.655 3.704 8.488 7.037-.5 10-1.365-1.307-2.698-1.307-4 0Z"/><path style="opacity:1" fill="#7f7d7a" d="M248.5 416.5c10.537-1.355 21.204-1.188 32 .5.457.414.791.914 1 1.5-3.432 5.035-2.099 7.702 4 8 .61.891.943 1.891 1 3h-3v4h-4c.027 1.699.694 3.033 2 4l-6 2a11.988 11.988 0 0 0 1 6c-3.227 2.52-6.893 3.854-11 4l8-4a16.873 16.873 0 0 0 1-8 81.23 81.23 0 0 0-11 3c-4.419 1.472-9.086 2.138-14 2 1.342-1.293 3.009-2.126 5-2.5a222.438 222.438 0 0 1 20-4.5c.219-1.175-.114-2.175-1-3-21.446 3.491-43.113 4.991-65 4.5-.916.278-1.582.778-2 1.5-14.832 2.314-29.832 2.481-45 .5-.906-1.699-1.239-3.533-1-5.5a116.788 116.788 0 0 1 32-3c10.514.328 20.847-.006 31-1 4.06-.51 8.06-1.344 12-2.5 2.423-1.571 3.756-3.737 4-6.5-7.721-1.7-7.721-3.034 0-4a25.194 25.194 0 0 0 3 5.5c-1.765 4.1-4.599 7.266-8.5 9.5-.617.949-.451 1.782.5 2.5a144.9 144.9 0 0 0 33-2.5c.84-1.235 1.84-2.235 3-3 5.177-.023 7.344-2.69 6.5-8 3.47-2.47 2.97-3.47-1.5-3a198.855 198.855 0 0 0-27-1Z"/><path style="opacity:1" fill="#64615e" d="M239.5 416.5h7c-6.553 1.361-6.22 2.527 1 3.5 1.017 1.049 1.184 2.216.5 3.5-2.192 3.429-5.026 6.096-8.5 8 5.82 1.316 11.487 1.316 17 0a58.396 58.396 0 0 0 11-3h3c-1.16.765-2.16 1.765-3 3a144.9 144.9 0 0 1-33 2.5c-.951-.718-1.117-1.551-.5-2.5 3.901-2.234 6.735-5.4 8.5-9.5a25.194 25.194 0 0 1-3-5.5Z"/><path style="opacity:1" fill="#43413e" d="M267.5 428.5a58.396 58.396 0 0 1-11 3 60.931 60.931 0 0 1-11-.5c2.985-2.291 4.985-5.291 6-9a604.676 604.676 0 0 1-3-3.5 88.739 88.739 0 0 1 23-.5c-2.631 2.931-3.964 6.431-4 10.5Z"/><path style="opacity:1" fill="#646361" d="M275.5 417.5c4.47-.47 4.97.53 1.5 3 .844 5.31-1.323 7.977-6.5 8 .903-2.891 1.236-5.891 1-9 1.88.271 3.213-.396 4-2Z"/><path style="opacity:1" fill="#52514e" d="M246.5 416.5h2c9.053-.278 18.053.056 27 1-.787 1.604-2.12 2.271-4 2 .236 3.109-.097 6.109-1 9h-3c.036-4.069 1.369-7.569 4-10.5a88.739 88.739 0 0 0-23 .5 604.676 604.676 0 0 0 3 3.5c-1.015 3.709-3.015 6.709-6 9 3.652.499 7.318.665 11 .5-5.513 1.316-11.18 1.316-17 0 3.474-1.904 6.308-4.571 8.5-8 .684-1.284.517-2.451-.5-3.5-7.22-.973-7.553-2.139-1-3.5Z"/><path style="opacity:1" fill="#676461" d="M170.5 432.5c7.674-.166 15.341 0 23 .5 5.179.054 10.179.721 15 2-13.457 3.185-27.124 4.351-41 3.5-.045-2.577.955-4.577 3-6Z"/><path style="opacity:1" fill="#95928f" d="M249.5 442.5h-4c.074-1.911 1.074-3.078 3-3.5l7-1a460.549 460.549 0 0 0-49 .5c.418-.722 1.084-1.222 2-1.5 21.887.491 43.554-1.009 65-4.5.886.825 1.219 1.825 1 3a222.438 222.438 0 0 0-20 4.5c-1.991.374-3.658 1.207-5 2.5Z"/><path style="opacity:.137" fill="#6a6766" d="M286.5 429.5c.576 3.612-.424 6.612-3 9l-2-1c-1.306-.967-1.973-2.301-2-4h4v-4h3Z"/><path style="opacity:1" fill="#bebbb8" d="M163.5 456.5c-1.495.085-2.495-.581-3-2 .713-2.596.713-5.263 0-8 16.65-.742 33.316-1.242 50-1.5a30.294 30.294 0 0 0 10-3c-14.504 0-29.004.5-43.5 1.5-3.683-.001-7.183-.335-10.5-1a1605.59 1605.59 0 0 0 56.5-3l14.5.5a4.457 4.457 0 0 1 2 1.5 218.952 218.952 0 0 0-20 4.5 1596.428 1596.428 0 0 1-52 2c-4.805 1.178-6.138 4.012-4 8.5Z"/><path style="opacity:1" fill="#585451" d="M263.5 440.5h10c.203 1.89-.463 3.39-2 4.5-11.319 5.699-22.985 6.699-35 3 4.906-.795 9.24-2.628 13-5.5 4.914.138 9.581-.528 14-2Z"/><path style="opacity:.022" fill="#706e6d" d="M283.5 442.5c4 4.667 4 9.333 0 14-2.58-1.589-3.913-3.922-4-7h3a9.108 9.108 0 0 0-1-5c.355-1.022 1.022-1.689 2-2Z"/><path style="opacity:1" fill="#777471" d="M265.5 449.5c-1.342 1.293-3.009 2.126-5 2.5-25.7.052-51.366.886-77 2.5a40.888 40.888 0 0 1-16-2.5c1.237-.232 2.237-.732 3-1.5 16.319-.845 32.652-1.679 49-2.5a97.703 97.703 0 0 0 26-5.5h4c-3.76 2.872-8.094 4.705-13 5.5 12.015 3.699 23.681 2.699 35-3 1.537-1.11 2.203-2.61 2-4.5h-10a81.23 81.23 0 0 1 11-3 16.873 16.873 0 0 1-1 8l-8 4Z"/><path style="opacity:1" fill="#474340" d="M251.5 444.5a36.875 36.875 0 0 1 12 1 12.403 12.403 0 0 1-4 2.5 49.226 49.226 0 0 1-14 0c2.525-.424 4.525-1.59 6-3.5Z"/><path style="opacity:1" fill="#8c8986" d="m281.5 437.5 2 1v4c-.978.311-1.645.978-2 2a9.108 9.108 0 0 1 1 5h-3c.087 3.078 1.42 5.411 4 7-1.333 2-1.333 4 0 6a19.22 19.22 0 0 1-6 1 19.372 19.372 0 0 1 1-8c-.5-1.381-1.5-2.047-3-2a294.23 294.23 0 0 1-25 6h-2c3.329-.877 6.329-2.544 9-5-10.159-1.323-20.159-1.323-30 0a283.8 283.8 0 0 0-22 1 254.418 254.418 0 0 1-41 0v-5h6c-.763.768-1.763 1.268-3 1.5a40.888 40.888 0 0 0 16 2.5c25.634-1.614 51.3-2.448 77-2.5 1.991-.374 3.658-1.207 5-2.5 4.107-.146 7.773-1.48 11-4a11.988 11.988 0 0 1-1-6l6-2Z"/><path style="opacity:1" fill="#bbb9b5" d="M227.5 454.5c6.009-.166 12.009.001 18 .5a3.943 3.943 0 0 1 1 2c-2.529 2.408-5.529 4.075-9 5a117.027 117.027 0 0 0-15 3.5c-9.848.327-19.514-.006-29-1 9.182.327 18.182-.007 27-1a93.497 93.497 0 0 0 11-1.5 22.573 22.573 0 0 1 8-4c-11.165-1.967-22.165-1.8-33 .5-7.34.129-14.673.462-22 1-6.216-.024-12.216-.691-18-2 11.005.167 22.005 0 33-.5 2.208-.191 4.208-.691 6-1.5a283.8 283.8 0 0 1 22-1Z"/><path style="opacity:1" fill="#e6e4e0" d="M220.5 463.5a183.938 183.938 0 0 1-32-1.5 979.18 979.18 0 0 1 18-3.5c10.835-2.3 21.835-2.467 33-.5a22.573 22.573 0 0 0-8 4 93.497 93.497 0 0 1-11 1.5Z"/><path style="opacity:.998" fill="#cac8c6" d="M163.5 456.5c.709.904 1.709 1.237 3 1 5.784 1.309 11.784 1.976 18 2 7.327-.538 14.66-.871 22-1a979.18 979.18 0 0 0-18 3.5 183.938 183.938 0 0 0 32 1.5c-8.818.993-17.818 1.327-27 1-10.353.05-20.686.55-31 1.5a24.784 24.784 0 0 1-3 8.5l1 2a280.701 280.701 0 0 0 41 .5c3.892-.419 7.558-1.252 11-2.5 11.338-.167 22.672 0 34 .5-1.563.759-2.563 1.926-3 3.5l-13 4a8264.068 8264.068 0 0 1-70 2v8h-5c.024-4.029-.643-7.862-2-11.5a56.952 56.952 0 0 1 2-10 186.543 186.543 0 0 1-3-9.5 186.543 186.543 0 0 1 3-9.5c.018-2.442-.649-4.608-2-6.5 3.851-2.661 8.184-3.661 13-3 3.317.665 6.817.999 10.5 1 14.496-1 28.996-1.5 43.5-1.5a30.294 30.294 0 0 1-10 3c-16.684.258-33.35.758-50 1.5.713 2.737.713 5.404 0 8 .505 1.419 1.505 2.085 3 2Z"/><path style="opacity:1" fill="#9c9a96" d="M227.5 454.5c9.841-1.323 19.841-1.323 30 0-2.671 2.456-5.671 4.123-9 5a140.192 140.192 0 0 1-25 7.5c-16.663.5-33.33.667-50 .5l49-2a117.027 117.027 0 0 1 15-3.5c3.471-.925 6.471-2.592 9-5a3.943 3.943 0 0 0-1-2 162.597 162.597 0 0 0-18-.5Z"/><path style="opacity:1" fill="#807e7b" d="M248.5 459.5h2a477.763 477.763 0 0 1-21 9 10.258 10.258 0 0 0 4 1.5c9.333.667 18.667.667 28 0 1.991-.374 3.658-1.207 5-2.5 4.029.351 7.862-.315 11.5-2a12.992 12.992 0 0 0 5.5 1c-.126 3.095-1.793 4.928-5 5.5-7.26 1.7-14.26 3.867-21 6.5a94.933 94.933 0 0 0-23 6 29.278 29.278 0 0 0-7 2.5c-17.997.5-35.997.667-54 .5a1339.267 1339.267 0 0 1 52-1.5c.916-.278 1.582-.778 2-1.5h2a136.95 136.95 0 0 1 22-6 60.081 60.081 0 0 1 10-5.5l6-1c-19.991.13-39.991.464-60 1a233.321 233.321 0 0 1-35 2.5l-8-1v-7h9c16.67.167 33.337 0 50-.5a140.192 140.192 0 0 0 25-7.5Z"/><path style="opacity:.985" fill="#aca9a7" d="M193.5 464.5c9.486.994 19.152 1.327 29 1l-49 2h-9v7l8 1c3.484.665 7.151.999 11 1l29-2c-3.442 1.248-7.108 2.081-11 2.5a280.701 280.701 0 0 1-41-.5l-1-2a24.784 24.784 0 0 0 3-8.5 356.598 356.598 0 0 1 31-1.5Z"/><path style="opacity:1" fill="#6b6765" d="M177.5 468.5c6.342-.166 12.675 0 19 .5a32.308 32.308 0 0 1 10 2.5 167.972 167.972 0 0 1-35 1.5c-1.771-.535-2.104-1.369-1-2.5a64.678 64.678 0 0 0 7-2Z"/><path style="opacity:1" fill="#94928f" d="m229.5 484.5 1-2 13-4c3.267-1.156 6.601-2.323 10-3.5l-4-1c-12.507-.827-24.84-.66-37 .5l-29 2c-3.849-.001-7.516-.335-11-1 11.73.045 23.396-.788 35-2.5 20.009-.536 40.009-.87 60-1l-6 1a60.081 60.081 0 0 0-10 5.5 136.95 136.95 0 0 0-22 6Z"/><path style="opacity:1" fill="#acaaa6" d="M212.5 474.5c12.16-1.16 24.493-1.327 37-.5l4 1a1572.973 1572.973 0 0 0-10 3.5c.437-1.574 1.437-2.741 3-3.5a577.896 577.896 0 0 0-34-.5Z"/><path style="opacity:1" fill="#e5e5e1" d="M214.5 476.5c5.79-.404 11.456.096 17 1.5l-2 2a157.673 157.673 0 0 1-29 1.5v-3c4.853-.313 9.52-.979 14-2Z"/><path style="opacity:.115" fill="#979392" d="M283.5 475.5c-1.333 2.333-1.333 4.667 0 7-1.208.734-2.541 1.067-4 1a21.127 21.127 0 0 1 1-9 5.576 5.576 0 0 0 3 1Z"/><path style="opacity:.745" fill="#6a6866" d="M283.5 462.5c.617.111 1.117.444 1.5 1 1.006 4.302.506 8.302-1.5 12a5.576 5.576 0 0 1-3-1 21.127 21.127 0 0 0-1 9c1.459.067 2.792-.266 4-1 2.667 5.333 2.667 10.667 0 16h-2l-1-2a50.464 50.464 0 0 0-.5-10c-1.011-.837-2.178-1.17-3.5-1 .923-3.564 1.256-7.231 1-11-5.572.71-10.905 2.044-16 4h-4c6.74-2.633 13.74-4.8 21-6.5 3.207-.572 4.874-2.405 5-5.5a12.992 12.992 0 0 1-5.5-1c-3.638 1.685-7.471 2.351-11.5 2-1.342 1.293-3.009 2.126-5 2.5-9.333.667-18.667.667-28 0a10.258 10.258 0 0 1-4-1.5 477.763 477.763 0 0 0 21-9 294.23 294.23 0 0 0 25-6c1.5-.047 2.5.619 3 2a19.372 19.372 0 0 0-1 8 19.22 19.22 0 0 0 6-1Z"/><path style="opacity:1" fill="#4c4a47" d="M273.5 462.5c-1.846 2.416-4.179 4.083-7 5-9.548 2.154-19.215 2.487-29 1 3.394-3.195 7.394-5.361 12-6.5a3456.807 3456.807 0 0 1 25-4.5c.284 1.915-.049 3.581-1 5Z"/><path style="opacity:1" fill="#35332f" d="M273.5 462.5a122.157 122.157 0 0 1-19 5.5c-3 .667-6 .667-9 0-1.146-2.557-.146-3.89 3-4a4578.34 4578.34 0 0 1 22-4c2.321-1.713 3.321-.88 3 2.5Z"/><path style="opacity:1" fill="#8e8b88" d="M227.5 484.5c-.418.722-1.084 1.222-2 1.5-17.505.168-34.838.668-52 1.5a41.541 41.541 0 0 0-8 1v4a89.546 89.546 0 0 0 21 2c-7.176 1.103-14.509 1.103-22 0v-7c2.469-.817 5.135-1.317 8-1.5a1792.12 1792.12 0 0 0 55-1.5Z"/><path style="opacity:1" fill="#595754" d="M276.5 485.5c-15.897 5.167-32.23 6.334-49 3.5 2.687-1.049 5.02-2.549 7-4.5a94.933 94.933 0 0 1 23-6h4c5.095-1.956 10.428-3.29 16-4 .256 3.769-.077 7.436-1 11Z"/><path style="opacity:1" fill="#373532" d="M261.5 478.5a38.457 38.457 0 0 0 13-2c.268 2.619-.065 5.119-1 7.5-12.607 5.536-25.107 6.703-37.5 3.5a20.499 20.499 0 0 0 3.5-2.5 762.77 762.77 0 0 1 22-6.5Z"/><path style="opacity:1" fill="#73716d" d="M234.5 484.5c-1.98 1.951-4.313 3.451-7 4.5 16.77 2.834 33.103 1.667 49-3.5 1.322-.17 2.489.163 3.5 1 .498 3.317.665 6.65.5 10-.977-2.787-1.31-5.787-1-9-6.706.841-13.373 2.341-20 4.5l-59 1c-4.519.175-8.853.675-13 1.5h-1a89.546 89.546 0 0 1-21-2v-4a41.541 41.541 0 0 1 8-1c18.003.167 36.003 0 54-.5a29.278 29.278 0 0 1 7-2.5Z"/><path style="opacity:1" fill="#645f5d" d="M175.5 488.5c9.339-.166 18.673 0 28 .5a8.905 8.905 0 0 0-4 3c-9 .667-18 .667-27 0a14.698 14.698 0 0 0 3-3.5Z"/><path style="opacity:1" fill="#9b9995" d="M164.5 487.5v7c7.491 1.103 14.824 1.103 22 0h1a6778.394 6778.394 0 0 1 73-1.5 17.758 17.758 0 0 1 7-1.5c.17 1.322-.163 2.489-1 3.5a1645.249 1645.249 0 0 1-37 9c-6.325.5-12.658.666-19 .5v-1c5.526.321 10.86-.012 16-1v-1c1.068-.934 2.401-1.268 4-1 3.35.165 6.683-.002 10-.5 3.316-1.251 3.65-2.918 1-5-9.327-.5-18.661-.666-28-.5a451.833 451.833 0 0 1-48 1.5c-1.184-1.18-1.851-2.68-2-4.5.011-1.545.344-2.878 1-4Z"/><path style="opacity:1" fill="#747270" d="M281.5 498.5h2a238.203 238.203 0 0 0-6.5 16 184.03 184.03 0 0 1-7.5 7c.541-3.152-.459-5.652-3-7.5a544.417 544.417 0 0 0-33-.5c11.159-1.159 22.492-1.326 34-.5 1.941 1.903 4.274 2.736 7 2.5.282-3.105 1.282-5.938 3-8.5-1.429-4.77-2.762-4.603-4 .5-13.616-.147-27.283-.314-41-.5l-3-1c1.525-1.009 3.192-1.509 5-1.5 3.438 1.323 7.271 1.99 11.5 2 9.377-.024 18.544-1.024 27.5-3v-5a68.202 68.202 0 0 0-16 2c5.469-2.455 11.303-4.121 17.5-5l2.5.5c.55 1.845 1.55 3.345 3 4.5.798-.457 1.131-1.124 1-2Z"/><path style="opacity:.894" fill="#adaaa7" d="m230.5 482.5-1 2h-2a1792.12 1792.12 0 0 1-55 1.5c-2.865.183-5.531.683-8 1.5-.656 1.122-.989 2.455-1 4 .149 1.82.816 3.32 2 4.5a451.833 451.833 0 0 0 48-1.5c-2.131.814-4.464 1.314-7 1.5a608.709 608.709 0 0 1-45 1.5c-.214 1.644.12 3.144 1 4.5a479.861 479.861 0 0 0 48 1.5v1a625.997 625.997 0 0 0-50 1c16.61 1.126 32.943 3.292 49 6.5a354.924 354.924 0 0 1-42 3 12.64 12.64 0 0 1-4 2.5c-2.635-3.643-5.301-7.31-8-11 2.488-1.556 3.488-3.889 3-7 .494-3.158-.506-5.491-3-7h5v-8a8264.068 8264.068 0 0 0 70-2Z"/><path style="opacity:1" fill="#e6e4e1" d="M230.5 500.5c-1.599-.268-2.932.066-4 1-9.006.166-18.006 0-27-.5-1.884-.216-3.551-.883-5-2 2.208-.191 4.208-.691 6-1.5a198.456 198.456 0 0 1 30-.5c5.035.999 5.035 2.165 0 3.5Z"/><path style="opacity:1" fill="#d0ccc9" d="M200.5 497.5c-1.792.809-3.792 1.309-6 1.5 1.449 1.117 3.116 1.784 5 2 8.994.5 17.994.666 27 .5v1c-17.337.167-34.67 0-52-.5-1.216-1.74-2.882-2.74-5-3 10.344-.399 20.677-.899 31-1.5Z"/><path style="opacity:.075" fill="#939390" d="M155.5 492.5c2.494 1.509 3.494 3.842 3 7 .488 3.111-.512 5.444-3 7-2.855-3.092-3.688-6.759-2.5-11 .377-1.442 1.21-2.442 2.5-3Z"/><path style="opacity:1" fill="#c0bdb9" d="M213.5 494.5c9.339-.166 18.673 0 28 .5 2.65 2.082 2.316 3.749-1 5-3.317.498-6.65.665-10 .5 5.035-1.335 5.035-2.501 0-3.5a198.456 198.456 0 0 0-30 .5 1583.454 1583.454 0 0 1-31 1.5c2.118.26 3.784 1.26 5 3 17.33.5 34.663.667 52 .5-5.14.988-10.474 1.321-16 1a479.861 479.861 0 0 1-48-1.5c-.88-1.356-1.214-2.856-1-4.5a608.709 608.709 0 0 0 45-1.5c2.536-.186 4.869-.686 7-1.5Z"/><path style="opacity:1" fill="#696763" d="M234.5 504.5a96.536 96.536 0 0 1 23-4 68.202 68.202 0 0 1 16-2v5c-8.956 1.976-18.123 2.976-27.5 3-4.229-.01-8.062-.677-11.5-2Z"/><path style="opacity:1" fill="#878582" d="m280.5 496.5 1 2c.131.876-.202 1.543-1 2-1.45-1.155-2.45-2.655-3-4.5l-2.5-.5c-6.197.879-12.031 2.545-17.5 5a96.536 96.536 0 0 0-23 4c-1.808-.009-3.475.491-5 1.5l3 1c13.717.186 27.384.353 41 .5 1.238-5.103 2.571-5.27 4-.5-1.718 2.562-2.718 5.395-3 8.5-2.726.236-5.059-.597-7-2.5-11.508-.826-22.841-.659-34 .5h-19c5.485-.827 11.152-1.327 17-1.5 1.333-1 1.333-2 0-3a1142.252 1142.252 0 0 1-30-3c3.195-.181 6.195-.681 9-1.5 6.342.166 12.675 0 19-.5a1645.249 1645.249 0 0 0 37-9c.837-1.011 1.17-2.178 1-3.5-2.427.023-4.76.523-7 1.5-24.339.369-48.672.869-73 1.5 4.147-.825 8.481-1.325 13-1.5l59-1c6.627-2.159 13.294-3.659 20-4.5-.31 3.213.023 6.213 1 9Z"/><path style="opacity:1" fill="#9c9995" d="M210.5 504.5c-2.805.819-5.805 1.319-9 1.5a1142.252 1142.252 0 0 0 30 3c1.333 1 1.333 2 0 3-5.848.173-11.515.673-17 1.5-13.165.696-26.165 3.029-39 7-1.686 1.357-3.352 2.69-5 4a54.912 54.912 0 0 1-7-7 12.64 12.64 0 0 0 4-2.5 354.924 354.924 0 0 0 42-3c-16.057-3.208-32.39-5.374-49-6.5a625.997 625.997 0 0 1 50-1Z"/><path style="opacity:1" fill="#7d7a76" d="M214.5 513.5h18c-18.753 1.552-37.086 5.385-55 11.5a81.316 81.316 0 0 0-3 2.5c-1.73-.526-3.064-1.526-4-3 1.648-1.31 3.314-2.643 5-4 12.835-3.971 25.835-6.304 39-7Z"/><path style="opacity:1" fill="#3b3935" d="M264.5 521.5a10.165 10.165 0 0 0 3 3c-.936 1.474-2.27 2.474-4 3-1.565-2.219-3.565-2.552-6-1-1.915-1.571-2.915-3.571-3-6a86.62 86.62 0 0 0-20 1.5 1341.79 1341.79 0 0 1-10 6 84.902 84.902 0 0 1-13 .5c4.542-1.476 8.875-3.643 13-6.5 13.478-4.355 26.811-4.522 40-.5Z"/><path style="opacity:1" fill="#43423d" d="M236.5 515.5c7.674-.166 15.341 0 23 .5 3.152.464 4.818 2.297 5 5.5-13.189-4.022-26.522-3.855-40 .5-4.125 2.857-8.458 5.024-13 6.5-8.797.612-17.464 1.279-26 2-2.376.706-3.71 2.373-4 5-.838-.342-1.172-1.008-1-2 .934-1.068 1.268-2.401 1-4a129.495 129.495 0 0 1 25-3.5 87.023 87.023 0 0 1 19-9c3.856-.177 7.523-.677 11-1.5Z"/><path style="opacity:1" fill="#53514c" d="M236.5 515.5c-3.477.823-7.144 1.323-11 1.5a87.023 87.023 0 0 0-19 9 129.495 129.495 0 0 0-25 3.5c.268 1.599-.066 2.932-1 4l-3-2c1.748-2.998 4.415-4.831 8-5.5a77.043 77.043 0 0 1 25-6c8.141-3.902 16.808-5.402 26-4.5Z"/><path style="opacity:1" fill="#282623" d="M263.5 527.5a633.713 633.713 0 0 1-6 8 33.673 33.673 0 0 1-4-5.5 261.613 261.613 0 0 0-28 .5h-40c8.536-.721 17.203-1.388 26-2a84.902 84.902 0 0 0 13-.5 1341.79 1341.79 0 0 0 10-6 86.62 86.62 0 0 1 20-1.5c.085 2.429 1.085 4.429 3 6 2.435-1.552 4.435-1.219 6 1Z"/><path style="opacity:.337" fill="#65635f" d="M232.5 513.5h1c11.005-.167 22.005 0 33 .5 2.541 1.848 3.541 4.348 3 7.5-.432 1.21-1.099 2.21-2 3a10.165 10.165 0 0 1-3-3c-.182-3.203-1.848-5.036-5-5.5-7.659-.5-15.326-.666-23-.5-9.192-.902-17.859.598-26 4.5a77.043 77.043 0 0 0-25 6c-3.585.669-6.252 2.502-8 5.5-1.474-.936-2.474-2.27-3-4a81.316 81.316 0 0 1 3-2.5c17.914-6.115 36.247-9.948 55-11.5Z"/><path style="opacity:.905" fill="#060605" d="M257.5 535.5a209.449 209.449 0 0 1-12 12.5 17.419 17.419 0 0 1-8 3.5c-.815-1.802-2.315-2.802-4.5-3l-1.5 1a5.576 5.576 0 0 1 1 3 10.165 10.165 0 0 1-3 3h-22c-3.655-2.494-7.655-4.494-12-6a32.864 32.864 0 0 1 5-4.5c-2.543-.14-4.877-.806-7-2a7.248 7.248 0 0 0 2-2.5 28.718 28.718 0 0 1-5-1l2-2-1.5-1c-1.44.648-2.94.981-4.5 1l-2-6c13.844.329 27.51-.004 41-1 9.33-.667 18.663-.833 28-.5a33.673 33.673 0 0 0 4 5.5Z"/><path style="opacity:.4" fill="#161615" d="M185.5 530.5h40a420.766 420.766 0 0 1-41 1l2 6c1.56-.019 3.06-.352 4.5-1l1.5 1-2 2c1.716.497 3.383.831 5 1a7.248 7.248 0 0 1-2 2.5c2.123 1.194 4.457 1.86 7 2a32.864 32.864 0 0 0-5 4.5c-5-4.333-9.667-9-14-14 .29-2.627 1.624-4.294 4-5Z"/><path style="opacity:.067" fill="#333" d="M237.5 551.5a20.69 20.69 0 0 0-5 1 5.576 5.576 0 0 0-1-3l1.5-1c2.185.198 3.685 1.198 4.5 3Z"/></svg>