<svg xmlns="http://www.w3.org/2000/svg" width="325" height="336" style="shape-rendering:geometricPrecision;text-rendering:geometricPrecision;image-rendering:optimizeQuality;fill-rule:evenodd;clip-rule:evenodd"><path style="opacity:.778" fill="#222" d="M156.5 13.5a72.442 72.442 0 0 1 12 .5c3.053 2.051 4.886 4.885 5.5 8.5.667 11 .667 22 0 33-.313 4.465-2.479 7.632-6.5 9.5-8.339 2.622-13.506-.211-15.5-8.5a289.106 289.106 0 0 1 0-34c.468-3.602 1.968-6.602 4.5-9Z"/><path style="opacity:.986" fill="#1c1c1c" d="M158.5 16.5c2.324.495 4.491.495 6.5 0 1.059.13 1.892.63 2.5 1.5a56.696 56.696 0 0 0-6.5 1.5c-1.749-.248-2.582-1.248-2.5-3Z"/><path style="opacity:1" fill="#1c1c1c" d="M167.5 19.5c1.33 6.298 1.997 12.965 2 20l-1 20a3.646 3.646 0 0 0-1.5 1c.957-7.495 1.457-15.328 1.5-23.5a193.33 193.33 0 0 0-1-17.5Z"/><path style="opacity:.748" fill="#222" d="M60.5 53.5c2.357-.163 4.69.003 7 .5A257.058 257.058 0 0 1 95 80.5c2.775 6.673 1.275 12.173-4.5 16.5a30.499 30.499 0 0 1-11 0A484.8 484.8 0 0 1 54 71.5c-3.184-4.296-3.184-8.629 0-13 2.07-1.938 4.237-3.604 6.5-5Z"/><path style="opacity:.742" fill="#222" d="M258.5 53.5c11.916.417 16.416 6.417 13.5 18a903.855 903.855 0 0 0-25.5 25c-8.532 3.4-14.365.734-17.5-8-.446-2.91.221-5.577 2-8 8.423-9.924 17.589-18.924 27.5-27Z"/><path style="opacity:.999" fill="#1c1c1c" d="M257.5 58.5a24.365 24.365 0 0 1 10 1.5c1.076 1.726 1.243 3.56.5 5.5-.233-3.73-2.233-5.396-6-5-2.757.07-5.257.57-7.5 1.5a14.696 14.696 0 0 0 3-3.5Z"/><path style="opacity:.994" fill="#1c1c1c" d="M59.5 58.5c3.956.553 3.956 1.386 0 2.5a26.61 26.61 0 0 1-2 3.5l-1-2a14.185 14.185 0 0 1 3-4Z"/><path style="opacity:.98" fill="#1b1b1b" d="M159.5 61.5c1.864-1.293 3.864-1.293 6 0-2.016 1.194-4.016 1.194-6 0Z"/><path style="opacity:.818" fill="#222" d="M147.5 76.5c47.65-3.78 80.484 16.22 98.5 60 7.893 26.997 4.559 52.33-10 76a200.911 200.911 0 0 1-22 25c-4.454 8.446-6.788 17.446-7 27a18.68 18.68 0 0 1-6.5 6 764.582 764.582 0 0 1-38 1 396.26 396.26 0 0 1-39-1.5 14.51 14.51 0 0 1-4.5-4.5 112.73 112.73 0 0 1-3-19l-4-8a412.767 412.767 0 0 0-16.5-18c-21.31-28.507-25.478-59.507-12.5-93 9.778-20.431 24.945-35.265 45.5-44.5a1817.365 1817.365 0 0 1 19-6.5Zm9 24c32.839-1.18 55.006 13.486 66.5 44 5.8 20.828 2.634 40.161-9.5 58a222.306 222.306 0 0 0-20.5 23 116.214 116.214 0 0 0-8.5 21 308.717 308.717 0 0 1-43 .5c-2.647-10.008-7.147-19.175-13.5-27.5a142.667 142.667 0 0 1-22-27c-13.586-34.274-5.419-62.107 24.5-83.5 8.375-4.412 17.042-7.245 26-8.5Z"/><path style="opacity:1" fill="#1b1b1b" d="M153.5 81.5c7.155-1.155 14.488-1.322 22-.5 2.8 1.232 5.8 1.898 9 2a271.55 271.55 0 0 1-31-1.5Z"/><path style="opacity:.998" fill="#1c1c1c" d="M128.5 86.5c1.478-.262 2.811.071 4 1l-2 1c-1.213-.247-1.88-.914-2-2Z"/><path style="opacity:1" fill="#262626" d="M242.5 87.5c1.603-.188 2.937.312 4 1.5-1.717 1.559-3.717 2.392-6 2.5.027-1.7.694-3.033 2-4Z"/><path style="opacity:1" fill="#1a1a1a" d="M89.5 91.5c.14-1.837.806-2.17 2-1-.457.797-1.124 1.13-2 1Z"/><path style="opacity:1" fill="#1b1b1b" d="M234.5 88.5c2.175 2.978 5.175 4.478 9 4.5-3.889 1.14-7.222.307-10-2.5.363-.683.696-1.35 1-2Z"/><path style="opacity:1" fill="#181818" d="M89.5 91.5c-1.014 1.265-2.514 1.931-4.5 2l-4.5-.5a97.442 97.442 0 0 0 9-1.5Z"/><path style="opacity:1" fill="#272727" d="M150.5 92.5c6.009-.166 12.009 0 18 .5l-14 1a15.653 15.653 0 0 0-4 2.5c-3.051-1.422-5.885-1.089-8.5 1-1.563-.602-1.396-1.435.5-2.5l7-1c.556-.383.889-.883 1-1.5Z"/><path style="opacity:.999" fill="#262626" d="M171.5 93.5c.417-.624 1.084-.957 2-1a98.1 98.1 0 0 0 9 1.5c3.092.934 3.425 2.1 1 3.5a94.963 94.963 0 0 0-7.5-2 13.49 13.49 0 0 0-4 2l-1.5-.5c1.995-.924 2.328-2.09 1-3.5Z"/><path style="opacity:.98" fill="#1b1b1b" d="M182.5 98.5c1.478-.262 2.811.071 4 1l-2 1c-1.213-.247-1.88-.914-2-2Z"/><path style="opacity:.999" fill="#1c1c1c" d="M226.5 111.5c2.595.749 3.762 2.416 3.5 5-1.802-1.289-2.969-2.956-3.5-5Z"/><path style="opacity:.703" fill="#212121" d="M163.5 114.5c20.446-1.409 35.612 6.925 45.5 25 3.652 7.281 4.985 14.948 4 23-4.227 7.53-9.56 8.53-16 3-1.479-21.479-12.979-32.979-34.5-34.5-5.555-5.922-5.222-11.422 1-16.5Z"/><path style="opacity:1" fill="#272727" d="M164.5 121.5v-1a32.462 32.462 0 0 1 8 .5c-.763.944-1.763 1.444-3 1.5a20.222 20.222 0 0 0-5-1Z"/><path style="opacity:.999" fill="#1b1b1b" d="M178.5 121.5c.597-.639 1.43-.972 2.5-1a115.538 115.538 0 0 0 7.5 3l-2 1a37.282 37.282 0 0 0-8-3Z"/><path style="opacity:1" fill="#1b1b1b" d="M164.5 120.5v5c-1.149-.291-1.816-1.124-2-2.5.184-1.376.851-2.209 2-2.5Z"/><path style="opacity:1" fill="#181818" d="M164.5 125.5c1.837.139 2.17.806 1 2-.798-.457-1.131-1.124-1-2Z"/><path style="opacity:1" fill="#1b1b1b" d="M172.5 127.5a9.86 9.86 0 0 1 6 1l-3 1c-1.53-.14-2.53-.807-3-2Z"/><path style="opacity:1" fill="#1c1c1c" d="M84.5 139.5c.176-3.865 1.176-7.532 3-11 .43 3.943-.57 7.609-3 11Z"/><path style="opacity:1" fill="#272727" d="M100.5 129.5c1.526.605 2.526 1.771 3 3.5-2.348.11-3.848 1.277-4.5 3.5-.135-2.422.365-4.755 1.5-7Z"/><path style="opacity:1" fill="#1c1c1c" d="M84.5 139.5a97.442 97.442 0 0 0-1.5 9c-.383.556-.883.889-1.5 1h-1a81.657 81.657 0 0 1 4-10Z"/><path style="opacity:.995" fill="#1b1b1b" d="M243.5 148.5c-1.953-2.74-2.286-5.74-1-9a21.127 21.127 0 0 1 1 9Z"/><path style="opacity:1" fill="#262626" d="M205.5 145.5v3a167.66 167.66 0 0 1-5-4.5 26.585 26.585 0 0 1 2-3.5 24.425 24.425 0 0 0 3 5Z"/><path style="opacity:.997" fill="#1b1b1b" d="M227.5 142.5c1.923 1.701 2.257 3.701 1 6a9.86 9.86 0 0 1-1-6Z"/><path style="opacity:.999" fill="#1c1c1c" d="M205.5 148.5v-3c1.509-1.359 2.176-.859 2 1.5l-1 2.5c-.607-.124-.94-.457-1-1Z"/><path style="opacity:1" fill="#1a1a1a" d="M95.5 161.5c-.934-1.068-1.268-2.401-1-4-.437-4.912.396-9.578 2.5-14-1.058 5.813-1.558 11.813-1.5 18Z"/><path style="opacity:1" fill="#272727" d="M93.5 157.5v1c-1.312-.645-2.312-1.645-3-3a27.01 27.01 0 0 1 2.5-7c.498 2.982.665 5.982.5 9Z"/><path style="opacity:1" fill="#262626" d="M231.5 158.5v-7c-.219-1.175.114-2.175 1-3 1.159 3.622 1.325 7.289.5 11-.383-.556-.883-.889-1.5-1Z"/><path style="opacity:.999" fill="#1c1c1c" d="M243.5 148.5c.617.111 1.117.444 1.5 1 .667 9.333.667 18.667 0 28-1.188-1.063-1.688-2.397-1.5-4v-25Z"/><path style="opacity:1" fill="#262626" d="M83.5 149.5c-.018 8.197.316 16.53 1 25l-1.5 3a134.764 134.764 0 0 1 .5-28Z"/><path style="opacity:1" fill="#272727" d="M200.5 150.5c2.009 1.878 2.342 4.044 1 6.5 2.494 2.393 1.827 3.56-2 3.5a44.866 44.866 0 0 0 1-10Z"/><path style="opacity:.994" fill="#1b1b1b" d="M231.5 151.5v7c.6 5.067.6 10.067 0 15v3c-.722.418-1.222 1.084-1.5 2a196.152 196.152 0 0 1 0-28c.383.556.883.889 1.5 1Z"/><path style="opacity:.723" fill="#212121" d="M19.5 152.5c12.005-.167 24.005 0 36 .5 7.44 2.693 10.107 7.86 8 15.5-1.204 2.915-3.204 5.081-6 6.5a400.05 400.05 0 0 1-40 0c-5.677-3.636-7.51-8.803-5.5-15.5 2.076-2.913 4.576-5.247 7.5-7Z"/><path style="opacity:1" fill="#272727" d="M207.5 161.5c-.958.453-1.792 1.119-2.5 2 .019-3.651.519-7.318 1.5-11a21.127 21.127 0 0 1 1 9Z"/><path style="opacity:.731" fill="#222" d="M269.5 152.5c12.005-.167 24.005 0 36 .5 6.915 3 9.748 8.167 8.5 15.5a15.855 15.855 0 0 1-5.5 6 280.701 280.701 0 0 1-41 .5c-5.972-4.241-7.472-9.741-4.5-16.5a53.864 53.864 0 0 1 6.5-6Z"/><path style="opacity:1" fill="#272727" d="M57.5 167.5a285.102 285.102 0 0 1-3-6l-2-1c-10.423 1.575-20.756 1.075-31-1.5 11.416.134 22.583-.699 33.5-2.5a24.645 24.645 0 0 1 2.5 11Z"/><path style="opacity:1" fill="#1b1b1b" d="M93.5 157.5h1c-.268 1.599.066 2.932 1 4 .166 5.676 0 11.343-.5 17a121.294 121.294 0 0 1-1.5-20v-1Z"/><path style="opacity:1" fill="#262626" d="M243.5 157.5v16c-.79 1.109-1.29 2.442-1.5 4l-.5-10c.014-3.739.68-7.072 2-10Z"/><path style="opacity:1" fill="#282828" d="M267.5 167.5v-3c.108-2.882 1.274-5.215 3.5-7a285.561 285.561 0 0 0 33.5 1v3a143.953 143.953 0 0 0-33 0c-1.043 2.349-2.376 4.349-4 6Z"/><path style="opacity:.998" fill="#191919" d="M80.5 149.5h1c.166 10.006 0 20.006-.5 30a161.583 161.583 0 0 1-.5-30Z"/><path style="opacity:1" fill="#191919" d="M207.5 161.5c.817-2.469 1.317-5.135 1.5-8 .821 3.054.655 6.054-.5 9-.607-.124-.94-.457-1-1Z"/><path style="opacity:.978" fill="#1c1c1c" d="M14.5 161.5c1.194.47 1.86 1.47 2 3l-1 3a9.864 9.864 0 0 1-1-6Z"/><path style="opacity:.996" fill="#1a1a1a" d="M267.5 164.5v3c1.051.722 1.718 1.722 2 3-1.208-.734-2.541-1.067-4-1a18.453 18.453 0 0 1 .5-6c.383.556.883.889 1.5 1Z"/><path style="opacity:1" fill="#1d1d1d" d="M57.5 167.5c.814-2.131 1.314-4.464 1.5-7 2.47 3.843 1.97 7.177-1.5 10a254.023 254.023 0 0 1-39 .5 7.292 7.292 0 0 1 3-2c-1.211-.893-1.211-1.726 0-2.5a26.596 26.596 0 0 1 2 3.5l12.5.5c5.828.211 11.495-.455 17-2 1.836 2.412 3.336 2.078 4.5-1ZM269.5 170.5c1.466-.847 2.3-2.18 2.5-4l1.5 3a160.723 160.723 0 0 0 31 .5 10.756 10.756 0 0 0 3-2.5c1.239 1.507.905 2.674-1 3.5-12.507.827-24.84.66-37-.5Z"/><path style="opacity:1" fill="#272727" d="M231.5 176.5v-3c.617-.111 1.117-.444 1.5-1l1.5 4.5c-1.605 3.469-2.605 3.302-3-.5Z"/><path style="opacity:.994" fill="#1c1c1c" d="M242.5 181.5c.652.949.986 2.115 1 3.5a96.941 96.941 0 0 1-3.5 10.5c-.533-4.943.301-9.609 2.5-14Z"/><path style="opacity:1" fill="#1c1c1c" d="M84.5 188.5c-1.248-.834-1.915-2.167-2-4l.5-4a168.167 168.167 0 0 1 1.5 8Z"/><path style="opacity:1" fill="#1b1b1b" d="M84.5 188.5c1.826 1.937 1.993 3.937.5 6a18.437 18.437 0 0 1-.5-6Z"/><path style="opacity:1" fill="#1c1c1c" d="M86.5 195.5c1.086.12 1.753.787 2 2l-1 2c-.929-1.189-1.262-2.522-1-4Z"/><path style="opacity:1" fill="#262626" d="M213.5 211.5c.951 1.419 1.284 3.085 1 5-1.322-.17-2.489.163-3.5 1l-1.5-1.5a25.14 25.14 0 0 0 4-4.5ZM116.5 218.5c.06-.543.393-.876 1-1 3.281 1.421 5.115 3.754 5.5 7a54.53 54.53 0 0 0-6.5-6Z"/><path style="opacity:.762" fill="#212121" d="M81.5 230.5c11.95.447 16.45 6.447 13.5 18a897.326 897.326 0 0 1-25.5 25c-9.796 3.042-15.796-.458-18-10.5a33.28 33.28 0 0 0 3-6.5 492.798 492.798 0 0 1 27-26Z"/><path style="opacity:1" fill="#1b1b1b" d="M130.5 230.5c2.06 2.247 2.893 4.914 2.5 8-1.731-2.362-2.565-5.029-2.5-8Z"/><path style="opacity:.742" fill="#222" d="M237.5 230.5c3.667-.336 7 .497 10 2.5 8.5 7.833 16.667 16 24.5 24.5 2.982 13.348-2.184 18.848-15.5 16.5-10.609-8.604-19.775-18.438-27.5-29.5-.667-1.333-.667-2.667 0-4a36.731 36.731 0 0 1 4-7c1.878-.553 3.378-1.553 4.5-3Z"/><path style="opacity:.999" fill="#1c1c1c" d="M86.5 237.5c1.419-.951 3.085-1.284 5-1a18.437 18.437 0 0 1-.5 6c-.656-2.486-2.156-4.153-4.5-5Z"/><path style="opacity:.997" fill="#1c1c1c" d="M189.5 240.5c1.265 1.014 1.931 2.514 2 4.5l-.5 4.5a3.647 3.647 0 0 1-1.5 1c-.137-3.053-.137-6.386 0-10Z"/><path style="opacity:1" fill="#1c1c1c" d="M134.5 240.5c1.129 2.128 1.296 4.461.5 7-1.518-2.313-1.684-4.646-.5-7Z"/><path style="opacity:1" fill="#262626" d="M203.5 245.5c-1.401 4.131-2.067 8.464-2 13-.435 1.797-.435 3.797 0 6a4.934 4.934 0 0 1-3-.5 128.987 128.987 0 0 0 1.5-15.5l3-4c.399.228.565.562.5 1Z"/><path style="opacity:.998" fill="#1d1d1d" d="M201.5 258.5c-.067-4.536.599-8.869 2-13 1.601-1.143 2.267-.476 2 2a48.127 48.127 0 0 0-2.5 12c-.383-.556-.883-.889-1.5-1Z"/><path style="opacity:.999" fill="#1c1c1c" d="M255.5 248.5c1.768-1.007 3.101-.341 4 2l-1 1c-1.235-.84-2.235-1.84-3-3Z"/><path style="opacity:1" fill="#1a1a1a" d="M120.5 245.5c2.637 5.965 3.47 12.299 2.5 19a118.544 118.544 0 0 0-2.5-19Z"/><path style="opacity:1" fill="#1c1c1c" d="M140.5 252.5c15.495-1.161 31.161-1.328 47-.5a25.716 25.716 0 0 1-5.5 1.5 460.544 460.544 0 0 0-41.5-1Z"/><path style="opacity:1" fill="#262626" d="M124.5 258.5c1.146 1.975 2.813 3.475 5 4.5l54 1a1635.3 1635.3 0 0 0-55 1.5 10.305 10.305 0 0 1-3-1 9.86 9.86 0 0 1-1-6Z"/><path style="opacity:.994" fill="#1d1d1d" d="M58.5 259.5v8c-.06.543-.393.876-1 1-1.152-2.606-1.318-5.273-.5-8 .383-.556.883-.889 1.5-1Z"/><path style="opacity:1" fill="#272727" d="M58.5 259.5c1.495-.085 2.495.581 3 2-.864 2.951-.864 5.617 0 8h-2c.172-.992-.162-1.658-1-2v-8Z"/><path style="opacity:1" fill="#1c1c1c" d="M266.5 258.5c1.277 1.194 1.944 2.86 2 5l-1 5c.28-3.124-.053-6.457-1-10Z"/><path style="opacity:.995" fill="#262626" d="M257.5 264.5c.816 1.644 2.15 2.81 4 3.5-4.868 3.777-6.201 2.611-4-3.5Z"/><path style="opacity:.981" fill="#1c1c1c" d="M59.5 269.5h2a9.86 9.86 0 0 1 6 1l-4 1c-1.833-.085-3.166-.752-4-2Z"/><path style="opacity:.739" fill="#222" d="M134.5 277.5c18.67-.167 37.336 0 56 .5 7.956 2.747 11.123 8.247 9.5 16.5-1.892 3.558-4.725 6.058-8.5 7.5a840.83 840.83 0 0 1-58 0c-9.152-4.44-11.152-10.94-6-19.5 2.087-2.166 4.421-3.833 7-5Z"/><path style="opacity:.986" fill="#282828" d="M136.5 280.5a302.6 302.6 0 0 0 48 0 32.444 32.444 0 0 0 6 1.5 756.122 756.122 0 0 1-55 0c.556-.383.889-.883 1-1.5Z"/><path style="opacity:1" fill="#272727" d="M133.5 284.5c20.011-.333 40.011 0 60 1a6.846 6.846 0 0 1 1 4 44.079 44.079 0 0 0-11-2.5l-51-1c.556-.383.889-.883 1-1.5Z"/><path style="opacity:.995" fill="#1d1d1d" d="M128.5 287.5c1.958 2.314 3.624 4.98 5 8-.825.886-1.825 1.219-3 1-1.276-2.836-1.942-5.836-2-9Z"/><path style="opacity:1" fill="#1c1c1c" d="M135.5 296.5a676.55 676.55 0 0 1 52 1l-26 1c-9.027-.002-17.693-.669-26-2Z"/><path style="opacity:.671" fill="#222" d="M136.5 307.5c17.67-.167 35.336 0 53 .5 1.249 2.21 1.082 4.376-.5 6.5-13.667 14.881-29.167 17.047-46.5 6.5a55.05 55.05 0 0 0-6-6.5c-1.214-2.359-1.214-4.692 0-7Z"/><path style="opacity:1" fill="#1c1c1c" d="M140.5 313.5c14.505-1.326 29.172-1.326 44 0-14.848 1.197-29.515 1.197-44 0Z"/><path style="opacity:1" fill="#1a1a1a" d="M170.5 319.5a27.603 27.603 0 0 0 5 1.5c-6.402 2.43-13.068 3.096-20 2 4.69-.503 9.357-1.17 14-2 .556-.383.889-.883 1-1.5Z"/></svg>