<svg xmlns="http://www.w3.org/2000/svg" width="273" height="355" style="shape-rendering:geometricPrecision;text-rendering:geometricPrecision;image-rendering:optimizeQuality;fill-rule:evenodd;clip-rule:evenodd"><path style="opacity:.993" fill="#fefee7" d="M94.5-.5h20c-.381 1.431-1.381 2.264-3 2.5a77.045 77.045 0 0 0-20 3 163.139 163.139 0 0 1-22 10c-1.897 3.622-4.897 5.788-9 6.5a51.095 51.095 0 0 1-4 5.5 155.046 155.046 0 0 1-13 10 39.948 39.948 0 0 1-7.5 7.5c-.201 5.075-2.535 8.742-7 11a336.066 336.066 0 0 1-16 39 164.272 164.272 0 0 0-1.5 22.5 213.77 213.77 0 0 0 2.5 31.5c2.046 2.2 3.046 4.867 3 8 3.307 7.955 6.64 15.955 10 24a28.834 28.834 0 0 0 6 4 86.299 86.299 0 0 0 4.5 12 75.152 75.152 0 0 0 12 8c.246 7.717 2.746 8.717 7.5 3 1.292 4.954 4.292 8.288 9 10a15.28 15.28 0 0 0 1.5 4.5 31.91 31.91 0 0 1 6 1.5c.477 2.525 1.81 4.525 4 6 2.717 7.684 4.55 15.684 5.5 24 .383.556.883.889 1.5 1 .449 3.141 1.449 6.141 3 9-.47.963-1.136.963-2 0-1.673-.843-2.84-2.176-3.5-4l-1-10-3-3a41.664 41.664 0 0 0-2.5-13c-1.763 1.454-3.097 1.12-4-1a19.374 19.374 0 0 0 1-8 6.845 6.845 0 0 0-4 1 347.074 347.074 0 0 1-22-12.5 113.383 113.383 0 0 1-5.5-8.5c-7.672-4.982-12.672-11.982-15-21-6.821-6.084-10.821-13.75-12-23l-3-3c-.054-3.361-1.054-6.361-3-9a84.179 84.179 0 0 0-2-17c-.667-10-.667-20 0-30a263.27 263.27 0 0 0 5-21 48.599 48.599 0 0 0 6-15 110.61 110.61 0 0 1 12-16l6-12a26.76 26.76 0 0 1 6.5-3c5.383-9.558 13.05-16.391 23-20.5 7.145-7.239 15.812-11.239 26-12 1.82-.2 3.153-1.034 4-2.5Z"/><path style="opacity:1" fill="#fefee4" d="M114.5-.5h36c4.482.826 9.149 1.326 14 1.5 4.103.712 7.103 2.878 9 6.5a985.174 985.174 0 0 0 20.5 8c2.565 3.533 6.065 5.367 10.5 5.5l7 4.5c1.336 3.01 2.669 6.01 4 9 3.6.98 5.767 3.313 6.5 7 9.384 6.088 14.717 14.754 16 26 6.688 8.064 9.688 17.397 9 28a30.325 30.325 0 0 1 5 8c.61 12.687.277 25.354-1 38-.767 2.98-2.1 5.646-4 8a269.937 269.937 0 0 1-3 13c-3.731 5.467-6.398 11.467-8 18-2.77 2.101-4.77 4.768-6 8l-7 6a22.508 22.508 0 0 0-2 7c-2.405 1.903-4.239 4.236-5.5 7a26.724 26.724 0 0 1-7 1.5c-.496 1.996-1.496 3.663-3 5a33.724 33.724 0 0 1-11 1.5c.287-1.621 1.287-2.621 3-3 .497-3.762 1.831-7.095 4-10h1a35.576 35.576 0 0 0 7-3.5c2.887-4.631 6.553-8.464 11-11.5 2.412-4.859 5.745-8.859 10-12l11.5-23c4.026-22.96 4.36-45.96 1-69l-12-18a104.755 104.755 0 0 0-2.5-14c-2.082.028-3.916-.639-5.5-2-2.243-4.248-5.243-7.914-9-11a35.3 35.3 0 0 1-3.5-8.5 373.783 373.783 0 0 0-21-9c-6-5.5-13-9.168-21-11a14.505 14.505 0 0 1-5-4 239.614 239.614 0 0 0-49-2c-17.33 3.558-33.663 9.891-49 19A28334.324 28334.324 0 0 0 41 46.5c-3.053 8.446-7.387 16.112-13 23a126.4 126.4 0 0 1-8 23c-2.845 18.575-3.178 37.241-1 56 2.788 1.912 4.121 4.579 4 8 2.937 3.384 4.27 7.384 4 12a42.404 42.404 0 0 0 5 10c5.87 4.376 10.036 10.042 12.5 17 3.535 2.767 7.535 4.434 12 5a27.015 27.015 0 0 0 4 8c1.276 1.145 2.609 1.145 4 0 .929 1.189 1.262 2.522 1 4h4c.555 4.08 1.888 7.747 4 11a31.91 31.91 0 0 0-6-1.5 15.28 15.28 0 0 1-1.5-4.5c-4.708-1.712-7.708-5.046-9-10-4.754 5.717-7.254 4.717-7.5-3a75.152 75.152 0 0 1-12-8 86.299 86.299 0 0 1-4.5-12 28.834 28.834 0 0 1-6-4c-3.36-8.045-6.693-16.045-10-24 .046-3.133-.954-5.8-3-8a213.77 213.77 0 0 1-2.5-31.5c-.015-7.54.485-15.04 1.5-22.5a336.066 336.066 0 0 0 16-39c4.465-2.258 6.799-5.925 7-11a39.948 39.948 0 0 0 7.5-7.5 155.046 155.046 0 0 0 13-10 51.095 51.095 0 0 0 4-5.5c4.103-.712 7.103-2.878 9-6.5a163.139 163.139 0 0 0 22-10 77.045 77.045 0 0 1 20-3c1.619-.236 2.619-1.069 3-2.5Zm-38 79h4c.16 1.7-.007 3.366-.5 5a40.981 40.981 0 0 0-6 16 50.15 50.15 0 0 0-8.5 14c-1.32 1.77-2.82 2.103-4.5 1-.932-7.487.568-14.487 4.5-21a186.274 186.274 0 0 0 11-15Zm51 49c3.35-.165 6.683.002 10 .5a19.887 19.887 0 0 1-4 3.5c-.929 1.189-1.262 2.522-1 4h-3c.213-2.951-.454-5.618-2-8Zm30-8c-2.559-.302-4.893.032-7 1a191.322 191.322 0 0 1-34.5-2c-.312-5.437 1.021-10.437 4-15a40.703 40.703 0 0 1 9.5-2.5 8.906 8.906 0 0 0 4-3c8.749-2.4 15.916-.232 21.5 6.5.012 5.244.845 10.244 2.5 15Z"/><path style="opacity:.995" fill="#fefee8" d="M150.5-.5h29c.501 2.655 1.834 4.822 4 6.5a274.085 274.085 0 0 1 28 14 20.888 20.888 0 0 1 3.5 6.5c3.654.995 6.654 2.995 9 6 11.5 12.333 19.333 26.666 23.5 43 1.545.952 3.212 1.285 5 1-.618 9.24.549 18.24 3.5 27l3 3c.667 6 .667 12 0 18l-3 3a1055.815 1055.815 0 0 1-3.5 38 10.776 10.776 0 0 0-6 2c-1.334 7.003-4.501 13.003-9.5 18a105.545 105.545 0 0 1-9.5 17 116.745 116.745 0 0 1-22 18.5 65.678 65.678 0 0 0-13 4.5c-1.395 1.554-2.061 1.221-2-1 2.025-2.337 3.359-5.003 4-8a33.724 33.724 0 0 0 11-1.5c1.504-1.337 2.504-3.004 3-5 2.4-.186 4.734-.686 7-1.5 1.261-2.764 3.095-5.097 5.5-7 .29-2.452.956-4.785 2-7l7-6c1.23-3.232 3.23-5.899 6-8 1.602-6.533 4.269-12.533 8-18a269.937 269.937 0 0 0 3-13c1.9-2.354 3.233-5.02 4-8a255.552 255.552 0 0 0 1-38 30.325 30.325 0 0 0-5-8c.688-10.603-2.312-19.936-9-28-1.283-11.246-6.616-19.912-16-26-.733-3.687-2.9-6.02-6.5-7-1.331-2.99-2.664-5.99-4-9l-7-4.5c-4.435-.133-7.935-1.967-10.5-5.5a985.174 985.174 0 0 1-20.5-8c-1.897-3.622-4.897-5.788-9-6.5-4.851-.174-9.518-.674-14-1.5Z"/><path style="opacity:1" fill="#fefedc" d="M202.5 203.5a71.27 71.27 0 0 1 10.5-13l2.5-6c5.573-.408 8.073-3.408 7.5-9l8-10a89.017 89.017 0 0 1 6-15 514.163 514.163 0 0 1 4.5-45 187.118 187.118 0 0 1-3.5-19c-3.014-5.365-6.014-10.699-9-16l-1-9c-1.262-1.803-2.929-3.136-5-4a60.6 60.6 0 0 0-4.5-8 698.006 698.006 0 0 0-23-21.5c-7.034.118-12.701-2.549-17-8a160.131 160.131 0 0 0-15-8 5028.346 5028.346 0 0 0-50-2.5 244.957 244.957 0 0 1-15 3.5 209.744 209.744 0 0 1-26 11l-7 5A233.213 233.213 0 0 0 46 46.5c-2.623 8.626-6.956 16.292-13 23-4.203 9.47-6.87 19.47-8 30l-2 2a256.237 256.237 0 0 0 0 32 75.552 75.552 0 0 1 2 16l2 2a329.197 329.197 0 0 0 7 21c4.706 1.105 6.706 4.105 6 9 6.406 3.56 10.24 8.894 11.5 16 3.04.51 6.04 1.177 9 2l3 2a189.736 189.736 0 0 1 12 20c-.067 1.459.266 2.792 1 4l1 4c-2.19-1.475-3.523-3.475-4-6-2.112-3.253-3.445-6.92-4-11h-4c.262-1.478-.071-2.811-1-4-1.391 1.145-2.724 1.145-4 0a27.015 27.015 0 0 1-4-8c-4.465-.566-8.465-2.233-12-5-2.464-6.958-6.63-12.624-12.5-17a42.404 42.404 0 0 1-5-10c.27-4.616-1.063-8.616-4-12 .121-3.421-1.212-6.088-4-8-2.178-18.759-1.845-37.425 1-56a126.4 126.4 0 0 0 8-23c5.613-6.888 9.947-14.554 13-23 8.219-7.556 16.385-15.056 24.5-22.5 15.337-9.109 31.67-15.442 49-19a239.614 239.614 0 0 1 49 2 14.505 14.505 0 0 0 5 4c8 1.832 15 5.5 21 11a373.783 373.783 0 0 1 21 9 35.3 35.3 0 0 0 3.5 8.5c3.757 3.086 6.757 6.752 9 11 1.584 1.361 3.418 2.028 5.5 2a104.755 104.755 0 0 1 2.5 14l12 18c3.36 23.04 3.026 46.04-1 69l-11.5 23c-4.255 3.141-7.588 7.141-10 12-4.447 3.036-8.113 6.869-11 11.5a35.576 35.576 0 0 1-7 3.5Zm-126-125a186.274 186.274 0 0 1-11 15c-3.932 6.513-5.432 13.513-4.5 21 1.68 1.103 3.18.77 4.5-1a50.15 50.15 0 0 1 8.5-14 40.981 40.981 0 0 1 6-16c.493-1.634.66-3.3.5-5h-4Zm51 49c1.546 2.382 2.213 5.049 2 8h3c-.262-1.478.071-2.811 1-4a19.887 19.887 0 0 0 4-3.5 50.464 50.464 0 0 0-10-.5Zm30-8c-2.559-.302-4.893.032-7 1a191.322 191.322 0 0 1-34.5-2c-.312-5.437 1.021-10.437 4-15a40.703 40.703 0 0 1 9.5-2.5 8.906 8.906 0 0 0 4-3c8.749-2.4 15.916-.232 21.5 6.5.012 5.244.845 10.244 2.5 15Z"/><path style="opacity:1" fill="#fefed6" d="M202.5 203.5h-1a80.97 80.97 0 0 1 7.5-10c.533-3.005 1.7-5.672 3.5-8 3.165-2.441 4.831-5.774 5-10 2.764-.499 4.431-2.165 5-5a30.786 30.786 0 0 1 4.5-3l1-10 2.5-3a43.117 43.117 0 0 0 1-13c.462-3.187 1.962-5.854 4.5-8 1.35-15.87.35-31.536-3-47l-3-3a40.225 40.225 0 0 0-2-11l-3-2c-1.68-6.684-5.347-12.017-11-16A104.873 104.873 0 0 0 194.5 32 4244.076 4244.076 0 0 0 166 19.5a24.29 24.29 0 0 1-3.5-3.5 572.868 572.868 0 0 0-49-3.5 3448.59 3448.59 0 0 0-42 16.5 251.69 251.69 0 0 1-15 15 28.83 28.83 0 0 0-4 1.5 135.541 135.541 0 0 1-2.5 7 131.297 131.297 0 0 0-12 18 615.611 615.611 0 0 1-11 31 372.854 372.854 0 0 0 1 47 13.923 13.923 0 0 1 4 3 710.513 710.513 0 0 1 5 13c.67.752 1.504 1.086 2.5 1a564.281 564.281 0 0 0 7 14 457.635 457.635 0 0 1 14 20 87.877 87.877 0 0 0-9-2c-1.26-7.106-5.094-12.44-11.5-16 .706-4.895-1.294-7.895-6-9a329.197 329.197 0 0 1-7-21l-2-2a75.552 75.552 0 0 0-2-16 256.237 256.237 0 0 1 0-32l2-2c1.13-10.53 3.797-20.53 8-30 6.044-6.708 10.377-14.374 13-23A233.213 233.213 0 0 1 65.5 29l7-5a209.744 209.744 0 0 0 26-11 244.957 244.957 0 0 0 15-3.5c16.664.75 33.331 1.583 50 2.5a160.131 160.131 0 0 1 15 8c4.299 5.451 9.966 8.118 17 8a698.006 698.006 0 0 1 23 21.5 60.6 60.6 0 0 1 4.5 8c2.071.864 3.738 2.197 5 4l1 9c2.986 5.301 5.986 10.635 9 16a187.118 187.118 0 0 0 3.5 19 514.163 514.163 0 0 0-4.5 45 89.017 89.017 0 0 0-6 15l-8 10c.573 5.592-1.927 8.592-7.5 9l-2.5 6a71.27 71.27 0 0 0-10.5 13Zm-126-125a186.274 186.274 0 0 1-11 15c-3.932 6.513-5.432 13.513-4.5 21 1.68 1.103 3.18.77 4.5-1a50.15 50.15 0 0 1 8.5-14 40.981 40.981 0 0 1 6-16c.493-1.634.66-3.3.5-5h-4Zm51 49c1.546 2.382 2.213 5.049 2 8h3c-.262-1.478.071-2.811 1-4a19.887 19.887 0 0 0 4-3.5 50.464 50.464 0 0 0-10-.5Zm30-8c-2.559-.302-4.893.032-7 1a191.322 191.322 0 0 1-34.5-2c-.312-5.437 1.021-10.437 4-15a40.703 40.703 0 0 1 9.5-2.5 8.906 8.906 0 0 0 4-3c8.749-2.4 15.916-.232 21.5 6.5.012 5.244.845 10.244 2.5 15Z"/><path style="opacity:1" fill="#fefed1" d="M231.5 141.5a417.802 417.802 0 0 0-1.5-47 6.977 6.977 0 0 0-2.5-3.5c2.881-3.707 2.214-6.707-2-9 .331-2.636.998-5.469 2-8.5a6.846 6.846 0 0 1-4-1c-1.698-3.864-4.531-6.53-8.5-8-1.752-5.758-5.085-10.425-10-14-.469-4.089-2.802-6.422-7-7-1.414-7.668-5.247-9-11.5-4-1-.333-1.667-1-2-2 1.333-1.12 1.833-2.453 1.5-4a111.937 111.937 0 0 0-30.5-13c-2.412-.094-4.245.906-5.5 3l-3.5-3.5a1005.578 1005.578 0 0 0-42 0c-1.378 3.43-3.711 4.263-7 2.5-8.47 2.321-16.136 6.154-23 11.5-2.565 2.295-4.231 5.128-5 8.5a38.05 38.05 0 0 0-9 3c-1.304 3.138-3.471 5.471-6.5 7a14.317 14.317 0 0 1-2.5 5.5c2.241 2.428 2.408 4.928.5 7.5-1.851-2.281-3.518-2.281-5 0l-1 5-6 2c-1.685 4.28-2.185 8.614-1.5 13-1.573.735-2.907 1.901-4 3.5a9.818 9.818 0 0 1 2 5 102.6 102.6 0 0 0-4.5 8.5c-.825 10.175-.658 20.175.5 30a53.035 53.035 0 0 0 1.5 14 100.327 100.327 0 0 1 5.5 19c-.996.086-1.83-.248-2.5-1a710.513 710.513 0 0 0-5-13 13.923 13.923 0 0 0-4-3 372.854 372.854 0 0 1-1-47 615.611 615.611 0 0 0 11-31 131.297 131.297 0 0 1 12-18 135.541 135.541 0 0 0 2.5-7 28.83 28.83 0 0 1 4-1.5 251.69 251.69 0 0 0 15-15 3448.59 3448.59 0 0 1 42-16.5 572.868 572.868 0 0 1 49 3.5 24.29 24.29 0 0 0 3.5 3.5c9.471 4.112 18.971 8.28 28.5 12.5A104.873 104.873 0 0 1 214 54.5c5.653 3.983 9.32 9.316 11 16l3 2a40.225 40.225 0 0 1 2 11l3 3c3.35 15.464 4.35 31.13 3 47-2.538 2.146-4.038 4.813-4.5 8Zm-155-63a186.274 186.274 0 0 1-11 15c-3.932 6.513-5.432 13.513-4.5 21 1.68 1.103 3.18.77 4.5-1a50.15 50.15 0 0 1 8.5-14 40.981 40.981 0 0 1 6-16c.493-1.634.66-3.3.5-5h-4Zm51 49c1.546 2.382 2.213 5.049 2 8h3c-.262-1.478.071-2.811 1-4a19.887 19.887 0 0 0 4-3.5 50.464 50.464 0 0 0-10-.5Zm30-8c-2.559-.302-4.893.032-7 1a191.322 191.322 0 0 1-34.5-2c-.312-5.437 1.021-10.437 4-15a40.703 40.703 0 0 1 9.5-2.5 8.906 8.906 0 0 0 4-3c8.749-2.4 15.916-.232 21.5 6.5.012 5.244.845 10.244 2.5 15Z"/><path style="opacity:1" fill="#fefdc9" d="M231.5 141.5a43.117 43.117 0 0 1-1 13l-2.5 3-1 10a30.786 30.786 0 0 0-4.5 3 344.244 344.244 0 0 1 6.5-20c.499-3.652.665-7.318.5-11v-6c1.323-10.174 1.323-20.507 0-31a43.836 43.836 0 0 0-2-1 138.503 138.503 0 0 1-3-9c-1.574-1.602-2.241-3.602-2-6a18.452 18.452 0 0 0-.5-6c-1.011-.837-2.178-1.17-3.5-1-.086-2.177-.753-4.177-2-6-2.777-2.603-4.944-5.603-6.5-9-3.243-1.077-5.743-3.077-7.5-6a12.93 12.93 0 0 0-.5-5 74.931 74.931 0 0 1-7.5-7 6.845 6.845 0 0 1-1-4c-7.096 1.405-11.43-1.428-13-8.5a89.667 89.667 0 0 1-16-8c-5.599-2.138-11.099-1.971-16.5.5-1.971.032-3.471-.802-4.5-2.5-8.679-1.782-17.346-1.782-26 0a16.66 16.66 0 0 1-4 4c-11.684-1.496-22.351 1.17-32 8-1.766 4.331-4.766 6.165-9 5.5a34.857 34.857 0 0 1-5 6 4.938 4.938 0 0 0 1 2.5l-3 1a54.911 54.911 0 0 1-8 9.5c-1.51 2.156-2.51 4.49-3 7a4.932 4.932 0 0 0-3 .5 173.678 173.678 0 0 1-9.5 9.5 72.444 72.444 0 0 0-.5 12 54.796 54.796 0 0 0-4 9c-1.294.79-2.46 1.79-3.5 3a199.754 199.754 0 0 0-1.5 31c-1.158-9.825-1.325-19.825-.5-30a102.6 102.6 0 0 1 4.5-8.5 9.818 9.818 0 0 0-2-5c1.093-1.599 2.427-2.765 4-3.5-.685-4.386-.185-8.72 1.5-13l6-2 1-5c1.482-2.281 3.149-2.281 5 0 1.908-2.572 1.741-5.072-.5-7.5a14.317 14.317 0 0 0 2.5-5.5c3.029-1.529 5.196-3.862 6.5-7a38.05 38.05 0 0 1 9-3c.769-3.372 2.435-6.205 5-8.5 6.864-5.346 14.53-9.179 23-11.5 3.289 1.763 5.622.93 7-2.5 13.947-.292 27.947-.292 42 0l3.5 3.5c1.255-2.094 3.088-3.094 5.5-3a111.937 111.937 0 0 1 30.5 13c.333 1.547-.167 2.88-1.5 4 .333 1 1 1.667 2 2 6.253-5 10.086-3.668 11.5 4 4.198.578 6.531 2.911 7 7 4.915 3.575 8.248 8.242 10 14 3.969 1.47 6.802 4.136 8.5 8a6.846 6.846 0 0 0 4 1c-1.002 3.031-1.669 5.864-2 8.5 4.214 2.293 4.881 5.293 2 9a6.977 6.977 0 0 1 2.5 3.5 417.802 417.802 0 0 1 1.5 47Zm-155-63a186.274 186.274 0 0 1-11 15c-3.932 6.513-5.432 13.513-4.5 21 1.68 1.103 3.18.77 4.5-1a50.15 50.15 0 0 1 8.5-14 40.981 40.981 0 0 1 6-16c.493-1.634.66-3.3.5-5h-4Zm81 41c-2.559-.302-4.893.032-7 1a191.322 191.322 0 0 1-34.5-2c-.312-5.437 1.021-10.437 4-15a40.703 40.703 0 0 1 9.5-2.5 8.906 8.906 0 0 0 4-3c8.749-2.4 15.916-.232 21.5 6.5.012 5.244.845 10.244 2.5 15Z"/><path style="opacity:1" fill="#fefdc0" d="M202.5 58.5a11.743 11.743 0 0 0-5-3 38.214 38.214 0 0 1-10-6 10.162 10.162 0 0 1-3-3 18.476 18.476 0 0 0-2-3.5 2887.852 2887.852 0 0 0-17-5.5 44.147 44.147 0 0 0-1-2c-4.73-.455-9.063-1.955-13-4.5a372.511 372.511 0 0 0-52 1 73.85 73.85 0 0 1-16 6c-1.361 1.584-2.028 3.418-2 5.5h-3v3c-2.867-.13-4.533 1.203-5 4-2.586.915-4.586 2.582-6 5a20.677 20.677 0 0 1-5 1 4.932 4.932 0 0 1-.5 3 84.022 84.022 0 0 0-7.5 8c.49-2.51 1.49-4.844 3-7a54.911 54.911 0 0 0 8-9.5l3-1a4.938 4.938 0 0 1-1-2.5 34.857 34.857 0 0 0 5-6c4.234.665 7.234-1.169 9-5.5 9.649-6.83 20.316-9.496 32-8a16.66 16.66 0 0 0 4-4c8.654-1.782 17.321-1.782 26 0 1.029 1.698 2.529 2.532 4.5 2.5 5.401-2.471 10.901-2.638 16.5-.5a89.667 89.667 0 0 0 16 8c1.57 7.072 5.904 9.905 13 8.5a6.845 6.845 0 0 0 1 4 74.931 74.931 0 0 0 7.5 7c.494 1.634.66 3.3.5 5Z"/><path style="opacity:1" fill="#fffcb0" d="M165.5 37.5h-2c-.111-.617-.444-1.117-1-1.5-4.699.03-9.033-1.137-13-3.5a182.06 182.06 0 0 0-33-.5c-.881.708-1.547 1.542-2 2.5-3.812.824-7.812 1.324-12 1.5a132.58 132.58 0 0 0-24 11.5 11.741 11.741 0 0 0-5 3c.467-2.797 2.133-4.13 5-4v-3h3c-.028-2.082.639-3.916 2-5.5a73.85 73.85 0 0 0 16-6 372.511 372.511 0 0 1 52-1c3.937 2.545 8.27 4.045 13 4.5.363.684.696 1.35 1 2Z"/><path style="opacity:1" fill="#fef387" d="M163.5 37.5h-3c-3.477-.823-7.144-1.323-11-1.5l-5-3c-9-.667-18-.667-27 0-.744 1.039-1.744 1.539-3 1.5.453-.958 1.119-1.792 2-2.5a182.06 182.06 0 0 1 33 .5c3.967 2.363 8.301 3.53 13 3.5.556.383.889.883 1 1.5Z"/><path style="opacity:1" fill="#fff797" d="M165.5 37.5c5.614 1.797 11.281 3.63 17 5.5a18.476 18.476 0 0 1 2 3.5c-2.747-1.466-5.747-2.3-9-2.5a85.141 85.141 0 0 0-10-6.5Z"/><path style="opacity:1" fill="#f5db49" d="M160.5 37.5a218.138 218.138 0 0 1-19-1 118.03 118.03 0 0 0-36 3.5 484.795 484.795 0 0 0-21 8l-3 3c-3.2.4-6.2 1.234-9 2.5-.254 2.514-1.087 4.848-2.5 7-2.69 1.694-4.69 4.027-6 7-1.7.906-3.533 1.24-5.5 1a255.307 255.307 0 0 1 12.5-15c3.243-1.077 5.743-3.077 7.5-6a132.58 132.58 0 0 1 24-11.5c4.188-.176 8.188-.676 12-1.5 1.256.039 2.256-.461 3-1.5 9-.667 18-.667 27 0l5 3c3.856.177 7.523.677 11 1.5Z"/><path style="opacity:1" fill="#fad93d" d="M141.5 36.5c6.315.61 12.649.943 19 1h5a85.141 85.141 0 0 1 10 6.5c3.253.2 6.253 1.034 9 2.5a10.162 10.162 0 0 0 3 3v4h4c.714 3.746-.453 4.746-3.5 3-1.833.019-3.333.685-4.5 2-3.838-4.09-8.505-6.924-14-8.5a63.706 63.706 0 0 0-10-9 177.439 177.439 0 0 1-18-4.5Z"/><path style="opacity:1" fill="#fdf156" d="M180.5 61.5c8.872 4.04 16.706 9.706 23.5 17 .249 2.677 1.249 5.01 3 7 .3 5.686.3 11.353 0 17a164.537 164.537 0 0 0 4.5 14c.087 3.098-.413 3.432-1.5 1-.399.228-.565.562-.5 1a414.683 414.683 0 0 1-21.5-42c-8.527-10.507-19.527-16.84-33-19a86.003 86.003 0 0 1-7.5-4.5c-5.914.143-10.914-1.857-15-6a10.413 10.413 0 0 0-5-1.5 311.187 311.187 0 0 1-20 1.5c-8.411 4.103-17.078 6.27-26 6.5 21.587-12.59 44.92-16.423 70-11.5 8.004 9 17.671 15.5 29 19.5Z"/><path style="opacity:1" fill="#fdf56a" d="m209.5 118.5 1 4c-2.208-1.394-3.708-3.394-4.5-6l-1 2a764.601 764.601 0 0 1-22-40c-6.876-7.915-15.376-12.749-25.5-14.5a166.664 166.664 0 0 0-15-9 89.473 89.473 0 0 1-18-6c-6-.667-12-.667-18 0a195.086 195.086 0 0 0-24 11A1830.288 1830.288 0 0 0 66 75.5a246.8 246.8 0 0 1-8.5 16c-3.146.81-4.813 2.81-5 6l-2 3c-.163-2.357.003-4.69.5-7 3.2-5.96 6.2-11.96 9-18a21.52 21.52 0 0 1 6-5c.018-3.57 1.685-5.904 5-7 1.01-4.401 3.844-6.568 8.5-6.5a19.606 19.606 0 0 1 2-3.5c8.922-.23 17.589-2.397 26-6.5a311.187 311.187 0 0 0 20-1.5c1.799.077 3.466.577 5 1.5 4.086 4.143 9.086 6.143 15 6a86.003 86.003 0 0 0 7.5 4.5c13.473 2.16 24.473 8.493 33 19a414.683 414.683 0 0 0 21.5 42Z"/><path style="opacity:1" fill="#f9e773" d="M78.5 47.5c-1.757 2.923-4.257 4.923-7.5 6a255.307 255.307 0 0 0-12.5 15h-2a101.697 101.697 0 0 1 11-13c1.414-2.418 3.414-4.085 6-5a11.741 11.741 0 0 1 5-3Z"/><path style="opacity:1" fill="#fefcaf" d="M167.5 134.5c-1.027-9.051 2.473-11.718 10.5-8 .945-.405 1.612-1.072 2-2 2.241-8.794 1.908-17.461-1-26A180.876 180.876 0 0 0 161.5 84a76.692 76.692 0 0 0-13-5c-10.884-1.647-21.551-1.98-32-1-3.593-3.533-4.259-7.366-2-11.5-.137-1.607-.804-2.94-2-4a50.678 50.678 0 0 0-16-3c.418-.722 1.084-1.222 2-1.5a64.247 64.247 0 0 1 16 0c1.342 3.542 3.508 6.375 6.5 8.5.164 3.34 1.664 5.84 4.5 7.5 10.513-.324 21.179 1.009 32 4 9.254 4.57 17.421 10.736 24.5 18.5a138.42 138.42 0 0 1 5.5 27c-3.969 10.276-8.803 20.276-14.5 30-1.793 2.808-4.293 4.474-7.5 5a280.395 280.395 0 0 0 3-21c1.322.17 2.489-.163 3.5-1 .116-3.432 1.283-6.432 3.5-9-2.375-2.623-4.541-2.289-6.5 1-.191 2.208-.691 4.208-1.5 6Z"/><path style="opacity:1" fill="#fdf98a" d="M204.5 166.5a11.445 11.445 0 0 0-3 5c3.8-14.865 3.967-29.865.5-45a47.292 47.292 0 0 0-9-10 169.788 169.788 0 0 0-11.5-28c-13.824-12.078-29.824-19.578-48-22.5a39.8 39.8 0 0 1-7-8 44.32 44.32 0 0 1-12-5 12.5 12.5 0 0 0-7 0 192.269 192.269 0 0 0-14 4.5c10.651-7.653 21.985-8.82 34-3.5l7 1a179.568 179.568 0 0 0 15 10c14.455 3.629 26.288 11.129 35.5 22.5a286.444 286.444 0 0 0 13 27c3.973 3.285 6.973 7.285 9 12 1.302 13.605.469 26.938-2.5 40Z"/><path style="opacity:1" fill="#fefcba" d="M96.5 59.5a50.678 50.678 0 0 1 16 3c1.196 1.06 1.863 2.393 2 4-2.259 4.134-1.593 7.967 2 11.5 10.449-.98 21.116-.647 32 1a76.692 76.692 0 0 1 13 5A180.876 180.876 0 0 1 179 98.5c2.908 8.539 3.241 17.206 1 26-.388.928-1.055 1.595-2 2-8.027-3.718-11.527-1.051-10.5 8a32.445 32.445 0 0 0-4 9c.148-5.25 1.148-10.25 3-15-2.25.319-4.25-.181-6-1.5l7-1c.566-.995 1.233-1.828 2-2.5a19.209 19.209 0 0 0 6.5-3c4.848-10.803 2.348-19.636-7.5-26.5a175.563 175.563 0 0 0-22-12 90.496 90.496 0 0 0-19 0 173.148 173.148 0 0 0-16.5 5.5c-2.199.46-4.366.627-6.5.5a3.647 3.647 0 0 1-1-1.5c2.413-3.07 3.746-6.57 4-10.5a34.52 34.52 0 0 1-.5-10.5c-4.71-2.943-9.876-3.776-15.5-2.5-.556.383-.89.883-1 1.5a236.129 236.129 0 0 0-10 4.5 29.946 29.946 0 0 1-7 6c-3.38 3.21-5.713 7.043-7 11.5a84.898 84.898 0 0 0-8 14 25.178 25.178 0 0 0-4 7c4.108-16.144 12.775-29.477 26-40a53.58 53.58 0 0 0 8-5.5 15.022 15.022 0 0 1 8-2.5Z"/><path style="opacity:1" fill="#fefdc3" d="M169.5 123.5c1.5-1.679 3.333-3.012 5.5-4 1.356-7.112.356-13.779-3-20A235.002 235.002 0 0 0 150.5 85c-10.729-2.108-21.396-1.775-32 1-1.803.637-3.136 1.803-4 3.5a45.538 45.538 0 0 0-13 5.5c-2.84 7.209-4.006 14.709-3.5 22.5.698 1.191 1.531 2.191 2.5 3h-8c1.3-13.433-2.866-15.433-12.5-6a196.532 196.532 0 0 0-11 24c-3.291 4.794-6.958 5.127-11 1a22.39 22.39 0 0 1-2.5-8c2.792 4.113 6.46 4.947 11 2.5 4.976-12.964 11.976-24.63 21-35 3.732.188 6.566-1.312 8.5-4.5a130.867 130.867 0 0 1 8-20c2.011-6.152-.156-9.652-6.5-10.5a11.596 11.596 0 0 0-7 .5c.11-.617.444-1.117 1-1.5 5.624-1.276 10.79-.443 15.5 2.5a34.52 34.52 0 0 0 .5 10.5c-.254 3.93-1.587 7.43-4 10.5a3.647 3.647 0 0 0 1 1.5c2.134.127 4.301-.04 6.5-.5a173.148 173.148 0 0 1 16.5-5.5 90.496 90.496 0 0 1 19 0 175.563 175.563 0 0 1 22 12c9.848 6.864 12.348 15.697 7.5 26.5a19.209 19.209 0 0 1-6.5 3Zm-12-4c-2.559-.302-4.893.032-7 1a191.322 191.322 0 0 1-34.5-2c-.312-5.437 1.021-10.437 4-15a40.703 40.703 0 0 1 9.5-2.5 8.906 8.906 0 0 0 4-3c8.749-2.4 15.916-.232 21.5 6.5.012 5.244.845 10.244 2.5 15Z"/><path style="opacity:1" fill="#fefdce" d="M55.5 131.5c-.66-3.325-1.326-6.658-2-10a82.585 82.585 0 0 0 1-14 25.178 25.178 0 0 1 4-7c-1.963 7.193-2.463 14.526-1.5 22a22.146 22.146 0 0 0 4 7l4-4a785.925 785.925 0 0 0 18-33l5-5A60.105 60.105 0 0 1 93.5 71c-3.118-3.037-6.451-3.203-10-.5-.886.825-1.219 1.825-1 3-5.487 1.313-9.32 4.647-11.5 10a30.85 30.85 0 0 0-4.5 3c1.287-4.457 3.62-8.29 7-11.5a29.946 29.946 0 0 0 7-6c3.393-1.62 6.727-3.12 10-4.5a11.596 11.596 0 0 1 7-.5c6.344.848 8.511 4.348 6.5 10.5a130.867 130.867 0 0 0-8 20c-1.934 3.188-4.768 4.688-8.5 4.5-9.024 10.37-16.024 22.036-21 35-4.54 2.447-8.208 1.613-11-2.5Z"/><path style="opacity:1" fill="#fdf678" d="M210.5 122.5a22.59 22.59 0 0 1 2 7.5 202.453 202.453 0 0 0-2.5 23.5c-.792 4.907-2.626 9.241-5.5 13 2.969-13.062 3.802-26.395 2.5-40-2.027-4.715-5.027-8.715-9-12a286.444 286.444 0 0 1-13-27c-9.212-11.371-21.045-18.871-35.5-22.5a179.568 179.568 0 0 1-15-10l-7-1c-12.015-5.32-23.349-4.153-34 3.5h-1a42.618 42.618 0 0 0-5 1.5 233.174 233.174 0 0 0-16 14 510.105 510.105 0 0 1-14 18.5 246.8 246.8 0 0 0 8.5-16A1830.288 1830.288 0 0 1 82.5 60a195.086 195.086 0 0 1 24-11c6-.667 12-.667 18 0a89.473 89.473 0 0 0 18 6 166.664 166.664 0 0 1 15 9c10.124 1.751 18.624 6.585 25.5 14.5a764.601 764.601 0 0 0 22 40l1-2c.792 2.606 2.292 4.606 4.5 6Z"/><path style="opacity:1" fill="#fffbb2" d="M67.5 55.5a101.697 101.697 0 0 0-11 13c-2.25 1.744-4.417 3.744-6.5 6a313.86 313.86 0 0 1-8.5 15 72.444 72.444 0 0 1 .5-12 173.678 173.678 0 0 0 9.5-9.5 4.932 4.932 0 0 1 3-.5 84.022 84.022 0 0 1 7.5-8c.483-.948.65-1.948.5-3a20.677 20.677 0 0 0 5-1Z"/><path style="opacity:1" fill="#fef8a3" d="M197.5 55.5a11.743 11.743 0 0 1 5 3c1.757 2.923 4.257 4.923 7.5 6 1.556 3.397 3.723 6.397 6.5 9 1.247 1.823 1.914 3.823 2 6 1.322-.17 2.489.163 3.5 1 .495 1.973.662 3.973.5 6-.554-2.389-2.054-4.055-4.5-5-.249-2.677-1.249-5.01-3-7-3.42-1.751-5.754-4.418-7-8a162.038 162.038 0 0 1-10.5-11Z"/><path style="opacity:.979" fill="#fefde2" d="M58.5 100.5a84.898 84.898 0 0 1 8-14 30.85 30.85 0 0 1 4.5-3c2.18-5.353 6.013-8.687 11.5-10-.219-1.175.114-2.175 1-3 3.549-2.703 6.882-2.537 10 .5A60.105 60.105 0 0 0 88 87.5l-5 5a785.925 785.925 0 0 1-18 33l-4 4a22.146 22.146 0 0 1-4-7c-.963-7.474-.463-14.807 1.5-22Zm18-22a186.274 186.274 0 0 1-11 15c-3.932 6.513-5.432 13.513-4.5 21 1.68 1.103 3.18.77 4.5-1a50.15 50.15 0 0 1 8.5-14 40.981 40.981 0 0 1 6-16c.493-1.634.66-3.3.5-5h-4Z"/><path style="opacity:1" fill="#fbe254" d="M183.5 59.5c6.402 1.565 11.235 5.232 14.5 11 4.109 2.437 7.109 5.77 9 10a34.692 34.692 0 0 1 6.5 7.5c-1.683 2.868-2.683 6.034-3 9.5a122.515 122.515 0 0 1 1.5 12c4.769 7.909 7.602 16.576 8.5 26a215.036 215.036 0 0 0-4.5 23c-.611 2.25-1.944 3.917-4 5a283.594 283.594 0 0 0-5.5 22c-1.396-2.209-3.396-3.709-6-4.5a139.302 139.302 0 0 0 11-22.5c.825-.886 1.825-1.219 3-1a112.825 112.825 0 0 1 4-24 59.149 59.149 0 0 0-3.5-14c-.72-1.556-1.887-2.556-3.5-3a164.537 164.537 0 0 1-4.5-14c.3-5.647.3-11.314 0-17-1.751-1.99-2.751-4.323-3-7-6.794-7.294-14.628-12.96-23.5-17 .473-1.406 1.473-2.073 3-2Z"/><path style="opacity:1" fill="#f4db49" d="M56.5 68.5h2c-.139 3.088-1.139 5.755-3 8-1.175-.219-2.175.114-3 1a417.67 417.67 0 0 1-11.5 20c-.176 4.188-.676 8.188-1.5 12a84.94 84.94 0 0 1 .5-13 136.975 136.975 0 0 1 9-18 99.938 99.938 0 0 0 7.5-10Z"/><path style="opacity:1" fill="#fefeda" d="M149.5 134.5a21.17 21.17 0 0 0-2 7h-4c.549 7.534-2.785 10.034-10 7.5-2.639-1.946-5.639-2.946-9-3-2.848-2.529-4.515-5.696-5-9.5a185.977 185.977 0 0 0-3-2c-.536-3.198.131-5.865 2-8-1.716 4.838-.216 8.505 4.5 11a3.943 3.943 0 0 1 2-1c7.401 5.16 14.735 5.16 22 0a14.325 14.325 0 0 1 2.5-5.5c-.83-1.465-.996-2.965-.5-4.5 2.612-1.115 4.779-2.782 6.5-5-1.545-.952-3.212-1.285-5-1 2.107-.968 4.441-1.302 7-1 1.419.951 3.085 1.284 5 1a56.723 56.723 0 0 0 .5-17L151.5 94c-5.776-2.394-11.776-3.06-18-2a146.21 146.21 0 0 0-16 6c-5.908 6.319-9.241 13.819-10 22.5-1.322.17-2.489-.163-3.5-1a15.256 15.256 0 0 0-1.5-4.5 82.135 82.135 0 0 1 6.5-15.5c3.572-1.697 6.405-4.197 8.5-7.5 9.923-4.808 20.257-6.141 31-4a170.338 170.338 0 0 1 17.5 12.5c4.667 7 4.667 14 0 21-.739 1.074-1.739 1.741-3 2-2.12-.959-4.287-1.126-6.5-.5a17.842 17.842 0 0 1-5.5 4.5c-.29 2.42-.79 4.754-1.5 7Zm-22-7c1.546 2.382 2.213 5.049 2 8h3c-.262-1.478.071-2.811 1-4a19.887 19.887 0 0 0 4-3.5 50.464 50.464 0 0 0-10-.5Zm30-8c-2.559-.302-4.893.032-7 1a191.322 191.322 0 0 1-34.5-2c-.312-5.437 1.021-10.437 4-15a40.703 40.703 0 0 1 9.5-2.5 8.906 8.906 0 0 0 4-3c8.749-2.4 15.916-.232 21.5 6.5.012 5.244.845 10.244 2.5 15Z"/><path style="opacity:1" fill="#fcf89c" d="m201.5 171.5-8 11a8.43 8.43 0 0 1-.5 4 13.92 13.92 0 0 0-4 3 129.073 129.073 0 0 1-8 13 820.163 820.163 0 0 1-16 35 80.447 80.447 0 0 1-.5 20 20.303 20.303 0 0 1-6.5 3c-.278-.916-.778-1.582-1.5-2 .166-8.673 0-17.34-.5-26a7.248 7.248 0 0 0-2.5-2 226.989 226.989 0 0 1 0-42h1a2.428 2.428 0 0 0 .5 2 28.352 28.352 0 0 0 3-11c2.734.862 2.901 1.695.5 2.5a4.934 4.934 0 0 0 3 .5 4.934 4.934 0 0 0 .5 3c.991-1.439 2.324-2.439 4-3 1.422 2.244 3.256 3.91 5.5 5 3.519-1.18 6.519-3.18 9-6a45.457 45.457 0 0 1 6.5-11c1.097-7.319 4.097-13.652 9-19 2.315-4.669 1.981-9.002-1-13a63.726 63.726 0 0 1-10 9c-1.743 5.41-5.243 9.244-10.5 11.5l-4 5c-4.157.492-6.991 2.658-8.5 6.5-.186-2.536-.686-4.869-1.5-7-.206-2.049-1.039-2.383-2.5-1-.705 7.039-2.538 13.705-5.5 20-2.459 4.313-3.459 8.98-3 14-1.574 1.602-2.241 3.602-2 6-3.583-.674-3.916-2.841-1-6.5-.444-1.762-.944-1.595-1.5.5-.144-3.645-1.977-5.979-5.5-7a26.724 26.724 0 0 0-1.5 7c-.748-10.177-.415-20.177 1-30-5.353-1.719-9.187-.052-11.5 5a10.94 10.94 0 0 0 3 4.5 9.454 9.454 0 0 0-1.5 2.5 497.83 497.83 0 0 1-2.5 28.5 42.946 42.946 0 0 0 1 9c2.332-.649 4.666-.482 7 .5a7.248 7.248 0 0 0 2.5-2l1 5c.928-1.835 2.094-2.168 3.5-1a18.08 18.08 0 0 0 3.5-2c.708.881 1.542 1.547 2.5 2a19.522 19.522 0 0 1-1 7.5 205.484 205.484 0 0 1 2.5 31.5c-1.506 2.974-3.172 3.307-5 1a80.344 80.344 0 0 0-2.5-19c-7.681-7.331-14.014-6.331-19 3l-2 19c-1.22-1.211-2.387-1.211-3.5 0a2379.52 2379.52 0 0 1-.5-69c.939-2.741 2.773-4.741 5.5-6 .419 4.352 1.086 4.685 2 1 .84 2.964 1.84 3.297 3 1a42.479 42.479 0 0 0 0-13 15.645 15.645 0 0 0-2.5-4c2.189-2.387 3.856-5.053 5-8h10l2-8h3c-.701 4.319.466 7.986 3.5 11 1.897 1.516 4.064 2.183 6.5 2a32.462 32.462 0 0 1 .5-8c1.518-.663 2.685-1.663 3.5-3 .811-4.628 2.477-8.961 5-13v-1a32.445 32.445 0 0 1 4-9c.809-1.792 1.309-3.792 1.5-6 1.959-3.289 4.125-3.623 6.5-1-2.217 2.568-3.384 5.568-3.5 9-1.011.837-2.178 1.17-3.5 1a280.395 280.395 0 0 1-3 21c3.207-.526 5.707-2.192 7.5-5 5.697-9.724 10.531-19.724 14.5-30a138.42 138.42 0 0 0-5.5-27c-7.079-7.764-15.246-13.93-24.5-18.5-10.821-2.991-21.487-4.324-32-4-2.836-1.66-4.336-4.16-4.5-7.5-2.992-2.125-5.158-4.958-6.5-8.5a64.247 64.247 0 0 0-16 0c-.916.278-1.582.778-2 1.5a15.022 15.022 0 0 0-8 2.5 53.58 53.58 0 0 1-8 5.5 86.621 86.621 0 0 1 12-10h1a192.269 192.269 0 0 1 14-4.5 12.5 12.5 0 0 1 7 0 44.32 44.32 0 0 0 12 5 39.8 39.8 0 0 0 7 8c18.176 2.922 34.176 10.422 48 22.5a169.788 169.788 0 0 1 11.5 28 47.292 47.292 0 0 1 9 10c3.467 15.135 3.3 30.135-.5 45Z"/><path style="opacity:1" fill="#fcea45" d="M141.5 36.5a177.439 177.439 0 0 0 18 4.5 63.706 63.706 0 0 1 10 9c5.495 1.576 10.162 4.41 14 8.5v1c-1.527-.073-2.527.594-3 2-11.329-4-20.996-10.5-29-19.5-25.08-4.923-48.413-1.09-70 11.5a19.606 19.606 0 0 0-2 3.5c-4.656-.068-7.49 2.099-8.5 6.5-3.315 1.096-4.982 3.43-5 7a21.52 21.52 0 0 0-6 5c-2.8 6.04-5.8 12.04-9 18a24.939 24.939 0 0 0-.5 7c-1 .333-1.667 1-2 2-2.502 8.017-3.835 16.35-4 25 .73 9.713 1.896 19.38 3.5 29 5.846 9.034 11.68 18.034 17.5 27-4.658-3.338-8.325-7.671-11-13l-5-4c-3.725-8.235-5.892-16.901-6.5-26a57.686 57.686 0 0 0-3-8c-.5-7.659-.666-15.326-.5-23 .824-3.812 1.324-7.812 1.5-12a417.67 417.67 0 0 0 11.5-20c.825-.886 1.825-1.219 3-1 1.861-2.245 2.861-4.912 3-8 1.967.24 3.8-.094 5.5-1 1.31-2.973 3.31-5.306 6-7 1.413-2.152 2.246-4.486 2.5-7 2.8-1.266 5.8-2.1 9-2.5l3-3a484.795 484.795 0 0 1 21-8 118.03 118.03 0 0 1 36-3.5Z"/><path style="opacity:1" fill="#fdfdb4" d="M54.5 107.5a82.585 82.585 0 0 1-1 14c.674 3.342 1.34 6.675 2 10a22.39 22.39 0 0 0 2.5 8c4.042 4.127 7.709 3.794 11-1a196.532 196.532 0 0 1 11-24c9.634-9.433 13.8-7.433 12.5 6h8c.111.617.444 1.117 1 1.5 3.317.498 6.65.665 10 .5 2.826 3.781 3.659 8.114 2.5 13l-2.5-6a28.819 28.819 0 0 0-10-1c3.304-.907 3.638-2.407 1-4.5a25.713 25.713 0 0 0-5.5-1.5c-4.262 1.936-7.595.936-10-3l-3 4c-.718-.951-1.55-1.117-2.5-.5-5.452 7.688-8.952 16.188-10.5 25.5-3.976 2.514-7.81 2.181-11.5-1a68.105 68.105 0 0 1-5-12 83.126 83.126 0 0 1-1.5-26c.278-.916.778-1.582 1.5-2Z"/><path style="opacity:1" fill="#fcd342" d="M224.5 96.5a31.083 31.083 0 0 0 3.5 13c.5 9.994.666 19.994.5 30-.79 1.109-1.29 2.442-1.5 4-1.232-2.73-2.065-2.563-2.5.5-.705 8.407-2.205 16.574-4.5 24.5a29.068 29.068 0 0 0-4.5 5 631.46 631.46 0 0 1 7-40l-1.5-9a44.328 44.328 0 0 0-7-13 226.481 226.481 0 0 0-1.5-8.5c.556-6.122 1.889-11.955 4-17.5h3c-1.115 5.1.551 8.768 5 11Z"/><path style="opacity:1" fill="#f8db6b" d="M224.5 92.5a138.503 138.503 0 0 0 3 9 149.706 149.706 0 0 1 2 32v6h-1c.166-10.006 0-20.006-.5-30a31.083 31.083 0 0 1-3.5-13v-4Z"/><path style="opacity:1" fill="#fbdb4d" d="M187.5 49.5a38.214 38.214 0 0 0 10 6 162.038 162.038 0 0 0 10.5 11c1.246 3.582 3.58 6.249 7 8 1.751 1.99 2.751 4.323 3 7 2.446.945 3.946 2.611 4.5 5-.241 2.398.426 4.398 2 6v4c-4.449-2.232-6.115-5.9-5-11h-3c-2.111 5.545-3.444 11.378-4 17.5a226.481 226.481 0 0 1 1.5 8.5 44.328 44.328 0 0 1 7 13l1.5 9a631.46 631.46 0 0 0-7 40c-2.215 3.266-3.882 6.932-5 11a64.066 64.066 0 0 0-5 5l1-4a283.594 283.594 0 0 1 5.5-22c2.056-1.083 3.389-2.75 4-5a215.036 215.036 0 0 1 4.5-23c-.898-9.424-3.731-18.091-8.5-26a122.515 122.515 0 0 0-1.5-12c.317-3.466 1.317-6.632 3-9.5a34.692 34.692 0 0 0-6.5-7.5c-1.891-4.23-4.891-7.563-9-10-3.265-5.768-8.098-9.435-14.5-11v-1c1.167-1.315 2.667-1.981 4.5-2 3.047 1.746 4.214.746 3.5-3h-4v-4Z"/><path style="opacity:1" fill="#fdfcad" d="M101.5 128.5a36.32 36.32 0 0 1-4.5 2c.463 6.849 3.297 12.683 8.5 17.5a45.8 45.8 0 0 0 9 2.5c-.333 3 1 4.333 4 4-1.393-4.807-2.06-9.807-2-15h3a12.93 12.93 0 0 0 .5 5 55.374 55.374 0 0 1 6 11l4 4c2.167-1.964 4.501-2.298 7-1a14.51 14.51 0 0 0 4.5-4.5 4.934 4.934 0 0 1 3-.5 32.462 32.462 0 0 1 .5-8 3.647 3.647 0 0 1 1.5-1v17a126.41 126.41 0 0 1 12-4c-.815 1.337-1.982 2.337-3.5 3a32.462 32.462 0 0 0-.5 8c-2.436.183-4.603-.484-6.5-2-3.034-3.014-4.201-6.681-3.5-11h-3l-2 8h-10c-4.174-1.332-8.007-.665-11.5 2-1.887-2.386-4.387-3.553-7.5-3.5-4.407-2.575-6.407-6.408-6-11.5h-3a78.354 78.354 0 0 0-5-9 9.864 9.864 0 0 1-1-6c-.803-3.669.364-6.336 3.5-8 .667-.667.667-1.333 0-2-4.401-.967-8.901-1.3-13.5-1a9.864 9.864 0 0 1-1 6l-3-2c-4.499 6.332-7.332 13.332-8.5 21-2.608 5.679-6.441 6.512-11.5 2.5a9.175 9.175 0 0 1-2-4.5c3.69 3.181 7.524 3.514 11.5 1 1.548-9.312 5.048-17.812 10.5-25.5.95-.617 1.782-.451 2.5.5l3-4c2.405 3.936 5.738 4.936 10 3 1.888.296 3.722.796 5.5 1.5 2.638 2.093 2.304 3.593-1 4.5Z"/><path style="opacity:1" fill="#fef097" d="M227.5 101.5c.65.304 1.317.637 2 1 1.323 10.493 1.323 20.826 0 31a149.706 149.706 0 0 0-2-32Z"/><path style="opacity:1" fill="#fce561" d="M211.5 116.5c1.613.444 2.78 1.444 3.5 3a59.149 59.149 0 0 1 3.5 14 112.825 112.825 0 0 0-4 24c-1.175-.219-2.175.114-3 1a139.302 139.302 0 0 1-11 22.5c2.604.791 4.604 2.291 6 4.5l-1 4a2.428 2.428 0 0 0-2 .5c-.988 2.167-2.321 4-4 5.5a20.69 20.69 0 0 0 1-5 6.846 6.846 0 0 0-4 1c-1-.333-1.667-1-2-2a4805.55 4805.55 0 0 1 7-14v-4a11.445 11.445 0 0 1 3-5c2.874-3.759 4.708-8.093 5.5-13a202.453 202.453 0 0 1 2.5-23.5 22.59 22.59 0 0 0-2-7.5l-1-4c-.065-.438.101-.772.5-1 1.087 2.432 1.587 2.098 1.5-1Z"/><path style="opacity:1" fill="#fefee4" d="M157.5 119.5c-1.655-4.756-2.488-9.756-2.5-15-5.584-6.732-12.751-8.9-21.5-6.5a8.906 8.906 0 0 1-4 3 40.703 40.703 0 0 0-9.5 2.5c-2.979 4.563-4.312 9.563-4 15a191.322 191.322 0 0 0 34.5 2c1.788-.285 3.455.048 5 1-1.721 2.218-3.888 3.885-6.5 5-.496 1.535-.33 3.035.5 4.5a14.325 14.325 0 0 0-2.5 5.5c-7.265 5.16-14.599 5.16-22 0a3.943 3.943 0 0 0-2 1c-4.716-2.495-6.216-6.162-4.5-11 3.815.218 7.148-.782 10-3a112.158 112.158 0 0 0-21-3c.759-8.681 4.092-16.181 10-22.5a146.21 146.21 0 0 1 16-6c6.224-1.06 12.224-.394 18 2l11.5 9.5a56.723 56.723 0 0 1-.5 17c-1.915.284-3.581-.049-5-1Zm-30 8c1.546 2.382 2.213 5.049 2 8h3c-.262-1.478.071-2.811 1-4a19.887 19.887 0 0 0 4-3.5 50.464 50.464 0 0 0-10-.5Zm30-8c-2.559-.302-4.893.032-7 1a191.322 191.322 0 0 1-34.5-2c-.312-5.437 1.021-10.437 4-15a40.703 40.703 0 0 1 9.5-2.5 8.906 8.906 0 0 0 4-3c8.749-2.4 15.916-.232 21.5 6.5.012 5.244.845 10.244 2.5 15Z"/><path style="opacity:1" fill="#fdfdc2" d="M111.5 122.5c3.875-.415 7.542.085 11 1.5a26.67 26.67 0 0 0-6.5 1.5c-.805 3.196-.638 6.196.5 9 .982.641 1.982 1.307 3 2 .485 3.804 2.152 6.971 5 9.5 3.361.054 6.361 1.054 9 3 7.215 2.534 10.549.034 10-7.5h4a21.17 21.17 0 0 1 2-7c1.493.812 2.16 2.145 2 4-1.143 2.506-1.81 5.172-2 8l1 4c3.797-3.155 8.13-5.155 13-6-2.523 4.039-4.189 8.372-5 13a126.41 126.41 0 0 0-12 4v-17a3.647 3.647 0 0 0-1.5 1 32.462 32.462 0 0 0-.5 8 4.934 4.934 0 0 0-3 .5 14.51 14.51 0 0 1-4.5 4.5c-2.499-1.298-4.833-.964-7 1l-4-4a55.374 55.374 0 0 0-6-11 12.93 12.93 0 0 1-.5-5h-3c-.06 5.193.607 10.193 2 15-3 .333-4.333-1-4-4a45.8 45.8 0 0 1-9-2.5c-5.203-4.817-8.037-10.651-8.5-17.5a36.32 36.32 0 0 0 4.5-2 28.819 28.819 0 0 1 10 1l2.5 6c1.159-4.886.326-9.219-2.5-13Z"/><path style="opacity:1" fill="#fefc9a" d="M95.5 135.5c-1.276-2.53-1.276-5.197 0-8-2.766-1.629-5.766-2.295-9-2-.773 4.275.727 7.275 4.5 9-.007 4.513 1.66 8.18 5 11a45.792 45.792 0 0 1 2.5 9 10.776 10.776 0 0 1-2 6c-4.03-1.863-6.863-4.863-8.5-9a38.817 38.817 0 0 0-1.5-7c-2.497-.699-3.83.468-4 3.5-.06 1.711.606 3.044 2 4a78.765 78.765 0 0 0-2.5 14.5 47.06 47.06 0 0 0-3.5 5.5 4.934 4.934 0 0 1-3 .5c.375 3.407-.625 3.907-3 1.5a208.045 208.045 0 0 0-8.5-9.5c-.274-3.215-1.607-5.881-4-8a148.502 148.502 0 0 1-5.5-21 68.105 68.105 0 0 0 5 12 9.175 9.175 0 0 0 2 4.5c5.059 4.012 8.892 3.179 11.5-2.5 1.168-7.668 4.001-14.668 8.5-21l3 2a9.864 9.864 0 0 0 1-6c4.599-.3 9.099.033 13.5 1 .667.667.667 1.333 0 2-3.136 1.664-4.303 4.331-3.5 8Z"/><path style="opacity:1" fill="#fefdcd" d="M169.5 123.5c-.767.672-1.434 1.505-2 2.5l-7 1c1.75 1.319 3.75 1.819 6 1.5-1.852 4.75-2.852 9.75-3 15v1c-4.87.845-9.203 2.845-13 6l-1-4c.19-2.828.857-5.494 2-8 .16-1.855-.507-3.188-2-4 .71-2.246 1.21-4.58 1.5-7a17.842 17.842 0 0 0 5.5-4.5c2.213-.626 4.38-.459 6.5.5 1.261-.259 2.261-.926 3-2 4.667-7 4.667-14 0-21A170.338 170.338 0 0 0 148.5 88c-10.743-2.141-21.077-.808-31 4-2.095 3.303-4.928 5.803-8.5 7.5a82.135 82.135 0 0 0-6.5 15.5 15.256 15.256 0 0 1 1.5 4.5c1.011.837 2.178 1.17 3.5 1a112.158 112.158 0 0 1 21 3c-2.852 2.218-6.185 3.218-10 3-1.869 2.135-2.536 4.802-2 8-1.138-2.804-1.305-5.804-.5-9a26.67 26.67 0 0 1 6.5-1.5c-3.458-1.415-7.125-1.915-11-1.5a50.464 50.464 0 0 1-10-.5c-.556-.383-.889-.883-1-1.5-.969-.809-1.802-1.809-2.5-3-.506-7.791.66-15.291 3.5-22.5a45.538 45.538 0 0 1 13-5.5c.864-1.697 2.197-2.863 4-3.5 10.604-2.775 21.271-3.108 32-1A235.002 235.002 0 0 1 172 99.5c3.356 6.221 4.356 12.888 3 20-2.167.988-4 2.321-5.5 4Zm-12-4c-2.559-.302-4.893.032-7 1a191.322 191.322 0 0 1-34.5-2c-.312-5.437 1.021-10.437 4-15a40.703 40.703 0 0 1 9.5-2.5 8.906 8.906 0 0 0 4-3c8.749-2.4 15.916-.232 21.5 6.5.012 5.244.845 10.244 2.5 15Z"/><path style="opacity:1" fill="#f8e167" d="M56.5 68.5a99.938 99.938 0 0 1-7.5 10 136.975 136.975 0 0 0-9 18 84.94 84.94 0 0 0-.5 13c-1.276 2.062-2.11 4.396-2.5 7-.667 6-.667 12 0 18a88.518 88.518 0 0 1 3.5 19c1.913 2.273 2.913 4.939 3 8a124.791 124.791 0 0 1 5 15 54.238 54.238 0 0 1-6-8.5 450.334 450.334 0 0 1-7.5-27.5 196.24 196.24 0 0 1 0-28c2.207-4.349 3.04-9.015 2.5-14a54.796 54.796 0 0 1 4-9 313.86 313.86 0 0 0 8.5-15c2.083-2.256 4.25-4.256 6.5-6Z"/><path style="opacity:1" fill="#feee98" d="M228.5 139.5h1a60.931 60.931 0 0 1-.5 11 344.244 344.244 0 0 0-6.5 20c-.569 2.835-2.236 4.501-5 5-.169 4.226-1.835 7.559-5 10 1.949-3.312 3.449-6.979 4.5-11a13.92 13.92 0 0 1 4-3 235.685 235.685 0 0 0 6-21 93.497 93.497 0 0 0 1.5-11Z"/><path style="opacity:1" fill="#fdfb93" d="M154.5 188.5c1.996-8.331 3.996-16.665 6-25 .814 2.131 1.314 4.464 1.5 7 1.509-3.842 4.343-6.008 8.5-6.5l4-5c5.257-2.256 8.757-6.09 10.5-11.5a63.726 63.726 0 0 0 10-9c2.981 3.998 3.315 8.331 1 13-4.903 5.348-7.903 11.681-9 19a45.457 45.457 0 0 0-6.5 11c-2.481 2.82-5.481 4.82-9 6-2.244-1.09-4.078-2.756-5.5-5-1.676.561-3.009 1.561-4 3a4.934 4.934 0 0 1-.5-3 4.934 4.934 0 0 1-3-.5c2.401-.805 2.234-1.638-.5-2.5a28.352 28.352 0 0 1-3 11 2.428 2.428 0 0 1-.5-2Z"/><path style="opacity:1" fill="#e3e271" d="M95.5 135.5a9.864 9.864 0 0 0 1 6 78.354 78.354 0 0 1 5 9 230.374 230.374 0 0 0 9.5 25 319.407 319.407 0 0 1 4.5 17l-2 5a335.653 335.653 0 0 0-3-14 5997.54 5997.54 0 0 0-12-29 45.792 45.792 0 0 0-2.5-9c-3.34-2.82-5.007-6.487-5-11-3.773-1.725-5.273-4.725-4.5-9 3.234-.295 6.234.371 9 2-1.276 2.803-1.276 5.47 0 8Z"/><path style="opacity:1" fill="#f9f994" d="M101.5 150.5h3c-.407 5.092 1.593 8.925 6 11.5 3.113-.053 5.613 1.114 7.5 3.5 3.493-2.665 7.326-3.332 11.5-2-1.144 2.947-2.811 5.613-5 8a15.645 15.645 0 0 1 2.5 4 42.479 42.479 0 0 1 0 13c-1.16 2.297-2.16 1.964-3-1-.914 3.685-1.581 3.352-2-1-2.727 1.259-4.561 3.259-5.5 6h-1a319.407 319.407 0 0 0-4.5-17 230.374 230.374 0 0 1-9.5-25Z"/><path style="opacity:1" fill="#fcfaa7" d="M147.5 202.5v16c-.958-.453-1.792-1.119-2.5-2a18.08 18.08 0 0 1-3.5 2c-1.406-1.168-2.572-.835-3.5 1l-1-5a7.248 7.248 0 0 1-2.5 2c-2.334-.982-4.668-1.149-7-.5a42.946 42.946 0 0 1-1-9 497.83 497.83 0 0 0 2.5-28.5 9.454 9.454 0 0 1 1.5-2.5 10.94 10.94 0 0 1-3-4.5c2.313-5.052 6.147-6.719 11.5-5-1.415 9.823-1.748 19.823-1 30 .186-2.4.686-4.734 1.5-7 3.523 1.021 5.356 3.355 5.5 7 .556-2.095 1.056-2.262 1.5-.5-2.916 3.659-2.583 5.826 1 6.5Z"/><path style="opacity:1" fill="#fdf88e" d="M92.5 57.5a86.621 86.621 0 0 0-12 10c-13.225 10.523-21.892 23.856-26 40-.722.418-1.222 1.084-1.5 2a83.126 83.126 0 0 0 1.5 26 148.502 148.502 0 0 0 5.5 21c2.393 2.119 3.726 4.785 4 8 2.96 3.113 5.793 6.28 8.5 9.5 2.375 2.407 3.375 1.907 3-1.5a4.934 4.934 0 0 0 3-.5 47.06 47.06 0 0 1 3.5-5.5 78.765 78.765 0 0 1 2.5-14.5c-1.394-.956-2.06-2.289-2-4 .17-3.032 1.503-4.199 4-3.5a38.817 38.817 0 0 1 1.5 7c1.637 4.137 4.47 7.137 8.5 9a10.776 10.776 0 0 0 2-6 5997.54 5997.54 0 0 1 12 29 335.653 335.653 0 0 1 3 14c-1.208-.734-2.541-1.067-4-1 .552-1.831.552-3.497 0-5-1.462.971-2.795.638-4-1a19.887 19.887 0 0 1-3.5 4c-.242-2.572-1.575-4.239-4-5-1.987 1.964-3.487 4.297-4.5 7a298.796 298.796 0 0 0 2.5 17 28.834 28.834 0 0 0 6 4 10.258 10.258 0 0 1 1.5 4 180.317 180.317 0 0 0-3 24.5c-.083 4.979.917 9.312 3 13a2.428 2.428 0 0 1-2 .5l-2-1a943.82 943.82 0 0 0-4.5-38 32.46 32.46 0 0 0-3-7 92.445 92.445 0 0 0-4-23 467.999 467.999 0 0 0-19-17c-3.87-4.601-7.37-9.267-10.5-14-1.39-5.588-3.557-10.921-6.5-16-3.478-15.43-3.312-30.763.5-46 .187-3.19 1.854-5.19 5-6a510.105 510.105 0 0 0 14-18.5 233.174 233.174 0 0 1 16-14 42.618 42.618 0 0 1 5-1.5Z"/><path style="opacity:1" fill="#fff7ad" d="M37.5 98.5c.54 4.985-.293 9.651-2.5 14a196.24 196.24 0 0 0 0 28 450.334 450.334 0 0 0 7.5 27.5 54.238 54.238 0 0 0 6 8.5v1c1.43 1.689 2.264 3.689 2.5 6a108.8 108.8 0 0 1 12.5 18l-3-2a457.635 457.635 0 0 0-14-20 564.281 564.281 0 0 1-7-14 100.327 100.327 0 0 0-5.5-19 53.035 53.035 0 0 1-1.5-14 199.754 199.754 0 0 1 1.5-31 14.694 14.694 0 0 1 3.5-3Z"/><path style="opacity:1" fill="#fcf16e" d="M52.5 97.5c-3.812 15.237-3.978 30.57-.5 46 2.943 5.079 5.11 10.412 6.5 16 .634 4.605 2.8 8.271 6.5 11 4.49 8.497 10.49 15.831 18 22 8.156 18.808 12.822 38.475 14 59 .156 2.691.99 5.024 2.5 7 .268 1.599-.066 2.932-1 4h-1c-.185-1.696-1.019-3.029-2.5-4a294.594 294.594 0 0 0-2.5-24c.768.763 1.268 1.763 1.5 3 .408-4.462-.259-8.795-2-13-4.106-7.223-7.44-14.89-10-23a75.02 75.02 0 0 1-9.5-17 2827.975 2827.975 0 0 1-10.5-11c-7.794-11.368-12.46-24.035-14-38a221.714 221.714 0 0 1 .5-33c.333-1 1-1.667 2-2l2-3Z"/><path style="opacity:1" fill="#d3d361" d="M160.5 163.5c-2.004 8.335-4.004 16.669-6 25h-1c.295-2.235-.039-4.235-1-6 2.962-6.295 4.795-12.961 5.5-20 1.461-1.383 2.294-1.049 2.5 1Z"/><path style="opacity:1" fill="#fef580" d="M58.5 159.5c3.13 4.733 6.63 9.399 10.5 14a467.999 467.999 0 0 1 19 17 92.445 92.445 0 0 1 4 23 32.46 32.46 0 0 1 3 7 943.82 943.82 0 0 1 4.5 38c-1.51-1.976-2.344-4.309-2.5-7-1.178-20.525-5.844-40.192-14-59-7.51-6.169-13.51-13.503-18-22-3.7-2.729-5.866-6.395-6.5-11Z"/><path style="opacity:1" fill="#f6d658" d="M228.5 139.5a93.497 93.497 0 0 1-1.5 11 235.685 235.685 0 0 1-6 21 13.92 13.92 0 0 0-4 3c-1.051 4.021-2.551 7.688-4.5 11a471.541 471.541 0 0 1-16.5 21c-1.973 2.661-3.473 5.661-4.5 9-1.299 1.194-2.632 2.194-4 3-1.648 2.06-3.148 4.393-4.5 7a18.453 18.453 0 0 0-.5 6 6.846 6.846 0 0 0-4 1l-4.5 7a790.004 790.004 0 0 1-6.5 27h-4v-3c.996.086 1.829-.248 2.5-1a22.981 22.981 0 0 1 2-5 213.207 213.207 0 0 1 4-25 13.92 13.92 0 0 1 4-3 1143.69 1143.69 0 0 0 23.5-34c1.679-1.5 3.012-3.333 4-5.5a2.428 2.428 0 0 1 2-.5 64.066 64.066 0 0 1 5-5c1.118-4.068 2.785-7.734 5-11a29.068 29.068 0 0 1 4.5-5c2.295-7.926 3.795-16.093 4.5-24.5.435-3.063 1.268-3.23 2.5-.5.21-1.558.71-2.891 1.5-4Z"/><path style="opacity:1" fill="#fdf69a" d="M113.5 197.5c.327 10.181-.006 20.181-1 30-2.388 2.801-3.888 6.134-4.5 10-.5 8.327-.666 16.66-.5 25-2.893.469-4.893-.531-6-3a2.428 2.428 0 0 0 2-.5c-2.083-3.688-3.083-8.021-3-13a180.317 180.317 0 0 1 3-24.5 10.258 10.258 0 0 0-1.5-4 28.834 28.834 0 0 1-6-4 298.796 298.796 0 0 1-2.5-17c1.013-2.703 2.513-5.036 4.5-7 2.425.761 3.758 2.428 4 5a19.887 19.887 0 0 0 3.5-4c1.205 1.638 2.538 1.971 4 1 .552 1.503.552 3.169 0 5 1.459-.067 2.792.266 4 1Z"/><path style="opacity:1" fill="#fef9af" d="M193.5 182.5c-2.307 3.138-5.141 5.805-8.5 8a4240.73 4240.73 0 0 0-7 13 36.224 36.224 0 0 0-8 6c-.584-2.757-.25-5.423 1-8 9.485-13.301 17.152-27.634 23-43a32.367 32.367 0 0 0 4.5-3c1.289 6.118.789 12.118-1.5 18-2.287 2.572-3.453 5.572-3.5 9Z"/><path style="opacity:1" fill="#fcee5b" d="M48.5 102.5a221.714 221.714 0 0 0-.5 33c1.54 13.965 6.206 26.632 14 38 3.505 3.692 7.005 7.359 10.5 11a75.02 75.02 0 0 0 9.5 17c2.56 8.11 5.894 15.777 10 23 1.741 4.205 2.408 8.538 2 13-.232-1.237-.732-2.237-1.5-3l-2-2a12.935 12.935 0 0 0-.5-5 522.254 522.254 0 0 0-8-21 168.661 168.661 0 0 1-16.5-23c-5.82-8.966-11.654-17.966-17.5-27a323.826 323.826 0 0 1-3.5-29c.165-8.65 1.498-16.983 4-25Z"/><path style="opacity:1" fill="#f8cf42" d="M48.5 177.5c4.836 5.158 10.17 10.158 16 15a28.043 28.043 0 0 1 1.5 5c3 1.667 5.333 4 7 7a2082.54 2082.54 0 0 1 8.5 27c2.368.869 3.868 2.535 4.5 5a72.451 72.451 0 0 1 4 18c1.366 3.863 3.866 6.529 7.5 8h1c.17 1.322-.163 2.489-1 3.5-1.882.198-3.548.698-5 1.5-.667 0-1 .333-1 1-.838.342-1.172 1.008-1 2-.967-1.306-2.3-1.973-4-2a20.676 20.676 0 0 0-1-5c.864.963 1.53.963 2 0-1.551-2.859-2.551-5.859-3-9a158.534 158.534 0 0 0-2-15 217.498 217.498 0 0 0-6-14c-.734-1.208-1.067-2.541-1-4a8.435 8.435 0 0 0-.5-4 22.146 22.146 0 0 1-4-7c-2.042-3.44-4.542-6.44-7.5-9a108.8 108.8 0 0 0-12.5-18c-.236-2.311-1.07-4.311-2.5-6Z"/><path style="opacity:1" fill="#fad73e" d="M43.5 161.5c2.87 3.39 5.036 7.39 6.5 12 3.962 2.774 6.462 6.441 7.5 11 3.04-.094 4.707 1.406 5 4.5a8.43 8.43 0 0 0 4 .5c.127 4.928 2.294 8.595 6.5 11a50.533 50.533 0 0 0 6 12c-.01 5.983 1.157 11.65 3.5 17 4.263 2.851 6.763 6.851 7.5 12 .498-2.982.665-5.982.5-9l2 2a294.594 294.594 0 0 1 2.5 24c1.481.971 2.315 2.304 2.5 4-3.634-1.471-6.134-4.137-7.5-8a72.451 72.451 0 0 0-4-18c-.632-2.465-2.132-4.131-4.5-5a2082.54 2082.54 0 0 0-8.5-27c-1.667-3-4-5.333-7-7a28.043 28.043 0 0 0-1.5-5c-5.83-4.842-11.164-9.842-16-15v-1a124.791 124.791 0 0 0-5-15Z"/><path style="opacity:1" fill="#fce870" d="M201.5 175.5a4805.55 4805.55 0 0 0-7 14c.333 1 1 1.667 2 2a6.846 6.846 0 0 1 4-1 20.69 20.69 0 0 1-1 5 1143.69 1143.69 0 0 1-23.5 34 13.92 13.92 0 0 0-4 3 213.207 213.207 0 0 0-4 25 22.981 22.981 0 0 0-2 5c-.671.752-1.504 1.086-2.5 1 1.184-1.188 1.184-2.355 0-3.5 1.926-.422 2.926-1.589 3-3.5-.908-9.02.258-17.687 3.5-26a83.573 83.573 0 0 1 6.5-10c3.69-11.05 9.19-21.05 16.5-30a130.249 130.249 0 0 1 5-12c.759-1.563 1.926-2.563 3.5-3Z"/><path style="opacity:1" fill="#fae145" d="M39.5 109.5c-.166 7.674 0 15.341.5 23a57.686 57.686 0 0 1 3 8c.608 9.099 2.775 17.765 6.5 26l5 4c2.675 5.329 6.342 9.662 11 13a168.661 168.661 0 0 0 16.5 23 522.254 522.254 0 0 1 8 21c.493 1.634.66 3.301.5 5a40.939 40.939 0 0 1-.5 9c-.737-5.149-3.237-9.149-7.5-12-2.343-5.35-3.51-11.017-3.5-17a50.533 50.533 0 0 1-6-12c-4.206-2.405-6.373-6.072-6.5-11a8.43 8.43 0 0 1-4-.5c-.293-3.094-1.96-4.594-5-4.5-1.038-4.559-3.538-8.226-7.5-11-1.464-4.61-3.63-8.61-6.5-12-.087-3.061-1.087-5.727-3-8a88.518 88.518 0 0 0-3.5-19c-.667-6-.667-12 0-18 .39-2.604 1.224-4.938 2.5-7Z"/><path style="opacity:1" fill="#fdeb92" d="M63.5 201.5c2.958 2.56 5.458 5.56 7.5 9a22.146 22.146 0 0 0 4 7 8.435 8.435 0 0 1 .5 4 189.736 189.736 0 0 0-12-20Z"/><path style="opacity:1" fill="#f7da78" d="M212.5 185.5c-1.8 2.328-2.967 4.995-3.5 8a80.97 80.97 0 0 0-7.5 10c-4.011 3.475-6.844 7.808-8.5 13l-4 4a493.838 493.838 0 0 1-9.5 37c-.79-5.563.377-10.563 3.5-15l1-15c.71-1.473 1.876-2.14 3.5-2v-7c1.368-.806 2.701-1.806 4-3 1.027-3.339 2.527-6.339 4.5-9a471.541 471.541 0 0 0 16.5-21Z"/><path style="opacity:1" fill="#fdf287" d="M201.5 171.5v4c-1.574.437-2.741 1.437-3.5 3a130.249 130.249 0 0 0-5 12c-7.31 8.95-12.81 18.95-16.5 30a83.573 83.573 0 0 0-6.5 10c-3.242 8.313-4.408 16.98-3.5 26l-2 1a80.447 80.447 0 0 0 .5-20 820.163 820.163 0 0 0 16-35 129.073 129.073 0 0 0 8-13 13.92 13.92 0 0 1 4-3 8.43 8.43 0 0 0 .5-4l8-11Z"/><path style="opacity:1" fill="#fade7f" d="M76.5 225.5c2.122 4.5 4.122 9.167 6 14a158.534 158.534 0 0 1 2 15c-.617-.111-1.117-.444-1.5-1-.95-8.316-2.783-16.316-5.5-24l-1-4Z"/><path style="opacity:1" fill="#e9db82" d="M115.5 192.5h1c-.167 23.002 0 46.002.5 69 1.113-1.211 2.28-1.211 3.5 0l2-19c4.986-9.331 11.319-10.331 19-3a80.344 80.344 0 0 1 2.5 19c1.828 2.307 3.494 1.974 5-1a205.484 205.484 0 0 0-2.5-31.5 19.522 19.522 0 0 0 1-7.5v-16c-.241-2.398.426-4.398 2-6 .008 21.673.341 43.34 1 65-.801 1.542-1.134 3.208-1 5h-6c.278-1.846-.389-3.18-2-4-1.611.82-2.278 2.154-2 4h-14c-1.771-7.796-3.105-7.796-4 0h-6v-74Z"/><path style="opacity:1" fill="#b3a550" d="M115.5 192.5v70h-2v-1a334.322 334.322 0 0 0-1-34c.994-9.819 1.327-19.819 1-30l2-5Z"/><path style="opacity:1" fill="#d6c875" d="M112.5 227.5a334.322 334.322 0 0 1 1 34c-1.431-.381-2.264-1.381-2.5-3-.949 1.593-2.115 2.926-3.5 4-.166-8.34 0-16.673.5-25 .612-3.866 2.112-7.199 4.5-10Z"/><path style="opacity:.729" fill="#fdf7cd" d="M201.5 203.5c-2.169 2.905-3.503 6.238-4 10-1.713.379-2.713 1.379-3 3-.641 2.997-1.975 5.663-4 8-.061 2.221.605 2.554 2 1-1.444 3.111-2.278 6.444-2.5 10-3.025 4.071-4.359 8.738-4 14a15.39 15.39 0 0 1-3 6c-.213 6.872-3.046 12.372-8.5 16.5a4.934 4.934 0 0 1-3 .5c-.992.172-1.658-.162-2-1a10.165 10.165 0 0 0 3-3c1.322.17 2.489-.163 3.5-1 .275-2.912 1.109-5.579 2.5-8 .838-.342 1.172-1.008 1-2a493.838 493.838 0 0 0 9.5-37l4-4c1.656-5.192 4.489-9.525 8.5-13Z"/><path style="opacity:1" fill="#bbab5a" d="M152.5 182.5c.961 1.765 1.295 3.765 1 6a226.989 226.989 0 0 0 0 42 7.248 7.248 0 0 1 2.5 2c.5 8.66.666 17.327.5 26v3h-6c-.659-21.66-.992-43.327-1-65-.459-5.02.541-9.687 3-14Z"/><path style="opacity:1" fill="#fcf6a0" d="M127.5 239.5c10.074-2.425 14.074 1.408 12 11.5l-1 9.5c-4.417-1.268-8.75-1.601-13-1-.166-6.009.001-12.009.5-18 .717-.544 1.217-1.211 1.5-2Z"/><path style="opacity:1" fill="#f9cd42" d="M187.5 218.5v7c-1.624-.14-2.79.527-3.5 2l-1 15c-3.123 4.437-4.29 9.437-3.5 15 .172.992-.162 1.658-1 2-2.592 1.536-3.592 3.869-3 7h-8a790.004 790.004 0 0 0 6.5-27l4.5-7a6.846 6.846 0 0 1 4-1 18.453 18.453 0 0 1 .5-6c1.352-2.607 2.852-4.94 4.5-7Z"/><path style="opacity:1" fill="#f6d879" d="M166.5 256.5c-.074 1.911-1.074 3.078-3 3.5 1.184 1.145 1.184 2.312 0 3.5v3h12c-.592-3.131.408-5.464 3-7-1.391 2.421-2.225 5.088-2.5 8-1.011.837-2.178 1.17-3.5 1-5.14-.988-10.474-1.321-16-1v-9c.722.418 1.222 1.084 1.5 2a20.303 20.303 0 0 0 6.5-3l2-1Z"/><path style="opacity:1" fill="#f3d16f" d="m99.5 258.5 2 1c1.107 2.469 3.107 3.469 6 3 1.385-1.074 2.551-2.407 3.5-4 .236 1.619 1.069 2.619 2.5 3v1c-1.148.664-2.481.831-4 .5a39.064 39.064 0 0 0-2 4.5h-15c1.452-.802 3.118-1.302 5-1.5.837-1.011 1.17-2.178 1-3.5.934-1.068 1.268-2.401 1-4Z"/><path style="opacity:1" fill="#daa658" d="M150.5 261.5h6v6h-49a39.064 39.064 0 0 1 2-4.5c1.519.331 2.852.164 4-.5h2v4h6c.895-7.796 2.229-7.796 4 0h14c-.278-1.846.389-3.18 2-4 1.611.82 2.278 2.154 2 4h6c-.134-1.792.199-3.458 1-5Z"/><path style="opacity:1" fill="#a68a5c" d="M91.5 268.5c0-.667.333-1 1-1h64c5.526-.321 10.86.012 16 1a10.165 10.165 0 0 1-3 3c-4.045-1.677-8.378-2.344-13-2h-9c-18.743.32-37.41-.014-56-1Z"/><path style="opacity:1" fill="#8a7f6e" d="M91.5 268.5c18.59.986 37.257 1.32 56 1 1.089 3.724-.245 6.39-4 8h-4c.761-.891 1.761-1.558 3-2 .886-.825 1.219-1.825 1-3h-4a69.302 69.302 0 0 0-16-1c-5.85.47-11.683 1.136-17.5 2a167.067 167.067 0 0 1-9.5-1c-2.281-.423-3.948.244-5 2-.934-1.068-1.268-2.401-1-4-.172-.992.162-1.658 1-2Z"/><path style="opacity:.591" fill="#aba8a5" d="M96.5 272.5c1.3 1.327 2.633 2.66 4 4-2.486 2.078-3.486 4.745-3 8h14c-4.816 1.15-9.816 1.316-15 .5a19.62 19.62 0 0 0-2-3.5c.592-3.131-.408-5.464-3-7 1.052-1.756 2.719-2.423 5-2Z"/><path style="opacity:1" fill="#93908c" d="M123.5 271.5c-.214 1.644.12 3.144 1 4.5a49.974 49.974 0 0 0 15-.5v-3h4c.219 1.175-.114 2.175-1 3-1.239.442-2.239 1.109-3 2a696.586 696.586 0 0 1-35 1.5 22.226 22.226 0 0 0-6 2.5c.21.586.543 1.086 1 1.5 5.991.499 11.991.666 18 .5v1h-20c-.486-3.255.514-5.922 3-8-1.367-1.34-2.7-2.673-4-4 3.147.423 6.314.756 9.5 1 5.817-.864 11.65-1.53 17.5-2Z"/><path style="opacity:1" fill="#c6c2bd" d="M123.5 271.5a69.302 69.302 0 0 1 16 1v3a49.974 49.974 0 0 1-15 .5c-.88-1.356-1.214-2.856-1-4.5Z"/><path style="opacity:1" fill="#5a554e" d="M147.5 269.5h2c.4 1.877 1.4 3.377 3 4.5a11.068 11.068 0 0 1-2 3.5c3.295.901 6.628.901 10 0v-5c1.603.188 2.937-.312 4-1.5-2.865-.183-5.531-.683-8-1.5 4.622-.344 8.955.323 13 2-1.511 1.458-2.511 3.291-3 5.5a885.916 885.916 0 0 1-15 3.5 31.116 31.116 0 0 1-11-1 44.093 44.093 0 0 0 3-2c3.755-1.61 5.089-4.276 4-8Z"/><path style="opacity:1" fill="#463c33" d="M149.5 269.5h7c2.469.817 5.135 1.317 8 1.5-1.063 1.188-2.397 1.688-4 1.5v5c-3.372.901-6.705.901-10 0a11.068 11.068 0 0 0 2-3.5c-1.6-1.123-2.6-2.623-3-4.5Z"/><path style="opacity:1" fill="#716d6b" d="M139.5 277.5h4a44.093 44.093 0 0 1-3 2 31.116 31.116 0 0 0 11 1c-9.825.83-19.825 1.33-30 1.5-1.558.21-2.891.71-4 1.5a162.597 162.597 0 0 1-18-.5 3.646 3.646 0 0 1-1-1.5 22.226 22.226 0 0 1 6-2.5 696.586 696.586 0 0 0 35-1.5Z"/><path style="opacity:1" fill="#898582" d="M169.5 271.5c.342.838 1.008 1.172 2 1 2.889 4.071 2.556 7.904-1 11.5 4.219 4.031 3.885 7.698-1 11 5.234 3.876 5.234 7.709 0 11.5-1.124-1.309-2.624-1.975-4.5-2a32.135 32.135 0 0 1-11.5 2 52.756 52.756 0 0 0 8-3 9.86 9.86 0 0 0-6-1v-1c6.017.463 10.35-1.871 13-7 .315-1.726.481-3.393.5-5a78.304 78.304 0 0 1-17.5 6c.847-1.466 2.18-2.3 4-2.5a976.312 976.312 0 0 0-56 .5v-4a290.725 290.725 0 0 0 48-4c.847-1.466 2.18-2.3 4-2.5a242.812 242.812 0 0 0-34 .5c1.109-.79 2.442-1.29 4-1.5 10.175-.17 20.175-.67 30-1.5a885.916 885.916 0 0 0 15-3.5c.489-2.209 1.489-4.042 3-5.5Z"/><path style="opacity:1" fill="#b1adaa" d="M147.5 285.5a290.725 290.725 0 0 1-48 4v4c-.951-1.419-1.284-3.085-1-5a314.124 314.124 0 0 0 40-3.5c-6.992-.5-13.992-.666-21-.5v-1a242.812 242.812 0 0 1 34-.5c-1.82.2-3.153 1.034-4 2.5Z"/><path style="opacity:1" fill="#625e5b" d="M147.5 285.5a112.784 112.784 0 0 0 19-3c-.214 1.644.12 3.144 1 4.5-9.04 3.554-18.373 4.387-28 2.5a455.134 455.134 0 0 0 8-4Z"/><path style="opacity:1" fill="#adaaa7" d="M151.5 295.5a19.22 19.22 0 0 0-6 1c1.098-.897 1.098-1.73 0-2.5a868.233 868.233 0 0 1-46-.5 976.312 976.312 0 0 1 56-.5c-1.82.2-3.153 1.034-4 2.5Z"/><path style="opacity:1" fill="#777572" d="M168.5 294.5c-.617-.111-1.117-.444-1.5-1a166.044 166.044 0 0 0-21.5 5.5 7.293 7.293 0 0 1-3 2c4.321.499 8.654.666 13 .5v1a643.164 643.164 0 0 1-53 1.5c-2.501-1.418-2.168-2.418 1-3l34-1a219.403 219.403 0 0 0 6-2.5c.342-.838 1.008-1.172 2-1a19.22 19.22 0 0 1 6-1 78.304 78.304 0 0 0 17.5-6 29.812 29.812 0 0 1-.5 5Z"/><path style="opacity:1" fill="#43423e" d="M168.5 294.5c-2.65 5.129-6.983 7.463-13 7a84.902 84.902 0 0 1-13-.5 7.293 7.293 0 0 0 3-2 166.044 166.044 0 0 1 21.5-5.5c.383.556.883.889 1.5 1Z"/><path style="opacity:1" fill="#999794" d="M143.5 297.5a219.403 219.403 0 0 1-6 2.5l-34 1c-3.168.582-3.501 1.582-1 3a643.164 643.164 0 0 0 53-1.5 9.86 9.86 0 0 1 6 1 52.756 52.756 0 0 1-8 3 55.444 55.444 0 0 1-10 4 51.569 51.569 0 0 0-7 1h-30v-1c13.883.885 27.55-.281 41-3.5a3.647 3.647 0 0 0 1-1.5h-51a11.99 11.99 0 0 0 1-6 284.457 284.457 0 0 0 45-2Z"/><path style="opacity:.555" fill="#cdcbc8" d="M94.5 281.5a19.62 19.62 0 0 1 2 3.5c5.184.816 10.184.65 15-.5h6c7.008-.166 14.008 0 21 .5a314.124 314.124 0 0 1-40 3.5c-.284 1.915.049 3.581 1 5 15.166.571 30.499.738 46 .5 1.098.77 1.098 1.603 0 2.5-.992-.172-1.658.162-2 1a284.457 284.457 0 0 1-45 2 11.99 11.99 0 0 1-1 6h51a3.647 3.647 0 0 1-1 1.5c-13.45 3.219-27.117 4.385-41 3.5h-9c.268 1.599-.066 2.932-1 4-3.749-3.809-3.749-7.809 0-12-3.946-3.794-3.946-7.628 0-11.5-2.968-2.703-3.635-5.869-2-9.5Z"/><path style="opacity:1" fill="#413f3b" d="M169.5 306.5v2a65.307 65.307 0 0 1-14 6 98.432 98.432 0 0 1-14-.5l-1-1a81.316 81.316 0 0 0 3-2.5 55.444 55.444 0 0 0 10-4 32.135 32.135 0 0 0 11.5-2c1.876.025 3.376.691 4.5 2Z"/><path style="opacity:1" fill="#6e6a67" d="M143.5 310.5a81.316 81.316 0 0 1-3 2.5l1 1c4.655.499 9.321.666 14 .5a831.713 831.713 0 0 1-50 1.5c-5.121-.577-5.121-1.577 0-3 10.508-.17 20.841-.67 31-1.5a51.569 51.569 0 0 1 7-1Z"/><path style="opacity:1" fill="#898683" d="M169.5 308.5c1.869 1.38 3.202 3.213 4 5.5a165.004 165.004 0 0 1-4 9.5c-.839-1.141-1.506-2.474-2-4l-3.5-1a167.688 167.688 0 0 1-24.5 4c3.077-1.356 6.41-2.189 10-2.5 1.473-.71 2.14-1.876 2-3.5-17.67.429-35.336.595-53 .5l2-5a18.453 18.453 0 0 1 6-.5h30a475.007 475.007 0 0 1-31 1.5c-5.121 1.423-5.121 2.423 0 3a831.713 831.713 0 0 0 50-1.5 65.307 65.307 0 0 0 14-6Z"/><path style="opacity:.725" fill="#6f6d69" d="M169.5 323.5c.237 1.291-.096 2.291-1 3-.111-.617-.444-1.117-1-1.5-9.72.145-19.054-.689-28-2.5a167.688 167.688 0 0 0 24.5-4l3.5 1c.494 1.526 1.161 2.859 2 4Z"/><path style="opacity:1" fill="#9c9896" d="M126.5 322.5c-.763.768-1.763 1.268-3 1.5 4.877.365 9.543 1.365 14 3-2.208.191-4.208.691-6 1.5a240.574 240.574 0 0 1-23 3c-1.968.6-2.968 1.933-3 4h-2v-6a114.269 114.269 0 0 1 18-1v-3a128.507 128.507 0 0 1-16-.5c-2.543-.14-4.877-.806-7-2 9.327-.5 18.661-.666 28-.5Z"/><path style="opacity:1" fill="#888682" d="M126.5 322.5h13c8.946 1.811 18.28 2.645 28 2.5.556.383.889.883 1 1.5a21.83 21.83 0 0 1-5 6 20.69 20.69 0 0 1-1-5 654.036 654.036 0 0 0-31 1c1.792-.809 3.792-1.309 6-1.5-4.457-1.635-9.123-2.635-14-3 1.237-.232 2.237-.732 3-1.5Z"/><path style="opacity:1" fill="#b8b5b2" d="M106.5 310.5v1a18.453 18.453 0 0 0-6 .5l-2 5c17.664.095 35.33-.071 53-.5.14 1.624-.527 2.79-2 3.5-3.59.311-6.923 1.144-10 2.5h-13c-9.339-.166-18.673 0-28 .5 2.123 1.194 4.457 1.86 7 2 5.323.499 10.656.666 16 .5v3c-6.036-.14-12.036.193-18 1v6a5535.554 5535.554 0 0 1-10.5-13c-1.217-3.852-.05-6.519 3.5-8 .934-1.068 1.268-2.401 1-4h9Z"/><path style="opacity:1" fill="#6e6c69" d="M163.5 332.5c-.356 1.69-1.356 2.69-3 3a20.69 20.69 0 0 1-1-5c-17.265-2.506-33.598-.173-49 7v4c-2.36-1.365-4.027-3.365-5-6 .032-2.067 1.032-3.4 3-4a240.574 240.574 0 0 0 23-3 654.036 654.036 0 0 1 31-1 20.69 20.69 0 0 0 1 5Z"/><path style="opacity:1" fill="#2a2b26" d="M153.5 338.5h-43v-1c7.674.166 15.341 0 23-.5 6.717-4.565 14.051-5.732 22-3.5.38 2.198-.287 3.865-2 5Z"/><path style="opacity:.498" fill="#46433f" d="M160.5 335.5a5.576 5.576 0 0 1-1 3 53.897 53.897 0 0 1-8 7c.548-1.894 1.548-3.56 3-5a43.836 43.836 0 0 1-1-2c1.713-1.135 2.38-2.802 2-5-7.949-2.232-15.283-1.065-22 3.5-7.659.5-15.326.666-23 .5 15.402-7.173 31.735-9.506 49-7a20.69 20.69 0 0 0 1 5Z"/><path style="opacity:.786" fill="#020202" d="M110.5 338.5h43c.304.65.637 1.317 1 2-1.452 1.44-2.452 3.106-3 5a14.698 14.698 0 0 1-3 3.5 121.142 121.142 0 0 1-16.5 4.5 59.555 59.555 0 0 1-15.5-5c-2.42-2.078-4.42-4.412-6-7v-3Z"/></svg>