  <svg xmlns="http://www.w3.org/2000/svg" width="393" height="636" style="shape-rendering:geometricPrecision;text-rendering:geometricPrecision;image-rendering:optimizeQuality;fill-rule:evenodd;clip-rule:evenodd"><path style="opacity:.802" fill="grey" d="M192.5 1.5a15262.26 15262.26 0 0 1 27 18 484.936 484.936 0 0 0 3 33 8557.143 8557.143 0 0 1 119 48.5l-2 6c-38.665.5-77.332.667-116 .5a461.262 461.262 0 0 0 2 51.5 8954.646 8954.646 0 0 0 143 47c.513 2.718.513 5.551 0 8.5h-142c.303 17.013.97 34.013 2 51a12084.048 12084.048 0 0 1 146 46.5c1.821 2.456 2.488 5.289 2 8.5-48.334-.167-96.668 0-145 .5a3.647 3.647 0 0 0-1 1.5 27788.925 27788.925 0 0 1 77 273h15v31h-75v-31a43.117 43.117 0 0 0 13-1l-67.5-111A18946.29 18946.29 0 0 0 124.5 595c4.655.499 9.321.666 14 .5a120.655 120.655 0 0 0 0 31h-75v-31c4.93.303 9.763-.031 14.5-1a27585.932 27585.932 0 0 1 76.5-273c-48.329-1-96.662-1.333-145-1a41.583 41.583 0 0 1-1-8l148-47a652.63 652.63 0 0 0 3-51c-47.335.167-94.668 0-142-.5-.944-2.719-1.277-5.552-1-8.5a5113.478 5113.478 0 0 0 143-46.5 9.454 9.454 0 0 0 1.5-2.5 2398.32 2398.32 0 0 0 1.5-49h-117l-1-8a26696.17 26696.17 0 0 0 118-46.5 20.428 20.428 0 0 0 1.5-5.5l1-27a394.597 394.597 0 0 0 27.5-19Zm-1 11c6.061 2.535 11.728 5.869 17 10l-16 11a124.016 124.016 0 0 1-15-11 101.374 101.374 0 0 1 14-10Zm-19 18a49.903 49.903 0 0 1 12 8.5c-4.008 3.199-8.341 5.699-13 7.5.187-5.345.52-10.678 1-16Zm39 0c1.868 5.41 2.368 11.077 1.5 17a252.45 252.45 0 0 0-12.5-8.5 1235.95 1235.95 0 0 0 11-8.5Zm-20 14c1.808-.009 3.475.491 5 1.5a40.954 40.954 0 0 0 7 5 85.282 85.282 0 0 1-20-1 49.087 49.087 0 0 0 8-5.5Zm-13 16c9.157-1.158 18.491-1.324 28-.5a82.678 82.678 0 0 1-14 12.5 1200.684 1200.684 0 0 1-14-12Zm-27 32a1610.495 1610.495 0 0 0-11-7.5A341.409 341.409 0 0 0 163 63.5c.8 11.392.3 22.726-1.5 34a35.168 35.168 0 0 0-10-5Zm82 0a55.094 55.094 0 0 0-10.5 6 408.967 408.967 0 0 1-1-35c7.474 7.139 14.974 14.306 22.5 21.5a1610.495 1610.495 0 0 0-11 7.5Zm-62-27c5.408 3.9 10.408 8.4 15 13.5A158.66 158.66 0 0 0 171 93.5c-.61-9.35-.444-18.683.5-28Zm28 12a225.627 225.627 0 0 0 13.5-12 107.617 107.617 0 0 1 1 28A158.66 158.66 0 0 0 198.5 79c.556-.383.889-.883 1-1.5Zm47 2c0-.667-.333-1-1-1a177.724 177.724 0 0 0-11-11.5 314.76 314.76 0 0 1 26 10 91.662 91.662 0 0 1-10 5.5 494.818 494.818 0 0 0-4-3Zm-97-12a159.363 159.363 0 0 1-15 15 72.893 72.893 0 0 0-9-5.5 353.492 353.492 0 0 1 24-9.5Zm-30 14a35.168 35.168 0 0 1 10 5 134.15 134.15 0 0 1-9.5 10 112.97 112.97 0 0 1-.5-15Zm144 0c1.309 2.07 1.975 4.57 2 7.5l-.5 7.5-9.5-9.5a59.683 59.683 0 0 1 8-5.5Zm-152 1c1.314 2.415 1.981 5.249 2 8.5l-.5 8.5a349.485 349.485 0 0 1-13.5-6c4.02-3.689 8.02-7.355 12-11Zm160 0c5.227 2.887 9.894 6.554 14 11a349.485 349.485 0 0 1-13.5 6 145.05 145.05 0 0 1-.5-17Zm-79 2a306.026 306.026 0 0 1 15 14.5c-10 .667-20 .667-30 0a303.793 303.793 0 0 1 15-14.5Zm-58 6a50.935 50.935 0 0 1 17 8.5c-8.667.667-17.333.667-26 0 3.5-2.334 6.5-5.168 9-8.5Zm111 1c1.637-.718 3.303-.885 5-.5a51.073 51.073 0 0 1 9 8c-8.667.667-17.333.667-26 0a106.367 106.367 0 0 0 12-7.5Zm-162 3c2.473.447 2.64 1.447.5 3a4.932 4.932 0 0 1-.5-3Zm217 0c1.073.75 1.24 1.75.5 3-1.728-.852-1.895-1.852-.5-3Zm-222 1v4a40.936 40.936 0 0 1-9-.5 48.703 48.703 0 0 0 9-3.5Zm229 1c10.384 2.217 10.384 3.217 0 3v-3Zm-131 12c10.826-1.159 21.826-1.326 33-.5a203.814 203.814 0 0 0-16.5 17.5 393.399 393.399 0 0 1-16.5-17Zm-7 5a160.447 160.447 0 0 1 17 18 230.388 230.388 0 0 1-17 19 559.384 559.384 0 0 1 0-37Zm45 1c1.419 11.816 1.919 23.816 1.5 36a228.489 228.489 0 0 0-17.5-18.5 399.457 399.457 0 0 1 16-17.5Zm-22 23c.667 0 1 .333 1 1a445.355 445.355 0 0 0 17 18.5c-12 .667-24 .667-36 0a165.467 165.467 0 0 0 18-19.5Zm-15 30c10.158-1.159 20.492-1.325 31-.5a139.844 139.844 0 0 0-15.5 12.5 272.313 272.313 0 0 1-15.5-12Zm-18 2c1.281 11.55.948 23.216-1 35a236.29 236.29 0 0 1-26-13 32522.31 32522.31 0 0 1 27-22Zm66 0a927.736 927.736 0 0 0 28 22.5 454.908 454.908 0 0 1-27 12.5 307.162 307.162 0 0 1-1-35Zm-58 1a96.513 96.513 0 0 1 18 15 141.067 141.067 0 0 1-18.5 16 617.68 617.68 0 0 0 .5-31Zm49 0a369.96 369.96 0 0 1 1.5 31L199.5 185a118.61 118.61 0 0 0 17-14.5Zm-72 3-16 14a5.576 5.576 0 0 0-3 1 276.037 276.037 0 0 0-12-5.5 1631.622 1631.622 0 0 1 31-9.5Zm97 0a533.637 533.637 0 0 1 30 9.5 181.526 181.526 0 0 1-11.5 5.5 80.476 80.476 0 0 1-18.5-15Zm-135 13a132.483 132.483 0 0 1 14 6.5 195.148 195.148 0 0 1-13 10.5 73.133 73.133 0 0 1-1-17Zm171 0c1.316 5.513 1.316 11.18 0 17a195.148 195.148 0 0 1-13-10.5 262.015 262.015 0 0 0 13-6.5Zm-176 18v1a97.489 97.489 0 0 1-21-5.5 389.02 389.02 0 0 0 20-12.5 73.133 73.133 0 0 1 1 17Zm182-17a363.727 363.727 0 0 1 22 12.5 132.77 132.77 0 0 1-22 5.5v-18Zm-92 4a4.934 4.934 0 0 1 3 .5 218.135 218.135 0 0 0 15 13 289.106 289.106 0 0 1-34 0 219.605 219.605 0 0 0 16-13.5Zm-120 5c2.475.247 2.475.913 0 2-.963-.47-.963-1.137 0-2Zm54 0a149.304 149.304 0 0 1 20 8.5c-10 .667-20 .667-30 0a126.4 126.4 0 0 0 10-8.5Zm131 0a8.43 8.43 0 0 1 4 .5l10 8a240.38 240.38 0 0 1-31 0 448.043 448.043 0 0 0 17-8.5Zm55 1c.997-1.213 1.997-1.046 3 .5-1.077.47-2.077.303-3-.5Zm-251 3c5.16.669 5.326 2.002.5 4a8.435 8.435 0 0 1-.5-4Zm264 0c1.282 1.208 1.282 2.542 0 4a15.645 15.645 0 0 0-4-2.5c1.558-.21 2.891-.71 4-1.5Zm-272 2c1.548.321 2.215 1.321 2 3a24.935 24.935 0 0 1-7-.5 38.728 38.728 0 0 0 5-2.5Zm278 0c10.408 2.225 10.408 3.225 0 3v-3Zm-156 13c12.16-1.16 24.493-1.327 37-.5a469.398 469.398 0 0 0-19 17.5c-6.02-5.688-12.02-11.355-18-17Zm-8 4a527.177 527.177 0 0 0 20 18.5 282.27 282.27 0 0 1-20.5 19.5 394.17 394.17 0 0 1 .5-38Zm51 0c.809 1.792 1.309 3.792 1.5 6a256.122 256.122 0 0 1 0 32 282.27 282.27 0 0 1-20.5-19.5 166.139 166.139 0 0 0 19-18.5Zm-25 25a573.55 573.55 0 0 1 21 19.5 420.29 420.29 0 0 1-41 0 547.318 547.318 0 0 1 20-19.5Zm-18 29c12.16-1.16 24.493-1.327 37-.5a150.168 150.168 0 0 1-19 13.5 8813.477 8813.477 0 0 0-18-13Zm-18 2c.663 2.141.997 4.475 1 7-.621 9.66-1.121 19.327-1.5 29a986.39 986.39 0 0 0-26.5-13.5 293.574 293.574 0 0 0 27-22.5Zm8 1a191.411 191.411 0 0 1 21 15.5 851.442 851.442 0 0 1-21.5 17.5c.166-10.985.332-21.985.5-33Zm55 0c1.699 10.465 2.199 21.131 1.5 32a270.61 270.61 0 0 0-21.5-16.5 152.994 152.994 0 0 0 20-15.5Zm23 10a219.064 219.064 0 0 0 13 11.5 310.398 310.398 0 0 0-25.5 13.5 171.473 171.473 0 0 1-1-35 65.155 65.155 0 0 0 13.5 10Zm-100-7a403.038 403.038 0 0 0-18.5 16 4353.373 4353.373 0 0 0-11.5-6.5 224.089 224.089 0 0 1 30-9.5Zm101 1c.235-.597.735-.93 1.5-1a1671.934 1671.934 0 0 1 28.5 9.5 182.82 182.82 0 0 1-11.5 5.5 577.903 577.903 0 0 1-18.5-14Zm-145 12c.99 6.479 1.324 13.146 1 20a254.09 254.09 0 0 1-21-6.5 303.467 303.467 0 0 0 20-13.5Zm6 0a132.483 132.483 0 0 1 14 6.5L105 310.5a162.597 162.597 0 0 1-.5-18Zm175 17a11.743 11.743 0 0 0-5-3 51.621 51.621 0 0 0-7-7l12-7c1.285 5.72 1.285 11.387 0 17Zm6-17a362.348 362.348 0 0 0 22 13.5 286.323 286.323 0 0 1-22 6.5v-20Zm-93 5a348.164 348.164 0 0 1 20 14.5 361.07 361.07 0 0 1-38 0 326.75 326.75 0 0 1 18-14.5Zm-120 3a4.934 4.934 0 0 1 3 .5c-2.15 1.59-4.483 2.257-7 2a51.239 51.239 0 0 1 4-2.5Zm240 1c1.603-.188 2.937.312 4 1.5-1.852.773-3.186.273-4-1.5Zm-189 1a265.803 265.803 0 0 1 20 9.5 240.38 240.38 0 0 1-31 0 154.507 154.507 0 0 0 11-9.5Zm135 0a4.934 4.934 0 0 1 3 .5l11 9a240.38 240.38 0 0 1-31 0c6.084-2.702 11.751-5.868 17-9.5Zm-200 4c2.064.187 4.064.687 6 1.5a15.83 15.83 0 0 0-5.5 3.5 12.935 12.935 0 0 1-.5-5Zm266 0c1.086.12 1.753.787 2 2l-1 2a15.645 15.645 0 0 0-4-2.5c1.237-.232 2.237-.732 3-1.5Zm-274 1c1.756 1.052 2.423 2.719 2 5a84.9 84.9 0 0 1-13-.5c3.968-1.038 7.635-2.538 11-4.5Zm282 0a340.551 340.551 0 0 1 14 4.5 98.432 98.432 0 0 1-14 .5v-5Zm-262 3c2.064.187 4.064.687 6 1.5a16.242 16.242 0 0 1-8 0c.916-.278 1.582-.778 2-1.5Zm241 0c1.808-.009 3.475.491 5 1.5a16.242 16.242 0 0 1-8 0c1.237-.232 2.237-.732 3-1.5Zm-140 12c13.839-1.326 27.839-1.326 42 0a676.444 676.444 0 0 1-20.5 19 294.539 294.539 0 0 1-21.5-19Zm68 60a370742.72 370742.72 0 0 0-40-35 793.765 793.765 0 0 1 24.5-23c5.171 19.354 10.338 38.687 15.5 58Zm-78-57a252.553 252.553 0 0 1 25 21.5 642.901 642.901 0 0 0-40.5 36.5 627.43 627.43 0 0 1 15.5-58Zm31 27a2348.521 2348.521 0 0 1 43 38.5c-28.667.667-57.333.667-86 0a2267.507 2267.507 0 0 1 43-38.5Zm-46 48c31.002-.167 62.002 0 93 .5a4894.837 4894.837 0 0 1-47 66.5 1241.673 1241.673 0 0 1-46-67Zm-8 5a489.417 489.417 0 0 1 18 25 78.644 78.644 0 0 1-25 0 528.881 528.881 0 0 0 7-25Zm107 0a187.328 187.328 0 0 1 8 26c-8.36.331-16.693-.002-25-1a312.107 312.107 0 0 0 17-25Zm-123 60a232.116 232.116 0 0 1 7-25 96.54 96.54 0 0 1 24-.5 1154.101 1154.101 0 0 0-31 25.5Zm110-25c7.816-.992 15.816-1.326 24-1 2.237 8.542 4.57 17.042 7 25.5a486.389 486.389 0 0 1-31-24.5Zm-12 1a1387.517 1387.517 0 0 1 35 28.5 486.64 486.64 0 0 1-54-.5 320.332 320.332 0 0 0 19-28Zm-58 1c1.175-.219 2.175.114 3 1a349.24 349.24 0 0 1 18 26 351.713 351.713 0 0 1-53 0 26448.888 26448.888 0 0 1 32-27Zm12 56c-4.365 5.558-8.198 11.558-11.5 18L123.5 480a960.77 960.77 0 0 1 62 0 174.597 174.597 0 0 0-11 18.5Zm26-19c20.344-.333 40.678 0 61 1a1958.327 1958.327 0 0 0-38.5 36 527.491 527.491 0 0 1-22.5-37Zm-84 6a1378.281 1378.281 0 0 1 36 32.5c-14.996.5-29.996.667-45 .5a1199.92 1199.92 0 0 1 9-33Zm116 32a801.843 801.843 0 0 0 36-32 241.656 241.656 0 0 1 9 33 507.055 507.055 0 0 1-45-1Zm-121 10c14.828-1.161 29.828-1.328 45-.5L139 556.5a1142.055 1142.055 0 0 0-27.5-29Zm117 0c14.828-1.161 29.828-1.328 45-.5a1093.446 1093.446 0 0 1-27 28.5 12570.303 12570.303 0 0 0-18-28Zm-125 4a967.862 967.862 0 0 0 26 26.5c-10.995.5-21.995.667-33 .5a204.919 204.919 0 0 1 7-27Zm177 0c.617.111 1.117.444 1.5 1a699.624 699.624 0 0 0 7.5 25 182.078 182.078 0 0 1-33 .5 886.431 886.431 0 0 0 24-26.5Zm-187 36a362.008 362.008 0 0 1 38 1 217.43 217.43 0 0 1-13 20.5c-10.328.5-20.661.666-31 .5a410.817 410.817 0 0 1 6-22Zm160 1a380.934 380.934 0 0 1 39-1l5 22c-10.339.166-20.672 0-31-.5a596.449 596.449 0 0 0-13-20.5Z"/><path style="opacity:.985" fill="#070707" d="M233.5 68.5c2.928 1.137 3.262 2.47 1 4 .391-1.219-.276-2.052-2-2.5.556-.383.889-.883 1-1.5Z"/><path style="opacity:.963" fill="#070707" d="M150.5 69.5c1.121 1.59.954 3.256-.5 5l-1-2c-.837 1.507-2.004 2.007-3.5 1.5a208.311 208.311 0 0 0 5-4.5Z"/><path style="opacity:.9" fill="#090909" d="M199.5 77.5c-3.743.04-3.91-.626-.5-2 .464.594.631 1.261.5 2Z"/><path style="opacity:.976" fill="#070707" d="M245.5 78.5c.667 0 1 .333 1 1 .105 4.654-1.229 5.154-4 1.5 1.191-.698 2.191-1.531 3-2.5Z"/><path style="opacity:.681" fill="#090909" d="M114.5 81.5a2.427 2.427 0 0 1 2 .5 162.886 162.886 0 0 0-1.5 17.5c-.499-5.99-.666-11.99-.5-18Z"/><path style="opacity:.987" fill="#070707" d="M130.5 88.5c3.826.98 3.826 1.813 0 2.5 1.196.654 1.196 1.154 0 1.5-1.126-1.308-1.126-2.642 0-4Z"/><path style="opacity:.92" fill="red" d="M245.5 91.5c-1.213-.997-1.046-1.997.5-3 .47 1.077.303 2.077-.5 3Z"/><path style="opacity:.993" fill="#070707" d="M252.5 89.5c2.488-1.418 4.154-.584 5 2.5l-1 1.5c-.339-1.662-1.672-2.996-4-4Z"/><path style="opacity:.963" fill="#070707" d="M151.5 92.5c1.435 1.485 1.268 2.818-.5 4-1.119-1.052-1.619-2.219-1.5-3.5a2.427 2.427 0 0 1 2-.5Z"/><path style="opacity:.948" fill="#070707" d="M233.5 92.5c3.098-.088 3.432.412 1 1.5l2 1c-3.387 1.145-4.387.312-3-2.5Z"/><path style="opacity:.5" fill="#0b0b0b" d="M78.5 99.5v-4c.888.314 1.555 1.48 2 3.5a2.428 2.428 0 0 1-2 .5Z"/><path style="opacity:.9" fill="#070707" d="M193.5 138.5c0-.667-.333-1-1-1-.996-.086-1.829.248-2.5 1 .833-4.167 2.667-4.667 5.5-1.5-.544.717-1.211 1.217-2 1.5Z"/><path style="opacity:.968" fill="#090909" d="M180.5 179.5c.997-1.213 1.997-1.046 3 .5-1.077.47-2.077.303-3-.5Z"/><path style="opacity:.993" fill="red" d="M190.5 180.5c1.606.859 3.273 1.026 5 .5a20.532 20.532 0 0 1-4.5 2.5 4.934 4.934 0 0 1-.5-3Z"/><path style="opacity:.975" fill="red" d="M186.5 184.5c.997-1.213 1.997-1.046 3 .5-1.077.47-2.077.303-3-.5Z"/><path style="opacity:.96" fill="red" d="M128.5 187.5c.718 1.746 1.718 2.412 3 2-2.593 3.886-3.593 3.219-3-2Z"/><path style="opacity:.865" fill="red" d="M101.5 204.5c1.25.077 2.083.744 2.5 2l1-2c.5 1.167 1.333 2 2.5 2.5-2.489.941-4.489.441-6-1.5v-1Z"/><path style="opacity:.958" fill="#070707" d="M190.5 241.5h5c.241 3.499-.592 3.832-2.5 1-2.855 2.822-3.689 2.489-2.5-1Z"/><path style="opacity:.992" fill="#070707" d="M242.5 284.5c-3.506-.616-4.339-2.283-2.5-5 1.438 1.4 2.271 3.067 2.5 5Z"/><path style="opacity:.974" fill="#070707" d="M143.5 280.5c1.256-.039 2.256.461 3 1.5-2.825 3.201-5.659 5.701-8.5 7.5-.122-1.669.212-3.335 1-5 1.992-.828 3.492-2.161 4.5-4Z"/><path style="opacity:.971" fill="#070707" d="M242.5 286.5v-2c1.842-1.534 3.175-1.2 4 1-1.189.929-2.522 1.262-4 1Z"/><path style="opacity:.945" fill="#070707" d="M250.5 292.5a31.984 31.984 0 0 1 4-1c1.527 4.886.194 5.219-4 1Z"/><path style="opacity:.939" fill="red" d="M274.5 306.5c1.186 1.694 1.019 3.361-.5 5-1.368-1.527-1.868-3.027-1.5-4.5a2.428 2.428 0 0 1 2-.5Z"/><path style="opacity:.978" fill="red" d="m232.5 379.5 3 1.5c-1.657.725-2.657.225-3-1.5Z"/><path style="opacity:.931" fill="red" d="m174.5 498.5 3 1.5c-1.657.725-2.657.225-3-1.5Z"/><path style="opacity:.916" fill="#080908" d="M232.5 517.5c-3.103 1.297-3.437.964-1-1 .607.124.94.457 1 1Z"/></svg>