<svg xmlns="http://www.w3.org/2000/svg" width="516" height="890" style="shape-rendering:geometricPrecision;text-rendering:geometricPrecision;image-rendering:optimizeQuality;fill-rule:evenodd;clip-rule:evenodd"><path fill="#fefffe" d="M-.5-.5h516v890H-.5V-.5Z" style="opacity:1"/><path d="M6.5 11.5h495v868H6.5v-868Z" style="opacity:1"/><path fill="#abe6f1" d="M39.5 44.5h429v802h-429v-802Z" style="opacity:1"/><path fill="#bebfbe" d="M420.5 415.5h5v85h32v-121h-32v20h-5v-25h42v131h-42v-90Z" style="opacity:1"/><path d="M420.5 415.5a840.27 840.27 0 0 1-41-.5c-7.21-6.257-6.543-11.257 2-15 12.996-.5 25.996-.667 39-.5h5v-20h32v121h-32v-85h-5Z" style="opacity:1"/><path fill="#b2b2b2" d="M437.5 457.5c8.244-.272 10.578 3.228 7 10.5-5.713 3.059-9.047 1.393-10-5 .363-2.192 1.363-4.026 3-5.5Z" style="opacity:1"/></svg>