<svg xmlns="http://www.w3.org/2000/svg" width="228" height="385" style="shape-rendering:geometricPrecision;text-rendering:geometricPrecision;image-rendering:optimizeQuality;fill-rule:evenodd;clip-rule:evenodd"><path style="opacity:.978" d="M40.5 5.5c48.335-.167 96.668 0 145 .5 17.645 3.646 28.812 14.146 33.5 31.5.667 103 .667 206 0 309-4.609 16.276-15.109 26.443-31.5 30.5-50 .667-100 .667-150 0-16.167-4.167-26.333-14.333-30.5-30.5-.667-103-.667-206 0-309 4.865-17.367 16.032-28.034 33.5-32Zm1 16c47.335-.167 94.668 0 142 .5 12.652 3.317 19.485 11.484 20.5 24.5.667 97 .667 194 0 291-1.483 14.817-9.65 22.983-24.5 24.5a4420.29 4420.29 0 0 1-133 0c-14.833-1.5-23-9.667-24.5-24.5-.667-97-.667-194 0-291 1.102-12.596 7.602-20.93 19.5-25Z"/><path style="opacity:.913" fill="#adadad" d="M174.5 183.5c.689-1.274 1.523-1.274 2.5 0 .5 12.329.667 24.662.5 37h14v-54h-14v9h-3v-12h20v60h-20v-40Z"/><path style="opacity:.984" d="M174.5 183.5c-6.342.166-12.675 0-19-.5-2.667-2.333-2.667-4.667 0-7 6.325-.5 12.658-.666 19-.5h3v-9h14v54h-14c.167-12.338 0-24.671-.5-37-.977-1.274-1.811-1.274-2.5 0Z"/><path style="opacity:1" fill="#a5a5a5" d="M181.5 201.5a12.93 12.93 0 0 1 5 .5c1.313 3.692-.02 5.359-4 5-2.135-1.556-2.468-3.389-1-5.5Z"/></svg>