<svg xmlns="http://www.w3.org/2000/svg" width="223" height="381" style="shape-rendering:geometricPrecision;text-rendering:geometricPrecision;image-rendering:optimizeQuality;fill-rule:evenodd;clip-rule:evenodd"><path style="opacity:.98" d="M38.5 3.5c48.335-.167 96.668 0 145 .5 17.645 3.646 28.812 14.146 33.5 31.5.667 103 .667 206 0 309-4.609 16.276-15.109 26.443-31.5 30.5-50 .667-100 .667-150 0-16.167-4.167-26.333-14.333-30.5-30.5-.667-103-.667-206 0-309 4.865-17.367 16.032-28.034 33.5-32Zm-1 355a29208.329 29208.329 0 0 1 116.5-30c.5-92.666.667-185.333.5-278l-118-29c.763-.768 1.763-1.268 3-1.5 47.333-.667 94.667-.667 142 0 12.652 3.317 19.485 11.484 20.5 24.5.667 97 .667 194 0 291-1.483 14.817-9.65 22.983-24.5 24.5a4420.29 4420.29 0 0 1-133 0c-2.42-.29-4.754-.79-7-1.5Z"/><path style="opacity:.986" fill="#fb141b" d="m36.5 21.5 118 29c.167 92.667 0 185.334-.5 278a29208.329 29208.329 0 0 0-116.5 30c-9.201-2.032-15.034-7.699-17.5-17-.667-101-.667-202 0-303 2.393-8.89 7.893-14.557 16.5-17Z"/><path style="opacity:1" fill="#fc3c1d" d="M146.5 62.5h-120v-17c25.002-.167 50.002 0 75 .5l44 11c.906 1.7 1.239 3.533 1 5.5Z"/><path style="opacity:1" fill="#fc531f" d="M26.5 62.5h120a5725.723 5725.723 0 0 1 1 145h-1v-133h-120v-12Z"/><path style="opacity:1" fill="#fc6320" d="M26.5 74.5h120v12h-120v-12Z"/><path style="opacity:1" fill="#fc7121" d="M26.5 86.5h120v7h-120v-7Z"/><path style="opacity:1" fill="#fd7e23" d="M26.5 93.5h120v8h-120v-8Z"/><path style="opacity:1" fill="#fd8a24" d="M26.5 101.5h120v8h-120v-8Z"/><path style="opacity:1" fill="#fd9626" d="M26.5 109.5h120v8h-120v-8Z"/><path style="opacity:1" fill="#fda328" d="M26.5 117.5h120v7h-120v-7Z"/><path style="opacity:1" fill="#fdaf2a" d="M26.5 124.5h120v8h-120v-8Z"/><path style="opacity:1" fill="#fdbc2c" d="M26.5 132.5h120v7h-120v-7Z"/><path style="opacity:1" fill="#fdc82e" d="M26.5 139.5h120v8h-120v-8Z"/><path style="opacity:1" fill="#fed530" d="M26.5 147.5h120v16h-6c.14-1.624-.527-2.79-2-3.5a243.732 243.732 0 0 0-15-3.5 2352.522 2352.522 0 0 0-97-1v-8Z"/><path style="opacity:1" fill="#fc1e1b" d="M123.5 156.5a243.732 243.732 0 0 1 15 3.5c1.473.71 2.14 1.876 2 3.5v46c-.077 1.25-.744 2.083-2 2.5a243.732 243.732 0 0 1-15 3.5v-38a399.712 399.712 0 0 0-16-2.5c-.881-.708-1.547-1.542-2-2.5-.214-1.644.12-3.144 1-4.5a93.195 93.195 0 0 1 17 1.5v-13Z"/><path style="opacity:1" fill="#fee232" d="M26.5 155.5c32.504-.332 64.838.002 97 1v7h-97v-8Z"/><path style="opacity:1" fill="#fc531f" d="M137.5 194.5v-23c-1.291-.237-2.291.096-3 1-2.662-1.768-5.662-2.435-9-2-.268-2.619.065-5.119 1-7.5a72.367 72.367 0 0 1 12-.5c.328 10.846-.006 21.513-1 32Z"/><path style="opacity:1" fill="#feed34" d="M26.5 163.5h97v6a93.195 93.195 0 0 0-17-1.5c-.88 1.356-1.214 2.856-1 4.5-26.106-1.977-52.44-2.644-79-2v-7Z"/><path style="opacity:1" fill="#fefb37" d="M26.5 170.5c26.56-.644 52.894.023 79 2 .453.958 1.119 1.792 2 2.5a399.712 399.712 0 0 1 16 2.5v25h-97v-32Z"/><path style="opacity:1" fill="#fef736" d="M140.5 163.5h6v46h-6v-46Z"/><path style="opacity:1" fill="#fec52e" d="M137.5 180.5h-11c0-1.333.667-2 2-2 4.333.333 6.333-1.667 6-6 .709-.904 1.709-1.237 3-1v9Z"/><path style="opacity:1" fill="#fd7a27" d="M128.5 178.5c-1.333 0-2 .667-2 2v14c-.989-5.475-1.322-11.142-1-17 1.291-.237 2.291.096 3 1Z"/><path style="opacity:1" fill="#feec35" d="M126.5 180.5h11v18l-2-1c-1.353-4.342-3.687-5.008-7-2h-2v-15Z"/><path style="opacity:1" fill="#fc221b" d="M135.5 197.5c-.628 5.097-2.961 6.097-7 3-1.315-1.699-1.315-3.365 0-5 3.313-3.008 5.647-2.342 7 2Z"/><path style="opacity:1" fill="#feec34" d="M26.5 202.5h97v7h-97v-7Z"/><path style="opacity:1" fill="#fc5f20" d="M126.5 195.5h2c-1.315 1.635-1.315 3.301 0 5 4.039 3.097 6.372 2.097 7-3l2 1v9h-11v-12Z"/><path style="opacity:1" fill="#fedf32" d="M26.5 209.5h97v6a243.732 243.732 0 0 0 15-3.5c1.256-.417 1.923-1.25 2-2.5h6v9h-120v-9Z"/><path style="opacity:1" fill="#fed22f" d="M26.5 218.5h120v8h-120v-8Z"/><path style="opacity:1" fill="#fdc62d" d="M26.5 226.5h120v8h-120v-8Z"/><path style="opacity:1" fill="#fdba2b" d="M26.5 234.5h120v7h-120v-7Z"/><path style="opacity:1" fill="#fdad29" d="M26.5 241.5h120v8h-120v-8Z"/><path style="opacity:1" fill="#fda128" d="M26.5 249.5h120v7h-120v-7Z"/><path style="opacity:1" fill="#fd9926" d="M26.5 256.5h120v5h-120v-5Z"/><path style="opacity:1" fill="#fd8e25" d="M26.5 261.5h120v8h-120v-8Z"/><path style="opacity:1" fill="#fd8123" d="M26.5 269.5h120v8h-120v-8Z"/><path style="opacity:1" fill="#fd7522" d="M26.5 277.5h120v7h-120v-7Z"/><path style="opacity:1" fill="#fc6820" d="M26.5 284.5h120v9h-120v-9Z"/><path style="opacity:1" fill="#fc5c1f" d="M26.5 293.5h120v7h-120v-7Z"/><path style="opacity:1" fill="#fc4b1e" d="M26.5 300.5h120v13h-120v-13Z"/><path style="opacity:1" fill="#fc381c" d="M146.5 207.5h1v115a89.36 89.36 0 0 0-13 2.5c-35.999.5-71.999.667-108 .5v-12h120v-106Z"/></svg>