<svg xmlns="http://www.w3.org/2000/svg" width="526" height="890" style="shape-rendering:geometricPrecision;text-rendering:geometricPrecision;image-rendering:optimizeQuality;fill-rule:evenodd;clip-rule:evenodd"><path fill="#fefffe" d="M-.5-.5h526v890H-.5V-.5Z" style="opacity:1"/><path d="M20.5 10.5h495v868h-495v-868Z" style="opacity:1"/><path fill="#fffc37" d="M53.5 44.5c142.832-1 285.832-1.333 429-1v802c-143.168.333-286.168 0-429-1a95233.625 95233.625 0 0 0 295-74c1-217.332 1.333-434.666 1-652a47976.24 47976.24 0 0 1-296-74Z" style="opacity:1"/><path fill="#fc111b" d="M53.5 44.5a47976.24 47976.24 0 0 0 296 74c.333 217.334 0 434.668-1 652a95233.625 95233.625 0 0 1-295 74c-1.333-132.998-2-266.332-2-400s.667-267.002 2-400Z" style="opacity:1"/><path fill="#fc321c" d="M331.5 131.5h-264v-31c47.668-.167 95.334 0 143 .5a5346.335 5346.335 0 0 1 121 30.5Z" style="opacity:1"/><path fill="#fc3f1d" d="M67.5 131.5h264c1.95 5.235 2.617 10.902 2 17h-266v-17Z" style="opacity:1"/><path fill="#fc4c1e" d="M67.5 148.5h266v20h-266v-20Z" style="opacity:1"/><path fill="#fc581f" d="M67.5 168.5h266v17h-266v-17Z" style="opacity:1"/><path fill="#fc6020" d="M67.5 185.5h266v8h-266v-8Z" style="opacity:1"/><path fill="#fc6620" d="M67.5 193.5h266v11h-266v-11Z" style="opacity:1"/><path fill="#fc6d21" d="M67.5 204.5h266v9h-266v-9Z" style="opacity:1"/><path fill="#fd7322" d="M67.5 213.5h266v8h-266v-8Z" style="opacity:1"/><path fill="#fd7922" d="M67.5 221.5h266v9h-266v-9Z" style="opacity:1"/><path fill="#fd8023" d="M67.5 230.5h266v10h-266v-10Z" style="opacity:1"/><path fill="#fd8624" d="M67.5 240.5h266v8h-266v-8Z" style="opacity:1"/><path fill="#fd8c25" d="M67.5 248.5h266v9h-266v-9Z" style="opacity:1"/><path fill="#fd9225" d="M67.5 257.5h266v9h-266v-9Z" style="opacity:1"/><path fill="#fd9826" d="M67.5 266.5h266v10h-266v-10Z" style="opacity:1"/><path fill="#fd9f27" d="M67.5 276.5h266v9h-266v-9Z" style="opacity:1"/><path fill="#fda528" d="M67.5 285.5h266v8h-266v-8Z" style="opacity:1"/><path fill="#fdab29" d="M67.5 293.5h266v9h-266v-9Z" style="opacity:1"/><path fill="#fdb22a" d="M67.5 302.5h266v9h-266v-9Z" style="opacity:1"/><path fill="#fdb92b" d="M67.5 311.5h266v9h-266v-9Z" style="opacity:1"/><path fill="#fdbe2c" d="M67.5 320.5h266v8h-266v-8Z" style="opacity:1"/><path fill="#fdc42d" d="M67.5 328.5h266v9h-266v-9Z" style="opacity:1"/><path fill="#fecb2e" d="M67.5 337.5h266v10h-266v-10Z" style="opacity:1"/><path fill="#fed12f" d="M67.5 347.5h266v8h-266v-8Z" style="opacity:1"/><path fill="#fed730" d="M67.5 355.5h266v10h-266v-10Z" style="opacity:1"/><path fill="#fedd31" d="M67.5 365.5h266v18h-11v-3a416.427 416.427 0 0 1-36.5-9 2.428 2.428 0 0 0-.5 2h-218v-8Z" style="opacity:1"/><path fill="#fc1b1b" d="M322.5 383.5v109a416.427 416.427 0 0 0-36.5 9 32.462 32.462 0 0 1-.5-8v-83a205.856 205.856 0 0 1-38-6.5c-.881-.708-1.547-1.542-2-2.5-2.091-5.066-.757-8.899 4-11.5a398.194 398.194 0 0 1 36 4.5v-21a2.428 2.428 0 0 1 .5-2 416.427 416.427 0 0 0 36.5 9v3Z" style="opacity:1"/><path fill="#fee333" d="M67.5 373.5h218v10h-218v-10Z" style="opacity:1"/><path fill="#fc4b1e" d="M317.5 398.5h-11a200.943 200.943 0 0 0-16-3v-7h27v10Z" style="opacity:1"/><path fill="#feee34" d="M67.5 383.5h218v11a398.194 398.194 0 0 0-36-4.5c-4.757 2.601-6.091 6.434-4 11.5a7966.61 7966.61 0 0 0-178-1v-17Z" style="opacity:1"/><path fill="#fd8223" d="M306.5 398.5h11v11h-9c1.599-4.072.932-7.739-2-11Z" style="opacity:1"/><path fill="#fefb37" d="M67.5 400.5a7966.61 7966.61 0 0 1 178 1c.453.958 1.119 1.792 2 2.5a205.856 205.856 0 0 0 38 6.5v65h-218v-75Z" style="opacity:1"/><path fill="#fef937" d="M322.5 383.5h11v92h-11v-92Z" style="opacity:1"/><path fill="#fdb52b" d="M308.5 409.5h9v11h-27v-8c4.66.667 9.326.833 14 .5 1.824-.66 3.157-1.827 4-3.5Z" style="opacity:1"/><path fill="#feda31" d="M290.5 420.5h27v8h-27v-8Z" style="opacity:1"/><path fill="#fef937" d="M290.5 428.5h27v16h-27v-16Z" style="opacity:1"/><path fill="#fed02f" d="M290.5 444.5h27v17h-3c-1.539-7.615-6.206-10.449-14-8.5a701.656 701.656 0 0 0-5 3.5h-5v-12Z" style="opacity:1"/><path fill="#fc1a1b" d="M314.5 461.5c-1.613 7.647-6.279 10.48-14 8.5-5.315-3.108-6.981-7.608-5-13.5a701.656 701.656 0 0 1 5-3.5c7.794-1.949 12.461.885 14 8.5Z" style="opacity:1"/><path fill="#fd8023" d="M290.5 456.5h5c-1.981 5.892-.315 10.392 5 13.5 7.721 1.98 12.387-.853 14-8.5h3v11h-27v-16Z" style="opacity:1"/><path fill="#fc5d1f" d="M290.5 472.5h27v8h-27v-8Z" style="opacity:1"/><path fill="#feec34" d="M67.5 475.5h218v18h-218v-18Z" style="opacity:1"/><path fill="#fee433" d="M322.5 475.5h11v28h-266v-10h218a32.462 32.462 0 0 0 .5 8 416.427 416.427 0 0 1 36.5-9v-17Z" style="opacity:1"/><path fill="#fedd31" d="M67.5 503.5h266v8h-266v-8Z" style="opacity:1"/><path fill="#fed730" d="M67.5 511.5h266v10h-266v-10Z" style="opacity:1"/><path fill="#fed12f" d="M67.5 521.5h266v9h-266v-9Z" style="opacity:1"/><path fill="#fecb2e" d="M67.5 530.5h266v10h-266v-10Z" style="opacity:1"/><path fill="#fdc42d" d="M67.5 540.5h266v9h-266v-9Z" style="opacity:1"/><path fill="#fdbe2c" d="M67.5 549.5h266v8h-266v-8Z" style="opacity:1"/><path fill="#fdb82b" d="M67.5 557.5h266v9h-266v-9Z" style="opacity:1"/><path fill="#fdb22a" d="M67.5 566.5h266v10h-266v-10Z" style="opacity:1"/><path fill="#fdab29" d="M67.5 576.5h266v9h-266v-9Z" style="opacity:1"/><path fill="#fda528" d="M67.5 585.5h266v8h-266v-8Z" style="opacity:1"/><path fill="#fd9f27" d="M67.5 593.5h266v9h-266v-9Z" style="opacity:1"/><path fill="#fd9926" d="M67.5 602.5h266v10h-266v-10Z" style="opacity:1"/><path fill="#fd9225" d="M67.5 612.5h266v10h-266v-10Z" style="opacity:1"/><path fill="#fd8c25" d="M67.5 622.5h266v9h-266v-9Z" style="opacity:1"/><path fill="#fd8624" d="M67.5 631.5h266v8h-266v-8Z" style="opacity:1"/><path fill="#fd8023" d="M67.5 639.5h266v10h-266v-10Z" style="opacity:1"/><path fill="#fd7922" d="M67.5 649.5h266v9h-266v-9Z" style="opacity:1"/><path fill="#fd7322" d="M67.5 658.5h266v9h-266v-9Z" style="opacity:1"/><path fill="#fc6d21" d="M67.5 667.5h266v8h-266v-8Z" style="opacity:1"/><path fill="#fc6620" d="M67.5 675.5h266v12h-266v-12Z" style="opacity:1"/><path fill="#fc6020" d="M67.5 687.5h266v8h-266v-8Z" style="opacity:1"/><path fill="#fc5a1f" d="M67.5 695.5h266v9h-266v-9Z" style="opacity:1"/><path fill="#fc541f" d="M67.5 704.5h266v9h-266v-9Z" style="opacity:1"/><path fill="#fc491e" d="M67.5 713.5h266v20h-266v-20Z" style="opacity:1"/><path fill="#fc3d1d" d="M67.5 733.5h266v17h-266v-17Z" style="opacity:1"/><path fill="#fc301c" d="M67.5 750.5h266c.458 2.894-.209 5.394-2 7.5a1961.953 1961.953 0 0 1-60 14.5h-204v-22Z" style="opacity:1"/><path fill="#fc241b" d="M67.5 772.5h204a3469.351 3469.351 0 0 1-77 19.5c-42.332.5-84.665.667-127 .5v-20Z" style="opacity:1"/></svg>